<svg enable-background="new 0 0 557.5 195.8" viewBox="0 0 557.5 195.8" xmlns="http://www.w3.org/2000/svg"><g fill="#ffde83"><path d="m72.5 160.8c0-6.9 0-8.1-.1-9.6s-.4-2.3-1.7-2.6c-.3-.1-1-.1-1.5-.1-.4 0-.7-.1-.7-.4s.3-.4.9-.4c2.1 0 4.6.1 5.7.1.9 0 3.4-.1 4.8-.1.6 0 .9.1.9.4s-.2.4-.6.4-.7 0-1.1.1c-1.1.2-1.4 1-1.5 2.6-.1 1.4-.1 2.7-.1 9.6v6.3c0 6.6 1.1 9.3 3.1 11.1 1.8 1.7 3.6 1.8 4.9 1.8 1.7 0 3.9-.6 5.4-2.4 2.2-2.5 2.3-6.6 2.3-11.2v-5.7c0-6.9 0-8.1-.1-9.6s-.4-2.3-1.7-2.6c-.3-.1-1-.1-1.4-.1s-.7-.1-.7-.4.3-.4.8-.4c2 0 4.5.1 4.5.1.5 0 3-.1 4.5-.1.6 0 .8.1.8.4s-.2.4-.7.4c-.4 0-.7 0-1.1.1-1.1.2-1.4 1-1.5 2.6-.1 1.4-.1 2.7-.1 9.6v4.8c0 5-.4 10.4-3.7 13.6-2.8 2.8-5.6 3.3-8.2 3.3-2.1 0-5.9-.1-8.7-3.1-2-2.1-3.5-5.4-3.5-12v-6.5z"/><path d="m84.7 182.7c-1.7 0-5.8 0-8.9-3.2-2.4-2.5-3.6-6.4-3.6-12.1v-6.6c0-6.9 0-8.1-.1-9.6-.1-1.6-.4-2.1-1.6-2.4-.3-.1-.9-.1-1.5-.1-.2 0-.9 0-.9-.6s.7-.6 1.1-.6c1.2 0 2.5 0 3.7.1.8 0 1.6.1 2.1.1.4 0 1.2 0 2-.1 1 0 2.1-.1 2.9-.1.4 0 1.1 0 1.1.6s-.6.6-.8.6c-.4 0-.6 0-1.1.1-.9.2-1.2.8-1.3 2.4-.1 1.4-.1 2.7-.1 9.6v6.3c0 7.2 1.4 9.5 3 11 1.7 1.6 3.4 1.8 4.8 1.8 1 0 3.4-.2 5.3-2.4 2.1-2.4 2.2-6.3 2.2-11.1v-5.6c0-6.9 0-8.1-.1-9.6-.1-1.6-.4-2.1-1.5-2.4-.3-.1-.9-.1-1.4-.1-.2 0-.8 0-.8-.6s.7-.6 1-.6c.8 0 2.2 0 4.4.1h.1 1.1c1 0 2.4-.1 3.4-.1.3 0 1 0 1 .6s-.6.6-.9.6c-.4 0-.6 0-1.1.1-.9.2-1.2.8-1.3 2.4-.1 1.4-.1 2.7-.1 9.6v4.8c0 5.2-.5 10.5-3.8 13.7-2.9 3-6 3.4-8.3 3.4m-15.3-34.8c-.7 0-.7.1-.7.2s0 .2.5.2 1.2 0 1.6.1c1.4.4 1.8 1.2 1.8 2.8.1 1.4.1 2.7.1 9.6v6.6c0 5.6 1.1 9.4 3.5 11.8 3 3.1 6.9 3.1 8.6 3.1 2.2 0 5.2-.4 8.1-3.2 3.2-3.2 3.7-8.4 3.7-13.5v-4.8c0-6.9 0-8.1.1-9.6s.4-2.5 1.6-2.8c.5-.1.7-.1 1.2-.1s.5-.1.5-.2 0-.2-.6-.2c-1 0-2.3.1-3.3.1-.6 0-1 0-1.1 0h-.1c-2.2-.1-3.6-.1-4.4-.1-.6 0-.6.1-.6.2s0 .2.5.2c.4 0 1.1 0 1.5.1 1.4.4 1.8 1.2 1.8 2.8.1 1.4.1 2.7.1 9.6v5.6c0 4.9-.2 8.9-2.3 11.3-2 2.3-4.5 2.5-5.6 2.5-1.4 0-3.3-.2-5-1.9-2.2-2.1-3.1-5.4-3.1-11.3v-6.3c0-6.9 0-8.1.1-9.6s.4-2.5 1.6-2.7c.5-.1.7-.1 1.2-.1.4 0 .4-.1.4-.2s0-.2-.7-.2c-.8 0-1.9 0-2.9.1-.8 0-1.5.1-2 .1s-1.3 0-2.1-.1c-1.6-.1-2.9-.1-4-.1"/><path d="m84.7 182.9c-1.8 0-5.9 0-9-3.2-2.5-2.5-3.6-6.4-3.6-12.3v-6.6c0-6.9 0-8.1-.1-9.6s-.4-2-1.4-2.2c-.3-.1-.8-.1-1.4-.1-.9 0-1.1-.4-1.1-.8 0-.8.9-.8 1.3-.8 1.2 0 2.5 0 3.7.1.8 0 1.6.1 2.1.1.4 0 1.2 0 2-.1 1 0 2.1-.1 2.9-.1.3 0 1.3 0 1.3.8 0 .3-.1.8-1 .8-.4 0-.6 0-1.1.1-.7.1-1.1.5-1.1 2.2-.1 1.4-.1 2.7-.1 9.6v6.3c0 7.1 1.4 9.4 2.9 10.8 1.6 1.5 3.3 1.7 4.6 1.7.9 0 3.3-.2 5.1-2.3 2-2.3 2.2-6.2 2.2-11v-5.7c0-6.9 0-8.1-.1-9.6s-.4-2-1.4-2.2c-.3-.1-.9-.1-1.3-.1-.9 0-1.1-.4-1.1-.8 0-.8.9-.8 1.2-.8.8 0 2.2 0 4.4.1h.1 1.1c1 0 2.4-.1 3.4-.1.3 0 1.2 0 1.2.8 0 .5-.4.8-1.1.8-.4 0-.6 0-1.1.1-.7.1-1.1.5-1.1 2.2-.1 1.4-.1 2.7-.1 9.6v4.8c0 5.2-.5 10.5-3.9 13.9-3 3.2-6 3.6-8.4 3.6m-15.7-34.8h.1c.5 0 1.3 0 1.6.2 1.5.4 1.9 1.4 2 2.9s.1 2.7.1 9.6v6.6c0 5.6 1.1 9.3 3.4 11.7 2.9 3 6.8 3 8.5 3 2.2 0 5.1-.4 7.9-3.1 3.2-3.1 3.6-8.3 3.6-13.3v-4.8c0-6.9 0-8.1.1-9.6.1-1.6.4-2.7 1.8-2.9.5-.1.8-.1 1.2-.1h.2c-.1 0-.2 0-.3 0-1 0-2.3.1-3.3.1-.6 0-1 0-1.2 0h-.1c-2.2-.1-3.6-.1-4.4-.1-.1 0-.2 0-.3 0 .3 0 1.2 0 1.7.2 1.5.4 1.9 1.4 2 2.9s.1 2.7.1 9.6v5.7c0 5-.2 8.9-2.4 11.5-1.4 1.6-3.5 2.6-5.7 2.6-1.5 0-3.4-.2-5.2-2-2.3-2.1-3.2-5.4-3.2-11.4v-6.3c0-6.9 0-8.1.1-9.6.1-1.6.4-2.7 1.8-2.9.5-.1.8-.1 1.2-.1h.1c-.1 0-.2 0-.3 0-.8 0-1.9 0-2.9.1-.8 0-1.6.1-2 .1-.5 0-1.3 0-2.1-.1-1.1 0-2.4-.1-3.6-.1-.3-.4-.4-.4-.5-.4"/><path d="m84.7 183.1c-1.8 0-6 0-9.2-3.3-2.5-2.6-3.7-6.5-3.7-12.4v-6.6c0-6.9 0-8.1-.1-9.5-.1-1.5-.4-1.8-1.2-2-.2-.1-.8-.1-1.4-.1-1.1 0-1.3-.7-1.3-1 0-.7.5-1 1.5-1 1.2 0 2.5 0 3.7.1.9 0 1.6.1 2.1.1.4 0 1 0 1.8-.1h.1c1 0 2.1-.1 2.9-.1 1 0 1.5.3 1.5 1 0 .2-.1 1-1.2 1-.4 0-.6 0-1 .1-.5.1-.9.3-1 2-.1 1.4-.1 2.7-.1 9.6v6.3c0 7 1.4 9.3 2.9 10.7 1.6 1.5 3.2 1.7 4.5 1.7.9 0 3.2-.2 5-2.2 2-2.3 2.1-6.1 2.1-10.8v-5.7c0-6.9 0-8.1-.1-9.5-.1-1.5-.4-1.8-1.2-2-.3-.1-.9-.1-1.3-.1-1.1 0-1.2-.7-1.2-1 0-.5.2-1 1.4-1 .8 0 2.3 0 4.4.1h.1 1 .1c.9 0 2.3-.1 3.4-.1 1.2 0 1.4.5 1.4 1 0 .4-.2 1-1.3 1-.4 0-.6 0-1 .1-.5.1-.9.3-1 2-.1 1.4-.1 2.7-.1 9.6v4.8c0 5.3-.5 10.6-3.9 14-3.1 2.9-6.2 3.3-8.6 3.3m-15.3-35.6c-.8 0-1.1.2-1.1.6 0 .1 0 .6.9.6.6 0 1.2.1 1.5.1 1.1.3 1.4.8 1.5 2.4.1 1.4.1 2.7.1 9.6v6.6c0 5.8 1.1 9.6 3.6 12.1 3.1 3.2 7.1 3.2 8.9 3.2 2.3 0 5.4-.4 8.3-3.3 3.3-3.3 3.8-8.5 3.8-13.7v-4.8c0-6.9 0-8.1.1-9.6.1-1.6.4-2.2 1.3-2.4.5-.1.7-.1 1.1-.1.9 0 .9-.4.9-.6 0-.4-.3-.6-1-.6-1 0-2.5.1-3.4.1h-.1c-.5 0-.9 0-1.1 0h-.1c-2.2-.1-3.6-.1-4.4-.1-.7 0-1 .2-1 .6 0 .1 0 .6.9.6.5 0 1.1 0 1.4.1 1.1.3 1.4.8 1.5 2.4.1 1.4.1 2.7.1 9.6v5.7c0 4.8-.2 8.7-2.2 11.1-1.9 2.1-4.3 2.4-5.3 2.4-1.4 0-3.1-.2-4.8-1.8-1.6-1.5-3-3.8-3-11v-6.3c0-6.9 0-8.1.1-9.6.1-1.6.4-2.2 1.3-2.4.5-.1.7-.1 1.1-.1.6 0 .8-.2.8-.6s-.3-.6-1.1-.6-1.9 0-2.9.1h-.1c-.8 0-1.4.1-1.8.1-.5 0-1.2 0-2.1-.1-1.2-.3-2.6-.3-3.7-.3m15.3 34.8c-1.7 0-5.6 0-8.6-3.1-2.3-2.4-3.4-6.2-3.4-11.8v-6.6c0-6.9 0-8.1-.1-9.6s-.4-2.4-1.8-2.8c-.4-.1-1.1-.1-1.6-.1h-.1v-.4h.3c1.2 0 2.5 0 3.6.1.9 0 1.6.1 2.1.1.4 0 1.2 0 2-.1 1 0 2.1-.1 2.9-.1h.3v.4h-.1c-.4 0-.7 0-1.2.1-1.3.3-1.5 1.2-1.6 2.8-.1 1.4-.1 2.7-.1 9.6v6.3c0 5.9.9 9.2 3.1 11.3 1.8 1.7 3.6 1.9 5.1 1.9 2.2 0 4.2-.9 5.6-2.5 2.2-2.5 2.3-6.4 2.3-11.3v-5.7c0-6.9 0-8.1-.1-9.6s-.4-2.4-1.8-2.8c-.4-.1-1.2-.1-1.5-.1h-.1v-.4h.3c.8 0 2.2 0 4.4.1h.1 1.1.1c1 0 2.3-.1 3.3-.1h.3v.4s-.1 0-.2 0c-.4 0-.7 0-1.2.1-1.3.3-1.5 1.2-1.6 2.8-.1 1.4-.1 2.7-.1 9.6v4.8c0 5.1-.4 10.3-3.7 13.5-2.8 2.8-5.8 3.2-8 3.2m-13.2-34c1.1.5 1.4 1.5 1.4 2.9.1 1.5.1 2.7.1 9.6v6.6c0 5.5 1.1 9.2 3.3 11.6 2.8 2.9 6.7 2.9 8.3 2.9 2.2 0 5-.4 7.8-3.1 3.1-3.1 3.6-8.2 3.6-13.2v-4.8c0-6.9 0-8.1.1-9.6.1-1.3.3-2.4 1.2-2.9-.5 0-1 0-1.5.1h-.1c-.5 0-.9 0-1.1 0h-.1c-.9 0-1.6-.1-2.3-.1 1.1.5 1.4 1.5 1.4 2.9.1 1.5.1 2.7.1 9.6v5.7c0 5-.2 9-2.4 11.6-1.5 1.7-3.6 2.6-5.9 2.6-1.5 0-3.4-.2-5.3-2-2.3-2.2-3.3-5.5-3.3-11.5v-6.3c0-6.9 0-8.1.1-9.6.1-1.3.3-2.4 1.2-2.9-.4 0-.7 0-1.1 0-.8 0-1.6.1-2 .1-.5 0-1.2 0-2.1-.1-.4 0-.9-.1-1.4-.1"/><path d="m127.2 176.6c.1 3 .5 3.9 1.2 4.2.6.2 1.3.3 1.8.3.4 0 .6.2.6.4 0 .3-.3.4-.8.4-2.2 0-3.9-.1-4.5-.1-.3 0-2 .1-3.7.1-.5 0-.8 0-.8-.4 0-.2.2-.4.6-.4.5 0 1.1 0 1.6-.2.9-.3 1-1.3 1.1-4.7l.3-22.8c0-.8.2-1.3.6-1.3s.9.6 1.5 1.3c.4.5 5.6 6.6 10.7 12.2 2.4 2.7 7 8.1 7.5 8.6h.2l-.4-17.1c0-2.3-.4-3-1.2-3.4-.5-.2-1.3-.2-1.8-.2-.4 0-.6-.2-.6-.4 0-.3.4-.4.9-.4 1.8 0 3.7.1 4.4.1.4 0 1.7-.1 3.4-.1.5 0 .8 0 .8.4 0 .2-.2.4-.6.4s-.6 0-1.1.1c-.9.3-1.2 1-1.3 3.2l-.4 24.2c0 .9-.3 1.2-.5 1.2-.6 0-1.1-.4-1.4-.8-2.2-2.3-6.5-7.1-10.1-11.1-3.8-4.2-7.4-8.8-8.1-9.5h-.1z"/><path d="m146.6 182.5c-.5 0-1-.3-1.6-.9-2.3-2.4-6.7-7.3-10.1-11.1-2.4-2.7-4.8-5.5-6.4-7.4-.7-.8-1.2-1.5-1.5-1.8l.4 15.3c.1 3.2.6 3.8 1.1 4 .6.2 1.3.3 1.7.3.5 0 .8.3.8.6 0 .6-.7.6-1 .6-1.5 0-2.7-.1-3.5-.1-.4 0-.8 0-1 0-.1 0-.3 0-.6 0-.7 0-1.9.1-3.2.1-.4 0-1 0-1-.6 0-.3.3-.6.7-.6.3 0 1 0 1.5-.2.8-.2.9-1.2.9-4.5l.3-22.8c0-.9.3-1.5.8-1.5s.9.5 1.5 1.2l.1.2c.1.1.3.4.7.8 1.6 1.9 5.9 6.8 10 11.5 1.3 1.5 3.3 3.8 4.9 5.7 1.1 1.3 2 2.3 2.4 2.7l-.3-16.8c0-2.4-.4-2.9-1.1-3.2-.5-.2-1.3-.2-1.7-.2-.6 0-.7-.4-.7-.6 0-.6.7-.6 1.1-.6 1.1 0 2.2 0 3.1.1h1.3.6c.6 0 1.6-.1 2.7-.1.3 0 1 0 1 .6 0 .3-.2.6-.8.6-.4 0-.6 0-1 .1-.8.3-1.1.7-1.1 3l-.4 24.2c.1 1-.3 1.4-.6 1.4m-20-21.7h.4l.1.1c.2.2.9 1 1.8 2.1 1.6 1.9 3.9 4.8 6.4 7.4 3.4 3.8 7.8 8.6 10.1 11.1.4.5.9.8 1.3.8.1 0 .4-.3.4-1l.4-24.2c0-2.2.4-3 1.4-3.3.5-.1.8-.1 1.1-.1.1 0 .4 0 .4-.2 0-.1 0-.2-.6-.2-1.1 0-2.1 0-2.7.1-.3 0-.5 0-.7 0-.3 0-.8 0-1.3 0-.9 0-2-.1-3.1-.1-.6 0-.7.1-.7.2s0 .2.4.2c.5 0 1.3 0 1.9.2 1 .4 1.3 1.2 1.3 3.6l.4 17.3h-.4l-.1-.1c-.2-.2-1.3-1.4-2.5-2.9-1.6-1.9-3.6-4.2-4.9-5.7-4.1-4.6-8.4-9.6-10-11.5-.4-.4-.6-.7-.7-.8l-.1-.2c-.5-.5-.9-1-1.2-1-.2 0-.4.4-.4 1.1l-.3 22.8c0 3.3-.1 4.5-1.2 4.8-.6.2-1.3.2-1.6.2-.2 0-.4.1-.4.2s0 .2.6.2c1.2 0 2.4-.1 3.1-.1h.6 1c.8 0 2 .1 3.5.1.6 0 .6-.1.6-.2s-.2-.2-.4-.2c-.5 0-1.2 0-1.9-.3-.9-.4-1.2-1.6-1.3-4.3z"/><path d="m146.6 182.7c-.6 0-1.2-.3-1.7-1-2.3-2.4-6.7-7.3-10.1-11.1-2.4-2.7-4.8-5.5-6.4-7.4-.4-.5-.8-1-1.1-1.4l.4 14.7c.1 3.1.5 3.6.9 3.8.6.2 1.2.2 1.7.2.7 0 1 .4 1 .8s-.2.8-1.2.8c-1.5 0-2.7-.1-3.5-.1-.4 0-.8 0-1 0-.1 0-.3 0-.6 0-.7 0-1.9.1-3.2.1-.4 0-1.2 0-1.2-.8 0-.5.4-.8.9-.8.6 0 1.1-.1 1.5-.2.6-.2.7-1 .8-4.3l.3-22.8c0-1 .4-1.7 1-1.7s1.1.6 1.7 1.3l.1.2c.1.1.4.4.8.9 1.7 2 5.8 6.8 9.9 11.3 1.3 1.5 3.3 3.8 4.9 5.7.8.9 1.5 1.8 2 2.3l-.3-16.2c0-2.5-.4-2.8-.9-3-.4-.2-1.2-.2-1.7-.2-.9 0-.9-.6-.9-.8 0-.8.9-.8 1.3-.8 1.1 0 2.2 0 3.1.1h1.3.6c.6 0 1.6-.1 2.8-.1.3 0 1.2 0 1.2.8 0 .4-.3.8-1 .8-.3 0-.6 0-.9.1-.6.2-.9.6-1 2.8l-.4 24.2c-.2 1.4-.7 1.8-1.1 1.8m-20.2-22.2h.7l.1.1c.3.3.8 1 1.8 2.1 1.6 1.9 3.9 4.8 6.4 7.4 3.4 3.8 7.9 8.7 10.1 11.1.4.5.8.7 1.1.7.1-.1.2-.3.2-.8l.4-24.2c0-2.1.3-3.1 1.5-3.5.2-.1.4-.1.6-.1-.9 0-1.7 0-2.3.1-.3 0-.5 0-.7 0-.3 0-.8 0-1.3 0-.7 0-1.6 0-2.4-.1.4 0 .7.1 1 .2 1.1.5 1.4 1.3 1.4 3.8l.4 17.5h-.7l-.1-.1c-.2-.3-1.3-1.5-2.6-3-1.6-1.9-3.6-4.2-4.9-5.7-4-4.5-8.1-9.3-9.9-11.3-.4-.5-.7-.8-.8-.9l-.1-.2c-.4-.4-.8-1-1.1-1 0 0-.2.3-.2.9l-.3 22.8c0 3.2-.1 4.7-1.3 5-.6.2-1.4.2-1.7.2h-.1.3c1.2 0 2.4-.1 3.1-.1h.6 1c.8 0 2 .1 3.5.1h.3s0 0-.1 0c-.5 0-1.3 0-2-.3-1-.4-1.4-1.6-1.4-4.5z"/><path d="m146.6 182.9c-.7 0-1.3-.3-1.9-1-2.3-2.4-6.7-7.3-10.1-11.1-2.5-2.7-4.8-5.6-6.4-7.4-.3-.4-.6-.7-.8-.9l.4 14.2c.1 2.2.3 3.4.8 3.6s1.2.2 1.6.2c.8 0 1.2.5 1.2 1 0 .4-.2 1-1.4 1-1.5 0-2.7-.1-3.5-.1-.4 0-.8 0-1 0-.1 0-.2 0-.4 0h-.2c-.7 0-1.9.1-3.2.1-.3 0-1.4 0-1.4-1 0-.6.5-1 1.1-1 .5 0 1.1-.1 1.4-.2.5-.1.6-1 .6-4.1l.3-22.8c0-1.1.5-1.9 1.2-1.9s1.2.6 1.8 1.3l.1.1c0 .1.2.2.3.4l.5.6c1.7 2 5.8 6.8 9.8 11.3 1.2 1.3 2.9 3.3 4.4 5.1l.7.9c.5.6 1 1.2 1.4 1.7l-.3-15.6c-.1-2.5-.4-2.7-.8-2.9s-1.2-.2-1.6-.2c-.8 0-1.1-.5-1.1-1 0-1 1.1-1 1.4-1 1.1 0 2.1 0 3.1.1h1.3.6c.7 0 1.6-.1 2.8-.1.9 0 1.4.3 1.4 1 0 .5-.4 1-1.2 1-.3 0-.5 0-.9.1-.5.2-.8.4-.8 2.6l-.4 24.2c.3 1.3-.3 1.8-.8 1.8m-19.6-21.5.3.4c.3.4.7.8 1.1 1.4 1.6 1.9 3.9 4.7 6.4 7.4 3.4 3.8 7.8 8.6 10.1 11.1.5.6 1 .9 1.6.9.4 0 .8-.4.8-1.4l.4-24.2c0-2.3.4-2.7 1.1-3 .4-.1.7-.1 1-.1.6 0 .8-.3.8-.6 0-.4-.3-.6-1-.6-1.1 0-2.1 0-2.7.1-.3 0-.5 0-.7 0-.3 0-.8 0-1.3 0-1 0-2-.1-3.1-.1-.6 0-1.1.1-1.1.6 0 .2.1.6.8.6.4 0 1.3 0 1.7.2.7.3 1 .8 1.1 3.2l.3 16.7-.3-.5c-.4-.5-1.1-1.2-1.8-2.1l-.8-.9c-1.5-1.8-3.2-3.8-4.4-5.1-4-4.5-8.1-9.2-9.8-11.3l-.5-.6c-.2-.2-.3-.3-.3-.4l-.1-.1c-.6-.7-1-1.2-1.5-1.2s-.8.6-.8 1.5l-.3 22.8c0 3.3-.2 4.2-.9 4.5-.4.1-.9.2-1.5.2-.4 0-.8.3-.8.6 0 .5.4.6 1 .6 1.3 0 2.5-.1 3.1-.1h.2.4 1c.8 0 2 .1 3.5.1.7 0 1-.2 1-.6 0-.3-.3-.6-.8-.6s-1.1 0-1.7-.3c-.5-.2-1-.8-1.1-4zm19.6 20.7c-.5 0-.9-.3-1.3-.8-2.2-2.4-6.7-7.3-10.1-11.1-2.5-2.8-5-5.8-6.4-7.4l-.1-.1c-.9-1-1.4-1.7-1.7-2l-.1-.1h-.4l.4 15.9c.1 2.8.4 4 1.3 4.3.7.3 1.4.3 1.9.3v.4c-.1 0-.2 0-.3 0-1.4 0-2.6-.1-3.4-.1h-.1c-.4 0-.8 0-1 0-.1 0-.3 0-.6 0h-.1c-.7 0-1.8.1-3 .1-.1 0-.1 0-.2 0h-.1l-.1-.4h.1c.3 0 1 0 1.6-.2 1.1-.3 1.2-1.7 1.2-4.9l.3-22.8c0-.6.1-1 .2-1.1l.1-.1h.1c.3 0 .6.4 1.2 1l1.2 1.4c1.9 2.2 5.8 6.7 9.7 11.1 1.2 1.3 2.8 3.3 4.3 5l.6.7c1.2 1.4 2.3 2.7 2.6 3l.1.1h.5l-.4-17.3c0-2.3-.3-3.2-1.3-3.6-.2-.1-.6-.2-1-.2v-.4c.9 0 1.7 0 2.4.1h1.3.7c.6 0 1.4-.1 2.3-.1v.4c-.2 0-.3.1-.5.1-1.2.4-1.4 1.3-1.4 3.4l-.4 24.2c.2.9 0 1.1-.1 1.2zm-20.4-21.7h1l.2.2c.3.3.8 1 1.7 2l.1.1c1.3 1.6 3.8 4.6 6.4 7.4 3.4 3.8 7.9 8.7 10.1 11.1.3.4.6.6.9.6 0-.1.1-.3.1-.6l.4-24.2c0-1.8.2-2.9 1.1-3.4-.4 0-.8 0-1.1 0s-.5 0-.7 0c-.3 0-.8 0-1.3 0-.3 0-.7 0-1 0 .9.5 1.2 1.5 1.2 3.8l.4 17.7h-1l-.2-.2c-.2-.3-1.4-1.6-2.6-3l-.6-.7c-1.5-1.7-3.2-3.7-4.3-5-3.9-4.3-7.8-8.9-9.7-11.1l-1.1-1.3c-.2-.3-.6-.7-.8-.9 0 .1-.1.3-.1.7l-.3 22.8c0 2.9-.1 4.4-1 5 .4 0 .8 0 1-.1h.1.6 1 .1c.4 0 .8 0 1.4.1-.9-.5-1.3-1.8-1.4-4.6z"/><path d="m177.8 163.9c0-5.8 0-6.9 0-8.1-.1-1.3-.4-1.8-1.2-2-.4-.1-.8-.2-1.3-.2-.4 0-.5-.1-.5-.4 0-.2.3-.3.8-.3 1.3 0 3.7.1 4.6.1s3.1-.1 4.5-.1c.4 0 .7.1.7.3 0 .4-.2.4-.6.4s-.6 0-1 .1c-.9.2-1.2.7-1.3 2.1-.1 1.2-.1 2.3-.1 8.1v6.8c0 3.7 0 6.8.2 8.4.1 1 .4 1.6 1.4 1.8.5.1 1.3.1 1.8.1.4 0 .5.2.5.4 0 .3-.3.4-.7.4-2.3 0-4.7-.1-5.6-.1-.8 0-3.2.1-4.5.1-.4 0-.7-.1-.7-.4 0-.2.1-.4.6-.4s.9 0 1.2-.1c.7-.2.9-.7 1-1.9.2-1.6.2-4.7.2-8.4z"/><path d="m185.7 182.1c-1.4 0-2.8-.1-3.9-.1-.7 0-1.3-.1-1.7-.1-.3 0-1 0-1.7.1-1 0-2.1.1-2.8.1-.8 0-.9-.4-.9-.6 0-.3.2-.6.7-.6s.9 0 1.2-.1c.6-.1.8-.5.9-1.7.2-1.6.2-4.7.2-8.3v-6.8c0-5.9 0-6.9 0-8.1-.1-1.3-.4-1.6-1.1-1.9-.3-.1-.7-.2-1.2-.2-.2 0-.7 0-.7-.6 0-.5.7-.5 1-.5h2.6 2s1 0 1.8 0c.9 0 1.9-.1 2.7-.1.7 0 .9.3.9.5 0 .6-.6.6-.7.6-.3 0-.6 0-1 .1-.8.2-1.1.6-1.2 1.9-.1 1.2-.1 2.3-.1 8.1v6.8c0 3.6 0 6.8.2 8.4.1 1 .3 1.5 1.2 1.6.4.1 1.2.1 1.7.1s.7.3.7.6c0 .4-.2.8-.8.8m-5.6-.6h1.7c1.1 0 2.5.1 3.9.1.1 0 .5 0 .5-.2 0-.1-.1-.2-.4-.2-.5 0-1.3 0-1.8-.1-1.1-.2-1.4-.9-1.5-2-.2-1.6-.2-4.8-.2-8.4v-6.8c0-5.9 0-6.9.1-8.1.1-1.3.3-2 1.5-2.3.4-.1.7-.1 1.1-.1.3 0 .4-.1.4-.3 0-.1-.2-.1-.5-.1-.7 0-1.8 0-2.7.1-.7 0-1.4 0-1.8 0-.5 0-1.2 0-2 0-.9 0-1.9-.1-2.6-.1-.5 0-.6.1-.6.1 0 .2 0 .3.4.3.5 0 1 .1 1.3.2.9.3 1.2.9 1.3 2.2v8.1 6.8c0 3.8 0 6.8-.2 8.4-.1 1.2-.3 1.8-1.2 2-.3.1-.7.1-1.3.1-.2 0-.4 0-.4.2 0 .1.2.2.5.2.8 0 1.9 0 2.8-.1.7.1 1.3 0 1.7 0"/><path d="m185.7 182.3c-1.4 0-2.8 0-3.9-.1-.7 0-1.3 0-1.7 0-.3 0-1 0-1.7.1-1 0-2.1.1-2.9.1-1 0-1.1-.6-1.1-.8 0-.4.3-.8.9-.8.5 0 .8 0 1.1-.1.4-.1.6-.3.7-1.5.2-1.6.2-4.7.2-8.3v-6.8c0-5.9 0-6.9 0-8.1-.1-1.3-.4-1.5-.9-1.7-.3-.1-.7-.2-1.1-.2-.8 0-1-.5-1-.8 0-.7.9-.7 1.2-.7.7 0 1.7 0 2.6.1h2s1 0 1.8 0c.9 0 1.9-.1 2.7-.1 1 0 1.1.4 1.1.7s-.1.8-.9.8c-.3 0-.5 0-.9.1-.6.1-.9.3-1 1.7-.1 1.2-.1 2.3-.1 8.1v6.8c0 3.6 0 6.8.2 8.4.1 1 .3 1.3 1.1 1.5.4.1 1.2.1 1.7.1.6 0 1 .4 1 .8-.1.2-.3.7-1.1.7m-5.6-1h1.7c1.1 0 2.5.1 3.9.1h.2c-.5 0-1.4 0-1.9-.1-1.4-.2-1.6-1.2-1.7-2.2-.2-1.7-.2-4.7-.2-8.4v-6.8c0-5.9 0-6.9.1-8.2.1-1.4.4-2.2 1.6-2.4.2-.1.4-.1.6-.1-.7 0-1.6 0-2.3.1-.7 0-1.4 0-1.8 0-.5 0-1.2 0-2 0s-1.6 0-2.3 0c.3 0 .6.1.8.2 1 .4 1.4 1 1.4 2.4v8.2 6.8c0 3.8 0 6.8-.2 8.4-.1 1-.3 1.9-1.3 2.2-.3.1-.8.1-1.3.1h-.1.2c.8 0 1.9 0 2.8-.1.8-.1 1.4-.2 1.8-.2"/><path d="m185.7 182.5c-1.4 0-2.8 0-3.9-.1h-.1c-.7 0-1.3 0-1.6 0s-1 0-1.7.1c-.9 0-2.1.1-2.9.1-1.1 0-1.2-.7-1.2-.9h-.3l.3-.1c0-.5.4-1 1.1-1 .5 0 .8 0 1.1-.1s.5-.2.6-1.4c.1-1.6.1-4.7.1-8.3v-6.8c0-5.8 0-6.9 0-8.1-.1-1.2-.4-1.3-.8-1.5-.3-.1-.6-.1-1.1-.1-.7 0-1.1-.4-1.1-1s.5-.9 1.4-.9c.7 0 1.7 0 2.6.1h.2 1.8s1 0 1.7 0h.1c1 0 2-.1 2.7-.1 1.2 0 1.3.6 1.3.9 0 .6-.4 1-1.1 1-.3 0-.5 0-.9.1-.5.1-.8.1-.8 1.5-.1 1.2-.1 2.3-.1 8.1v6.8c0 3.6 0 6.8.2 8.4.1 1 .3 1.2.9 1.3.4.1 1.2.1 1.7.1.7 0 1.1.5 1.1 1-.1.4-.5.9-1.3.9m-5.6-.6h1.7.1c1.1 0 2.5.1 3.9.1.6 0 .9-.3.9-.6s-.3-.6-.8-.6-1.3 0-1.7-.1c-.9-.2-1.1-.6-1.2-1.6-.2-1.6-.2-4.8-.2-8.4v-6.8c0-5.8 0-6.9.1-8.1.1-1.4.4-1.7 1.1-1.9.4-.1.6-.1 1-.1.5 0 .8-.2.8-.7s-.5-.5-.9-.5c-.7 0-1.7 0-2.7.1h-.1c-.7 0-1.3 0-1.7 0s-1.1 0-1.8 0h-.2c-.9 0-1.9 0-2.6 0s-1 .2-1 .5c0 .4.3.7.8.7s.9.1 1.2.2c.6.2 1 .6 1 1.8s0 2.3 0 8.1v6.8c0 3.6 0 6.8-.1 8.3-.1 1.2-.3 1.5-.9 1.7-.3.1-.7.1-1.2.1s-.7.3-.8.5l.7-.1h.1c.5 0 .9-.1 1.3-.1.9-.2 1.1-1.1 1.2-2 .2-1.6.2-4.6.2-8.4v-6.8c0-5.9 0-6.9 0-8.2-.1-1.3-.4-1.9-1.3-2.2-.2-.1-.5-.1-.8-.2v-.4h2.3s1.6 0 2.1 0h1.8 2.3v.4c-.2 0-.4.1-.6.1-1.1.2-1.4 1-1.5 2.3-.1 1.2-.1 2.3-.1 8.1v6.8c0 3.8 0 6.8.2 8.4.1.9.3 1.8 1.5 2 .5.1 1.3.1 1.9.1v.4c-.1 0-.1 0-.2 0-1.3 0-2.7 0-3.7-.1h-.2c-.7 0-1.3 0-1.7 0-.3 0-.9 0-1.6.1h-.1c-1 0-2.1.1-2.8.1-.1 0-.2 0-.2 0l-.7-.1c0 .2.2.5.9.5.8 0 1.9-.1 2.8-.1.5 0 1.1-.1 1.5-.1m-2.8-28.5c.7.4 1 1.1 1.1 2.3v8.2 6.8c0 3.8 0 6.8-.2 8.4-.1.8-.2 1.7-.9 2.1h1 .1c.7 0 1.3-.1 1.6-.1.4 0 1 0 1.7.1h.2 1.2c-.8-.4-1-1.3-1.1-2.1-.2-1.7-.2-4.7-.2-8.5v-6.8c0-5.9 0-6.9.1-8.2.1-1.1.3-1.9 1-2.3-.3 0-.6 0-.9 0-.7 0-1.4 0-1.8 0-.5 0-1.2 0-2 0-.3.1-.6.1-.9.1"/><path d="m210.3 156.6c-.8-2.1-1.3-2.5-2.6-2.8-.5-.1-1.1-.1-1.3-.1-.3 0-.4-.2-.4-.4 0-.3.4-.4.9-.4 1.8 0 3.8.1 5 .1.9 0 2.7-.1 4.4-.1.4 0 .8.1.8.4s-.2.4-.6.4c-.6 0-1.1 0-1.3.3-.2.2-.4.4-.4.8 0 .5.3 1.5.8 2.9l5.8 17.2h.1c1.5-4 5.9-16.4 6.8-18.9.2-.5.3-1.1.3-1.4 0-.4-.2-.5-.5-.7-.4-.1-.9-.2-1.4-.2-.3 0-.6-.1-.6-.4s.3-.4 1-.4c1.7 0 3.3.1 3.7.1.6 0 2.2-.1 3.3-.1.4 0 .7.1.7.4s-.2.4-.6.4-1.1 0-1.7.5c-.4.4-.9.9-1.8 3.4-1.4 3.6-2.3 5.7-4.2 10.4-2.2 5.6-3.8 9.8-4.6 11.8-.9 2.2-1.2 2.8-1.7 2.8s-.7-.5-1.4-2.3z"/><path d="m220.5 182.5c-.6 0-.9-.5-1.6-2.4l-8.7-23.5c-.8-2.1-1.3-2.4-2.4-2.7-.5-.1-1-.1-1.3-.1-.2 0-.6-.1-.6-.6s.7-.5 1.1-.5c1 0 2.1 0 3 .1h2 1.5c.8 0 1.9-.1 2.9-.1.9 0 1 .3 1 .5 0 .4-.3.6-.7.6s-1 0-1.2.2-.3.3-.3.6c0 .5.4 1.8.8 2.8l5.7 16.9c1.6-4.2 5.8-16.1 6.6-18.5.2-.6.3-1.1.3-1.3 0-.3-.1-.4-.4-.5-.4-.1-1.1-.2-1.3-.2-.5 0-.8-.2-.8-.6 0-.5.8-.5 1.2-.5 1.2 0 2.2 0 2.9.1h.8 1.2c.7 0 1.5-.1 2.1-.1s.9.2.9.5c0 .1-.1.6-.7.6h-.2c-.4 0-1 0-1.4.4-.4.3-.8.8-1.8 3.3-.9 2.3-1.6 4-2.5 6.2-.5 1.2-1 2.5-1.7 4.2-1 2.6-1.9 4.9-2.6 6.8-.9 2.2-1.5 4-2 5-.9 2.2-1.2 2.8-1.8 2.8m-13.6-29.5c-.6 0-.7.1-.7.2 0 .2 0 .2.2.2.3 0 .8 0 1.4.1 1.3.4 1.9.8 2.7 3l8.7 23.5c.6 1.7.9 2.2 1.2 2.2.4 0 .7-.7 1.5-2.7.4-1.1 1.1-2.8 2-5 .7-1.9 1.6-4.2 2.6-6.8.7-1.7 1.2-3 1.7-4.2.9-2.1 1.6-3.8 2.5-6.1.9-2.5 1.4-3.1 1.9-3.5s1.1-.5 1.6-.5h.2c.4 0 .4-.1.4-.2s-.2-.2-.5-.2c-.6 0-1.4 0-2.1.1-.5 0-.9 0-1.2 0-.1 0-.4 0-.8 0-.7 0-1.8-.1-2.9-.1-.4 0-.8 0-.8.2s.3.2.4.2c.3 0 .9 0 1.4.2.4.2.6.4.6.9 0 .4-.2 1.2-.3 1.5-.8 2.6-5.3 15.1-6.8 18.9v.1h-.4v-.1l-5.8-17.2c-.6-1.6-.8-2.5-.8-3 0-.4.1-.7.4-.9.3-.3.9-.3 1.4-.3.1 0 .4 0 .4-.2 0-.1-.2-.2-.6-.2-1 0-2.1 0-2.9.1-.6 0-1.1 0-1.5 0-.5 0-1.2 0-2 0-1.1-.2-2.1-.2-3.1-.2"/><path d="m220.4 182.8c-.8 0-1.1-.7-1.8-2.6l-8.7-23.5c-.7-2-1.2-2.3-2.3-2.6-.5-.1-1-.1-1.2-.1-.5 0-.8-.3-.8-.8 0-.8.9-.8 1.3-.8 1 0 2.1 0 3 .1h2 1.5c.9 0 1.9-.1 2.9-.1 1.1 0 1.2.5 1.2.8 0 .5-.4.8-.9.8-.2 0-.9 0-1.1.2-.1.1-.2.2-.2.5 0 .5.4 1.8.8 2.8l5.5 16.3c1.7-4.6 5.6-15.6 6.4-18 .2-.6.3-1.1.3-1.3s0-.2-.2-.3c-.3-.1-.7-.1-1.2-.1-.6 0-1-.3-1-.8 0-.8 1-.8 1.4-.8 1.2 0 2.2 0 2.9.1h.8 1.2c.7 0 1.5-.1 2.1-.1 1 0 1.1.5 1.1.8 0 .4-.3.8-1 .8h-.2c-.4 0-.9 0-1.3.4-.4.3-.8.8-1.7 3.2-.9 2.3-1.6 4-2.4 6.1-.5 1.2-1.1 2.6-1.7 4.3-1 2.5-1.9 4.8-2.6 6.6-.9 2.3-1.6 4-2 5.1-.9 2.2-1.3 3-2.1 3m-13.3-29.6c.2 0 .5.1.7.1 1.4.4 2 .9 2.8 3.1l8.7 23.5c.5 1.3.8 2.1 1 2.1.3 0 .9-1.5 1.3-2.5.4-1.1 1.1-2.8 2-5.1.7-1.9 1.6-4.1 2.6-6.6.7-1.7 1.2-3.1 1.7-4.3.9-2.1 1.6-3.8 2.4-6.1.9-2.4 1.4-3.1 1.9-3.6.4-.3.8-.5 1.2-.5-.5 0-1 0-1.4.1-.5 0-1 0-1.2 0-.1 0-.4 0-.8 0-.7 0-1.6-.1-2.7-.1.3 0 .6.1.9.2.4.2.7.4.7 1.1 0 .3-.1.8-.3 1.5-.9 2.6-5.3 14.9-6.8 18.9l-.1.3h-.7l-.1-.3-5.8-17.2c-.6-1.6-.8-2.5-.8-3s.2-.8.5-1.1c.2-.2.6-.3.9-.3-.9 0-1.8 0-2.5.1-.6 0-1.1 0-1.5 0-.5 0-1.2 0-2 0-.7-.3-1.6-.3-2.6-.3"/><path d="m220.5 183c-.9 0-1.3-.9-2-2.7l-8.7-23.5c-.7-2-1.1-2.2-2.2-2.5-.4-.1-.9-.1-1.2-.1-.6 0-1-.4-1-1 0-.9 1.1-.9 1.5-.9 1 0 2.1 0 3 .1h2 1.5c.9 0 1.9-.1 2.9-.1 1.3 0 1.4.7 1.4.9 0 .6-.5 1-1.1 1-.7 0-.9.1-1 .1-.1.1-.1.1-.1.3 0 .5.6 2.2.8 2.7l5.4 15.8c1.8-5 5.5-15.2 6.2-17.5.2-.7.3-1.1.3-1.2v-.1h-.1c-.2-.1-.7-.1-1.1-.1-.7 0-1.2-.4-1.2-1 0-.9 1.1-.9 1.6-.9 1.1 0 2.1 0 3 .1h.2.6s.6 0 1.1 0h.1c.7 0 1.5-.1 2.1-.1 1.2 0 1.3.7 1.3.9 0 .5-.3 1-1.1 1h-.2c-.4 0-.8 0-1.1.3-.4.3-.8.9-1.6 3.1-.8 2.1-1.4 3.7-2.2 5.5l-.3.7c-.5 1.2-1 2.5-1.7 4.1-1 2.5-1.9 4.8-2.6 6.6-.9 2.4-1.6 4.1-2 5.1-1.2 2.4-1.6 3.4-2.5 3.4m-13.6-30.4c-.6 0-1.1.1-1.1.6 0 .4.2.6.6.6.3 0 .8 0 1.3.1 1.2.3 1.7.6 2.4 2.7l8.7 23.5c.7 1.9 1 2.4 1.6 2.4s.9-.6 1.8-2.9c.4-1 1.1-2.7 2-5.1.7-1.9 1.6-4.1 2.6-6.6.7-1.6 1.2-3 1.7-4.1l.3-.7c.7-1.8 1.4-3.4 2.2-5.5.9-2.5 1.4-3 1.7-3.3.4-.4.9-.4 1.4-.4h.2c.7 0 .8-.4.8-.6 0-.4-.3-.6-.9-.6s-1.4 0-2.1.1h-.1c-.5 0-.8 0-1.1 0-.1 0-.3 0-.6 0h-.2c-.8 0-1.8-.1-2.9-.1-.6 0-1.2.1-1.2.6 0 .4.3.6.8.6s1 .1 1.3.2.4.2.4.5-.2 1-.3 1.3c-.8 2.3-4.6 13.2-6.4 18l-.2.5-.2-.5-5.5-16.3c-.4-1-.8-2.3-.8-2.8 0-.3.1-.5.3-.6.2-.2.8-.2 1.2-.2.5 0 .8-.2.8-.6s-.4-.6-1-.6c-1 0-2 0-2.9.1-.6 0-1.1 0-1.5 0-.5 0-1.2 0-2 0-1.1-.3-2.1-.3-3.1-.3m13.6 29.6c-.3 0-.6-.5-1.2-2.2l-8.7-23.5c-.8-2.1-1.3-2.6-2.7-3-.2-.1-.4-.1-.7-.1v-.4c.9 0 1.9 0 2.8.1h2 1.5c.8 0 1.6 0 2.5-.1v.4c-.4 0-.6.1-.8.3-.3.2-.4.5-.4.9 0 .5.2 1.4.8 3l5.9 17.4h.4l.1-.1c1.5-4 5.9-16.4 6.8-18.9.3-.8.3-1.3.3-1.5 0-.5-.2-.7-.6-.9-.2-.1-.5-.1-.8-.2v-.4c1 0 1.9 0 2.7.1h.8 1.2s1 0 1.5 0v.4c-.4.1-.8.2-1.1.5-.5.4-1 1.2-1.9 3.5-.8 2.2-1.5 3.8-2.3 5.8l-.3.2c-.5 1.2-1.1 2.6-1.7 4.3-1 2.5-1.9 4.8-2.6 6.6-.8 2-1.5 3.9-2 5.1-.9 2.1-1.2 2.7-1.5 2.7m-11.8-28.8c1 .4 1.5 1.1 2.2 2.9l8.7 23.5c.2.4.6 1.7.9 1.9.3-.2.8-1.7 1.1-2.4.5-1.2 1.3-3.2 2-5.1s1.6-4.1 2.6-6.6c.7-1.7 1.2-3.1 1.7-4.3l.1-.3c.8-2 1.5-3.6 2.3-5.8.9-2.4 1.4-3.1 2-3.6.1-.1.1-.1.2-.1-.1 0-.2 0-.3 0-.5 0-1 0-1.2 0-.1 0-.4 0-.8 0s-.9 0-1.4 0c.3.2.5.5.5 1 0 .3-.1.9-.3 1.6-.8 2.6-5.3 14.9-6.8 18.9l-.1.4h-.9l-.1-.4-5.8-17.2c-.6-1.7-.8-2.6-.8-3.1s.2-.9.5-1.2c-.5 0-1 0-1.4 0-.6 0-1.1 0-1.5 0-.6 0-1.3 0-2 0-.6-.1-1-.1-1.4-.1"/><path d="m258.3 163.9c0-5.8 0-6.9 0-8.1-.1-1.3-.4-1.7-1.5-2.1-.3-.1-.9-.1-1.4-.1-.4 0-.6-.1-.6-.4s.3-.4.8-.4c1.8 0 4 .1 5 .1h9.4s1.2-.2 1.5-.2c.2 0 .4-.2.6-.2s.2.2.2.4c0 .3-.2.7-.3 2.5 0 .4-.1 2.1-.2 2.5 0 .2-.1.6-.4.6-.2 0-.3-.2-.3-.5s0-.9-.2-1.4c-.3-.7-.5-1.2-2.3-1.4-.6-.1-4.7-.2-5.4-.2-.2 0-.2.1-.2.4v9.5c0 .2 0 .4.2.4.8 0 5.3 0 6.1-.1s1.3-.2 1.6-.6c.3-.3.4-.5.6-.5s.3.2.3.4-.1.9-.3 2.8c-.1.8-.2 2.3-.2 2.6s0 .9-.4.9c-.2 0-.3-.1-.3-.3 0-.4 0-.9-.1-1.4-.2-.8-.6-1.4-1.9-1.5-.6-.1-4.6-.2-5.4-.2-.2 0-.2.2-.2.4v3.1 5.7c.1 2.6 1.1 3.2 4.7 3.2.9 0 2.4 0 3.3-.5s1.3-1.3 1.5-2.8c.1-.4.2-.6.4-.6.3 0 .3.5.3.9 0 .9-.3 3.5-.5 4.2-.2 1-.6 1-1.8 1-2.6 0-4.7 0-6.4-.1-1.7 0-3-.1-4-.1-.4 0-1.1.1-2 .1-.8 0-1.7.1-2.4.1-.4 0-.7-.1-.7-.4 0-.2.1-.4.6-.4s.9 0 1.2-.1c.7-.2.9-.9 1-2 .2-1.6.2-4.7.2-8.2v-7z"/><path d="m270.8 182.1c-2.6 0-4.7 0-6.4-.1h-1.4c-1 0-1.9-.1-2.6-.1-.2 0-.4 0-.6 0-.4 0-.8 0-1.3 0-.8 0-1.7.1-2.4.1-.8 0-.9-.4-.9-.6 0-.3.2-.6.7-.6s.9 0 1.2-.1c.6-.1.8-.8.9-1.9.2-1.6.2-4.7.2-8.2v-6.8c0-5.9 0-6.9 0-8.1-.1-1.2-.3-1.6-1.4-1.9-.2-.1-.8-.1-1.3-.1-.6 0-.8-.3-.8-.6 0-.6.7-.6 1-.6 1 0 2.2 0 3.2.1h1.8 1.7 5.3 2.5c.5 0 .9-.1 1.2-.2h.2c.1 0 .1-.1.2-.1.1-.1.2-.1.4-.1s.4.1.4.6v.4c-.1.4-.2.9-.2 2.1v.7c0 .7-.1 1.5-.1 1.8-.1.3-.2.8-.6.8-.5 0-.5-.5-.5-.7 0-.3 0-.9-.2-1.3-.2-.6-.5-1.1-2.1-1.3-.6-.1-4.7-.2-5.4-.2 0 0-.1.1-.1.2v9.5.2h.1c3.3 0 5.5 0 6-.1.8-.1 1.3-.2 1.5-.5.1-.1.2-.2.2-.3.1-.2.3-.3.5-.3.3 0 .5.3.5.6 0 .2 0 .5-.1 1.4l-.1 1.5c-.1.7-.2 2.3-.2 2.5 0 .9-.3 1.1-.5 1.1-.3 0-.5-.2-.5-.5 0-.1 0-.3 0-.5 0-.3 0-.6-.1-.9-.2-.6-.5-1.2-1.8-1.3-.6-.1-4.5-.2-5.4-.2v.2 3.1 1.6 4.1c.1 2.4 1 3 4.5 3 .6 0 2.2 0 3.2-.5.8-.4 1.2-1.1 1.4-2.7.1-.3.1-.8.6-.8s.5.8.5 1.1c0 .9-.3 3.5-.5 4.3-.6 1.2-1.1 1.2-2.4 1.2m-10.4-.6c.7 0 1.6 0 2.6.1h1.4c1.7.1 3.7.1 6.4.1 1.3 0 1.5 0 1.7-.8s.5-3.4.5-4.2c0-.7-.1-.7-.1-.7-.1 0-.1 0-.2.4-.3 1.7-.7 2.5-1.6 3-.7.4-1.8.5-3.4.5-3.4 0-4.8-.5-4.9-3.4 0-.8 0-2.7 0-4.1 0-.6 0-1.2 0-1.6v-3.1c0-.5.2-.6.4-.6.9 0 4.8.1 5.5.2 1.5.2 1.9 1 2.1 1.6.1.3.1.7.1 1v.5c0 .1 0 .1.1.1s.2-.2.2-.7c0-.3.1-1.8.2-2.6l.1-1.5c.1-.8.1-1.2.1-1.3s-.1-.2-.1-.2-.1.1-.2.2-.1.2-.2.3c-.4.5-.9.6-1.8.6-.7.1-4.1.1-6.1.1-.2 0-.4-.1-.4-.6v-9.5c0-.4.2-.5.4-.5.6 0 4.8.1 5.5.2 1.7.2 2.1.7 2.4 1.5.2.6.2 1.4.2 1.5 0 .3 0 .3.1.3 0 0 .1-.1.2-.4s.1-1.2.2-1.8c0-.3 0-.6 0-.7.1-1.2.2-1.8.2-2.2 0-.1 0-.2 0-.3s0-.2 0-.2c-.1 0-.2 0-.2.1-.1 0-.2.1-.3.1s-.1 0-.2 0c-.3.1-.8.2-1.3.2-.2 0-1 0-2.5 0-1.7 0-3.8 0-5.3 0-.8 0-1.4 0-1.7 0-.4 0-1.1 0-1.8 0-1 0-2.2-.1-3.2-.1-.6 0-.6.1-.6.2 0 .2.2.2.4.2.5 0 1.1 0 1.4.1 1.2.4 1.5.9 1.6 2.2v8.1 6.8c0 3.5 0 6.6-.2 8.2-.1 1-.3 2-1.2 2.2-.3.1-.7.1-1.3.1-.1 0-.4 0-.4.2 0 .1.2.2.5.2.7 0 1.6 0 2.4-.1h1.3c.6.2.9.1 1 .1"/><path d="m270.8 182.4c-2.7 0-4.7 0-6.4-.1h-1.3c-1.1 0-1.9-.1-2.7-.1-.2 0-.4 0-.6 0-.4 0-.9 0-1.3 0-.8 0-1.7.1-2.4.1-1 0-1.1-.6-1.1-.8 0-.4.3-.8 1-.8.5 0 .8 0 1.1-.1.4-.1.6-.5.7-1.7.2-1.6.2-4.6.2-8.1v-6.8c0-5.9 0-6.9 0-8.1-.1-1.2-.3-1.4-1.2-1.7-.2-.1-.7-.1-1.3-.1-.7 0-1-.4-1-.8 0-.5.4-.8 1.2-.8 1 0 2.2 0 3.2.1h1.8 1.7 5.3 2.5c.4 0 .9-.1 1.2-.2h.2s.1 0 .2-.1.3-.1.5-.1c.1 0 .6 0 .6.8 0 .1 0 .2-.1.4-.1.3-.2.9-.2 2.1 0 .2 0 .4-.1.8 0 .7-.1 1.5-.1 1.8-.1.3-.2 1-.8 1-.4 0-.7-.3-.7-.9 0-.3 0-.9-.2-1.2-.2-.6-.4-1-2-1.2-.5-.1-4.1-.2-5.2-.2v9.5c3.3 0 5.4 0 5.9-.1.8-.1 1.2-.2 1.4-.4.1-.1.2-.2.2-.3.2-.2.3-.4.6-.4.4 0 .7.4.7.8 0 .2 0 .5-.1 1.3l-.2 1.5c-.1.8-.1 2.3-.1 2.5 0 1.1-.5 1.3-.8 1.3-.4 0-.7-.3-.7-.7 0-.1 0-.3 0-.4 0-.3 0-.6-.1-.9-.2-.6-.5-1-1.6-1.2-.6-.1-4-.2-5.2-.2v4.6 4.1c.1 2.2.6 2.8 4.3 2.8.5 0 2.2 0 3.1-.5.7-.4 1.1-1.1 1.3-2.5.1-.3.2-.9.8-.9.7 0 .7 1 .7 1.3 0 .9-.3 3.5-.5 4.3-.5 1.3-1.1 1.3-2.4 1.3m-10.4-1.1c.7 0 1.6 0 2.7.1h1.3c1.7.1 3.7.1 6.4.1 1.3 0 1.3 0 1.5-.7s.4-2.9.5-3.9c-.2 1.2-.6 2.1-1.6 2.6-.7.4-1.9.5-3.5.5-3.4 0-5-.5-5.1-3.6 0-.8 0-2.7 0-4.2v-4.6c0-.8.5-.8.6-.8.7 0 4.8.1 5.5.2 1.3.1 2 .7 2.3 1.8v.2c0-.6.1-1.4.1-1.9l.2-1.5c.1-.5.1-.8.1-1l-.1.1c-.4.5-1 .6-1.9.7-.7.1-4.1.1-6.1.1-.2 0-.6-.1-.6-.8v-9.5c0-.5.3-.8.6-.8.6 0 4.8.1 5.5.2 1.9.2 2.3.8 2.6 1.6.1.2.2.5.2.8 0-.4.1-.8.1-1.2 0-.3 0-.6.1-.8.1-1.2.2-1.8.2-2.2 0-.1 0-.1 0-.2-.1 0-.2.1-.3.1l-.2.1c-.3.1-.8.1-1.3.2-.2 0-1 0-2.5 0-1.7 0-3.8 0-5.3 0h-1.7c-.4 0-1.1 0-1.8 0-.8 0-1.8 0-2.6 0 .3 0 .6.1.7.1 1.3.4 1.7 1 1.8 2.4v8.2 6.8c0 3.5 0 6.6-.2 8.2-.1 1.1-.3 2.1-1.3 2.4-.3.1-.8.1-1.3.1h-.1.2c.7 0 1.6 0 2.4-.1h1.3c.2.2.5.2.6.2"/><path d="m270.8 182.5c-2.6 0-4.7 0-6.4-.1h-1.3c-1.1 0-2-.1-2.7-.1-.2 0-.4 0-.6 0h-.1c-.4 0-.8 0-1.3 0-.7 0-1.7.1-2.4.1-1 0-1.2-.6-1.3-.9h-.6l.6-.1c0-.5.4-1 1.1-1 .5 0 .8 0 1.1-.1s.5-.4.6-1.5c.2-1.6.2-4.6.2-8.1v-6.8c0-5.9 0-6.9 0-8.1-.1-1.1-.3-1.3-1.1-1.5-.1 0-.6-.1-1.2-.1-.8 0-1.2-.5-1.2-1 0-.4.2-.9 1.4-.9 1 0 2.2 0 3.2.1h.1 1.6 1.7 5.3 2.5c.4 0 .8-.1 1.1-.2l.2-.1h.1c.1-.1.3-.1.5-.1.4 0 .8.3.8 1 0 .1 0 .3-.1.4-.1.4-.2.9-.2 2.1 0 .2 0 .4-.1.8v.1c0 .7-.1 1.5-.1 1.8-.1.3-.2 1.1-1 1.1-.3 0-.9-.1-.9-1.1 0-.3 0-.8-.2-1.2-.2-.6-.4-.9-1.8-1.1-.5-.1-3.7-.2-5-.2v9.1c3.2 0 5.2 0 5.6-.1.7-.1 1.1-.1 1.3-.4.1-.1.2-.2.2-.3.2-.2.4-.5.8-.5.5 0 .9.4.9 1 0 .2 0 .5-.1 1.3l-.2 1.6c-.1.7-.1 2.3-.1 2.5 0 1.3-.7 1.5-.9 1.5-.5 0-.9-.4-.9-.9 0-.1 0-.2 0-.4v-.1c0-.3 0-.5-.1-.8-.1-.6-.4-.9-1.4-1-.5-.1-3.6-.1-5-.2v4.5 4.1c.1 2 .4 2.6 4.1 2.6.5 0 2.1 0 3-.4.6-.3 1-1 1.2-2.4.1-.3.2-1.1 1-1.1.6 0 .9.5.9 1.5 0 .9-.3 3.6-.5 4.4-.2 1.3-.9 1.3-2.3 1.3m-10.4-.6c.7 0 1.5 0 2.7.1h1.3c1.7.1 3.8.1 6.4.1 1.3 0 1.8 0 2.1-1.2.2-.8.5-3.4.5-4.3 0-.8-.2-1.1-.5-1.1-.4 0-.5.4-.6.8-.2 1.5-.6 2.3-1.4 2.7-1 .5-2.6.5-3.2.5-3.8 0-4.4-.7-4.5-3 0-.8 0-2.4 0-4.1v-4.8h.2c1.2 0 4.6.1 5.2.2 1.3.1 1.6.7 1.7 1.3.1.3.1.6.1.8v.1.4c0 .4.2.6.5.6.5 0 .6-.6.6-1.1 0-.3.1-1.8.1-2.5l.2-1.5c.1-.8.1-1.1.1-1.3 0-.4-.2-.6-.5-.6-.2 0-.3.1-.5.3-.1.1-.1.1-.3.3-.2.3-.6.4-1.5.5-.5.1-2.6.1-5.9.1h-.2v-9.8h.2c1 0 4.7.1 5.2.2 1.6.2 1.8.6 2.1 1.3.2.4.2 1 .2 1.3 0 .7.4.7.6.7l-.2-1.5c-.1-.3-.1-.5-.2-.7-.3-.8-.7-1.4-2.4-1.5-.6-.1-4.9-.2-5.5-.2-.2 0-.5.1-.5.6v9.5c0 .5.3.6.5.6 2 0 5.4 0 6.1-.1.8-.1 1.4-.2 1.8-.6.1-.1.1-.1.1-.1l.4-.4-.1.6c0 .2 0 .4-.1.8l-.2 1.7c-.1.5-.1 1.3-.1 1.9h-.4c0-.1 0-.1 0-.2-.3-1-.9-1.5-2.1-1.6-.7-.1-4.7-.2-5.5-.2-.2 0-.4.1-.4.6v4.7 4c.1 2.9 1.5 3.4 4.9 3.4 1.6 0 2.7-.2 3.4-.5.8-.4 1.3-1.2 1.5-2.5l.4.1c0 1.1-.3 3.2-.5 3.9-.2.8-.3.8-1.6.8-2.7 0-4.7 0-6.4-.1h-1.4c-1 0-1.9-.1-2.6-.1-.2 0-.4 0-.6 0-.4 0-.8 0-1.3 0-.8 0-1.7.1-2.4.1-.1 0-.1 0-.2 0l-.7-.1c0 .2.2.5.9.5s1.7 0 2.4-.1h1.3.1c.4-.2.6-.3.7-.3m0-.8c.7 0 1.6 0 2.6.1h1.4c1.6.1 3.7.1 6.4.1 1.1 0 1.1 0 1.3-.5.1-.4.2-1.4.3-2.3-.3.5-.6.9-1.2 1.2-.8.4-1.9.6-3.5.6-3.5 0-5.2-.6-5.3-3.8 0-.8 0-2.6 0-4v-.1-4.6c0-.9.7-1 .8-1 .7 0 4.8.1 5.5.2 1 .1 1.7.5 2.1 1.2 0-.3.1-.7.1-.9l.2-1.7c0-.1 0-.2 0-.3-.4.3-1 .4-1.8.5-.7.1-4.1.1-6.1.1-.1 0-.8 0-.8-1v-9.5c0-.7.4-.9.8-.9.6 0 4.8.1 5.5.2 1.8.2 2.3.8 2.7 1.6 0-.1 0-.1 0-.1v-.2c0-.2 0-.4 0-.5 0-1.1.1-1.7.2-2l-.2.1c-.3.1-.8.1-1.3.2-.2 0-1 0-2.5 0-1.7 0-3.8 0-5.3 0h-1.7c-.4 0-1.1 0-1.8 0-.4 0-.8 0-1.2 0 .8.4 1.2 1.1 1.2 2.3s0 2.3 0 8.2v6.8c0 3.5 0 6.6-.2 8.2-.1.9-.2 1.8-.9 2.3h.6 1.3c.4-.4.7-.5.8-.5m-4.8-28.5c-1 0-1 .4-1 .6 0 .3.2.6.8.6.5 0 1 0 1.3.1 1 .3 1.3.6 1.3 1.9v8.1 6.8c0 3.5 0 6.5-.2 8.2-.1 1.1-.3 1.7-.9 1.8-.3.1-.7.1-1.2.1s-.7.3-.8.5l.6-.1h.1c.5 0 .9 0 1.3-.1.9-.2 1.1-1.2 1.2-2.2.2-1.6.2-4.7.2-8.2v-6.8c0-5.9 0-6.9 0-8.2-.1-1.4-.5-1.9-1.6-2.3-.1-.1-.4-.1-.7-.1v-.4c.9 0 1.8 0 2.6.1h1.8 1.7 5.3 2.5c.5 0 .9-.1 1.2-.2h.3c.1 0 .2-.1.2-.1l.3-.1v.3.2c-.1.3-.2.9-.2 2.2v.5.2c0 .4-.1.8-.1 1.2l-.1 1.5c.3-.1.4-.4.5-.8.1-.3.1-1.1.1-1.7v-.1c0-.3 0-.6.1-.8 0-1.2.2-1.7.2-2.1 0-.2.1-.3.1-.4 0-.5-.3-.6-.4-.6s-.3.1-.4.1-.2.1-.2.1l-.2.1c-.3.1-.7.1-1.2.2-.2 0-1.1 0-2.5 0-1.7 0-3.8 0-5.3 0h-1.7c-.4 0-1 0-1.7 0h-.1c-1-.1-2.1-.1-3.2-.1"/><path d="m299.9 163.9c0-5.8 0-6.9 0-8.1-.1-1.3-.4-1.7-1.5-2.1-.3-.1-.9-.1-1.4-.1-.4 0-.6-.1-.6-.4s.3-.4.8-.4c1.8 0 4 .1 4.7.1 1.2 0 4.3-.1 5.4-.1 2.2 0 4.7.2 6.6 1.6 1 .8 2.4 2.7 2.4 5.3 0 2.8-1.4 5.4-4.8 8.5 3.1 4.3 5.5 7.8 7.6 10.2 1.9 2.2 3.2 2.4 3.7 2.5.4.1.6.1.8.1s.4.2.4.4c0 .3-.2.4-.7.4h-3.3c-1.9 0-2.9-.2-3.8-.8-1.5-.9-2.8-2.7-4.7-5.7-1.4-2.1-2.8-4.7-3.3-5.2-.2-.2-.4-.3-.6-.3l-3.1-.1c-.2 0-.3.1-.3.3v.5c0 3.6 0 6.6.2 8.2.1 1.1.3 1.9 1.3 2 .5.1 1.3.1 1.7.1.3 0 .4.2.4.4 0 .3-.3.4-.7.4-2 0-4.9-.1-5.4-.1-.7 0-2.9.1-4.3.1-.4 0-.7-.1-.7-.4 0-.2.1-.4.6-.4s.9 0 1.2-.1c.7-.2.9-.9 1-2 .2-1.6.2-4.7.2-8.2v-6.6zm4.4 3c0 .4.1.5.3.7.8.3 1.8.4 2.6.4 1.4 0 1.8-.1 2.4-.6 1.1-.9 2.2-2.5 2.2-5.7 0-5.4-3.2-6.8-5.3-6.8-.9 0-1.7 0-2.1.1-.2.1-.3.2-.3.5v11.4z"/><path d="m323.4 182.1h-3.3c-1.9 0-2.9-.2-3.9-.8-1.5-.8-2.7-2.5-4.8-5.7-.8-1.2-1.6-2.5-2.2-3.5-.5-.8-.9-1.5-1.1-1.7-.1-.2-.3-.2-.5-.2l-3.1-.1s-.1 0-.1.1v.5c0 2.9 0 6.4.2 8.2.1 1.2.3 1.7 1.2 1.9.5.1 1.2.1 1.7.1.4 0 .6.3.6.6 0 .1-.1.6-.9.6-1.3 0-3.1-.1-4.2-.1-.6 0-1 0-1.2 0-.3 0-.8 0-1.4.1-.9 0-2 .1-2.8.1s-.8-.4-.8-.6c0-.3.2-.6.7-.6s.9 0 1.2-.1c.6-.2.8-.8.9-1.9.2-1.6.2-4.7.2-8.2v-6.8c0-5.9 0-6.9 0-8.1-.1-1.2-.3-1.6-1.4-1.9-.2-.1-.8-.1-1.3-.1-.6 0-.8-.3-.8-.6 0-.6.7-.6 1-.6 1.1 0 2.4 0 3.4.1h1.4c.6 0 1.7 0 2.8-.1h2.6c2.1 0 4.7.2 6.7 1.7.9.7 2.5 2.7 2.5 5.4 0 2.9-1.4 5.4-4.7 8.5l.3.4c2.9 4.1 5.2 7.4 7.2 9.7 1.8 2 2.9 2.3 3.5 2.5h.1c.3.1.5.1.8.1.4 0 .6.3.6.6-.2.5-.8.5-1.1.5m-15.7-12.4c.2 0 .5 0 .8.3.2.3.6.9 1.1 1.8.6 1.1 1.4 2.3 2.2 3.5 2 3.1 3.3 4.8 4.7 5.6.9.5 1.9.7 3.7.7h3.3c.5 0 .5-.1.5-.2s-.1-.2-.3-.2c-.3 0-.5 0-.9-.1h-.1c-.6-.1-1.8-.4-3.7-2.6-2-2.3-4.3-5.6-7.3-9.7l-.4-.6.1-.1c3.3-3.1 4.7-5.6 4.7-8.4 0-2.6-1.5-4.5-2.4-5.1-1.9-1.4-4.4-1.6-6.5-1.6-.5 0-1.5 0-2.6 0s-2.2 0-2.8 0c-.3 0-.8 0-1.4 0-1 0-2.2-.1-3.3-.1-.6 0-.6.1-.6.2 0 .2.2.2.4.2.5 0 1.1 0 1.4.1 1.2.4 1.5.9 1.6 2.2v8.1 6.8c0 3.5 0 6.6-.2 8.2-.1 1-.3 2-1.2 2.2-.3.1-.7.1-1.3.1-.1 0-.4 0-.4.2 0 .1.2.2.5.2.8 0 1.9 0 2.8-.1.6 0 1.2-.1 1.4-.1h1.2c1.1 0 2.9.1 4.2.1.1 0 .5 0 .5-.2 0-.1-.1-.2-.2-.2-.5 0-1.2-.1-1.7-.1-1.2-.2-1.4-1-1.5-2.2-.2-1.8-.2-5.3-.2-8.2v-.5c0-.3.2-.5.5-.5zm-.4-1.6c-.6 0-1.8-.1-2.7-.4-.3-.2-.4-.4-.4-.9v-11.3c0-.3.1-.6.4-.7.4-.1 1.1-.1 2.1-.1 2.5 0 5.5 1.8 5.5 7 0 3.3-1.3 5-2.3 5.8-.7.5-1.2.6-2.6.6m-.6-13.1c-.9 0-1.7.1-2 .1-.1 0-.2.1-.2.4v11.4c0 .4.1.4.2.5.8.3 1.9.3 2.5.3 1.4 0 1.8-.1 2.3-.6 1-.8 2.2-2.4 2.2-5.6.1-4.8-2.7-6.5-5-6.5"/><path d="m323.4 182.3h-3.3c-1.9 0-3-.2-4-.8-1.5-.9-2.8-2.5-4.8-5.8-.8-1.2-1.6-2.5-2.2-3.5-.5-.8-.9-1.5-1.1-1.7-.1-.1-.1-.1-.3-.1l-3-.1v.5c0 3 0 6.4.2 8.1.1 1.2.3 1.6 1 1.7.5.1 1.2.1 1.6.1.5 0 .8.4.8.8s-.3.8-1.1.8c-1.3 0-3.1-.1-4.2-.1-.6 0-1 0-1.2 0-.3 0-.8 0-1.4 0-.9 0-2 .1-2.8.1-1 0-1.1-.6-1.1-.8 0-.4.3-.8.9-.8.5 0 .8 0 1.1-.1.4-.1.6-.5.7-1.7.2-1.6.2-4.6.2-8.1v-6.8c0-5.8 0-6.9 0-8.1-.1-1.2-.3-1.4-1.2-1.7-.2-.1-.7-.1-1.3-.1-.7 0-1-.4-1-.8 0-.5.4-.8 1.2-.8 1.1 0 2.4 0 3.4.1h1.4c.6 0 1.7 0 2.8-.1h2.6c2.1 0 4.8.2 6.8 1.7 1 .8 2.6 2.8 2.6 5.6 0 2.9-1.4 5.5-4.7 8.6l.2.2c2.9 4.1 5.2 7.4 7.2 9.7 1.7 2 2.9 2.3 3.4 2.4h.1c.3.1.5.1.7.1.5 0 .8.4.8.8.1.2-.1.7-1 .7m-15.7-12.8c.3 0 .6 0 .9.4.2.3.6.9 1.1 1.8.6 1 1.4 2.3 2.2 3.5 2 3.1 3.2 4.7 4.6 5.5.8.5 1.6.7 3.6.7h3.3.3c-.4 0-.6 0-1-.1-.7-.2-2-.5-3.9-2.7-2-2.3-4.3-5.6-7.2-9.7l-.6-.8.3-.2c3.3-3 4.7-5.5 4.7-8.2 0-2.5-1.5-4.4-2.3-5-1.8-1.4-4.3-1.6-6.3-1.6-.5 0-1.5 0-2.6 0s-2.2.1-2.8.1c-.3 0-.8 0-1.4 0-.8 0-1.8-.1-2.8-.1.3 0 .6.1.7.1 1.3.4 1.7 1 1.8 2.4v8.2 6.8c0 3.5 0 6.6-.2 8.2-.1 1.1-.3 2.1-1.3 2.4-.4.1-.8.1-1.3.1h-.1.2c.8 0 1.9 0 2.8-.1h1.5 1.2c1.1 0 2.9.1 4.2.1.3 0 .3-.1.3-.1-.5 0-1.3 0-1.8-.1-1.4-.2-1.6-1.4-1.7-2.4-.2-1.8-.2-5.2-.2-8.2v-.5c0-.4.3-.7.7-.7zm-.4-1.2c-.6 0-1.9-.1-2.8-.4-.5-.3-.6-.6-.6-1.1v-11.3c0-.3.1-.7.6-.9.6-.1 1.7-.2 2.2-.2 2.6 0 5.7 1.9 5.7 7.2 0 3.4-1.3 5.1-2.4 6-.7.6-1.3.7-2.7.7m-2.6-13v.2 11.4c0 .3 0 .3.1.3.7.3 1.8.3 2.4.3 1.3 0 1.7-.1 2.2-.5 1-.8 2.1-2.3 2.1-5.4 0-4.7-2.6-6.4-4.9-6.4-.8 0-1.6 0-1.9.1"/><path d="m323.4 182.5h-3.3c-2 0-3-.2-4.1-.8-1.5-.9-2.8-2.6-4.9-5.8-.8-1.2-1.6-2.5-2.2-3.5-.5-.8-.9-1.5-1.1-1.7 0 0 0 0-.1 0l-2.8-.1v.3c0 3 0 6.4.2 8.1.1 1.2.3 1.4.8 1.5s1.2.1 1.6.1c.6 0 1 .5 1 1s-.3 1-1.3 1c-1.3 0-3-.1-4.2-.1h-.1c-.5 0-.9 0-1.1 0-.3 0-.8 0-1.4.1h-.1c-.9 0-2 .1-2.8.1-1.1 0-1.2-.6-1.3-.9l-.5-.1.5-.1c0-.5.4-.9 1.1-.9.5 0 .8 0 1.1-.1s.5-.4.6-1.5c.2-1.6.2-4.6.2-8.1v-6.8c0-5.8 0-6.9 0-8.1-.1-1.1-.3-1.3-1.1-1.5-.2-.1-.6-.1-1.2-.1-.8 0-1.2-.5-1.2-1 0-.4.2-1 1.4-1 1.1 0 2.3 0 3.4.1h.2 1.1c.6 0 1.8 0 2.8-.1h2.6c2.1 0 4.9.2 6.9 1.8 1 .8 2.7 2.9 2.7 5.7 0 2.9-1.4 5.5-4.6 8.6l.1.2c2.9 4.1 5.1 7.3 7.1 9.5 1.7 1.9 2.8 2.2 3.3 2.3h.1c.3.1.4.1.7.1.6 0 1 .5 1 1 .2.1.1.8-1.1.8m-15.7-12.3c.2 0 .3 0 .4.2.2.3.6.9 1.1 1.7.6 1 1.4 2.4 2.2 3.5 2.1 3.2 3.3 4.9 4.8 5.7 1 .6 2 .8 3.9.8h3.3c.9 0 .9-.5.9-.6v-.1l-.5.2c-.1 0-.2.1-.4.1h-3.3c-2 0-2.9-.3-3.7-.7-1.4-.8-2.6-2.4-4.7-5.6-.7-1.1-1.5-2.3-2.2-3.5l-.1-.1c-.5-.8-.8-1.4-1-1.6-.3-.3-.5-.3-.8-.3l-3.1-.1c-.3 0-.5.2-.5.5v.5c0 3 0 6.4.2 8.2.1.9.2 2 1.5 2.2.5.1 1.2.1 1.8.1v.2l.1.1c-.1.1-.2.1-.4.1-1.2 0-2.8-.1-4-.1h-.2c-.6 0-1 0-1.2 0s-.7 0-1.2 0h-.4c-.9 0-1.9.1-2.7.1-.1 0-.2 0-.2 0l-.7-.1c0 .2.2.5.9.5.8 0 1.9 0 2.7-.1h.1 1.4 1.1.1c1.1 0 2.8.1 4.1.1.6 0 .9-.2.9-.6 0-.3-.2-.6-.6-.6-.5 0-1.2 0-1.7-.1-.9-.1-1-.7-1.2-1.8-.2-1.7-.2-5.1-.2-8.2v-.7zm-10.5-17.6c-1 0-1 .4-1 .6 0 .3.2.6.8.6s1.1.1 1.3.1c1 .3 1.3.6 1.3 1.9v8.1 6.8c0 3.5 0 6.5-.2 8.2-.1 1.1-.3 1.7-.9 1.8-.3.1-.7.1-1.2.1s-.7.3-.8.5l.6-.1h.1c.5 0 .9-.1 1.3-.1.9-.2 1.1-1.2 1.2-2.2.2-1.6.2-4.7.2-8.2v-6.8c0-5.9 0-6.9 0-8.1-.1-1.4-.4-1.9-1.6-2.3-.1-.1-.4-.1-.7-.1v-.4c.9 0 1.9 0 2.6.1h.1 1.4c.6 0 1.7 0 2.8-.1h.1 2.4c2 0 4.6.2 6.4 1.6.8.6 2.4 2.5 2.4 5.1 0 2.8-1.4 5.3-4.7 8.3l-.1.1.5.7c2.8 4 5.2 7.4 7.2 9.7 1.9 2.1 3.1 2.4 3.8 2.6.4.1.6.1 1 .1h.5c-.1-.2-.3-.4-.6-.4s-.4 0-.8-.1h-.1c-.6-.1-1.7-.4-3.5-2.4-2-2.3-4.3-5.5-7.1-9.6l-.3-.5.1-.1c3.2-3 4.6-5.6 4.6-8.4 0-2.7-1.6-4.7-2.5-5.5-2-1.5-4.6-1.7-6.7-1.7-.5 0-1.5 0-2.6 0-1 0-2.2 0-2.8 0-.2 0-.6 0-1.1 0h-.3c-.8.1-2 .1-3.1.1m10.5 16.8c.3 0 .7.1 1.1.5.2.3.6.9 1.1 1.7l.1.1c.7 1.1 1.4 2.4 2.2 3.5 2 3.1 3.2 4.7 4.5 5.5.7.4 1.5.7 3.5.7h1.7c-.8-.3-1.8-.9-3.2-2.5-2-2.3-4.5-5.8-7.3-9.7l-.7-.9.4-.4c3.2-3 4.6-5.4 4.6-8.1 0-2.4-1.4-4.2-2.2-4.8-1.8-1.3-4.2-1.5-6.2-1.5-.5 0-1.4 0-2.4 0h-.1c-1.1 0-2.2 0-2.8 0-.3 0-.8 0-1.4 0h-.1c-.4 0-.8 0-1.2 0 .8.4 1.2 1.1 1.2 2.3s0 2.3 0 8.2v6.8c0 3.5 0 6.6-.2 8.2-.1.9-.2 1.8-.9 2.3h.9.4 1.2s.6 0 1.2 0h.2c.5 0 1.1 0 1.7.1-.9-.5-1-1.5-1.1-2.3-.2-1.8-.2-5.2-.2-8.2v-.5c0-.5.4-.9.9-.9zm-.4-.9c-.6 0-1.9-.1-2.8-.4-.6-.3-.7-.7-.7-1.2v-11.4c0-.2 0-.8.7-1.1.6-.2 1.7-.2 2.3-.2 2.7 0 5.9 1.9 5.9 7.4 0 3.4-1.3 5.2-2.5 6.2-.8.6-1.4.7-2.9.7m-.6-13.9c-.5 0-1.6 0-2.1.1-.4.1-.4.4-.4.7v11.4c0 .4.1.7.5.9.9.3 2.1.4 2.7.4 1.4 0 1.9-.1 2.6-.7 1.1-.9 2.3-2.6 2.3-5.9-.1-5.1-3.1-6.9-5.6-6.9m.6 13.1c-.5 0-1.7 0-2.5-.3-.2-.1-.2-.2-.2-.5v-11.4c0-.1 0-.2 0-.2v-.1h.1c.3-.1 1.1-.1 2-.1 2.3 0 5.1 1.7 5.1 6.6 0 3.1-1.2 4.7-2.2 5.5-.5.4-.9.5-2.3.5m-2.4-12.2v11.4.2c.7.2 1.9.3 2.4.3 1.3 0 1.6-.1 2.1-.5.9-.8 2-2.3 2-5.2 0-4.6-2.5-6.2-4.7-6.2-.8-.1-1.4-.1-1.8 0"/><path d="m344.1 181.4c-.6-.3-.7-.5-.7-1.3 0-2.1.2-4.5.2-5.1s.2-1 .4-1c.3 0 .4.4.4.6 0 .5.1 1.3.3 2 .8 2.9 3.3 3.8 5.5 3.8 3 0 4.8-2.2 4.8-4.9 0-1.7-.4-3.3-3.4-5.4l-2-1.4c-4.1-2.8-5.4-5.3-5.4-8.7 0-4.7 3.9-7.7 8.7-7.7 2.2 0 4 .4 4.9.6.3.1.5.2.5.5 0 .5-.1 1.6-.1 4.6 0 .8-.2 1.2-.4 1.2s-.4-.2-.4-.7c0-.4-.2-1.5-.9-2.5-.5-.7-1.6-1.8-3.9-1.8-2.5 0-4.7 1.5-4.7 4.1 0 1.7.6 3.1 3.7 5.1l1.4.9c4.6 2.9 6 5.8 6 9.3 0 2.8-.9 5.2-3.5 7.2-1.7 1.4-3.9 1.6-5.8 1.6s-4.1-.3-5.6-1"/><path d="m349.8 182.6c-2.5 0-4.4-.3-5.7-1-.6-.3-.8-.6-.8-1.5 0-2 .1-4.3.2-5v-.1c0-.7.2-1.2.6-1.2.2 0 .5.1.5.8 0 .5.1 1.3.3 1.9.9 3.4 4.3 3.7 5.3 3.7 2.7 0 4.6-1.9 4.6-4.7 0-1.5-.3-3.2-3.3-5.3l-2-1.4c-3.9-2.6-5.5-5.2-5.5-8.9 0-4.6 3.8-7.9 8.9-7.9 2.6 0 4.5.5 5 .6.3.1.6.2.6.7v.6c0 .7-.1 1.8-.1 4 0 .9-.2 1.4-.6 1.4-.2 0-.5-.1-.5-.9 0-.4-.2-1.5-.9-2.4-.6-.8-1.7-1.7-3.7-1.7-2.3 0-4.5 1.3-4.5 3.9 0 1.7.6 3 3.6 4.9l1.4.9c4.3 2.7 6.1 5.5 6.1 9.5 0 3.1-1.1 5.4-3.5 7.3-1.9 1.6-4.3 1.8-6 1.8m-5.7-8.5c-.1 0-.2.3-.2.8v.1c0 .7-.2 3-.2 5 0 .8.1.9.6 1.1 1.3.6 3.1 1 5.5 1 1.6 0 4-.2 5.7-1.5 2.3-1.9 3.4-4.1 3.4-7 0-3.8-1.8-6.5-5.9-9.1l-1.4-.9c-3.1-2-3.7-3.4-3.7-5.2 0-2.8 2.5-4.3 4.9-4.3 2.2 0 3.4 1 4 1.9.8 1 .9 2.3.9 2.6 0 .1 0 .5.2.5.1 0 .2-.2.2-1 0-2.2.1-3.3.1-4 0-.3 0-.5 0-.6s0-.2-.3-.3c-.5-.1-2.3-.6-4.9-.6-5 0-8.6 3.2-8.6 7.5 0 3.5 1.6 6 5.3 8.6l2 1.4c3.2 2.2 3.5 4 3.5 5.6 0 3-2 5.1-5 5.1-1.1 0-4.7-.3-5.7-3.9-.2-.6-.3-1.5-.3-2 .1-.8 0-.8-.1-.8"/><path d="m349.8 182.8c-2.5 0-4.5-.4-5.8-1-.7-.3-.9-.7-.9-1.7 0-1.9.1-4.1.2-4.9v-.2c0-1.3.6-1.4.8-1.4s.8.1.8 1c0 .4.1 1.2.3 1.9.8 3.3 4.1 3.5 5.1 3.5 2.6 0 4.4-1.8 4.4-4.5 0-1.5-.3-3.1-3.3-5.1l-2-1.4c-4-2.7-5.6-5.3-5.6-9.1 0-4.7 3.8-8.1 9.1-8.1 2.7 0 4.5.5 5 .6s.8.4.8.9v.6c0 .7-.1 1.8-.1 4 0 1.1-.3 1.6-.8 1.6-.2 0-.8-.1-.8-1.1 0-.3-.1-1.4-.8-2.3-.8-1.1-2-1.7-3.5-1.7-2.1 0-4.3 1.2-4.3 3.7 0 1.6.6 2.9 3.5 4.7l1.4.9c4.3 2.7 6.2 5.7 6.2 9.6 0 3.1-1.1 5.5-3.6 7.5-1.9 1.8-4.4 2-6.1 2m-5.7-7.9v.3c-.1.8-.2 3-.2 4.9 0 .7.1.8.4 1 1.2.6 3.1 1 5.5 1 1.6 0 3.9-.2 5.5-1.5 2.3-1.8 3.3-4 3.3-6.9 0-3.7-1.7-6.4-5.8-9l-1.4-.9c-3.2-2.1-3.8-3.5-3.8-5.4 0-3 2.6-4.5 5.1-4.5 2.3 0 3.5 1.1 4.2 2 .6.8.9 1.8 1 2.4v-.2c0-2.2.1-3.3.1-4 0-.3 0-.4 0-.6 0 0 0-.1-.2-.1-.5-.1-2.3-.6-4.8-.6-4.8 0-8.3 3.1-8.3 7.3 0 3.5 1.5 5.8 5.2 8.4l2 1.4c3.3 2.2 3.6 4.1 3.6 5.7 0 3.1-2.1 5.3-5.2 5.3-2.3 0-5.1-1.1-5.9-4.1-.2-.7-.3-1.4-.3-1.9"/><path d="m349.8 182.9c-2.5 0-4.5-.4-5.9-1.1-.8-.4-1-.8-1-1.8 0-1.8.1-3.9.2-4.8v-.3c0-1.4.8-1.5 1-1.5s.9.1.9 1.2c0 .4.1 1.2.3 1.8.8 3.1 4 3.4 4.9 3.4 2.5 0 4.2-1.7 4.2-4.3 0-1.5-.2-3-3.2-4.9l-2-1.4c-4-2.7-5.7-5.4-5.7-9.2 0-4.8 3.9-8.3 9.3-8.3 2.7 0 4.6.5 5.1.7.7.2.9.7.9 1.1v.6c0 .7-.1 1.9-.1 4 0 1.2-.3 1.8-1 1.8-.2 0-.9-.1-.9-1.3 0-.2-.1-1.3-.8-2.2-.7-1-1.9-1.6-3.4-1.6-2 0-4.1 1.1-4.1 3.5 0 1.6.5 2.7 3.4 4.6l1.4.9c4.3 2.7 6.3 5.8 6.3 9.8 0 3.2-1.2 5.6-3.7 7.6-1.8 1.6-4.4 1.7-6.1 1.7m-5.7-9.2c-.1 0-.6.1-.6 1.2v.3c-.1.9-.2 3-.2 4.8 0 .9.1 1.2.8 1.5 1.3.7 3.2 1 5.7 1 1.7 0 4.1-.2 5.9-1.6 2.4-2 3.5-4.3 3.5-7.4 0-3.9-1.9-6.8-6.1-9.5l-1.4-.9c-3-1.9-3.6-3.2-3.6-4.9 0-2.7 2.3-3.9 4.5-3.9 1.6 0 2.9.6 3.7 1.7.7.9.9 2.1.9 2.4 0 .6.2.9.6.9s.6-.5.6-1.4c0-2.1.1-3.3.1-4 0-.3 0-.5 0-.7 0-.3-.2-.6-.6-.7-.5-.1-2.4-.6-5-.6-5.2 0-9 3.3-9 7.9 0 3.7 1.6 6.3 5.5 8.9l2 1.4c3.1 2.1 3.3 3.7 3.3 5.2 0 2.8-1.8 4.7-4.6 4.7-1 0-4.4-.3-5.3-3.6-.2-.7-.3-1.5-.3-1.9.2-.6-.1-.8-.4-.8m5.7 8.5c-2.4 0-4.3-.3-5.5-1-.5-.2-.5-.3-.5-1.1 0-1.8.1-4 .2-4.8v-.3h.4c0 .5.2 1.2.3 1.8.8 2.9 3.5 4 5.7 4 3 0 5-2.1 5-5.1 0-1.6-.3-3.4-3.5-5.6l-2-1.4c-3.8-2.6-5.3-5-5.3-8.6 0-4.4 3.6-7.5 8.5-7.5 2.6 0 4.4.5 4.9.6.1 0 .3.1.3.3v.6c0 .7-.1 1.8-.1 4.1v.1.1h-.4c0-.3-.2-1.4-.9-2.3-.6-.9-1.8-1.9-4-1.9-2.5 0-4.9 1.5-4.9 4.3 0 1.8.6 3.2 3.8 5.2l1.4.9c4.1 2.6 5.9 5.3 5.9 9.1 0 3-1 5.1-3.4 7-2 1.3-4.3 1.5-5.9 1.5m-5.6-5.6c-.1 1-.1 2.3-.1 3.5 0 .6 0 .6.3.8 1.2.6 3 .9 5.4.9 1.6 0 3.8-.1 5.4-1.4 2.2-1.8 3.3-3.9 3.3-6.7 0-3.6-1.7-6.3-5.7-8.8l-1.4-.9c-3.3-2.1-3.9-3.6-3.9-5.6 0-3.1 2.7-4.7 5.3-4.7 2.4 0 3.7 1.1 4.3 2.1.3.4.5.8.6 1.1 0-1.5.1-2.3.1-2.8 0-.2 0-.4 0-.5-.5-.1-2.2-.6-4.8-.6-4.7 0-8.2 3-8.2 7.1 0 3.4 1.5 5.7 5.2 8.2l2 1.4c3.4 2.3 3.7 4.3 3.7 5.9 0 3.2-2.2 5.5-5.4 5.5-2.4 0-5.3-1.1-6.1-4.2 0-.2 0-.3 0-.3"/><path d="m386.2 163.9c0-5.8 0-6.9 0-8.1-.1-1.3-.4-1.8-1.2-2-.4-.1-.8-.2-1.3-.2-.4 0-.5-.1-.5-.4 0-.2.3-.3.8-.3 1.3 0 3.7.1 4.7.1.9 0 3.1-.1 4.4-.1.4 0 .7.1.7.3 0 .4-.2.4-.6.4s-.6 0-1 .1c-.9.2-1.2.7-1.3 2.1-.1 1.2-.1 2.3-.1 8.1v6.8c0 3.7 0 6.8.2 8.4.1 1 .4 1.6 1.4 1.8.5.1 1.3.1 1.8.1.4 0 .6.2.6.4 0 .3-.3.4-.7.4-2.3 0-4.7-.1-5.6-.1-.8 0-3.2.1-4.5.1-.4 0-.7-.1-.7-.4 0-.2.1-.4.6-.4s.9 0 1.2-.1c.7-.2.9-.7 1-1.9.2-1.6.2-4.7.2-8.4v-6.7z"/><path d="m394 182.1c-1.4 0-2.8-.1-3.9-.1-.7 0-1.3-.1-1.7-.1-.3 0-1 0-1.7.1-1 0-2.1.1-2.8.1-.8 0-.9-.4-.9-.6 0-.3.2-.6.7-.6s.9 0 1.2-.1c.6-.1.8-.5.9-1.7.2-1.6.2-4.7.2-8.3v-6.8c0-5.9 0-6.9 0-8.1-.1-1.3-.4-1.6-1.1-1.9-.3-.1-.7-.2-1.2-.2-.2 0-.7 0-.7-.6 0-.5.7-.5 1-.5h2.6 2s1 0 1.8 0c.9 0 1.9-.1 2.7-.1.7 0 .9.3.9.5 0 .6-.6.6-.7.6-.3 0-.6 0-1 .1-.8.2-1.1.6-1.2 1.9-.1 1.2-.1 2.3-.1 8.1v6.8c0 3.6 0 6.8.2 8.4.1 1 .3 1.5 1.2 1.6.5.1 1.2.1 1.7.1s.7.3.7.6c.1.4-.1.8-.8.8m-5.6-.6h1.7c1.1 0 2.5.1 3.9.1.1 0 .5 0 .5-.2 0-.1-.1-.2-.4-.2-.5 0-1.3 0-1.8-.1-1.1-.2-1.4-.9-1.5-2-.2-1.6-.2-4.8-.2-8.4v-6.8c0-5.9 0-6.9.1-8.1.1-1.3.3-2 1.5-2.3.4-.1.7-.1 1.1-.1.3 0 .4-.1.4-.3 0-.1-.2-.1-.5-.1-.7 0-1.8 0-2.7.1-.7 0-1.4 0-1.8 0-.5 0-1.2 0-2 0-.9 0-1.9-.1-2.6-.1-.5 0-.6.1-.6.1 0 .2 0 .3.4.3.5 0 1 .1 1.3.2.9.3 1.2.9 1.3 2.2v8.1 6.8c0 3.8 0 6.8-.2 8.4-.1 1.1-.3 1.8-1.2 2-.3.1-.7.1-1.3.1-.1 0-.4 0-.4.2 0 .1.2.2.5.2.8 0 1.9 0 2.8-.1.8.1 1.4 0 1.7 0"/><path d="m394 182.3c-1.4 0-2.8 0-3.9-.1-.7 0-1.3 0-1.7 0-.3 0-1 0-1.7.1-1 0-2.1.1-2.9.1-1 0-1.1-.6-1.1-.8 0-.4.3-.8 1-.8.5 0 .8 0 1.1-.1.4-.1.6-.3.7-1.5.2-1.6.2-4.7.2-8.3v-6.8c0-5.9 0-6.9 0-8.1-.1-1.3-.4-1.5-.9-1.7-.3-.1-.7-.2-1.1-.2-.8 0-.9-.5-.9-.8 0-.7.9-.7 1.2-.7.7 0 1.7 0 2.6.1h2s1 0 1.8 0c.9 0 1.9-.1 2.7-.1 1 0 1.1.4 1.1.7s-.1.8-.9.8c-.3 0-.5 0-.9.1-.6.1-.9.3-1 1.7-.1 1.2-.1 2.3-.1 8.1v6.8c0 3.6 0 6.8.1 8.4.1 1 .3 1.3 1.1 1.5.4.1 1.2.1 1.7.1.6 0 1 .4 1 .8-.1.2-.4.7-1.2.7m-5.6-1h1.7c1.1 0 2.5.1 3.9.1h.2s0 0-.1 0c-.5 0-1.3 0-1.8-.1-1.4-.2-1.6-1.2-1.7-2.2-.2-1.7-.2-4.7-.2-8.4v-6.8c0-5.9 0-6.9.1-8.2.1-1.4.4-2.2 1.6-2.4.2-.1.4-.1.6-.1-.7 0-1.6 0-2.3.1-.7 0-1.4 0-1.8 0-.5 0-1.2 0-2 0s-1.6 0-2.3 0c.3 0 .6.1.8.2 1 .4 1.4 1 1.4 2.4v8.2 6.8c0 3.8 0 6.8-.2 8.4-.1 1-.3 1.9-1.3 2.2-.3.1-.8.1-1.3.1h-.1.2c.8 0 1.9 0 2.8-.1s1.5-.2 1.8-.2"/><path d="m394 182.5c-1.4 0-2.8-.1-3.9-.1h-.1c-.7 0-1.3 0-1.7 0-.3 0-1 0-1.7.1-.9 0-2.1.1-2.9.1-1.1 0-1.2-.7-1.3-.9h-.3l.3-.1c0-.5.4-1 1.1-1 .5 0 .8 0 1.1-.1s.5-.2.6-1.3c.2-1.6.2-4.7.2-8.3v-6.8c0-5.8 0-6.9 0-8.1-.1-1.2-.4-1.4-.8-1.5-.3-.1-.6-.1-1.1-.1-1 0-1.1-.7-1.1-1 0-.6.5-.9 1.4-.9.7 0 1.7 0 2.6.1h.2 1.8s1 0 1.7 0h.1c.9 0 1.9-.1 2.7-.1 1.2 0 1.3.6 1.3.9 0 .6-.4 1-1.1 1-.3 0-.5 0-.9.1-.5.1-.8.1-.8 1.5-.1 1.2-.1 2.3-.1 8.1v6.8c0 3.6 0 6.7.1 8.4.1 1 .3 1.2.9 1.3.4.1 1.2.1 1.7.1.7 0 1.1.5 1.1 1 .2.3-.2.8-1.1.8m-5.6-.6h1.7.1c1.1 0 2.5.1 3.9.1.6 0 .9-.3.9-.6s-.3-.6-.8-.6-1.3 0-1.7-.1c-.8-.1-1.1-.5-1.2-1.6-.2-1.6-.2-4.8-.2-8.4v-6.8c0-5.9 0-6.9.1-8.1.1-1.4.4-1.8 1.1-1.9.4-.1.7-.1 1-.1.5 0 .8-.2.8-.7 0-.4-.5-.5-.9-.5-.7 0-1.8 0-2.7.1h-.1c-.7 0-1.3 0-1.7 0s-1.1 0-1.8 0h-.2c-.9 0-1.9-.1-2.6-.1s-1 .2-1 .5c0 .4.2.7.8.7.5 0 .9.1 1.2.2.6.2 1 .6 1.1 1.8v8.1 6.8c0 3.6 0 6.8-.2 8.3-.1 1.2-.3 1.5-.9 1.7-.3.1-.7.1-1.1.1-.5 0-.7.3-.8.5l.7-.1h.1c.5 0 .9 0 1.3-.1.9-.2 1.1-1.1 1.2-2 .2-1.6.2-4.6.2-8.4v-6.8c0-5.9 0-6.9 0-8.2-.1-1.3-.4-1.9-1.3-2.2-.2-.1-.5-.1-.8-.2v-.4c.6 0 1.5 0 2.3.1h2.1 1.8s1.6 0 2.3-.1v.4c-.2 0-.4.1-.6.1-1.1.2-1.4 1-1.5 2.3-.1 1.2-.1 2.3-.1 8.1v6.8c0 3.8 0 6.8.2 8.4.1.9.3 1.8 1.5 2 .5.1 1.3.1 1.8.1l.1.4c-.1 0-.1 0-.2 0-1.3 0-2.7 0-3.7-.1h-.2c-.7 0-1.3 0-1.7 0-.3 0-.9 0-1.6 0h-.1c-1 0-2.1.1-2.8.1-.1 0-.2 0-.2 0l-.7-.1c0 .2.2.5.9.5.8 0 1.9-.1 2.8-.1.5.2 1.1.1 1.4.1m-2.8-28.5c.7.4 1 1.1 1.1 2.3v8.2 6.8c0 3.8 0 6.8-.2 8.4-.1.8-.2 1.7-.9 2.1h1 .1c.7 0 1.3-.1 1.7-.1s1 0 1.7.1h.2 1.2c-.8-.4-1-1.3-1.1-2.1-.2-1.7-.2-4.7-.2-8.5v-6.8c0-5.9 0-6.9.1-8.2.1-1.1.3-1.9 1-2.3-.3 0-.6 0-.9 0-.7 0-1.4 0-1.8 0-.5 0-1.2 0-2.1 0-.2.1-.5.1-.9.1"/><path d="m426.5 155.2-5.2.1c-2 .1-2.8.3-3.3 1.2-.4.5-.5 1-.6 1.3s-.1.5-.4.5c-.2 0-.3-.2-.3-.6 0-.6.7-4.3.7-4.7.1-.5.2-.7.4-.7.3 0 .6.3 1.5.5 1 .1 2.3.2 3.5.2h14.1c1.1 0 1.8-.1 2.4-.2s.8-.2.9-.2c.2 0 .3.2.3.8 0 .8-.1 3.7-.1 4.7 0 .4-.1.6-.3.6-.3 0-.4-.2-.4-.8v-.4c-.1-1-1-2.2-4.1-2.2l-4.4-.1v15.5c0 3.5 0 6.6.2 8.2.1 1.1.3 1.8 1.3 2 .5.1 1.3.1 1.8.1.4 0 .5.2.5.4 0 .3-.3.4-.7.4-2.3 0-4.6-.1-5.6-.1-.8 0-3.2.1-4.5.1-.4 0-.7-.1-.7-.4 0-.2.1-.4.6-.4s.9 0 1.2-.1c.7-.2.9-.9 1-2 .2-1.6.2-4.7.2-8.2z"/><path d="m434.4 182.1c-1.4 0-2.8-.1-3.9-.1-.7 0-1.3-.1-1.7-.1-.3 0-1 0-1.7.1-1 0-2.1.1-2.8.1-.8 0-.8-.4-.8-.6 0-.3.2-.6.7-.6s.9 0 1.2-.1c.6-.1.8-.8.9-1.9.2-1.6.2-4.7.2-8.2v-15.4l-5 .1c-2 .1-2.7.3-3.2 1.1-.3.5-.5 1-.6 1.3-.1.2-.2.6-.6.6-.5 0-.5-.6-.5-.8 0-.7.7-4.4.8-4.7 0-.2.1-.9.6-.9.1 0 .3.1.5.1.2.1.6.2 1 .3 1.1.1 2.5.2 3.4.2h14.1c.9 0 1.6-.1 2.3-.2.3 0 .5-.1.6-.1.2 0 .3-.1.3-.1.5 0 .5.5.5 1v2.1 2.5c0 .3-.1.8-.5.8-.5 0-.5-.5-.6-.9v-.4c-.1-.6-.5-2-3.9-2l-4.2-.1v15.4c0 4.2.1 6.8.2 8.2.1 1.1.3 1.7 1.2 1.8.4.1 1.2.1 1.7.1s.7.3.7.6c-.1.4-.3.8-.9.8m-5.6-.6h1.7c1.1 0 2.5.1 3.9.1.1 0 .5 0 .5-.2 0-.1-.1-.2-.4-.2-.5 0-1.3 0-1.8-.1-1.2-.2-1.4-1.1-1.5-2.2-.1-1.5-.2-4-.2-8.2v-15.7l4.6.1c3.7.1 4.2 1.7 4.3 2.4v.4c0 .6.1.6.2.6 0 0 .1 0 .1-.5s0-1.5 0-2.5c0-.9 0-1.7 0-2.1s0-.6-.1-.6-.2 0-.3 0c-.2 0-.4.1-.7.1-.7.1-1.5.2-2.4.2h-14.1c-1 0-2.4 0-3.5-.2-.5-.1-.9-.2-1.1-.3-.1-.1-.3-.1-.3-.1s-.1 0-.2.6c-.1.4-.7 4-.7 4.6 0 .4.1.4.1.4.1 0 .1 0 .2-.4.1-.3.3-.8.6-1.4.5-.9 1.4-1.2 3.5-1.3l5.3-.1v15.7c0 3.5 0 6.6-.2 8.2-.1 1-.3 2-1.2 2.2-.4.1-.9.1-1.3.1-.2 0-.4 0-.4.2 0 .1.2.2.5.2.8 0 1.9 0 2.8-.1 1.1.2 1.7.1 2.1.1"/><path d="m434.4 182.3c-1.4 0-2.8 0-3.9-.1-.7 0-1.3 0-1.7 0-.3 0-1 0-1.7.1-1 0-2.1.1-2.9.1-1 0-1.1-.6-1.1-.8 0-.4.3-.8.9-.8s1-.1 1.1-.1c.4-.1.6-.5.8-1.7.2-1.6.2-4.6.2-8.1v-15.1l-4.7.1c-2.1.1-2.6.4-3 1-.3.5-.5.9-.6 1.2-.1.2-.2.8-.8.8-.3 0-.7-.2-.7-1 0-.7.7-4.5.8-4.7 0-.3.2-1 .8-1 .2 0 .4.1.6.2s.5.2 1 .3c1.1.1 2.5.2 3.4.2h14.1c.9 0 1.6-.1 2.3-.2.3 0 .5-.1.6-.1.2 0 .3-.1.4-.1.7 0 .7.7.7 1.2v2.1 2.5c0 .3-.1 1-.7 1-.7 0-.8-.7-.8-1.1v-.4c-.1-1.1-1.4-1.8-3.7-1.9l-4-.1v15.1c0 2.9 0 6.4.2 8.2.1 1.2.4 1.5 1 1.6.4.1 1.2.1 1.7.1.6 0 1 .4 1 .8-.3.2-.5.7-1.3.7m-5.6-1h1.7c1.1 0 2.5.1 3.9.1h.2s0 0-.1 0c-.5 0-1.3 0-1.8-.1-1.3-.2-1.5-1.2-1.7-2.3-.2-1.9-.2-5.4-.2-8.3v-16l4.8.1c3.5.1 4.3 1.5 4.4 2.3 0-.5 0-1.1 0-1.7 0-.9 0-1.7 0-2.1 0-.2 0-.3 0-.4 0 0 0 0-.1 0-.2 0-.4.1-.7.1-.7.1-1.5.2-2.4.2h-14.1c-1 0-2.4 0-3.5-.2-.6-.1-.9-.3-1.2-.4-.1 0-.1-.1-.2-.1 0 .1-.1.2-.1.4-.1.3-.6 3.3-.7 4.3.1-.3.3-.7.5-1.1.6-1.1 1.7-1.3 3.7-1.4l5.6-.1v16c0 3.5 0 6.6-.2 8.2-.1 1.1-.3 2.1-1.3 2.4-.3.1-.7.1-1.3.1h-.1.2c.8 0 1.9 0 2.8-.1.9.2 1.5.1 1.9.1"/><path d="m434.4 182.5c-1.3 0-2.6 0-3.7-.1h-.2c-.7 0-1.3 0-1.7 0-.3 0-.9 0-1.7.1-.9 0-2.1.1-2.9.1-1.1 0-1.2-.7-1.2-.9h-.3l.3-.1c0-.5.4-1 1.1-1 .6 0 .9-.1 1-.1.3-.1.5-.3.6-1.5.1-1.6.1-4.6.1-8.1v-14.9l-4.6.1c-2 0-2.5.3-2.9.9-.3.5-.4.8-.5 1.2-.1.2-.2.9-1 .9 0 0-.1 0-.2 0l-.1.2v-.2c-.3-.1-.7-.3-.7-1.2 0-.7.7-4.5.8-4.8.1-.8.4-1.2 1-1.2.2 0 .4.1.6.2.3.1.5.2 1 .3 1.1.1 2.4.2 3.4.2h14c.8 0 1.6-.1 2.3-.2.3-.1.5-.1.6-.1.2 0 .3-.1.4-.1.9 0 .9.9.9 1.4v1.9.7 2.1c0 .3-.1 1.2-.9 1.2-.9 0-.9-.9-1-1.3v-.4c-.1-1-1.4-1.7-3.5-1.7l-3.8-.1v14.9c0 2.9 0 6.4.2 8.2.1 1.2.3 1.4.9 1.5.4.1 1.2.1 1.7.1.7 0 1.1.5 1.1 1 .1.3-.3.8-1.1.8m-5.6-.6c.4 0 1 0 1.7.1h.2c1.1 0 2.4.1 3.7.1.6 0 .9-.3.9-.6s-.3-.6-.8-.6-1.3 0-1.7-.1c-.8-.1-1-.7-1.2-1.8-.2-1.8-.2-5.3-.2-8.2v-15.3l4.2.1c2.4 0 3.8.8 3.9 2v.4c0 .6.1 1 .6 1 .3 0 .5-.3.5-.9 0-.4 0-1.2 0-2.1v-.7c0-.8 0-1.5 0-1.9 0-.7-.1-1-.5-1-.1 0-.2 0-.3.1-.2 0-.4.1-.7.1-.7.1-1.5.2-2.3.2h-14c-1 0-2.3 0-3.4-.2-.5-.1-.8-.2-1-.3s-.4-.1-.5-.1c-.4 0-.5.5-.6.9-.1.3-.8 4-.8 4.7 0 .6.2.8.3.8l.1-1.1c.1-1.1.7-4.1.7-4.3 0-.1.1-.3.1-.4l.1-.2.2.1c.1 0 .1 0 .2.1.2.1.6.3 1.1.3 1.1.1 2.5.2 3.5.2h14c.9 0 1.7-.1 2.4-.2.3 0 .5-.1.6-.1l.1.2-.1-.2.2-.1v.2.4 1.9 1 .9 1.7l-.4-1.6c-.2-.8-.9-2.1-4.3-2.2l-4.6-.1v15.8c0 2.9 0 6.4.2 8.3.1 1.1.3 2 1.5 2.2.5.1 1.3.1 1.8.1l.1.4c-.1 0-.1 0-.2 0-1.4 0-2.8-.1-3.9-.1h-.3c-.6 0-1.1 0-1.4 0s-.9 0-1.6 0h-.1c-1 0-2.1.1-2.8.1-.1 0-.2 0-.2 0l-.7-.1c0 .2.2.5.9.5.8 0 1.9 0 2.8-.1 1-.2 1.6-.3 2-.3m-2.5-26.5v15.3c0 3.5 0 6.5-.2 8.2-.1 1.1-.3 1.7-.9 1.9-.2.1-.5.1-1.1.1-.5 0-.7.3-.8.5l.7-.1h.1c.5 0 1 0 1.3-.1.9-.2 1.1-1.2 1.2-2.2.2-1.6.2-4.7.2-8.2v-15.8l-5.4.1c-1.9.1-2.9.3-3.5 1.3-.2.4-.4.7-.5 1.1l-.4 1.1h.1c.4 0 .5-.3.6-.6.1-.4.3-.8.6-1.3.4-.7 1-1 3.2-1.1zm.8-.8v16.1c0 3.5 0 6.6-.2 8.2-.1.9-.3 1.8-.9 2.3h1 .1c.7 0 1.3-.1 1.6-.1s.8 0 1.4 0h.3 1.3c-.8-.5-1-1.3-1.1-2.2-.2-1.9-.2-5.4-.2-8.3v-16.1l5 .1c2.6 0 3.8.8 4.3 1.6v-1c0-.8 0-1.5 0-1.9 0-.1 0-.1 0-.2-.1 0-.3.1-.5.1-.7.1-1.5.2-2.5.2h-14c-1 0-2.4 0-3.5-.2-.6-.1-1-.2-1.2-.4v.1c0 .2-.4 1.8-.5 3.1.7-1.2 1.8-1.4 3.8-1.4z"/><path d="m471.7 170.2c0-2.4-.4-3.4-.9-4.7-.3-.7-5.5-10.7-6.9-13-1-1.7-2-2.8-2.7-3.3-.5-.3-1.2-.6-1.7-.6-.3 0-.6-.1-.6-.4s.3-.4.7-.4c.7 0 3.7.1 5 .1.8 0 2.4-.1 4.2-.1.4 0 .6.1.6.4s-.3.3-.9.5c-.4.1-.6.4-.6.8s.2.9.5 1.5c.6 1.4 6.1 12.2 6.7 13.5.4-1.1 5.4-11 5.9-12.4.4-1 .6-1.8.6-2.4 0-.4-.2-.9-.8-1.1-.4-.1-.7-.2-.7-.5s.2-.4.7-.4c1.3 0 2.6.1 3.7.1.9 0 3.5-.1 4.2-.1.4 0 .7.1.7.4s-.3.5-.8.5c-.4 0-1.1.2-1.7.5-.8.5-1.3 1-2.1 2.2-1.3 1.8-6.8 12.4-7.5 14.4-.6 1.6-.6 3-.6 4.5v3.7c0 .7 0 2.6.1 4.5.1 1.3.4 2.3 1.6 2.5.5.1 1.4.2 2 .2.4 0 .6.1.6.4s-.3.4-.8.4c-2.5 0-5-.1-6-.1s-3.5.1-4.9.1c-.5 0-.9-.1-.9-.4 0-.2.2-.4.6-.4.5 0 1-.1 1.4-.2.8-.2 1.1-1.2 1.2-2.5.1-1.9.1-3.8.1-4.5z"/><path d="m480.2 182.1c-1.5 0-3-.1-4.2-.1-.8 0-1.4-.1-1.8-.1s-1.2 0-2 .1c-1 0-2.1.1-2.9.1-.3 0-1.1 0-1.1-.6 0-.2.1-.6.8-.6.4 0 .9-.1 1.3-.2.8-.2 1-1.4 1.1-2.3.1-1.9.1-3.8.1-4.5v-3.7c0-2.4-.4-3.4-.9-4.6-.3-.7-5.5-10.6-6.9-13-.9-1.5-1.9-2.7-2.7-3.2-.5-.3-1.2-.6-1.6-.6-.7 0-.8-.4-.8-.6s.1-.6.9-.6c.3 0 1 0 1.8.1 1.1 0 2.4.1 3.1.1h1.3c.8 0 1.8-.1 2.9-.1.7 0 .8.4.8.6 0 .4-.3.5-.8.6l-.2.1c-.3.1-.4.4-.4.6 0 .4.3 1 .5 1.5.4 1.1 4.1 8.4 5.9 11.9.3.5.5 1 .6 1.3.4-1 1.6-3.3 2.8-5.8 1.3-2.7 2.7-5.6 3-6.3.4-.9.5-1.7.5-2.3 0-.5-.2-.8-.7-.9-.4-.1-.8-.2-.8-.6 0-.6.6-.6.8-.6.7 0 1.3 0 2 .1.6 0 1.2.1 1.7.1.4 0 1.3 0 2.2-.1.8 0 1.6-.1 2-.1.6 0 .9.2.9.6 0 .1-.1.6-.9.6-.4 0-1.1.2-1.6.5-.8.4-1.2.9-2.1 2.2-1.3 1.8-6.8 12.5-7.5 14.3-.6 1.6-.6 3-.6 4.5v3.7c0 .7 0 2.6.1 4.5.1 1.5.5 2.2 1.5 2.3.5.1 1.4.2 1.9.2.7 0 .8.4.8.6.2-.1.1.3-.8.3m-6-.6h1.8c1.2 0 2.7.1 4.2.1.3 0 .6 0 .6-.3 0-.1-.2-.2-.4-.2-.6 0-1.5-.1-2-.2-1.4-.2-1.7-1.5-1.8-2.7-.1-1.9-.1-3.8-.1-4.5v-3.7c0-1.5 0-2.9.6-4.6.7-1.9 6.2-12.6 7.5-14.4.9-1.3 1.3-1.8 2.2-2.3.6-.4 1.4-.6 1.8-.6.2 0 .6 0 .6-.3 0-.1-.2-.2-.5-.2-.4 0-1.1 0-2 .1-.9 0-1.8.1-2.3.1-.6 0-1.1 0-1.7-.1-.6 0-1.3-.1-2-.1-.5 0-.5.1-.5.2s.3.2.6.3c.6.2 1 .6 1 1.3s-.2 1.5-.6 2.4c-.3.7-1.7 3.5-3 6.3-1.3 2.7-2.7 5.6-2.9 6.1l-.1.4-.2-.4c-.1-.2-.4-.8-.8-1.6-1.8-3.5-5.4-10.8-5.9-11.9-.3-.8-.5-1.3-.5-1.6 0-.5.3-.9.7-1l.2-.1c.5-.1.5-.2.5-.3s0-.2-.4-.2c-1.1 0-2.1 0-2.8.1-.6 0-1 .1-1.4.1-.7 0-2 0-3.1-.1-.8 0-1.5-.1-1.8-.1-.2 0-.6 0-.6.2 0 .1 0 .2.4.2.6 0 1.3.3 1.8.6.8.6 1.8 1.8 2.8 3.4 1.4 2.4 6.7 12.4 6.9 13 .5 1.3.9 2.4.9 4.8v3.7c0 .7 0 2.6-.1 4.5-.1 1.6-.6 2.5-1.4 2.7-.5.1-.9.2-1.4.2-.2 0-.4 0-.4.2 0 .1 0 .3.7.3.8 0 1.9 0 2.9-.1.8.4 1.5.3 2 .3"/><path d="m480.2 182.3c-1.5 0-3 0-4.2-.1-.8 0-1.4 0-1.8 0s-1.2 0-2 .1c-1 0-2.1.1-2.9.1-.3 0-1.3 0-1.3-.8 0-.2.1-.8 1-.8.4 0 .8-.1 1.3-.2.7-.2.9-1.4.9-2.1.1-1.9.1-3.8.1-4.5v-3.7c0-2.4-.4-3.3-.9-4.6-.3-.7-5.5-10.6-6.9-13-.9-1.5-1.8-2.7-2.6-3.2-.5-.3-1.1-.5-1.4-.5-.7 0-1-.4-1-.8 0-.2.1-.8 1.1-.8.3 0 1 0 1.8.1 1.1 0 2.4.1 3.1.1h1.3c.8 0 1.8-.1 2.9-.1.9 0 1 .6 1 .8 0 .5-.5.7-.9.8l-.2.1c-.2 0-.3.2-.3.4 0 .3.2.9.4 1.4.4 1.1 4.3 8.7 5.9 12l.4.8c.5-1.1 1.5-3.2 2.6-5.4 1.3-2.7 2.7-5.6 3-6.3.3-.9.5-1.6.5-2.2 0-.4-.2-.6-.5-.7-.4-.1-1-.2-1-.8 0-.8.8-.8 1.1-.8.7 0 1.3 0 2 .1.6 0 1.2.1 1.7.1.4 0 1.4 0 2.2-.1.8 0 1.6-.1 2-.1 1 0 1.1.5 1.1.8 0 .4-.3.8-1.1.8-.3 0-1 .1-1.5.5-.8.4-1.2.9-2 2.1-1.3 1.8-6.8 12.4-7.5 14.3-.6 1.6-.6 2.9-.6 4.4v3.7c0 .7 0 2.6.1 4.5.1 1.4.5 2 1.3 2.1.5.1 1.4.2 1.9.2 1 0 1 .6 1 .8.1-.1 0 .5-1.1.5m-6-1h1.8c1.2 0 2.7.1 4.2.1h.2c-.6 0-1.5-.1-2.1-.2-1.6-.2-1.9-1.7-2-2.9-.1-1.9-.1-3.8-.1-4.5v-3.7c0-1.5 0-3 .6-4.7.7-1.9 6.2-12.6 7.6-14.5.9-1.3 1.4-1.8 2.3-2.3.6-.4 1.4-.6 1.9-.6h.2c-.3 0-1.2 0-2.1.1-.9 0-1.8.1-2.3.1-.6 0-1.1 0-1.8-.1-.6 0-1.3-.1-1.9-.1h-.1c.1 0 .2 0 .3.1.7.2 1.1.7 1.1 1.5 0 .7-.2 1.5-.6 2.5-.3.7-1.6 3.4-3 6.3-1.3 2.7-2.7 5.6-2.9 6.1l-.2 1-1.2-2.3c-1.8-3.5-5.5-10.9-5.9-12-.4-.8-.5-1.3-.5-1.7 0-.6.4-1.1.9-1.2l.2-.1c.1 0 .1 0 .2-.1-1 0-2 0-2.8.1-.6 0-1 .1-1.4.1-.7 0-2.1 0-3.2-.1-.8 0-1.5-.1-1.8-.1-.1 0-.2 0-.2 0h.1c.6 0 1.4.3 1.9.6.9.6 1.9 1.8 2.9 3.4 1.3 2.2 6.7 12.3 7 13.1.5 1.3.9 2.4.9 4.9v3.7c0 .7 0 2.6-.1 4.5-.1 1.7-.6 2.6-1.5 2.8-.5.1-1 .2-1.5.2h-.1.3c.8 0 1.9 0 2.9-.1.6.2 1.3.1 1.8.1"/><path d="m480.2 182.5c-1.4 0-2.9 0-4-.1h-.2c-.8 0-1.4 0-1.8 0s-1.2 0-2 .1h-.1c-1 0-2.1.1-2.8.1-1.2 0-1.5-.6-1.5-1 0-.2.1-.9 1.2-.9.4 0 .8-.1 1.2-.2s.7-.8.8-1.9c.1-1.9.1-3.8.1-4.5v-3.7c0-2.3-.4-3.2-.9-4.5-.3-.7-5.5-10.6-6.9-13-.9-1.5-1.8-2.6-2.5-3.1-.5-.3-1-.5-1.3-.5-.8 0-1.1-.5-1.2-.9h-.6l.6-.1c0-.2.1-1 1.3-1h1.7.1c1 0 2.4.1 3.1.1h1.3c.9 0 1.9-.1 2.9-.1 1.1 0 1.2.8 1.2 1 0 .7-.6.9-1.1 1l-.2.1c-.1 0-.1.1-.1.3 0 .3.3 1.1.4 1.3.4 1.1 4.3 8.7 5.9 11.9l.2.4c.6-1.2 1.5-3.2 2.4-5l.5-1c1.2-2.4 2.3-4.7 2.5-5.3.3-.9.5-1.6.5-2.1 0-.3-.1-.5-.4-.6-.4-.1-1.1-.3-1.1-1 0-.4.2-1 1.3-1 .7 0 1.3 0 2 .1.6 0 1.2.1 1.7.1.4 0 1.4 0 2.2-.1.8 0 1.6-.1 2-.1 1.1 0 1.3.6 1.3.9l.7.1-.7.1c0 .5-.4.9-1.3.9-.3 0-.9.1-1.4.5-.7.4-1.1.9-2 2.1-1.3 1.8-6.8 12.4-7.4 14.2-.6 1.5-.6 2.9-.6 4.3v3.7c0 .7 0 2.6.1 4.5.1 1.5.5 1.8 1.1 1.9.5.1 1.4.2 1.9.2 1.2 0 1.2.8 1.2.9.1.1 0 .9-1.3.9m-6-.6c.4 0 1.1 0 1.8.1h.2c1.2 0 2.6.1 4 .1.7 0 1-.2 1-.7 0-.2-.1-.6-.8-.6-.6 0-1.4-.1-1.9-.2-.9-.1-1.3-.8-1.4-2.3-.1-1.9-.1-3.8-.1-4.5v-3.7c0-1.5 0-2.9.6-4.4.7-1.9 6.2-12.5 7.5-14.3.9-1.2 1.3-1.7 2.1-2.2.6-.4 1.3-.5 1.6-.5.5 0 .9-.2.9-.5l-.7.1c-.1 0-.1 0-.2 0-.4 0-1.2.2-1.8.6-.9.5-1.3 1-2.2 2.3-1.3 1.8-6.9 12.5-7.6 14.4-.6 1.7-.6 3.1-.6 4.6v3.7c0 .7 0 2.6.1 4.5.1 1 .3 2.5 1.8 2.7.5.1 1.3.2 1.9.2h.1v.4c-.1 0-.2 0-.3 0-1.5 0-3.1-.1-4.2-.1h-.3c-.6 0-1.1 0-1.5 0s-1 0-1.7 0h-.3c-1 0-2.1.1-2.9.1-.1 0-.2 0-.3 0v-.4c.5 0 1-.1 1.5-.2.8-.2 1.3-1.1 1.4-2.7.1-1.9.1-3.8.1-4.5v-3.7c0-2.5-.4-3.5-.9-4.8-.3-.8-5.6-10.8-7-13.1-.9-1.6-1.9-2.8-2.8-3.4-.5-.3-1.2-.6-1.8-.6h-.1l-.7-.1c.1.3.4.5.8.5s1 .2 1.5.6c.8.5 1.8 1.7 2.7 3.2 1.4 2.4 6.7 12.3 6.9 13 .5 1.3.9 2.3.9 4.7v3.7c0 .7 0 2.6-.1 4.5-.1.9-.3 2.1-1.1 2.3-.4.1-.9.2-1.3.2-.8 0-.8.4-.8.6 0 .5.3.7 1.1.7s1.9 0 2.8-.1h.1c.8-.1 1.5-.2 2-.2m-13.2-33.6c.2.1.4.2.5.3.9.6 2 1.9 2.9 3.5 1.3 2.2 6.7 12.3 7 13.1.5 1.3.9 2.4.9 5v3.7c0 .7 0 2.6-.1 4.6-.1 1.5-.5 2.4-1.2 2.8h1.1.3c.7 0 1.4-.1 1.8-.1h1.5.3 1.6c-1.3-.6-1.4-2.2-1.4-2.8-.1-1.9-.1-3.8-.1-4.6v-3.7c0-1.5 0-3 .6-4.7.7-1.9 6.3-12.7 7.6-14.5.9-1.3 1.4-1.9 2.3-2.4.1-.1.2-.1.4-.2h-.3c-.9 0-1.8.1-2.3.1-.6 0-1.2 0-1.8-.1h-.1c-.3 0-.7 0-1-.1.4.3.6.8.6 1.4 0 .7-.2 1.6-.6 2.6-.3.7-1.5 3.3-3 6.3-1.3 2.6-2.7 5.6-2.9 6.1l-.5 1.3-1.8-3.7c-1.9-3.8-5-10-5.5-11.1-.4-.8-.5-1.4-.5-1.8 0-.5.2-.9.5-1.1-.6 0-1.3 0-1.8.1h-.1c-.6 0-1.1.1-1.4.1-.7 0-1.9 0-2.9-.1zm8.7-.3-1.1.4c-.4.1-.7.5-.7 1 0 .3.1.8.5 1.6.4 1 3.6 7.3 5.5 11.1l1.5 2.9.2-.5c.2-.5 1.6-3.5 2.9-6.1 1.4-2.9 2.7-5.6 3-6.3.4-1 .6-1.8.6-2.4 0-.7-.4-1.2-1-1.3-.1 0-.2 0-.3-.1l-.7-.2c0 .4.4.5.8.7.5.1.7.4.7.9 0 .6-.2 1.4-.5 2.3-.2.6-1.3 2.9-2.5 5.3l-.5 1c-1 2-2 4.2-2.6 5.4l-.2.4-.6-1.1c-1.6-3.3-5.5-10.9-5.9-12-.2-.5-.4-1.1-.4-1.5 0-.3.1-.5.4-.6l.2-.1c.4-.2.7-.3.7-.8 0 .1 0 .1 0 0m11.1-.1c.6 0 1.3 0 1.9.1h.1c.6 0 1.2.1 1.8.1.4 0 1.4 0 2.2-.1h.6c.7 0 1.3-.1 1.5 0l.8.1c0-.3-.4-.5-.9-.5-.4 0-1.2 0-2 .1-.8 0-1.8.1-2.2.1-.6 0-1.2 0-1.7-.1-.7 0-1.3-.1-2-.1-.5 0-.8.1-.9.5h.7c0-.2 0-.2.1-.2m-21.1 0h1.4.6c1 0 2.2.1 2.9.1.3 0 .8 0 1.4-.1h.1c.8 0 1.7-.1 2.7-.1h.8c-.1-.2-.2-.4-.8-.4-1 0-2 0-2.9.1-.5 0-1 0-1.3 0-.8 0-2.1 0-3.1-.1h-.1c-.8 0-1.4-.1-1.7-.1-.8 0-.9.3-1 .5l.7-.1c.1.2.2.2.3.2"/></g><path d="m7.7 91.7c0-13.5 0-15.9-.2-18.8-.1-3-.8-4.4-3.2-5-.6-.2-1.9-.3-3-.3-.8 0-1.3-.2-1.3-.8 0-.6.5-.8 1.7-.8 4 0 8.8.3 10.9.3 3.1 0 7.5-.3 11-.3 9.5 0 12.9 3.7 14.1 5.1 1.7 1.8 3.8 5.8 3.8 10.5 0 12.6-7.9 21.4-18.6 21.4-.4 0-1.2 0-1.6-.1s-.9-.2-.9-.8c0-.7.5-1 2.1-1 4.2 0 10.1-5.6 10.1-14.6 0-2.9-.2-8.9-4.5-13.3-2.7-2.9-5.8-3.5-7.6-3.5-1.1 0-2.3.1-2.9.4-.4.2-.6.7-.6 1.7v35.4c0 8.1 0 15.1.4 19 .2 2.5.7 4.4 3 4.8 1.1.2 2.7.4 3.9.4.8 0 1.2.3 1.2.7 0 .6-.6.9-1.4.9-5 0-9.8-.3-11.7-.3-1.7 0-6.5.3-9.5.3-1 0-1.5-.3-1.5-.9 0-.4.3-.7 1.2-.7 1.1 0 2-.2 2.7-.4 1.5-.4 1.9-2.3 2.2-4.9.4-3.7.4-10.7.4-18.9v-15.5z" fill="#fff"/><path d="m52 97.9c0-11.4 0-13.6-.1-15.9-.1-2.6-.8-3.4-2.9-4.1-.5-.2-1.7-.3-2.6-.3-.7 0-1.1-.3-1.1-.8s.5-.7 1.5-.7c3.5 0 7.7.2 9.1.2 2.3 0 8.3-.2 10.4-.2 4.2 0 9.1.4 12.6 3.2 1.9 1.5 4.7 5.3 4.7 10.4 0 5.6-2.7 10.5-9.2 16.6 5.9 8.5 10.6 15.3 14.6 20 3.7 4.3 6 4.7 7.1 5 .7.2 1.1.2 1.6.2s.8.4.8.8c0 .6-.5.8-1.3.8h-6.3c-3.7 0-5.5-.4-7.3-1.5-2.9-1.7-5.4-5.2-9.1-11.1-2.6-4.1-5.4-9.1-6.3-10.3-.4-.4-.8-.5-1.2-.5l-6-.2c-.3 0-.5.2-.5.6v1.1c0 7 .1 12.8.4 16 .2 2.2.5 3.6 2.6 4 1 .2 2.4.3 3.3.3.5 0 .8.4.8.8 0 .5-.5.8-1.4.8-3.9 0-9.4-.3-10.4-.3-1.3 0-5.5.3-8.2.3-.8 0-1.3-.3-1.3-.8 0-.4.2-.8 1.1-.8 1 0 1.7-.1 2.3-.3 1.4-.4 1.7-1.8 2-4 .3-3.2.3-9.1.3-16zm8.4 5.8c0 .8.1 1.1.6 1.3 1.4.5 3.4.7 5.1.7 2.7 0 3.6-.3 4.7-1.2 2-1.7 4.3-5 4.3-11.2 0-10.6-6.2-13.4-10.1-13.4-1.7 0-3.3.1-3.9.3-.5.2-.6.4-.6 1.1v22.4z" fill="#fff"/><path d="m100.1 97.9c0-11.4 0-13.5-.1-15.9-.2-2.6-.8-3.5-2.3-4-.8-.3-1.6-.4-2.4-.4-.7 0-1.1-.2-1.1-.9 0-.4.5-.6 1.6-.6 2.5 0 7 .2 8.9.2 1.7 0 6-.2 8.5-.2.8 0 1.4.2 1.4.6 0 .7-.4.9-1.1.9s-1.2.1-2 .3c-1.8.4-2.3 1.4-2.5 4.1-.1 2.4-.1 4.5-.1 15.9v13.3c0 7.3 0 13.3.3 16.5.2 2 .7 3.2 2.6 3.5.9.2 2.4.3 3.4.3.8 0 1.1.4 1.1.8 0 .5-.5.8-1.3.8-4.4 0-8.9-.3-10.7-.3-1.5 0-6.1.3-8.7.3-.8 0-1.3-.3-1.3-.8 0-.4.2-.8 1.1-.8 1 0 1.7-.1 2.3-.3 1.4-.4 1.7-1.4 2-3.6.3-3.1.3-9.1.3-16.4v-13.3z" fill="#fff"/><path d="m131.2 122.7c.1 5.8 1 7.6 2.3 8.1 1.1.4 2.4.5 3.5.5.8 0 1.1.4 1.1.8 0 .6-.6.8-1.5.8-4.3 0-7.4-.3-8.6-.3-.6 0-3.8.3-7.2.3-.9 0-1.5-.1-1.5-.8 0-.4.5-.8 1.1-.8.9 0 2.1-.1 3-.4 1.7-.5 2-2.6 2-9.1l.6-44.6c0-1.5.5-2.6 1.1-2.6.8 0 1.7 1.2 2.9 2.5.8 1 10.8 12.9 20.5 24 4.5 5.2 13.4 15.9 14.4 16.9h.3l-.7-33.5c-.1-4.6-.7-5.9-2.3-6.7-1-.4-2.6-.4-3.5-.4-.8 0-1.1-.4-1.1-.8 0-.6.7-.7 1.7-.7 3.5 0 7 .2 8.5.2.8 0 3.3-.2 6.5-.2.9 0 1.5.1 1.5.7 0 .4-.4.8-1.1.8s-1.2 0-2 .3c-1.8.6-2.3 1.9-2.4 6.2l-.8 47.5c0 1.7-.5 2.4-1.1 2.4-1.1 0-2-.8-2.7-1.6-4.2-4.5-12.5-13.8-19.4-21.7-7.3-8.1-14.3-17.3-15.6-18.6h-.2z" fill="#fff"/><path d="m187.2 125.8c-6.6-6.5-8.3-15-8.3-22.2 0-5.1 1.4-14 7.8-20.6 4.8-5 11.2-8 21.1-8 4.2 0 6.7.4 9.7.8 2.5.4 4.7 1 6.7 1.2.8.1 1 .4 1 .9 0 .6-.1 1.5-.3 4.2-.1 2.5-.1 6.6-.2 8.1-.1 1.1-.3 1.9-.9 1.9-.5 0-.7-.6-.7-1.6-.1-2.4-.9-5-2.6-7-2.3-2.6-6.7-4.4-12.9-4.4-5.8 0-9.5 1.2-12.6 4.2-4.9 5-6.1 12.2-6.1 19.6 0 17.9 11.8 26.4 20.7 26.4 5.9 0 9.2-.5 11.8-4 1.1-1.5 2-3.6 2.3-5 .1-1.2.3-1.5.8-1.5s.8.7.8 1.3c0 .9-.8 7.4-1.4 10-.3 1.3-.6 1.7-1.7 2.2-2.6 1.2-7.7 1.7-12 1.7-9.2 0-16.9-2.2-23-8.2" fill="#fff"/><path d="m235.7 97.9c0-11.4 0-13.5-.1-15.9-.1-2.6-.8-3.4-2.9-4.1-.5-.2-1.7-.3-2.6-.3-.7 0-1.1-.3-1.1-.8s.5-.7 1.5-.7c3.5 0 7.7.2 9.6.2 2.1 0 16.9.1 18.2 0 1.2-.1 2.3-.4 2.8-.4.4-.1.8-.4 1.1-.4.4 0 .5.4.5.7 0 .5-.4 1.4-.5 4.9-.1.8-.2 4.1-.4 5-.1.4-.2 1.2-.8 1.2-.5 0-.5-.4-.5-1 0-.5-.1-1.9-.5-2.7-.5-1.3-1.1-2.4-4.4-2.8-1.1-.2-9.1-.4-10.4-.4-.3 0-.5.3-.5.7v18.6c0 .4.1.8.5.8 1.5 0 10.1 0 11.6-.2 1.6-.2 2.6-.4 3.2-1.1.5-.5.8-1 1.1-1s.5.4.5.8-.1 1.7-.5 5.5c-.1 1.5-.3 4.5-.3 5 0 .6-.1 1.7-.7 1.7-.5 0-.6-.3-.6-.6-.1-.8-.1-1.8-.2-2.7-.4-1.5-1.2-2.7-3.7-2.9-1.2-.2-8.8-.4-10.4-.4-.3 0-.4.4-.4.8v6c0 2.6-.1 9 0 11.2.2 5.1 2.2 6.3 9 6.3 1.7 0 4.5-.1 6.3-1 1.7-.9 2.4-2.5 2.9-5.6.2-.8.3-1.2.8-1.2s.6 1 .6 1.8c0 1.7-.5 6.8-.9 8.3-.5 2-1.1 2-3.6 2-5 0-9-.1-12.2-.3-3.3-.1-5.7-.2-7.7-.2-.8 0-2.2.1-3.8.1-1.6.1-3.3.2-4.6.2-.8 0-1.3-.3-1.3-.8 0-.4.2-.8 1.1-.8 1 0 1.7-.1 2.3-.3 1.4-.4 1.7-1.8 2-4 .3-3.2.3-9.1.3-16v-13.2z" fill="#fff"/><path d="m290.7 132c-1.1-.5-1.3-.9-1.3-2.6 0-4.1.3-8.8.4-10 0-1.2.3-1.9.8-1.9.6 0 .7.7.7 1.2 0 1 .2 2.6.6 3.9 1.4 5.6 6.4 7.4 10.6 7.4 5.7 0 9.2-4.3 9.2-9.6 0-3.3-.7-6.5-6.6-10.6l-3.9-2.7c-7.9-5.4-10.4-10.5-10.4-17.1 0-9.2 7.6-15.1 16.8-15.1 4.3 0 7.7.7 9.5 1.2.6.2.9.4.9 1 0 1-.2 3.1-.2 9 0 1.6-.3 2.4-.8 2.4-.4 0-.7-.4-.7-1.3 0-.7-.3-3-1.7-5-1-1.4-3.1-3.5-7.4-3.5-4.8 0-9.1 2.9-9.1 8.1 0 3.4 1.1 6 7 9.9l2.7 1.8c8.8 5.7 11.5 11.4 11.5 18.2 0 5.6-1.8 10.1-6.7 14.1-3.2 2.7-7.6 3.1-11.1 3.1-3.8.1-7.9-.3-10.8-1.9" fill="#fff"/><path d="m328.6 97.9c0-11.4.1-13.5-.1-15.9-.1-2.7-.8-3.4-2.9-4.1-.5-.2-1.7-.3-2.6-.3-.8 0-1.1-.3-1.1-.8s.5-.7 1.4-.7c3.6 0 8 .2 10 .2 1.7 0 6.1-.2 8.5-.2 1 0 1.4.2 1.4.7s-.4.8-1.1.8c-.8 0-1.1.1-2 .3-1.7.4-2.3 1.4-2.4 4.1-.1 2.4-.1 4.5-.1 15.9v10.5c0 11 1.8 15.2 5.1 18.2 3 2.8 6.1 3 8.4 3 2.9 0 6.3-1 8.9-4 3.7-4.1 3.9-10.6 3.9-18.3v-9.5c0-11.4-.1-13.5-.1-15.9-.2-2.6-.7-3.4-2.8-4.1-.5-.2-1.7-.3-2.4-.3-.8 0-1.1-.3-1.1-.8s.5-.7 1.4-.7c3.4 0 7.9.2 7.9.2.8 0 5.2-.2 7.8-.2.9 0 1.4.2 1.4.7s-.4.8-1.1.8c-.8 0-1.1.1-2 .3-1.8.4-2.3 1.4-2.4 4.1-.1 2.4-.1 4.5-.1 15.9v8.1c0 8.4-.8 17.3-6.4 22.7-4.7 4.6-9.8 5.4-14.1 5.4-3.5 0-10.4-.2-15.2-5.1-3.4-3.5-6.1-9-6.1-19.9z" fill="#fff"/><path d="m392.6 111.1c0 9.6 0 14.4 1.4 15.9 1.1 1.2 3.7 1.6 8.8 1.6 3.6 0 6.1-.1 7.8-2.1.8-1 1.5-3.1 1.7-4.5.1-.7.2-1.2.8-1.2.5 0 .6.8.6 1.7s-.5 6.5-1 8.7c-.5 1.7-.8 2-4.2 2-4.8 0-8.6-.1-11.9-.3-3.3-.1-6.1-.2-8.8-.2-.8 0-2.2.1-3.8.1-1.6.1-3.3.2-4.6.2-.8 0-1.3-.3-1.3-.8 0-.4.2-.8 1.1-.8 1 0 1.7-.1 2.3-.3 1.4-.4 1.7-1.8 2-4 .3-3.2.3-9.1.3-16v-13.3c0-11.4 0-13.5-.1-15.9-.1-2.6-.8-3.4-2.9-4.1-.5-.2-1.4-.3-2.2-.3s-1.1-.3-1.1-.8.5-.7 1.4-.7c3.1 0 7.3.2 9.1.2 1.6 0 7-.2 9.6-.2 1 0 1.4.2 1.4.7s-.4.8-1.2.8-1.8.1-2.6.3c-1.8.4-2.3 1.4-2.5 4.1-.2 2.4-.2 4.5-.2 15.9v13.3z" fill="#fff"/><path d="m426.8 80.7-9.9.3c-3.9.1-5.4.6-6.4 2.3-.7 1.1-1 2-1.1 2.6s-.3 1-.8 1-.6-.4-.6-1.2c0-1.2 1.3-8.5 1.4-9.1.1-1 .4-1.4.8-1.4.5 0 1.2.6 2.9.9 2 .3 4.5.4 6.7.4h27c2.1 0 3.5-.2 4.5-.4 1.1-.2 1.6-.4 1.8-.4.5 0 .5.4.5 1.6 0 1.6-.2 7.2-.2 9.1-.1.8-.2 1.2-.6 1.2-.5 0-.7-.4-.8-1.5l-.1-.8c-.1-2-1.9-4.2-7.9-4.3l-8.4-.2v30.5c0 6.9.1 12.8.4 16.1.2 2.1.6 3.5 2.6 3.9.9.2 2.4.3 3.4.3.8 0 1.1.4 1.1.8 0 .5-.5.8-1.3.8-4.4 0-8.8-.3-10.7-.3-1.5 0-6 .3-8.7.3-.8 0-1.3-.3-1.3-.8 0-.4.2-.8 1.1-.8 1 0 1.8-.1 2.3-.3 1.4-.4 1.7-1.8 2-4 .3-3.2.3-9.1.3-16z" fill="#fff"/><path d="m460.4 114.1c-.4 0-.5.1-.6.5l-3.6 10.1c-.7 1.9-1 3.7-1 4.6 0 1.3.6 2.1 2.7 2.1h1c.8 0 1 .4 1 .8 0 .6-.4.8-1.1.8-2.2 0-5.3-.3-7.4-.3-.7 0-4.2.3-7.7.3-.8 0-1.2-.2-1.2-.8 0-.4.2-.8.8-.8s1.4-.1 2-.1c3-.5 4.2-2.8 5.5-6.6l17.4-47.4c.8-2.1 1.3-3 2-3 1 0 1.3.7 2 2.4 1.6 4.2 12.7 35 16.9 46.4 2.6 6.8 4.5 7.8 5.7 8.1 1 .2 1.7.3 2.5.3.6 0 .9.3.9.8 0 .6-.4.8-2.9.8-2.3 0-7.2 0-12.8-.2-1.2-.1-2-.1-2-.6 0-.4.1-.7.8-.8.4-.1.9-.8.6-1.7l-5.1-15.1c-.1-.4-.4-.5-.7-.5zm14.2-4.2c.3 0 .4-.2.3-.4l-6.3-19.1c-.1-.3-.2-.7-.3-.7-.2 0-.3.4-.4.7l-6.4 19c-.1.4 0 .5.2.5z" fill="#fff"/><path d="m507.3 121c.2 6.9 1.1 9.2 2.6 9.8 1.3.5 2.7.6 3.9.6.8 0 1.3.2 1.3.7 0 .7-.7.9-1.7.9-4.9 0-7.9-.3-9.4-.3-.7 0-4.2.3-8.2.3-1 0-1.7-.1-1.7-.9 0-.5.5-.7 1.2-.7 1 0 2.3-.1 3.4-.4 2-.7 2.3-3.3 2.3-11l.7-52.4c0-1.8.2-3 1-3s1.5 1.1 2.8 2.7c.9 1.2 12.4 15.6 23.4 28.4 5.1 6 15.4 18.8 16.6 20.2h.4l-.8-39.8c-.1-5.4-.8-7.1-2.6-8-1.1-.5-3-.5-4-.5-.9 0-1.2-.3-1.2-.8 0-.7.8-.8 2-.8 3.9 0 7.6.3 9.1.3.8 0 3.7-.3 7.4-.3 1 0 1.7.1 1.7.8 0 .5-.4.8-1.4.8-.8 0-1.4 0-2.3.3-2.1.7-2.7 2.6-2.8 7.5l-.8 55.9c0 1.9-.3 2.7-1 2.7-.8 0-1.7-1-2.6-1.9-4.8-5.3-14.4-16.9-22.3-26-8.2-9.6-16.6-20.6-18-22.3h-.2z" fill="#fff"/><path d="m72.5 194.6h414.9v1.2h-414.9z" fill="#fff"/><path d="m30.8 56.4h-4c-6.5-.1-12-2.4-16.6-7.1s-7-10.3-7.1-17v-5.8c0-1.1.4-2 1.1-2.8.8-.8 1.6-1.2 2.7-1.2h9c1 .2 1.8.6 2.4 1.5.6.8 1 1.6 1.1 2.3l.2 1.1h-9.6c-.8 0-1.4.2-1.7.5s-.4.9-.4 1.8v2.1c0 5.4 1.8 10.1 5.5 13.9s8.2 5.7 13.4 5.7h1.9c3.9 0 5.9-2 5.9-6v-32.9h4.7v35c0 2.5-.8 4.5-2.5 6.3-1.6 1.7-3.6 2.6-6 2.6m-4.7-51.5c0 .9-.3 1.6-.9 2.2s-1.3.9-2.1.9-1.5-.3-2.1-.9-.9-1.3-.9-2.2.3-1.6.9-2.2 1.3-.8 2.1-.8 1.6.3 2.1.9c.6.6.9 1.3.9 2.1" fill="#fff"/><path d="m57.5 39.1v4.8h-6.8c-1 0-1.9-.4-2.6-1.2s-1.1-1.7-1.1-2.8v-39.9h4.7v36.7c0 .9.2 1.5.5 1.8s.9.5 1.8.5h3.5z" fill="#fff"/><path d="m120.4 43.9h-63.9v-4.8h12.1v-38.8h4.8v22.1c2.2-3 5-5.4 8.3-7.1s6.9-2.6 10.8-2.6h15.6c2.4 0 4.4.9 6.1 2.6s2.5 3.8 2.5 6.2v13.6c0 1.4-.3 2.8-.9 4h4.6zm-8.5-10.9v-9.5c0-4-1.9-6-5.8-6h-13.6c-5.1 0-9.5 1.8-13.1 5.5-3.7 3.6-5.6 8.1-5.9 13.3v2.8h32.6c3.8 0 5.8-2.1 5.8-6.1" fill="#fff"/><path d="m138.7 43.9h-19.2v-4.8h8.7c.8 0 1.4-.2 1.7-.5s.5-.9.5-1.8v-36.6h4.8v38.9h3.5z" fill="#fff"/><path d="m176.9 43.9h-6.1c-1.2 0-2.2-.5-2.9-1.5-1.3.8-2.6 1.3-3.9 1.5h-8.2c-1.3 0-2.2-.5-2.9-1.5-1.5 1-3.1 1.5-4.8 1.5h-10.3v-4.8h8.3c3.9 0 5.9-2 5.9-6.1v-20.5h4.8v24.2c0 .9.2 1.5.5 1.8s.9.5 1.8.5h2.1c3.8 0 5.7-2 5.8-6v-20.5h4.8v24.2c0 .9.2 1.5.5 1.8s.9.5 1.7.5h.9c1.9 0 3.3-.5 4.3-1.6s1.5-2.5 1.5-4.5v-20.4h4.7v22.4c0 2.5-.8 4.5-2.5 6.3-1.7 1.9-3.7 2.7-6 2.7" fill="#fff"/><path d="m225.5 43.9h-4.2c-1.6 0-3.1-.5-4.6-1.4-1.6 6.5-5.2 11.4-10.9 14.9l-4.9-2.9c3.5-1.5 6.4-3.9 8.6-7.1 2.2-3.3 3.3-6.9 3.3-11v-23.8h4.8v20.4c0 4 1.9 6.1 5.8 6.1h2.2z" fill="#fff"/><path d="m249.6 43.9h-4.3c-1.9 0-3.4-.5-4.6-1.5-.8 1-1.8 1.5-3 1.5h-13.2v-4.9h10.1c.8 0 1.4-.2 1.7-.5s.4-.9.4-1.8v-24.2h4.8v20.8c.1 3.8 2.1 5.8 5.8 5.8h2.2v4.8zm-16.9 8.8c-.8 0-1.6-.3-2.1-.9-.6-.6-.9-1.3-.9-2.2 0-.8.3-1.5.9-2.1s1.3-.9 2.1-.9 1.5.3 2.1.8c.5.6.8 1.3.8 2.2s-.3 1.6-.9 2.2c-.5.7-1.2.9-2 .9m8.3-.8c-.6.6-1.3.9-2.1.9s-1.5-.3-2.1-.9-.9-1.3-.9-2.2.3-1.6.9-2.2 1.3-.8 2.1-.8 1.5.3 2.1.8c.6.6.9 1.3.9 2.2-.1.9-.4 1.6-.9 2.2" fill="#fff"/><path d="m288.7 43.9h-27.2c-.8 0-1.7-.6-2.5-1.8-1.5 1.2-3.3 1.8-5.2 1.8h-5v-4.8h2.9c3.9 0 5.8-2 5.8-6.1v-11.5c0-2.4.8-4.5 2.5-6.2s3.7-2.6 6.1-2.6h2.5c6.5 0 12.1 2.3 16.8 7 4.6 4.7 7 10.4 7.1 17.1v3.2c0 1.1-.4 2.1-1.1 2.8s-1.6 1.1-2.7 1.1m-24.1-4.8h21c.8 0 1.4-.1 1.7-.5.3-.3.5-.9.6-1.7-.1-5.4-2-10-5.7-13.7-3.7-3.8-8.2-5.7-13.5-5.7h-.4c-3.9 0-5.9 2-5.9 6v13.2c0 .9.2 1.5.5 1.8.2.4.8.6 1.7.6" fill="#fff"/><path d="m315.6 43.9h-13.4l-1.9-4.8h3.8c-2.1-3.9-3.1-7.9-3.1-12.1v-19.6h4.8v19.6c0 4.6 1.4 8.6 4.1 12.1h2.5c.8 0 1.4-.2 1.7-.5s.5-.9.5-1.8v-7.2-29.4h4.8v29.4 8.8 1.6c0 1.1-.4 2-1.1 2.8-.7.7-1.6 1.1-2.7 1.1m-11.1-37.8h-3.6v-.8h3.3c.5 0 .7-.3.7-.8s-.2-.8-.7-.8h-.8-1.1c-.4 0-.7-.1-1-.4s-.4-.6-.4-1v-.6c0-.4.1-.7.4-1s.6-.4 1-.4h3.5v.8h-3.3c-.5 0-.7.3-.7.8s.2.8.7.8h.9 1.1c.4 0 .7.1 1 .4s.4.6.4 1v.6c0 .4-.1.7-.4 1-.2.2-.6.4-1 .4" fill="#fff"/><path d="m327 .1h4.7v43.8h-4.7z" fill="#fff"/><path d="m399 43.9h-4.3c-2.3 0-4.2-.8-5.8-2.3-.9 1.5-1.8 2.3-2.8 2.3h-28.1c-1 0-1.9-.4-2.6-1.1-.7-.8-1.1-1.7-1.1-2.8v-3.2c.1-6.7 2.5-12.4 7.1-17.1s10.2-7 16.8-7h2.5c2 0 3.8.7 5.4 2v-2h4.8v20.4c0 4 2 6.1 5.9 6.1h2.3zm-12.9-7.1v-13.7c-.1-1.7-1-3.1-2.5-4.1s-3.3-1.5-5.5-1.5c-5.3 0-9.8 1.9-13.5 5.7s-5.6 8.4-5.6 13.7c0 .8.2 1.4.5 1.7s.9.5 1.7.5h22.6c.8 0 1.4-.2 1.8-.5.3-.4.5-1 .5-1.8m-11.4-33c.5.6.8 1.3.8 2.1s-.3 1.5-.8 2.1c-.6.6-1.3.9-2.1.9s-1.6-.3-2.1-.9c-.6-.6-.8-1.3-.8-2.1s.3-1.5.8-2.1 1.2-.9 2.1-.9 1.6.3 2.1.9m6.5 0c.5.6.8 1.3.8 2.1s-.3 1.5-.8 2.1c-.6.6-1.2.9-2.1.9s-1.6-.3-2.1-.9c-.6-.6-.8-1.3-.8-2.1s.3-1.5.8-2.1 1.2-.9 2.1-.9 1.5.3 2.1.9" fill="#fff"/><path d="m444.2 43.9h-46.1v-4.8h8.2c-.7-1.9-1-3.5-1-4.8s.4-3 1-5.2c1.6-4.8 4.5-8.8 8.5-11.8 4-3.1 8.6-4.6 13.7-4.7v-.1h2.2c2.4 0 4.4.9 6.1 2.6s2.5 3.8 2.5 6.2v10.1h-4.8v-7.9c0-3.9-1.9-6-5.8-6.1-4.6.1-8.6 1.6-12.1 4.7-3.5 3-5.6 6.8-6.5 11.3-.2 1.7.2 3 1.2 4s2.4 1.6 4.1 1.7h28.7z" fill="#fff"/><path d="m483.3 43.9h-27.2c-.8 0-1.7-.6-2.5-1.8-1.5 1.2-3.3 1.8-5.2 1.8h-5v-4.8h2.9c3.9 0 5.8-2 5.8-6.1v-11.5c0-2.4.8-4.5 2.5-6.2s3.7-2.6 6.1-2.6h2.5c6.5 0 12.1 2.3 16.8 7 4.6 4.7 7 10.4 7.1 17.1v3.2c0 1.1-.4 2.1-1.1 2.8s-1.6 1.1-2.7 1.1m-24.1-4.8h21c.8 0 1.4-.1 1.7-.5.3-.3.5-.9.6-1.7-.1-5.4-2-10-5.7-13.7-3.7-3.8-8.2-5.7-13.5-5.7h-.4c-3.9 0-5.9 2-5.9 6v13.2c0 .9.2 1.5.5 1.8.3.4.9.6 1.7.6" fill="#fff"/><path d="m505.5 39.1v4.8h-6.8c-1 0-1.9-.4-2.6-1.2s-1.1-1.7-1.1-2.8v-39.9h4.7v36.7c0 .9.2 1.5.5 1.8s.9.5 1.8.5h3.5z" fill="#fff"/><path d="m553.8 43.9h-49.2v-4.8h42.5v-2.3c-.1-5.3-2.1-9.9-5.8-13.6s-8.2-5.6-13.4-5.6h-6c-.8 0-1.4.2-1.7.5s-.4.9-.4 1.8v3.7h-4.8v-7c0-1.1.4-2 1.1-2.8s1.6-1.2 2.7-1.2h10c6.4.3 11.8 2.7 16.3 7.5 4.5 4.7 6.7 10.4 6.8 17h-.1c.1.7.2 1.2.6 1.5.3.3.9.5 1.7.5h.8zm-21.2 8.1c-.6.6-1.3.9-2.1.9s-1.5-.3-2.1-.9-.9-1.3-.9-2.1.3-1.5.8-2.1 1.2-.9 2.1-.9c.8 0 1.6.3 2.1.9s.8 1.3.8 2.1-.1 1.5-.7 2.1" fill="#fff"/></svg>