<?xml version="1.0" encoding="utf-8"?>
<!-- Generator: Adobe Illustrator 19.2.0, SVG Export Plug-In . SVG Version: 6.00 Build 0)  -->
<svg version="1.1" id="Layer_1" xmlns="http://www.w3.org/2000/svg" xmlns:xlink="http://www.w3.org/1999/xlink" x="0px" y="0px"
	 viewBox="0 0 386.6 258.6" style="enable-background:new 0 0 386.6 258.6;" xml:space="preserve">
<style type="text/css">
	.st0{fill:#FFFFFF;}
</style>
<g>
	<path class="st0" d="M275.6,146.9v0.3c0,18.7-13.6,32.4-35.7,32.4c-17.8,0-30.2-7.1-38.7-17.1l15-14.3c6.8,7.6,13.9,11.9,23.9,11.9
		c8.2,0,14-4.7,14-12c-0.1-0.2,1.6-12.9-19.4-12.9h-9.1l-3.4-13.9l31.8-31.9l-12.7,8.2h-34.3V78.9h67v16.4L249,119.2
		C262.5,121.4,275.6,128.5,275.6,146.9 M213.5,33.6c0-9,6.4-16.2,15.5-16.2h10.2l-2.7,1.3c0.1,24.6-0.5,27.6,1.1,31.2l-8.5,0
		c-9,0-15.6-7.3-15.6-16.3V33.6z M228.9,54.1h9v-3.2c0.7,1.1,1.5,2,2.9,2.6c2.9,1.4,0.8,0.5,83.2,0.8V13.4h-4.3V50
		c0,0-75.4,0.3-76.8-0.4c-1.2-0.6-1.7-1.8-1.9-3.2c-0.3-2.2-0.1-2.3-0.2-33h-11.7c-12,0-20.2,9.5-20.2,20.4v0.1
		C208.9,44.7,216.9,54.1,228.9,54.1 M356.1,9h-9.5c0.2-3.1-1.3-9,5.2-9h3.1v3c-3,0.2-4.7-0.7-4.7,1.6v1h6V9z M367.1,54.7
		c-1.2,0-2.3-0.2-3.5-0.5l1.1-4.2c2,0.6,4.5,0.6,5.5-1.2c1.2-2.1,0.8-2.8,0.8-35.6h4.3c-0.1,30.6,0.3,31.4-0.4,35
		C374.2,52.5,371.6,54.7,367.1,54.7 M240.8,9h-4.3V4.7h4.3V9z M336.5,24c2-4,6.3-6.2,10.7-6.2v0h7l-2.5,1.2v19.5
		c-3.4-0.1-5.8,0.3-9-0.7c-4.3-1.4-7.3-4.7-7.3-9.5C335.5,26.7,335.8,25.3,336.5,24 M336.5,39.4c5.7,4,13.4,3.4,13.8,3.4l1.5-3.1
		c-0.2,3,0.8,7.1-2,9.2c-2.3,1.8-6.5,1.7-9.1,1.1c-1.1-0.3-2.3-0.7-3.7-1.3l-1.4,4.2c2.8,1,5.4,1.8,8.3,1.8c4.2,0,7.3-1,9.2-3
		c1.9-2,2.9-4.7,2.9-8.1V13.4c-5.4,0.2-9.4-0.5-14.3,1.1C328.7,19,328.4,33.6,336.5,39.4 M232.1,9h-4.3V4.7h4.3V9z M187.1,13.3h4.5
		v40.7h-3.7L159,17.4l2.6,5.9v30.7h-4.5V13.3h4.3L189,48.4l-1.9-5L187.1,13.3L187.1,13.3z M17.6,54.4L0,13.3h5.1
		c0.3,0.6,14.3,34.4,15.7,37.9l-0.4-4.5l13.9-33.4h5l-17.6,41C21.6,54.4,17.6,54.4,17.6,54.4z M95.3,13.3h4.6v40.7h-4.6V13.3z
		 M144.8,33.8c0,9.3-6.6,16.7-16,16.7s-16.1-7.6-16.1-16.8v-0.1c0-9.3,6.7-16.7,16-16.7c9.3,0,16.1,7.6,16.1,16.8V33.8z M128.8,12.6
		c-12.4,0-20.9,9.8-20.9,21.1v0.1c0,11.2,8.3,21,20.8,21c12.4,0,20.9-9.8,20.9-21.1v-0.1C149.5,22.3,141.2,12.6,128.8,12.6 M87.7,43
		v0.1c0,7-5.8,11.5-13.9,11.5c-6.5,0-11.8-2.2-16.7-6.5l2.9-3.4c4.3,3.8,8.3,5.8,14,5.8c5.5,0,9.1-2.9,9.1-6.9v-0.1
		c0-11.4-24.3-3.9-24.3-19.5v-0.1c0-6.4,5.7-11.1,13.4-11.1c5.9,0,10.2,1.7,14.3,5l-2.7,3.5c-9.3-7.5-20.5-4.6-20.5,2.2v0.1
		c0,3.8,2.1,6,11.1,7.9C83.5,33.5,87.7,36.8,87.7,43 M50.1,54.1h-4.6V13.3h4.6V54.1z M318.2,58.6h4.3V63h-4.3V58.6z M309.5,58.6h4.3
		V63h-4.3V58.6z M36.5,159h37.8v18.8H0.9v-17.2C37.6,129.5,51,123.4,51,109.8c0-8.3-5.5-12.9-13.3-12.9c-7.6,0-12.9,4.2-20.3,13.3
		L2.2,98c9.8-13.3,19.3-20.5,37-20.5c20.5,0,34.1,12,34.1,30.5v0.3c0,23.2-17.6,30.7-47.7,55l-4.2,3.2L36.5,159z M363.8,128.6
		c0,17-12.2,30.8-29.7,30.8c-17.6,0-30-14.1-30-31.1v-0.3c0-17,12.2-30.8,29.7-30.8c17.6,0,30,14.1,30,31.1V128.6z M334.1,77.2
		c-30.6,0-52.8,23-52.8,51.2v0.3c0,28.1,21.9,50.9,52.5,50.9s52.8-23,52.8-51.2v-0.3C386.6,99.9,364.7,77.2,334.1,77.2"/>
	<path class="st0" d="M133.5,70.7l5,4.8l-4.8,5l-5-4.8"/>
	<path class="st0" d="M145,75.7l5,4.8l4.8-5l-5-4.8"/>
	<path class="st0" d="M137.9,82l3.9,3.7l3.7-3.9l-3.9-3.7"/>
	<path class="st0" d="M152.3,84.1l3.9,3.7l3.7-3.9l-3.9-3.7"/>
	<path class="st0" d="M131.5,88l3.9,3.7l3.7-3.9l-3.9-3.7"/>
	<path class="st0" d="M144.7,88.4l3.9,3.7l3.8-3.9l-3.9-3.7"/>
	<path class="st0" d="M139.5,92.9l2.7,2.6l2.6-2.7l-2.7-2.6"/>
	<path class="st0" d="M149.9,95l2.7,2.6l2.6-2.7l-2.7-2.6"/>
	<path class="st0" d="M172.5,74.1l8.5-1.6l1.6,8.5l-8.5,1.6L172.5,74.1z"/>
	<path class="st0" d="M161.4,77.7l6.8-1.3l1.3,6.8l-6.8,1.3L161.4,77.7z"/>
	<path class="st0" d="M174.6,87.2l6.8-1.3l1.3,6.8l-6.8,1.3L174.6,87.2z"/>
	<path class="st0" d="M165.2,88.2l5.3-1l1,5.3l-5.3,1L165.2,88.2z"/>
	<path class="st0" d="M175.6,98.3l5.3-1l1,5.3l-5.3,1L175.6,98.3z"/>
	<path class="st0" d="M157.2,90.3l5.3-1l1,5.3l-5.3,1L157.2,90.3z"/>
	<path class="st0" d="M166.9,97.3l5.3-1l1,5.3l-5.3,1L166.9,97.3z"/>
	<path class="st0" d="M160.1,98l3.7-0.7l0.7,3.7l-3.7,0.7L160.1,98z"/>
	<path class="st0" d="M167.3,105.7l3.7-0.7l0.7,3.7l-3.7,0.7L167.3,105.7z"/>
	<path class="st0" d="M197.9,102l-3.7,7.8l7.8,3.7l3.7-7.8"/>
	<path class="st0" d="M186.8,98.4l-3,6.3l6.3,3l3-6.3"/>
	<path class="st0" d="M191.9,113.8l-3,6.3l6.3,3l3-6.3"/>
	<path class="st0" d="M183.7,109.1l-2.3,4.9l4.9,2.3l2.3-4.9"/>
	<path class="st0" d="M186.2,123.4l-2.3,4.9l4.9,2.3l2.3-4.9"/>
	<path class="st0" d="M176,106.2l-2.3,4.9l4.9,2.3l2.3-4.9"/>
	<path class="st0" d="M179.7,117.5l-2.3,4.9l4.9,2.3l2.3-4.9"/>
	<path class="st0" d="M173.8,114.1l-1.6,3.4l3.4,1.6l1.6-3.4"/>
	<path class="st0" d="M173.5,128l1.6-3.4l3.4,1.6l-1.6,3.4L173.5,128z"/>
	<path class="st0" d="M202.1,139.4l-7.6,4.2l4.2,7.6l7.6-4.2"/>
	<path class="st0" d="M195.2,130l-6.1,3.3l3.3,6.1l6.1-3.3"/>
	<path class="st0" d="M190.3,145.5l-6.1,3.3l3.3,6.1l6.1-3.3"/>
	<path class="st0" d="M186.4,136.9l-4.7,2.6l2.6,4.7l4.8-2.6"/>
	<path class="st0" d="M180.1,149.9l-4.8,2.6l2.6,4.7l4.8-2.6"/>
	<path class="st0" d="M181.9,130l-4.8,2.6l2.6,4.7l4.8-2.6"/>
	<path class="st0" d="M178.3,141.4l-4.8,2.6l2.6,4.7l4.8-2.6"/>
	<path class="st0" d="M175.5,135.2l-3.3,1.8l1.8,3.3l3.3-1.8"/>
	<path class="st0" d="M170.4,144.4l-3.3,1.8l1.8,3.3l3.3-1.8"/>
	<path class="st0" d="M173.9,179.7l1.1-8.6l8.6,1.1l-1.1,8.6L173.9,179.7z"/>
	<path class="st0" d="M175.8,166.6l0.9-6.9l6.9,0.9l-0.9,6.9L175.8,166.6z"/>
	<path class="st0" d="M162.7,176.3l0.9-6.9l6.9,0.9l-0.9,6.9L162.7,176.3z"/>
	<path class="st0" d="M166.3,165.7l0.7-5.4l5.4,0.7l-0.7,5.4L166.3,165.7z"/>
	<path class="st0" d="M153.5,172.6l0.7-5.4l5.4,0.7l-0.7,5.4L153.5,172.6z"/>
	<path class="st0" d="M166.6,157.5l0.7-5.4l5.4,0.7l-0.7,5.4L166.6,157.5z"/>
	<path class="st0" d="M157.1,164.6l0.7-5.4l5.4,0.7l-0.7,5.4L157.1,164.6z"/>
	<path class="st0" d="M160.3,156.6l0.5-3.8l3.8,0.5l-0.5,3.8L160.3,156.6z"/>
	<path class="st0" d="M150.7,161.1l0.5-3.8l3.8,0.5l-0.5,3.8L150.7,161.1z"/>
	<path class="st0" d="M149.4,188l-6.4-5.9l-5.9,6.3l6.4,5.9"/>
	<path class="st0" d="M148.2,66.8l-6.4-5.9l-5.9,6.3l6.4,5.9"/>
	<path class="st0" d="M156.1,178.5l-5.1-4.7l-4.7,5.1l5.1,4.7"/>
	<path class="st0" d="M139.8,178.8l-5.1-4.7l-4.7,5.1l5.1,4.7"/>
	<path class="st0" d="M146.8,172.4l-4-3.7l-3.7,4l4,3.7"/>
	<path class="st0" d="M132.4,170.5l-4-3.7l-3.7,4l4,3.7"/>
	<path class="st0" d="M151.9,165.9l-4-3.7l-3.7,4l4,3.7"/>
	<path class="st0" d="M140,166.1l-4-3.7l-3.7,4l4,3.7"/>
	<path class="st0" d="M145,161.5l-2.8-2.6l-2.6,2.8l2.8,2.6"/>
	<path class="st0" d="M134.6,159.6l-2.8-2.6l-2.6,2.8l2.8,2.6"/>
	<path class="st0" d="M102.1,174.1l8.5-1.7l1.7,8.5l-8.5,1.7L102.1,174.1z"/>
	<path class="st0" d="M115.2,171.6l6.8-1.4l1.4,6.8l-6.8,1.4L115.2,171.6z"/>
	<path class="st0" d="M101.8,162.3l6.8-1.4l1.4,6.8l-6.8,1.4L101.8,162.3z"/>
	<path class="st0" d="M113,162.4l5.3-1.1l1.1,5.3l-5.3,1.1L113,162.4z"/>
	<path class="st0" d="M121,160.1l5.3-1.1l1.1,5.3l-5.3,1.1L121,160.1z"/>
	<path class="st0" d="M111.2,153.3l5.3-1.1l1.1,5.3l-5.3,1.1L111.2,153.3z"/>
	<path class="st0" d="M119.9,153.8l3.7-0.7l0.7,3.7l-3.7,0.7L119.9,153.8z"/>
	<path class="st0" d="M112.5,146.2l3.7-0.7l0.7,3.7l-3.7,0.7L112.5,146.2z"/>
	<path class="st0" d="M86.5,153.4l3.6-7.9l-7.9-3.6l-3.6,7.9"/>
	<path class="st0" d="M97.7,156.8l2.9-6.3l-6.3-2.9l-2.9,6.3"/>
	<path class="st0" d="M92.3,141.4l2.9-6.3l-6.3-2.9l-2.9,6.3"/>
	<path class="st0" d="M95.6,143.8l2.2-4.9l4.9,2.2l-2.2,4.9L95.6,143.8z"/>
	<path class="st0" d="M107.2,158.3l2.2-4.9l-4.9-2.2l-2.2,4.9"/>
	<path class="st0" d="M92.9,129.6l2.2-4.9l4.9,2.2l-2.2,4.9L92.9,129.6z"/>
	<path class="st0" d="M103.4,146.5l2.2-4.9l4.9,2.2l-2.2,4.9L103.4,146.5z"/>
	<path class="st0" d="M99.5,135.3l2.2-4.9l4.9,2.2l-2.2,4.9L99.5,135.3z"/>
	<path class="st0" d="M110.4,140.9l1.6-3.5l-3.5-1.6l-1.6,3.5"/>
	<path class="st0" d="M108.9,130.4l1.6-3.5l-3.5-1.6l-1.6,3.5"/>
	<path class="st0" d="M81.6,116l7.5-4.3l-4.3-7.5l-7.5,4.3"/>
	<path class="st0" d="M88.7,125.3l6-3.4l-3.4-6l-6,3.4"/>
	<path class="st0" d="M93.3,109.7l6-3.4l-3.4-6l-6,3.4"/>
	<path class="st0" d="M97.4,118.3l4.7-2.7l-2.7-4.7l-4.7,2.7"/>
	<path class="st0" d="M103.5,105.2l4.7-2.7l-2.7-4.7l-4.7,2.7"/>
	<path class="st0" d="M102.1,125.1l4.7-2.7l-2.7-4.7l-4.7,2.7"/>
	<path class="st0" d="M105.5,113.7l4.7-2.7l-2.7-4.7l-4.7,2.7"/>
	<path class="st0" d="M108.3,119.8l3.3-1.9l-1.9-3.3l-3.3,1.9"/>
	<path class="st0" d="M113.2,110.5l3.3-1.9l-1.9-3.3l-3.3,1.9"/>
	<path class="st0" d="M99.6,82.9l0.9-8.6l8.6,0.9l-0.9,8.6L99.6,82.9z"/>
	<path class="st0" d="M99.9,94.6l0.7-6.9l6.9,0.7l-0.7,6.9L99.9,94.6z"/>
	<path class="st0" d="M112.8,84.6l0.7-6.9l6.9,0.7l-0.7,6.9L112.8,84.6z"/>
	<path class="st0" d="M111.1,93.9l0.6-5.4l5.4,0.6l-0.6,5.4L111.1,93.9z"/>
	<path class="st0" d="M123.7,86.9l0.6-5.4l5.4,0.6l-0.6,5.4L123.7,86.9z"/>
	<path class="st0" d="M110.9,102.2l0.6-5.4l5.4,0.6l-0.6,5.4L110.9,102.2z"/>
	<path class="st0" d="M120.3,94.9l0.6-5.4l5.4,0.6l-0.6,5.4L120.3,94.9z"/>
	<path class="st0" d="M119,101.6l0.4-3.8l3.8,0.4l-0.4,3.8L119,101.6z"/>
	<path class="st0" d="M128.5,96.9l0.4-3.8l3.8,0.4l-0.4,3.8L128.5,96.9z"/>
	<path class="st0" d="M169.4,133c-4.5-2.6-10.9-3.4-17.4-1c-2.9,1.1-5.7,3-8.1,4.8c-1.5-9.2-0.8-17.8-0.4-22c0,0,0,0,0.1,0
		c3.3,2.1,2.4,7.8,1.7,9.4c0,0,0,0.1,0.1,0c4.1-4.8,2.1-10.1,1.2-11.5c-0.2-0.2,0.8,0.5,1.5,1.5c2.8,3.6,1.5,7.7,1.8,7.6
		c0,0,0,0,0,0c1.9-3.7,1.3-8.4-2.6-11.8c-0.2-0.2,0.5,0.1,0.7,0.2c3.3,1.2,5,4.6,5,7.6c0,0.7,2.2-5.7-3.2-9c-1-0.6-2.1-0.9-2.7-1
		c-0.5-0.1,2.9-0.6,5.3,1.1c1.4,1,1.8,2.2,1.8,1.8c-0.4-4.3-5.5-6-8.5-4.7c-0.3,0.2,1.2-2.1,4.2-1.9c0.6,0,1.1,0.2,1.5,0.4
		c0,0,0.1,0,0-0.1c-2.2-2.6-5.9-2.6-7.9,0.3c0,0,0,0-0.1,0c-0.7-1.3-1.4-3-1.6-4.6c-0.1-0.4-0.2,2-1.7,4.6c0,0,0,0-0.1,0
		c-2-3-5.6-2.9-7.9-0.3c0,0,0,0.1,0,0.1c1.5-0.7,4.3-0.5,5.7,1.5c0,0,0,0.1,0,0c-3.2-1.3-8.1,0.5-8.5,4.7c0,0,0,0.1,0.1,0
		c0.1-0.3,0.5-0.8,1.1-1.4c2.5-2.2,6.5-1.6,5.9-1.5c-1.5,0.2-4.7,1.6-5.9,4.7c-1,2.6,0,6,0,5.1c0-2.9,1.7-6.7,5.7-7.7
		c0,0,0.1,0,0,0.1c-6.3,5.5-2.5,12.3-2.5,11.8c-0.2-2.2-0.4-6.1,3.3-9.1c0,0,0.1,0,0.1,0c-0.8,1.3-2.8,6.7,1.2,11.5c0,0,0.1,0,0.1,0
		c-0.7-1.6-1.6-7.4,1.7-9.4c0,0,0,0,0.1,0c0.4,4.2,1.1,12.8-0.4,22c-5.2-4-10.3-6.5-16.8-6.3c-3.3,0.1-6.4,1.1-8.7,2.4
		c-0.1,0,0,0.2,0.1,0.1c9.5-3.1,17.8,0.7,25.5,7c-3.9,3.4-7.4,6.9-9.4,8c-0.5-0.7-1.3-1-2.2-0.8c-1.7,0.4-2.1,2.5-1.2,3.4
		c3.4,3.3,8.6-3.3,14.9-8.8c6,5.3,11.5,12.2,14.9,8.8c0.3-0.3,0.6-1.1,0.4-1.8c-0.4-1.7-2.7-2.3-3.8-0.8c-2-1-5.4-4.5-9.4-8
		c7.7-6.4,15.9-10,25.5-7C169.4,133.1,169.5,133,169.4,133"/>
	<path class="st0" d="M138.9,224.3h2.5V202h-2.5V224.3z M73.7,221.8l-3.9-9.5c4-3.4,9-2.8,12.2,0l-3.9,9.5H73.7z M59.9,221.8
		c-2-0.1-3.3,0.2-5.1-0.4c-6.7-2.1-4.9-11.5,2.6-11.5h2.5V221.8z M129.1,221.8c-4-0.1-7.6,0.7-9.5-2.5c0.4-1.6,0.2-3,0.2-10.3h-2.5
		v8.4c0,6.2-7.5,5.8-9.2,2.1c-0.7-1.5-0.3-2.1-0.4-10.5h-2.5v8.6c0,2.8-1.8,4.2-4.2,4.2h-4.8V209h-2.5v12.8H80.7l4.4-10.4
		c-2.5-2.2-5.9-4.2-9.2-4.2c-3.3,0-6.7,1.9-9.2,4.2l4.4,10.4h-8.6v-14.4h-4c-5.6,0-10.3,3.2-10.3,8.5c0,9.4,11.6,8.3,11.8,8.3
		c0,0.3,0.3,2.4-1.1,3.5c-1.3,1-3.7,1-5.2,0.6c-0.6-0.1-1.3-0.4-2.1-0.7l-0.8,2.4c1.6,0.6,3.1,1.1,4.8,1.1c4.7,0,6.9-2.4,6.9-6.4
		v-0.5c40.6-0.3,39.4,0.6,41.9-0.8c0.9-0.5,1.7-1.2,2.3-2.1c0.6,1,1.4,1.8,2.5,2.3c2.2,1.2,5.5,1.1,7.5,0.1c1-0.5,1.9-1.3,2.4-2.4
		c1,1.6,2.5,2.7,5.4,2.8v0h7.2V202h-2.5V221.8z M352.4,220.7c-2.2,5.1-9.8,5.3-12-0.1c-0.6-1.6-0.6-3.4,0-5
		c2.7-6.6,12.5-4.7,12.5,2.5C352.9,219,352.7,219.9,352.4,220.7 M328.3,220.7c-1.9,4.4-7.6,5.1-10.6,2c-2.5-2.5-2.4-6.7,0-9.2
		c1.9-2.1,4.9-2.4,7.2-1.4C328.4,213.6,329.6,217.6,328.3,220.7 M267.7,221.8c-1.9-0.1-3.3,0.2-5.1-0.4c-6.6-2.2-5-11.5,2.6-11.5
		h2.5L267.7,221.8L267.7,221.8z M363.2,221.8h-8.6c2.7-5.9-1.5-12.7-8.3-12.7c-6.3,0-10.7,6.4-8.1,12.7h-7.7
		c2.6-5.7-1.3-12.7-8.3-12.7c-6.3,0-10.7,6.4-8.1,12.7h-7.9V202h-2.5v19.8h-7.9c-0.1-2.6,0.6-6.3-1.6-8.7c-1.4-1.6-3.1-2.1-5.3-2.1
		h-11l4.7-8.9h-2.7l-4.8,8.9c0.2,1,0.5,1.8,1.1,2.5c12.4,0.1,13.3-0.3,14.7,0.4c1.2,0.5,1.9,1.3,2.1,2.4c0.3,1.3,0.1,2.2,0.2,5.6
		h-23v-14.4h-3.9c-6.6,0-10.3,3.9-10.3,8.4c0,5.7,4.6,8.4,10.3,8.4h49.4c3.7,3.9,9.8,3.6,13.2,0h10.9c3.6,3.9,9.8,3.6,13.2,0h12.7
		V202h-2.5L363.2,221.8L363.2,221.8z M372.9,224.3h2.5V202h-2.5V224.3z M189.6,229.8h2.6v-2.6h-2.6V229.8z M213.9,221.8l-3.9-9.5
		c4-3.4,9-2.8,12.2,0l-3.9,9.5H213.9z M231.5,221.8H221l4.4-10.4c-2.5-2.2-5.9-4.2-9.2-4.2c-3.4,0-6.7,2-9.2,4.2l4.4,10.4H202v-14.4
		h-2.5v17.4c0,2.2-0.2,3.8-2.4,3.8c-0.5,0-0.8,0-1.3-0.2l-0.7,2.4c2.1,0.6,4.5,0.4,5.8-1.4c1.1-1.6,1-3.9,1-5.1h32V202h-2.5
		L231.5,221.8L231.5,221.8z M42.6,209.6c-2.8-3-6-1.9-7.1-2.2v2.5c1.8,0.1,2.7-0.2,3.9,0.4c1,0.5,1.8,1.3,2.1,2.4
		c0.3,1.3,0.1,2.3,0.2,9.1H30v2.5h14.2c-0.1-9.4,0.3-10.4-0.4-12.5C43.6,210.9,43.2,210.2,42.6,209.6 M180.5,229.8h2.6v-2.6h-2.6
		V229.8z M165.3,221.8c-1.9-0.1-3.3,0.2-5.1-0.4c-6.6-2.2-5-11.5,2.6-11.5h2.5V221.8z M192.1,207.4h-2.5v14.4h-9.4v-14.4h-2.5v14.4
		h-9.9v-14.4c-3.1,0.1-7.8-0.6-11.4,2.4c-5.1,4.3-3.8,14.5,7.5,14.5h28.2L192.1,207.4L192.1,207.4z M176.1,229.8h2.6v-2.6h-2.6
		V229.8z M9.8,202H7.3v2.6h2.6C9.8,204.6,9.8,202,9.8,202z M265.9,202h-2.6v2.6h2.6V202z M167.8,202h-2.6v2.6h2.6V202z M24.5,229.8
		h2.6v-2.6h-2.6V229.8z M163.5,202h-2.6v2.6h2.6V202z M14.2,202h-2.6v2.6h2.6V202z M20.1,229.8h2.6v-2.6h-2.6V229.8z M11.7,221.8
		c-1.9-0.1-3.3,0.2-5.1-0.4c-6.5-2.1-5-11.5,2.6-11.5h2.5V221.8z M26.6,207.4h-2.5v14.4h-9.9v-14.4c-3,0.1-5.4-0.3-8.2,0.6
		c-2.3,0.8-4.3,2.2-5.3,4.5c-1.1,2.3-0.9,5.3,0.1,7.1c1.8,3.4,5.6,4.6,9.4,4.6h16.3C26.6,224.3,26.6,207.4,26.6,207.4z M241.3,224.3
		h2.5V202h-2.5V224.3z M270.2,202h-2.6v2.6h2.6V202z"/>
	<path class="st0" d="M2.4,240.6h3.1v8.9l8.5-8.9h3.8l-7.4,7.6l7.7,10.1h-3.8l-6.1-8l-2.8,2.8v5.1H2.4"/>
	<path class="st0" d="M21,240.6h3.1v17.7H21V240.6z"/>
	<path class="st0" d="M29,240.6h2.9l9.5,12.3v-12.3h3.1v17.7h-2.6L32,245.7v12.6H29"/>
	<path class="st0" d="M48.3,249.5L48.3,249.5c0-5,3.8-9.2,9.2-9.2c3.1,0,5,0.9,6.8,2.4l-2,2.4c-4.8-4.1-10.7-1.1-10.7,4.4v0.1
		c0,3.6,2.4,6.3,6,6.3c1.7,0,3.2-0.5,4.3-1.3v-3.3h-4.5v-2.7h7.6v7.4C58.6,261.3,48.3,258.5,48.3,249.5"/>
	<path class="st0" d="M75.9,255.5c8.3,0,8.2-12.1,0-12.1h-3.5v12.1H75.9z M69.3,240.6h6.6c12.7,0,12.5,17.7,0,17.7h-6.6V240.6z"/>
	<path class="st0" d="M103.6,249.5L103.6,249.5c0-3.5-2.5-6.4-6-6.4c-3.5,0-6,2.8-6,6.3v0.1c0,3.4,2.5,6.3,6,6.3
		C101.1,255.8,103.6,253,103.6,249.5 M88.3,249.5L88.3,249.5c0-5,3.9-9.2,9.3-9.2c5.5,0,9.3,4.1,9.3,9.1v0.1c0,5-3.9,9.2-9.3,9.2
		C92.1,258.6,88.3,254.5,88.3,249.5"/>
	<path class="st0" d="M110.7,240.6h3.3l5.4,8.4l5.4-8.4h3.3v17.7h-3.1v-12.7l-5.6,8.4h-0.1l-5.6-8.3v12.7h-3.1"/>
	<path class="st0" d="M154.9,249.5L154.9,249.5c0-3.5-2.5-6.4-6-6.4c-3.5,0-6,2.8-6,6.3v0.1c0,3.4,2.5,6.3,6,6.3
		C152.5,255.8,154.9,253,154.9,249.5 M139.6,249.5L139.6,249.5c0-5,3.9-9.2,9.3-9.2c5.5,0,9.3,4.1,9.3,9.1v0.1c0,5-3.9,9.2-9.3,9.2
		C143.4,258.6,139.6,254.5,139.6,249.5"/>
	<path class="st0" d="M162.1,240.6h13.2v2.8h-10.1v4.8h9v2.8h-9v7.2h-3.1"/>
	<path class="st0" d="M185.2,255.8l1.9-2.2c1.7,1.5,3.4,2.3,5.6,2.3c1.9,0,3.1-0.9,3.1-2.2v0c0-4-9.9-1.3-9.9-8v-0.1
		c0-5.4,7.6-6.8,12.5-2.9l-1.7,2.4c-4.1-3-7.7-1.8-7.7,0.3v0.1c0,3.9,9.9,1.4,9.9,8v0.1C198.9,259.5,190.1,260.2,185.2,255.8"/>
	<path class="st0" d="M213,251.3l-3.1-7.1l-3,7.1H213z M208.5,240.5h2.9l7.8,17.9h-3.3l-1.8-4.3h-8.4l-1.8,4.3h-3.2L208.5,240.5z"/>
	<path class="st0" d="M221,250.8v-10.2h3.1v10.1c0,3.3,1.7,5.1,4.5,5.1c2.8,0,4.5-1.7,4.5-4.9v-10.2h3.1v10.1c0,5.3-3,8-7.6,8
		C224,258.6,221,256,221,250.8"/>
	<path class="st0" d="M247.5,255.5c8.3,0,8.2-12.1,0-12.1h-3.5v12.1H247.5z M240.8,240.6h6.6c12.7,0,12.5,17.7,0,17.7h-6.6V240.6z"
		/>
	<path class="st0" d="M260.9,240.6h3.1v17.7h-3.1V240.6z"/>
	<path class="st0" d="M287.1,251.3l-3.1-7.1l-3,7.1H287.1z M282.6,240.5h2.9l7.8,17.9h-3.3l-1.8-4.3h-8.4l-1.8,4.3h-3.2L282.6,240.5
		z"/>
	<path class="st0" d="M304,249.4c2.2,0,3.7-1.2,3.7-3v-0.1c0-1.9-1.4-2.9-3.7-2.9h-4.5v6L304,249.4L304,249.4z M296.3,240.6h7.9
		c3.8,0,6.6,1.9,6.6,5.6c-0.1,0.2,0.4,4.1-4.2,5.4l4.8,6.7h-3.7l-4.4-6.2c-0.3,0-4.1,0-3.9,0v6.2h-3.1V240.6z"/>
	<path class="st0" d="M326,251.3l-3.1-7.1l-3,7.1H326z M321.5,240.5h2.9l7.8,17.9h-3.3l-1.8-4.3h-8.4l-1.8,4.3h-3.2L321.5,240.5z"/>
	<path class="st0" d="M343.4,255.6c2.1,0,3.4-0.8,3.4-2.4v-0.1c0-1.5-1.2-2.4-3.7-2.4h-5v4.9H343.4z M342.5,248.1
		c2,0,3.4-0.8,3.4-2.4v-0.1c0-1.4-1.1-2.3-3.1-2.3h-4.5v4.7H342.5z M335.2,240.6h8c3.1,0,5.8,1.5,5.8,4.5c-0.1,0.2,0.3,2.5-2.5,4
		c2.1,0.7,3.5,1.9,3.5,4.3v0.1c0,3.2-2.6,4.9-6.6,4.9h-8.2V240.6z"/>
	<path class="st0" d="M353.8,240.6h3.1v17.7h-3.1V240.6z"/>
	<path class="st0" d="M372.2,251.3l-3.1-7.1l-3,7.1H372.2z M367.8,240.5h2.9l7.8,17.9h-3.3l-1.8-4.3H365l-1.8,4.3h-3.2L367.8,240.5z
		"/>
</g>
</svg>
