<svg enable-background="new 0 0 520 96" viewBox="0 0 520 96" xmlns="http://www.w3.org/2000/svg"><g fill="#fff"><path d="m1.3 23.3c-.9 1-1.3 2.1-1.3 3.5v41.9c0 1.4.4 2.5 1.3 3.5.9.9 2.1 1.3 3.5 1.3s2.5-.4 3.5-1.3c.8-.9 1.3-2.1 1.3-3.5v-41.9c0-1.4-.5-2.5-1.3-3.5-1-.8-2.1-1.3-3.5-1.3s-2.5.5-3.5 1.3z"/><path d="m92.5 32.6c-2-3.6-4.7-6.4-8.1-8.3-3.3-1.7-6.9-2.6-10.8-2.7-.1 0-.3-.1-.3-.1h-21.7c-1.3 0-2.4.5-3.2 1.3-.9.9-1.3 2-1.3 3.2v.4.4 42c0 1.4.4 2.5 1.3 3.5.9.9 2.1 1.3 3.5 1.3s2.5-.4 3.5-1.3c.8-.9 1.3-2.1 1.3-3.5v-26.6c0-2.3.6-4.2 1.8-6.1 1.2-1.8 2.9-3.2 5.1-4.3 2.2-1 4.6-1.6 7.2-1.6 4.5 0 8.1 1.3 10.8 4 2.7 2.6 4.1 6.5 4.1 11.5v23.1c0 1.4.4 2.5 1.3 3.5.9.9 2.1 1.3 3.5 1.3 1.3 0 2.4-.4 3.4-1.3.9-.9 1.4-2.1 1.4-3.5v-23.2c.1-5.1-.9-9.4-2.8-13z"/><path d="m133 23.9v8.1 23.2c0 3.5.7 6.6 2.2 9.3 1.4 2.8 3.4 5 5.9 6.6s5.4 2.4 8.5 2.4h1.7c1.6 0 2.9-.4 4-1.3 1-.8 1.6-2 1.6-3.4 0-1.3-.5-2.4-1.2-3.4-.8-.8-1.7-1.3-2.8-1.3h-3.2c-2.1 0-3.8-.8-5.1-2.5-1.4-1.7-2.1-3.8-2.1-6.3v-23.3h8c1.3 0 2.4-.4 3.2-1.1.8-.8 1.2-1.7 1.2-2.8 0-1.2-.5-2.3-1.2-3-.8-.8-1.9-1.1-3.2-1.1h-8v-13.7c0-1.3-.5-2.4-1.3-3.4-.9-.8-2.1-1.3-3.4-1.3-1.4 0-2.5.5-3.4 1.3-.9.9-1.3 2.1-1.3 3.4z"/><path d="m233.1 49.9c.8-.8 1.2-1.8 1.2-3 0-4.9-.9-9.3-2.8-13.2-1.9-3.8-4.6-6.8-8.1-8.9-3.6-2.1-7.7-3.2-12.5-3.2-4.9 0-9.3 1.1-13.2 3.4s-6.9 5.4-9 9.3c-2.2 4-3.2 8.5-3.2 13.5 0 5.1 1.1 9.5 3.4 13.5s5.5 7.1 9.6 9.3c4 2.3 8.7 3.3 13.8 3.3 2.8 0 5.8-.5 9-1.6 3.2-1 5.8-2.4 8-4.1.9-.8 1.5-1.7 1.5-2.8s-.6-2.3-1.7-3.2c-.8-.6-1.7-.9-2.8-.9-1.2 0-2.3.4-3.1 1-1.3 1-3 1.9-5.1 2.5-2.1.8-4 1-5.8 1-4.8 0-8.8-1.3-12.1-4-3.3-2.6-5.3-6.2-5.9-10.6h35.7c1.2-.1 2.2-.5 3.1-1.3zm-33.4-16.4c2.8-2.4 6.6-3.8 11.2-3.8 4.1 0 7.4 1.3 10.1 3.8 2.5 2.5 4.1 5.9 4.7 10.1h-31.3c.7-4.2 2.5-7.6 5.3-10.1z"/><path d="m299.1 23c-1.9-.9-4.5-1.5-7.8-1.5-3.2 0-6.1.7-8.8 1.9-2.8 1.3-5.1 3-7 5.2v-1.8c0-3.1-1.6-4.7-4.7-4.7-1.5 0-2.7.5-3.5 1.2-.8.8-1.2 2-1.2 3.5v42c0 1.6.4 2.8 1.2 3.6s2 1.1 3.5 1.1 2.7-.4 3.5-1.2 1.2-2 1.2-3.5v-27.5c0-3.5 1.3-6.3 4.1-8.4 2.7-2.1 6.4-3.1 10.9-3.1 1.5 0 3.6.3 6.1.7.6.2 1 .2 1.4.2 1.9 0 3.2-.9 3.8-3 0-.2.1-.5.1-.9.1-1.6-.9-2.8-2.8-3.8z"/><path d="m371.3 69.5c0-1.1-.4-2.1-1-2.8l-18.2-22.4 17.3-15.4c.9-.8 1.5-1.9 1.5-3.2 0-1.1-.5-2.1-1.2-2.9-.8-.9-1.9-1.5-3.2-1.5-1.1 0-2.2.5-2.9 1.2l-22.9 20.4v-38.3c0-1.3-.5-2.4-1.3-3.3-.8-.8-2-1.3-3.3-1.3-1.4 0-2.5.5-3.4 1.3s-1.2 2-1.2 3.3v64.2c0 1.4.4 2.5 1.2 3.4.8.8 2 1.2 3.4 1.2 1.3 0 2.4-.4 3.3-1.2.8-.8 1.3-2 1.3-3.4v-14.3l4.7-4.1 17.9 22.1c.8 1.1 2 1.7 3.4 1.7 1 0 2.1-.4 3-1.1 1.1-1 1.6-2.2 1.6-3.6z"/><path d="m444.7 49.9c.8-.8 1.2-1.8 1.2-3 0-4.9-.9-9.3-2.8-13.2-1.9-3.8-4.6-6.8-8.1-8.9-3.6-2.1-7.7-3.2-12.5-3.2-4.9 0-9.3 1.1-13.2 3.4s-6.9 5.4-9 9.3-3.2 8.5-3.2 13.5c0 5.1 1.1 9.5 3.4 13.5s5.5 7.1 9.6 9.3c4 2.3 8.7 3.3 13.8 3.3 2.8 0 5.8-.5 9-1.6 3.2-1 5.8-2.4 8-4.1.9-.8 1.5-1.7 1.5-2.8s-.6-2.3-1.7-3.2c-.8-.6-1.7-.9-2.8-.9-1.2 0-2.3.4-3.1 1-1.3 1-3 1.9-5.1 2.5-2.1.8-4 1-5.8 1-4.8 0-8.8-1.3-12.1-4-3.3-2.6-5.3-6.2-5.9-10.6h35.7c1.2-.1 2.3-.5 3.1-1.3zm-33.4-16.4c2.8-2.4 6.6-3.8 11.2-3.8 4.1 0 7.4 1.3 10.1 3.8 2.5 2.5 4.1 5.9 4.7 10.1h-31.3c.7-4.2 2.5-7.6 5.3-10.1z"/><path d="m520 26.1c0-1.7-1-2.9-2.9-3.7-.8-.3-1.5-.5-2.3-.5-1.7 0-2.9.9-3.7 2.7l-15.1 34.3-17.2-34.2c-.9-1.7-2.3-2.6-4-2.6-.8 0-1.3.2-1.9.4-.8.4-1.5.9-2 1.6-.6.8-.8 1.5-.8 2.3s.1 1.4.5 2l21.2 40.2-9.4 21.2c-.4.8-.6 1.5-.6 2.3 0 1.7.9 2.9 2.8 3.7.8.4 1.6.6 2.3.6 1.7 0 2.9-.9 3.7-2.9l28.8-64.7c.4-1.2.6-2 .6-2.7z"/></g></svg>