<svg enable-background="new 0 0 823 329.5" viewBox="0 0 823 329.5" xmlns="http://www.w3.org/2000/svg"><g fill="none" stroke="#fff" stroke-miterlimit="10"><circle cx="141.5" cy="50.5" r="50"/><circle cx="50.5" cy="164.5" r="50"/><circle cx="141.5" cy="278.7" r="50"/><circle cx="681.5" cy="279" r="50"/><circle cx="772.5" cy="165" r="50"/><circle cx="681.5" cy="50.8" r="50"/></g><g fill="#fff"><path d="m162.4 36.5c-1.4 0-2.6.9-3.1 2.1-1-.4-2.6-.5-4.8.6-1.7.9-2.6.7-3 .5v-2.3c0-.5-.4-.8-.8-.8h-5v-3.3h5c.5 0 .8-.4.8-.8v-1.1c.2.1.5.1.8.1.8 0 1.7-.2 3-.8 2.1-1 3.3-.6 3.8-.3.2 1.7 1.6 3 3.3 3 1.8 0 3.3-1.5 3.3-3.3s-1.5-3.3-3.3-3.3c-1.4 0-2.5.8-3.1 2-1-.4-2.6-.6-4.9.5-1.7.9-2.6.7-3 .5v-2.1c0-.5-.4-.8-.8-.8h-20c-.5 0-.8.4-.8.8v1.1c-1-.3-2.5-.4-4.6.6-1.8.9-2.7.7-3 .4-.2-1.7-1.6-3-3.3-3-1.8 0-3.3 1.5-3.3 3.3s1.5 3.3 3.3 3.3c1.3 0 2.5-.8 3-1.9.3.1.7.2 1.1.2.8 0 1.7-.2 3-.8 2.1-1 3.3-.6 3.8-.3v2.1c0 .5.4.8.8.8h5v3.3h-5c-.5 0-.8.4-.8.8v1.1c-1-.3-2.5-.4-4.6.6-1.8.9-2.7.7-3 .4-.2-1.7-1.6-3-3.3-3-1.8 0-3.3 1.5-3.3 3.3s1.5 3.3 3.3 3.3c1.3 0 2.5-.8 3-1.9.3.1.7.2 1.1.2.8 0 1.7-.2 3-.8 2.1-1 3.3-.6 3.8-.3v2.1c0 .5.4.8.8.8h4.2l-5.8 32.5c-.1.5.2.9.7 1h.1c.4 0 .8-.3.8-.7l.5-2.8 9.6-6.4 9.6 6.4.5 2.8c.1.4.4.7.8.7h.1c.5-.1.8-.5.7-1l-5.9-32.7h4.2c.5 0 .8-.4.8-.8v-.9c.2.1.5.1.8.1.8 0 1.7-.2 3-.8 2.1-1.1 3.4-.6 3.9-.3.3 1.6 1.6 2.8 3.3 2.8 1.8 0 3.3-1.5 3.3-3.3-.1-2-1.6-3.5-3.4-3.5zm0-8.3c.9 0 1.7.8 1.7 1.7s-.8 1.7-1.7 1.7-1.7-.8-1.7-1.7c0-1 .7-1.7 1.7-1.7zm-43.6 3.3c-.9 0-1.7-.8-1.7-1.7s.8-1.7 1.7-1.7 1.7.8 1.7 1.7c0 1-.7 1.7-1.7 1.7zm0 10.1c-.9 0-1.7-.8-1.7-1.7s.8-1.7 1.7-1.7 1.7.8 1.7 1.7-.7 1.7-1.7 1.7zm12.6-10.1v-3.3h18.4v3.3h-4.2-1.7-6.7-1.7zm12.6 1.7v3.3h-6.7v-3.3zm-9.1 18.7 4.3 3.3-5.7 4.3zm.3-1.8 1.2-6.7v-.1h8.4v.1l1.2 6.7-5.4 4zm-3.7 20.8 1.6-9.1 6 4zm3-10.1 6.1-4.6 6.1 4.6-6.1 4.1zm15.2 10.1-7.6-5.1 6-4zm-2-11.5-5.7-4.3 4.3-3.3zm2.1-17.8h-18.4v-3.3h4.2 1.7 6.7 1.7 4.2zm12.6 0c-.9 0-1.7-.8-1.7-1.7s.8-1.7 1.7-1.7 1.7.8 1.7 1.7c-.1.9-.8 1.7-1.7 1.7z"/><path d="m703.9 46.1 5.4-3.5-1.3-2-5.5 3.5-5.8-14.8h-30.6l-5.8 14.8-5.5-3.5-1.3 2 5.4 3.5c-2.2 1-3.7 3.2-3.7 5.8v8.5c0 3.1 2.2 5.7 5.2 6.2v2.1c0 3.2 2.6 5.8 5.8 5.8s5.8-2.6 5.8-5.8v-2h18.8v2c0 3.2 2.6 5.8 5.8 5.8s5.8-2.6 5.8-5.8v-2.1c1.9-.4 3.5-1.5 4.4-3.3.5-.9.7-1.9.7-3v-8.5c.1-2.5-1.4-4.7-3.6-5.7zm-36.2-14.4h12.5v4.7h2.4v-4.7h12.5l5.4 13.8h-38.1zm1.8 37c0 1.9-1.5 3.4-3.4 3.4s-3.4-1.5-3.4-3.4v-2h6.8zm27.1 3.4c-1.9 0-3.4-1.5-3.4-3.4v-2h6.8v2c0 1.9-1.5 3.4-3.4 3.4zm8.6-11.8c0 .6-.2 1.3-.4 1.8-.7 1.3-2 2.1-3.5 2.1h-39.8c-2.2 0-3.9-1.8-3.9-3.9v-8.5c0-2.2 1.8-3.9 3.9-3.9h39.7c2.2 0 3.9 1.8 3.9 3.9z"/><path d="m697.5 51.8c-2.7 0-4.9 2.2-4.9 4.9 0 2 1.2 3.7 3 4.5.6.3 1.2.4 1.9.4 1.8 0 3.4-.9 4.2-2.5.4-.7.6-1.6.6-2.4.1-2.7-2.1-4.9-4.8-4.9zm2.2 6.1c-.6 1.1-2 1.5-3.1 1.1-.9-.4-1.5-1.3-1.5-2.3 0-1.4 1.1-2.5 2.5-2.5s2.5 1.1 2.5 2.5c-.1.4-.2.8-.4 1.2z"/><path d="m665.2 51.8c-2.7 0-4.9 2.2-4.9 4.9s2.2 4.9 4.9 4.9 4.9-2.2 4.9-4.9-2.2-4.9-4.9-4.9zm0 7.3c-1.4 0-2.5-1.1-2.5-2.5s1.1-2.5 2.5-2.5 2.5 1.1 2.5 2.5-1.1 2.5-2.5 2.5z"/><path d="m677 55.4h8.8v2.4h-8.8z"/><path d="m66.5 151h-5.6c-.6 0-.9.4-.9.9 0 .6.4.9.9.9h5.6c.6 0 .9-.4.9-.9s-.4-.9-.9-.9z"/><path d="m66.5 154.7h-5.6c-.6 0-.9.4-.9.9 0 .6.4.9.9.9h5.6c.6 0 .9-.4.9-.9s-.4-.9-.9-.9z"/><path d="m68.1 146.4c-5.2-1.2-12.7-1.5-17.9-.5l-.8.2c-1.2.2-2.4.5-3.6.7l-1.8.3-4.6.7c-1.7.2-3.1 1.5-3.4 3.2h-3.8c-2 0-3.7 1.7-3.7 3.7h-9.3c-.6 0-.9.4-.9.9 0 .6.4.9.9.9h9.3c0 2 1.7 3.7 3.7 3.7h3.8c.2.8.6 1.5 1.1 2 .6.6 1.4 1 2.4 1.2l9.2 1.4c1.7.4 3.8.7 6.1.8l1.5 7c.1.5.5.7.9.7h1.9v6l-5.1 5.1c-.2.1-.4.3-.4.6v.2 3.7c0 1 .8 1.9 1.9 1.9h13.9c1 0 1.9-.8 1.9-1.9v-3.7c0-.2-.1-.5-.2-.6l-1.7-5v-7.4l-.5-7.7c3-1 5.2-3.9 5.2-7.2v-3.7c-.2-3.3-2.5-6.2-6-7.2zm-28.4 3.3 3.5-.6v13.1l-3.6-.5c-1.1-.2-2-1.2-2-2.3v-7.4c0-1.2.9-2.2 2.1-2.3zm-9.5 6.9v-1.9c0-1 .8-1.9 1.9-1.9h3.7v5.6h-3.7c-1.1 0-1.9-.8-1.9-1.8zm37.2 15.8v6.5h-6.5v-6.3-6.8c2.2-.1 4.2-.4 6-.7zm-9.5-.8-1.2-5.6h2.3v5.6zm2.4 9.1h7.3l1.2 3.7h-12.3zm9 8.4h-13.9v-2.8h13.9zm2.7-31.6c0 2.6-1.8 4.8-4.4 5.5-5.2 1.3-13.6 1.4-18.7.1l-3.8-.6v-13.7l1-.2c1.2-.2 2.5-.4 3.7-.7l.8-.2c2-.4 4.5-.6 7.1-.6 3.5 0 7.3.3 9.9 1 2.5.7 4.3 2.9 4.3 5.5z"/><path d="m681.2 274c-2.2 0-4 1.8-4 4s1.8 4 4 4 4-1.8 4-4-1.8-4-4-4zm0 6.3c-1.3 0-2.4-1.1-2.4-2.4s1.1-2.4 2.4-2.4 2.4 1.1 2.4 2.4-1.1 2.4-2.4 2.4z"/><path d="m693.1 292.3c0 1 .7 1.9 1.6 2.2v3.3c-2.7-.4-4.8-2.7-4.8-5.5 0-.5.1-.9.2-1.4l-1.5-.4c-.2.6-.2 1.2-.2 1.8 0 4 3.2 7.2 7.2 7.2s7.2-3.2 7.2-7.2-3.2-7.2-7.2-7.2c-.3 0-.6 0-.9.1l.1.8v2.2l-6.5-9.1c.1-.4.1-.8.1-1.2s0-.8-.1-1.2l7.7-10.8c.8-.2 1.5-.8 1.8-1.6h3.3c-.4 2.7-2.7 4.8-5.5 4.8-.2 0-.5 0-.7 0l-.2 1.6c.3 0 .6.1.9.1 4 0 7.2-3.2 7.2-7.2s-3.2-7.2-7.2-7.2-7.2 3.2-7.2 7.2c0 .6.1 1.2.2 1.8l1.5-.4c-.1-.2-.1-.4-.1-.6h2.6l-8.9 6.9c-.8-.3-1.6-.5-2.5-.5s-1.8.2-2.5.5l-9.5-7.3c0-.1 0-.2 0-.4 0-1-.7-1.9-1.6-2.2v-3.3c2.7.4 4.8 2.7 4.8 5.5 0 .5-.1.9-.2 1.4l1.5.4c.2-.6.2-1.2.2-1.8 0-4-3.2-7.2-7.2-7.2s-7.2 3.2-7.2 7.2 3.2 7.2 7.2 7.2c.3 0 .6 0 .9-.1l-.1-.8v-2.2l6.5 9.1c-.1.4-.1.8-.1 1.2s0 .8.1 1.2l-7.7 10.8c-.8.2-1.5.8-1.8 1.6h-3.3c.4-2.7 2.7-4.8 5.5-4.8h.7l.2-1.6c-.3 0-.6-.1-.9-.1-4 0-7.2 3.2-7.2 7.2s3.2 7.2 7.2 7.2 7.2-3.2 7.2-7.2c0-.6-.1-1.2-.2-1.8l-1.5.4c.1.2.1.4.1.6h-2.6l8.9-6.9c.8.3 1.6.5 2.5.5s1.8-.2 2.5-.5l9.5 7.3zm3.2-5.5c2.7.4 4.8 2.7 4.8 5.5s-2.1 5.1-4.8 5.5v-3.3c.9-.3 1.6-1.2 1.6-2.2s-.7-1.9-1.6-2.2zm-.8 4.7c.4 0 .8.4.8.8s-.4.8-.8.8-.8-.4-.8-.8.4-.8.8-.8zm-29.5-22.4c-2.7-.4-4.8-2.7-4.8-5.5s2.1-5.1 4.8-5.5v3.3c-.9.3-1.6 1.2-1.6 2.2s.7 1.9 1.6 2.2zm.8-4.7c-.4 0-.8-.4-.8-.8s.4-.8.8-.8.8.4.8.8-.4.8-.8.8zm28.7 0c-.4 0-.8-.4-.8-.8s.4-.8.8-.8.8.4.8.8-.3.8-.8.8zm-5.5-1.6c.4-2.7 2.7-4.8 5.5-4.8s5.1 2.1 5.5 4.8h-3.3c-.3-.9-1.2-1.6-2.2-1.6s-1.9.7-2.2 1.6zm3.9 2.6c.1.1.2.2.3.2l-6.6 9.3c-.5-1.1-1.4-2.1-2.4-2.8zm-25.8.2c.1-.1.2-.1.3-.2l8.7 6.7c-1 .7-1.8 1.7-2.4 2.8zm-1.3 25.9c.4 0 .8.4.8.8s-.4.8-.8.8-.8-.4-.8-.8.3-.8.8-.8zm5.5 1.6c-.4 2.7-2.7 4.8-5.5 4.8s-5.1-2.1-5.5-4.8h3.3c.3.9 1.2 1.6 2.2 1.6s1.9-.7 2.2-1.6zm-3.9-2.6c-.1-.1-.2-.2-.3-.2l6.6-9.3c.5 1.1 1.4 2.1 2.4 2.8zm12.8-7c-3.1 0-5.6-2.5-5.6-5.6s2.5-5.6 5.6-5.6 5.6 2.5 5.6 5.6-2.6 5.6-5.6 5.6zm4 .3c1-.7 1.8-1.7 2.4-2.8l6.6 9.3c-.1.1-.2.1-.3.2z"/><path d="m687.2 266.5c-.3-.9-.5-1.9-.5-2.9 0-4.8 3.9-8.8 8.8-8.8 4.8 0 8.8 3.9 8.8 8.8s-3.9 8.8-8.8 8.8c-.7 0-1.5-.1-2.2-.3l-.4 1.5c.8.2 1.7.3 2.6.3 5.7 0 10.4-4.7 10.4-10.4s-4.7-10.4-10.4-10.4-10.4 4.7-10.4 10.4c0 1.2.2 2.3.6 3.5z"/><path d="m675.1 289.4c.3.9.5 1.9.5 2.9 0 4.8-3.9 8.8-8.8 8.8-4.8 0-8.8-3.9-8.8-8.8 0-4.8 3.9-8.8 8.8-8.8.7 0 1.5.1 2.2.3l.4-1.5c-.8-.2-1.7-.3-2.6-.3-5.7 0-10.4 4.7-10.4 10.4s4.7 10.3 10.4 10.3 10.4-4.7 10.4-10.4c0-1.2-.2-2.3-.6-3.5z"/><path d="m695.5 281.9c-.9 0-1.8.1-2.6.3l.4 1.5c.7-.2 1.5-.3 2.2-.3 4.8 0 8.8 3.9 8.8 8.8 0 4.8-3.9 8.8-8.8 8.8-4.8 0-8.8-3.9-8.8-8.8 0-1 .2-2 .5-2.9l-1.5-.5c-.4 1.1-.6 2.3-.6 3.5 0 5.7 4.7 10.4 10.4 10.4s10.4-4.7 10.4-10.4-4.7-10.4-10.4-10.4z"/><path d="m666.8 274c.9 0 1.8-.1 2.6-.3l-.4-1.5c-.7.2-1.5.3-2.2.3-4.8 0-8.8-3.9-8.8-8.8s3.9-8.8 8.8-8.8c4.8 0 8.8 3.9 8.8 8.8 0 1-.2 2-.5 2.9l1.5.5c.4-1.1.6-2.3.6-3.5 0-5.7-4.7-10.4-10.4-10.4s-10.4 4.7-10.4 10.4 4.7 10.4 10.4 10.4z"/><path d="m783.5 141.6h-19.8c-1.9 0-3.5 1.6-3.5 3.5v40.3c0 1.9 1.6 3.5 3.5 3.5h19.8c1.9 0 3.5-1.6 3.5-3.5v-40.3c-.1-1.9-1.6-3.5-3.5-3.5zm-21.7 6.3h23.6v29.9h-23.6zm1.9-4.7h19.8c1 0 1.9.8 1.9 1.9v1.3h-23.6v-1.3c0-1.1.8-1.9 1.9-1.9zm19.8 44h-19.8c-1 0-1.9-.8-1.9-1.9v-6h23.6v6c0 1.1-.9 1.9-1.9 1.9z"/><path d="m773.6 180.2c-1.7 0-3.1 1.4-3.1 3.1s1.4 3.1 3.1 3.1 3.1-1.4 3.1-3.1-1.4-3.1-3.1-3.1zm0 4.7c-.9 0-1.6-.7-1.6-1.6s.7-1.6 1.6-1.6 1.6.7 1.6 1.6-.8 1.6-1.6 1.6z"/><path d="m770.4 145.5h3.1c.4 0 .8-.4.8-.8s-.4-.8-.8-.8h-3.1c-.4 0-.8.4-.8.8 0 .5.4.8.8.8z"/><path d="m775.9 145.5h.8c.4 0 .8-.4.8-.8s-.4-.8-.8-.8h-.8c-.4 0-.8.4-.8.8 0 .5.4.8.8.8z"/><path d="m794.5 145.2c-.3-.3-.8-.3-1.1 0s-.3.8 0 1.1c2.9 2.9 2.9 7.7 0 10.7-.3.3-.3.8 0 1.1.2.2.4.2.6.2s.4-.1.6-.2c3.5-3.6 3.5-9.3-.1-12.9z"/><path d="m791.2 147c-.3-.3-.8-.3-1.1 0s-.3.8 0 1.1c1 1 1.5 2.3 1.5 3.7s-.5 2.7-1.5 3.6c-.3.3-.3.8 0 1.1.2.2.4.2.6.2s.4-.1.6-.2c1.3-1.3 2-3 2-4.8-.1-1.7-.8-3.4-2.1-4.7z"/><path d="m753.7 146.3c.3-.3.3-.8 0-1.1s-.8-.3-1.1 0c-3.6 3.6-3.6 9.3 0 12.9.2.2.4.2.6.2s.4-.1.6-.2c.3-.3.3-.8 0-1.1-3-3-3-7.7-.1-10.7z"/><path d="m757.1 146.8c-.3-.3-.8-.3-1.1 0-1.3 1.3-2 3-2 4.8s.7 3.5 2 4.8c.2.2.4.2.6.2s.4-.1.6-.2c.3-.3.3-.8 0-1.1-1-1-1.5-2.3-1.5-3.7s.5-2.7 1.5-3.6c.2-.4.2-.9-.1-1.2z"/><path d="m141.2 249.9c-13.5 0-24.4 11-24.4 24.4 0 10.8 7.1 20.1 16.9 23.2v6.8h1.9v3.8h1.9v-3.8h7.5v3.8h1.9v-3.8h1.9v-6.8c9.8-3.2 16.9-12.4 16.9-23.2-.1-13.4-11-24.4-24.5-24.4zm5.6 52.6h-11.3v-4.4c1.8.4 3.7.7 5.6.7s3.8-.2 5.6-.7zm-5.6-5.6c-12.4 0-22.5-10.1-22.5-22.5s10.1-22.5 22.5-22.5 22.5 10.1 22.5 22.5-10.1 22.5-22.5 22.5z"/><path d="m140.3 253.7h1.9v3.8h-1.9z"/><path d="m130.9 256.2h1.9v3.8h-1.9z" transform="matrix(.866 -.5 .5 .866 -111.3761 100.4984)"/><path d="m124 263.1h1.9v3.8h-1.9z" transform="matrix(.5 -.866 .866 .5 -167.0096 240.6891)"/><path d="m120.5 273.4h3.8v1.9h-3.8z"/><path d="m123 282.8h3.8v1.9h-3.8z" transform="matrix(.866 -.5 .5 .866 -125.1518 100.4749)"/><path d="m156.5 281.9h1.9v3.8h-1.9z" transform="matrix(.5 -.866 .866 .5 -167.0755 278.2475)"/><path d="m158.1 273.4h3.8v1.9h-3.8z"/><path d="m155.6 264h3.8v1.9h-3.8z" transform="matrix(.8661 -.4999 .4999 .8661 -111.3498 114.2055)"/><path d="m148.6 257.2h3.8v1.9h-3.8z" transform="matrix(.4999 -.8661 .8661 .4999 -148.2844 259.4155)"/><path d="m126.4 279 11.5-2.9c.6 1.2 1.9 2 3.3 2 2.1 0 3.8-1.7 3.8-3.8s-1.7-3.8-3.8-3.8-3.7 1.7-3.8 3.7l-11.5 2.9zm14.8-6.5c1 0 1.9.8 1.9 1.9 0 1-.8 1.9-1.9 1.9-1 0-1.9-.8-1.9-1.9s.9-1.9 1.9-1.9z"/><path d="m141.2 293.1c-5.1 0-9.8-2-13.4-5.6l-1.3 1.3c3.9 4 9.2 6.2 14.8 6.2s10.8-2.2 14.8-6.2l-1.3-1.3c-3.7 3.6-8.5 5.6-13.6 5.6z"/></g><path d="m203.9 79.9 132 73.3" fill="none" stroke="#fff" stroke-miterlimit="10"/><path d="m335.9 187.1-132 73.3" fill="none" stroke="#fff" stroke-miterlimit="10"/><path d="m618.9 260.1-131.6-73.3" fill="none" stroke="#fff" stroke-miterlimit="10"/><path d="m487.3 152.9 131.6-73.3" fill="none" stroke="#fff" stroke-miterlimit="10"/><path d="m159.2 170.8h176.7" fill="none" stroke="#fff" stroke-miterlimit="10"/><path d="m486.9 170.8h176.3" fill="none" stroke="#fff" stroke-miterlimit="10"/><path d="m385.7 183.1-8.1-5.8 21.4-29.7 8.1 5.8z" fill="#eaeaea"/><path d="m385.7 184.7c-.3 0-.7-.1-1-.3l-8.1-5.8c-.4-.3-.6-.6-.7-1.1-.1-.4 0-.9.3-1.2l21.4-29.7c.5-.7 1.6-.9 2.3-.4l8.1 5.8c.4.3.6.6.7 1.1.1.4 0 .9-.3 1.2l-21.4 29.8c-.3.4-.8.6-1.3.6zm-5.8-7.8 5.4 3.9 19.4-27-5.4-3.9z" fill="#612f76"/><path d="m399 186.9c0 11-8.9 20-20 20-11 0-20-8.9-20-20 0-11 8.9-20 20-20 11 .1 20 9 20 20z" fill="#fff"/><path d="m379 208.6c-11.9 0-21.6-9.7-21.6-21.6s9.7-21.6 21.6-21.6 21.6 9.7 21.6 21.6-9.7 21.6-21.6 21.6zm0-40c-10.1 0-18.3 8.2-18.3 18.3s8.2 18.3 18.3 18.3 18.3-8.2 18.3-18.3-8.2-18.3-18.3-18.3z" fill="#612f76"/><path d="m392.3 186.9c0 7.4-6 13.3-13.3 13.3-7.4 0-13.3-6-13.3-13.3 0-7.4 6-13.3 13.3-13.3 7.4 0 13.3 6 13.3 13.3z" fill="#61cae6"/><path d="m430.6 140.3c0 11-8.9 20-20 20s-20-8.9-20-20c0-11 8.9-20 20-20s20 9 20 20z" fill="#ea3758"/><path d="m410.6 162c-11.9 0-21.6-9.7-21.6-21.6s9.7-21.6 21.6-21.6 21.6 9.7 21.6 21.6c.1 11.9-9.7 21.6-21.6 21.6zm0-40c-10.1 0-18.3 8.2-18.3 18.3s8.2 18.3 18.3 18.3 18.3-8.2 18.3-18.3-8.2-18.3-18.3-18.3z" fill="#612f76"/><path d="m397.3 142c-.9 0-1.7-.7-1.7-1.7 0-8.3 6.7-15 15-15 .9 0 1.7.7 1.7 1.7 0 .9-.7 1.7-1.7 1.7-6.4 0-11.6 5.2-11.6 11.6 0 1-.8 1.7-1.7 1.7z" fill="#fee600"/><path d="m462.2 186.9c0 11-8.9 20-20 20s-20-8.9-20-20c0-11 8.9-20 20-20s20 9 20 20z" fill="#fff"/><path d="m442.2 208.6c-11.9 0-21.6-9.7-21.6-21.6s9.7-21.6 21.6-21.6 21.6 9.7 21.6 21.6c.1 11.9-9.6 21.6-21.6 21.6zm0-40c-10.1 0-18.3 8.2-18.3 18.3s8.2 18.3 18.3 18.3 18.3-8.2 18.3-18.3-8.2-18.3-18.3-18.3z" fill="#612f76"/><path d="m452.2 186.9c0 5.5-4.5 10-10 10s-10-4.5-10-10 4.5-10 10-10c5.5.1 10 4.5 10 10z" fill="#fee600"/><path d="m425.2 153.9c-2.3 2.5-5.2 4.3-8.4 5.4l17.1 23.8 8.1-5.8z" fill="#eaeaea"/><path d="m433.9 184.7c-.5 0-1-.2-1.4-.7l-17.1-23.8c-.3-.4-.4-1-.2-1.5s.6-.9 1.1-1.1c2.9-1 5.6-2.7 7.7-4.9.3-.4.8-.5 1.3-.5s1 .3 1.2.7l16.8 23.3c.3.4.4.8.3 1.2s-.3.8-.7 1.1l-8.1 5.8c-.2.3-.6.4-.9.4zm-14.5-24.6 14.8 20.7 5.4-3.9-14.6-20.4c-1.7 1.5-3.6 2.7-5.6 3.6z" fill="#612f76"/><path d="m423.4 193.6c-.7-2.1-1.2-4.3-1.2-6.7 0-1.1.1-2.2.3-3.3h-33.5v10h24.8" fill="#eaeaea"/><path d="m423.4 195.3c-.7 0-1.3-.4-1.6-1.1-.8-2.4-1.3-4.8-1.3-7.2 0-.5 0-1.1.1-1.7h-30v6.7h23.1c.9 0 1.7.7 1.7 1.7s-.7 1.7-1.7 1.7h-24.7c-.9 0-1.7-.7-1.7-1.7v-10c0-.9.7-1.7 1.7-1.7h33.6c.5 0 1 .2 1.3.6s.5.9.4 1.4c-.2 1.1-.3 2.1-.3 3.1 0 2.1.4 4.1 1.1 6.1.3.9-.1 1.8-1 2.1-.3-.1-.5 0-.7 0z" fill="#612f76"/></svg>