<svg enable-background="new 0 0 327.8 174.5" viewBox="0 0 327.8 174.5" xmlns="http://www.w3.org/2000/svg"><g fill="#fff"><path d="m309.2 0 .3 77.9h1.7s1.6-8 14.6-8.9v-1.9s-4.9-.6-5.1-5.2-.4-33.7.3-44.9c.1-1.7.4-3.8 4.9-5v-2.2s-13.8-.3-14.2-9.8z"/><path d="m299.5 26.3h-1.5s-2.5 10.1-15.7 9.8v2.2s6 1.7 6 6.3l.1 11.5c0 1.3-1 2.4-2.4 2.4h-23.3c-1.3 0-2.4-1.1-2.4-2.4v-29.4h-1.5s-2.8 10.1-15.2 9.6v2.2s5.2 1.3 5.6 5.1v12.6c0 1.3-1.1 2.4-2.4 2.4h-24.4c-1.3 0-2.4-1.1-2.4-2.4v-23.1h-1.5s-.8 10.6-15.1 10.1v2.6s5.7.2 5.7 4.3l.1 21.1v.3c-.2 1.6-2.6 13.3-21.9 12.7-2.7-.1-3.4 3.7-.8 4.6 3.5 1.2 8.5 2.1 15.3 1.8 0 0 16.8-.6 18.4-19.1.1-1.2 1.1-2.1 2.3-2.1l74.4-.3c1.3 0 2.4-1.1 2.4-2.4v-40.4z"/><path d="m169.3 1.1-61.8 44.2c-1.9 1.3-.9 4.3 1.4 4.3h64.6s3.8.2 3.8 4.1v2.7c0 1.3-1.1 2.4-2.4 2.4h-81.8c-.8 0-1.5-.4-2-1l-37.7-55.9-.3.5s1.2 4.8-.3 8.1c0 0-1.3 4.1-7.4 7.1 0 0-12.2 6.1-10.5 18.2 0 .3.2.7.4 1l12.9 20.8v1l-33.6.2c-.5 0-.9-.1-1.3-.4-1.2-.8-3.5-3-4.7-9.2h-1s.9 9.8-3.3 15.9c-1.1 1.6 0 3.7 1.9 3.8l61 .1c1.9 0 3-2.1 2-3.7l-17.6-27s-4.1-5.7.3-8.9c0 0 2.7-3.1 7.9 4.1l22.9 34.4c.4.7 1.2 1.1 2 1.1h101.6c1.3 0 2.4-1.1 2.4-2.4v-14.4s-.5-12.8-12.1-14.1h-33.8c-2.3 0-3.2-2.9-1.4-4.2 5.1-3.9 13.5-9.6 23.3-13.3.1-.1.3-.1.5-.1.8-.1 3.1-.1 4.7 3l2.1-1.2s-6.3-6.2-3.3-17.3c0 0 .4-1.4 1.5-2.3z"/><circle cx="29.9" cy="79.9" r="5.3"/><circle cx="43.8" cy="79.9" r="5.3"/><circle cx="238.1" cy="19.8" r="5.3"/><circle cx="252" cy="19.8" r="5.3"/><circle cx="284.9" cy="22.4" r="5.3"/><path d="m8 108c0-5.9-2.1-7.7-8-7.7v-2.8h29.6v2.8c-6 0-8 1.8-8 7.7v40.3c0 5.9 2.1 7.7 8 7.7v2.8h-29.6v-2.8c6 0 8-1.8 8-7.7z"/><path d="m50.4 150.7c0 4.9 2.8 5.4 5.3 5.4v2.6h-22.7v-2.6c3 0 5.5-.3 5.5-6.9v-17c0-4.4-1.1-7.4-5.9-8v-2.6l15.3-4.4c1.3-.4 2.5.6 2.5 1.9v1.2c0 1.6 1.8 2.5 3.1 1.6 3.4-2.4 7-4.6 11.1-4.6 7.4 0 12 6.8 12 12.1v21.1c.1 4.9 2.8 5.4 5.3 5.4v2.6h-22.7v-2.6c3 0 5.5-.3 5.5-6.9v-14c0-8.3-2-10.7-6.6-10.7-2.8 0-5.3 1.7-7.1 3.8-.4.4-.6 1-.6 1.5z"/><path d="m83 120.1v-.2c0-.9.7-1.8 1.6-1.9 8.5-1.3 10.5-6.4 12.6-12.8.3-1 1.2-1.6 2.3-1.6h1.4v12.3c0 1.3 1.1 2.4 2.4 2.4h7.2c1.1 0 2 .9 2 2 0 1.1-.9 2-2 2h-7.3c-1.3 0-2.4 1.1-2.4 2.4v23.3c0 3.1 1.1 6 5.3 6 2.2 0 4.6-1.6 6.4-3l1.9 1.8c-3.1 4.1-8.8 7.2-13.8 7.2-8.9 0-11.7-6.9-11.7-11.6v-23.7c0-1.3-1.1-2.4-2.4-2.4h-1.5c-1.1-.2-2-1.1-2-2.2z"/><path d="m127.3 138.5c-1.4 0-2.6 1.3-2.4 2.7 1.1 6.9 6.2 13.6 13.9 13.6 4.7 0 9-2.8 12.2-6.1l2 1.8c-5.1 6.1-10.7 9.4-18.8 9.4-11.4 0-21.3-7.8-21.3-20 0-5.4 1.9-10.9 5.4-15.1 3.9-4.8 9.2-7.2 15.3-7.2 10.6 0 18.2 7.9 19 18.4.1 1.4-1 2.6-2.4 2.6-5.2-.1-17.5-.1-22.9-.1zm12.3-3.6c1.4 0 2.4-1.1 2.4-2.5-.3-6.8-2.2-11.3-8.1-11.3-6 0-8.5 6-9.1 11.1-.2 1.4.9 2.7 2.3 2.7z"/><path d="m173.7 150.7c.2 4.6 2.3 5.4 5.9 5.4v2.6h-23.6v-2.6c3.7 0 5.8-.5 5.8-6.9v-16.7c0-4.4-1.1-7.4-5.9-8v-2.5l14.8-4.2c1.5-.4 3 .7 3 2.3 0 2.1 2.6 3.2 4.1 1.6 2.5-2.7 5.6-5 8.7-5 3.3 0 5.6 3.3 5.6 6.5 0 2.9-2.2 5.5-5.2 5.5-2.6 0-5.3-2.1-7.1-2.1-1.7 0-4.3 3.1-5.6 4.9-.3.4-.4.9-.4 1.4v17.8z"/><path d="m209.8 132.8c0 2.1 2.5 3.2 4 1.7l5-4.8c1.2-1.1 4-3.8 4-5.5 0-2.6-2.7-2.9-4.7-3.1v-2.6h21.8v2.4c-6.7.9-11.9 5.5-16.6 10.1l-1 1.1 11.7 17c2.6 3.8 4 5.9 8.6 7.1v2.6h-23v-2.6c1.4-.1 3.1-.8 3.1-2.4 0-1.3-1.3-3.1-2.1-4.2l-5.4-7.7c-.8-1.2-2.5-1.4-3.5-.4l-1.1 1c-.5.4-.8 1.1-.8 1.8v6.6c0 4.9 2.9 5.4 5.4 5.4v2.6h-22.8v-2.6c3 0 5.5-.3 5.5-6.9v-37.5c0-4.4-1.1-7.4-5.9-8v-2.6l14.8-4.2c1.5-.4 3 .7 3 2.3z"/><path d="m257.1 138.5c-1.4 0-2.6 1.3-2.4 2.7 1.1 6.9 6.2 13.6 13.9 13.6 4.7 0 9-2.8 12.2-6.1l2 1.8c-5.1 6.1-10.7 9.4-18.8 9.4-11.4 0-21.3-7.8-21.3-20 0-5.4 1.9-10.9 5.4-15.1 3.9-4.8 9.2-7.2 15.3-7.2 10.6 0 18.2 7.9 19 18.4.1 1.4-1 2.6-2.4 2.6-5.3-.1-17.6-.1-22.9-.1zm12.3-3.6c1.4 0 2.4-1.1 2.4-2.5-.3-6.8-2.2-11.3-8.1-11.3-6 0-8.5 6-9.1 11.1-.2 1.4.9 2.7 2.3 2.7z"/><path d="m303 118.5v2.6c-1.8.2-3.6 1-3.6 3.2 0 1.7.8 3.4 1.5 4.9l5.1 11c.9 1.8 3.5 1.8 4.3 0l4.1-8.9c.7-1.6 1.7-3.5 1.7-5.3 0-2.6-1.2-4.2-5.5-4.8v-2.6h17.3v2.6c-5.6 1.4-7 5.3-9.1 10.1l-12.4 27.9c-3.3 7.4-7.1 15.4-16.5 15.4-3.5 0-7.1-2.1-7.1-5.9 0-3.1 2.6-5.4 5.6-5.4 3.9 0 5.2 4.3 7.4 4.3 2.5 0 5.2-5 6.4-7.7.3-.6.2-1.3 0-1.9l-14.3-30.7c-1.4-3.1-2.6-5.8-6.5-6v-2.6h21.6z"/><path d="m322.5 87.1c1.3-.3 2.6.4 2.9 1.7s1 2.7 2.3 3.4c0 0-3-1-4.2-1 0 0-12-1-13.5 1v-.9-1.3c0-1.3 1-2.4 2.3-2.4h1.5s-4.6-4.1 0-8.8c0 0 3.7-3.7 6.7-3.8 0 0 1.9.2 3.1-3.9 0 0 2.4 1.8-.8 5.7 0 0-.5.6.2.9 0 0 1 .8 1.4 1.8.2.7.1 2.7.1 2.7s-.3.2-.5.2c0 0-.7-2.3-2.1-2.5 0 0-5.4-1.6-6 3.2 0 0-.4 4.1 3.3 4.2-.1.1 1.4.2 3.3-.2z"/></g></svg>