<svg enable-background="new 0 0 72.8 74.2" viewBox="0 0 72.8 74.2" xmlns="http://www.w3.org/2000/svg"><g fill="#2e2873"><path d="m1.3 23.3c-.9 1-1.3 2.1-1.3 3.5v41.9c0 1.4.4 2.5 1.3 3.5.9.9 2.1 1.3 3.5 1.3s2.5-.4 3.5-1.3c.8-.9 1.3-2.1 1.3-3.5v-41.9c0-1.4-.5-2.5-1.3-3.5-1-.8-2.1-1.3-3.5-1.3s-2.5.5-3.5 1.3z"/><path d="m72.8 69.5c0-1.1-.4-2.1-1-2.8l-18.2-22.4 17.3-15.4c.9-.8 1.5-1.9 1.5-3.2 0-1.1-.5-2.1-1.2-2.9-.8-.9-1.9-1.5-3.2-1.5-1.1 0-2.2.5-2.9 1.2l-22.9 20.4v-38.3c0-1.3-.5-2.4-1.3-3.3-.8-.8-2-1.3-3.3-1.3-1.4 0-2.5.5-3.4 1.3s-1.2 2-1.2 3.3v64.2c0 1.4.4 2.5 1.2 3.4.8.8 2 1.2 3.4 1.2 1.3 0 2.4-.4 3.3-1.2.8-.8 1.3-2 1.3-3.4v-14.3l4.7-4.1 17.9 22.1c.8 1.1 2 1.7 3.4 1.7 1 0 2.1-.4 3-1.1 1.1-1 1.6-2.2 1.6-3.6z"/></g></svg>