<svg fill="#292861" xmlns="http://www.w3.org/2000/svg" xmlns:xlink="http://www.w3.org/1999/xlink" version="1.1" x="0px" y="0px" viewBox="0 0 100 100" enable-background="new 0 0 100 100" xml:space="preserve"><path d="M41.5,81.1L41.5,81.1L41.5,81.1c0,0.8,0,1.8-0.2,2.8l-0.5,9.7c0,0.7-0.6,1.3-1.3,1.3l-15.1-0.1c-0.7,0-1.3-0.6-1.3-1.3  l-0.3-8L8.4,68.2c-2.1-2.2-3.6-4.8-4-7.8l-0.1-0.9L1.8,35.2C1.6,34,2,32.8,3,32.1c1.1-0.9,2.9-1.2,4.2,0.3c0.9,1.1,1.4,4.4,1.5,5.3  c0.5,3.2,1.1,7.7,1.2,10.9c0,0.2,0,0.5,0,0.7c0.1,1.4,0.4,2.7,1,4c3.2,7,9.7,15.9,9.7,15.9l0.4,0.5c0.3,0.4,0.8,0.5,1.2,0.3  c0.5-0.3,0.6-0.9,0.4-1.3l-8.6-14c-0.9-1.6-0.4-3.8,1.3-4.8c1.7-1,3.9-0.5,4.8,1.1l9,11.5c0.6,0.8,1.7,1.8,2.5,2.4  c8.1,5.8,9.1,11.7,9.8,14.7C41.4,79.5,41.4,80.2,41.5,81.1z M10.8,34c0.3,0.9,0.4,1.7,0.6,2.5c0.5,2.7,1.1,7.7,1.2,10.3  c0,0.3,0,0.5,0,0.8c0.3-0.3,0.6-0.5,1-0.7c0.4-0.3,0.9-0.5,1.4-0.6c0,0,0-0.1,0.1-0.1c-0.3-2.5-1.2-7.3-1.9-9.7  C12.8,35.3,12.1,34.4,10.8,34z M17.5,45.6c0,0.1,0,0.2,0,0.3c0.7,0,1.5,0.2,2.2,0.4c-0.2-1.6-1.3-4.9-1.7-6.4  c-0.3-1.2-1-2.1-2.3-2.5c0.4,1.8,1.4,5.2,1.7,6.9L17.5,45.6z M92.8,32.3c-0.9,1.1-1.4,4.4-1.5,5.3c-0.5,3.2-1.1,7.7-1.2,10.9  c0,0.2,0,0.5,0,0.7c-0.1,1.4-0.4,2.7-1,4c-3.2,7-9.7,15.9-9.7,15.9L79,69.7c-0.3,0.4-0.8,0.5-1.2,0.3c-0.5-0.3-0.6-0.9-0.4-1.3  l8.6-14c0.9-1.6,0.4-3.8-1.3-4.8c-1.7-1-3.9-0.5-4.8,1.1l-9,11.5c-0.6,0.8-1.7,1.8-2.5,2.4c-8.1,5.8-9.1,11.7-9.8,14.7  c0,0-0.1,0.7-0.1,1.6v0c0,0.8,0,1.8,0.2,2.8l0.5,9.7c0,0.7,0.6,1.3,1.3,1.3l15.1-0.1c0.7,0,1.3-0.6,1.3-1.3l0.3-8l14.4-17.3  c2.1-2.2,3.6-4.8,4-7.8l0.1-0.9l2.5-24.3c0.1-1.2-0.3-2.4-1.2-3.2C95.9,31.1,94.1,30.8,92.8,32.3z M85,46.3C85,46.3,85,46.3,85,46.3  c0.5,0.2,1,0.5,1.4,0.7c0.4,0.2,0.7,0.5,1,0.7c0-0.3,0-0.5,0-0.8c0.1-2.6,0.7-7.6,1.2-10.3c0.1-0.8,0.3-1.7,0.6-2.5  c-1.2,0.4-2,1.3-2.3,2.5C86.2,39,85.4,43.8,85,46.3z M82.5,45.6l0.2-1.2c0.2-1.8,1.3-5.1,1.7-6.9c-1.2,0.4-1.9,1.3-2.3,2.5  c-0.4,1.5-1.5,4.8-1.7,6.4c0.7-0.3,1.4-0.4,2.2-0.4C82.5,45.9,82.5,45.7,82.5,45.6z M81.2,24.8L78,20.9c-0.1-0.1-0.1-0.3,0-0.4  l3.2-4c0.3-0.3,0-0.8-0.4-0.8H67.6c-0.1,0.3-0.2,0.7-0.3,1l0,0.1l0.1,0.1c1.1,1,1.7,2.4,1.7,3.9s-0.6,2.9-1.8,3.9l-0.1,0.1l0,0.1  c0.1,0.3,0.2,0.6,0.3,0.9h13.2C81.2,25.6,81.5,25.1,81.2,24.8z M32.7,24.6L32.7,24.6l0-0.1c-1.1-1-1.7-2.4-1.7-3.9  c0-1.5,0.6-2.9,1.8-3.9l0.1-0.1l0-0.1c-0.1-0.3-0.2-0.6-0.3-0.9H19.2c-0.4,0-0.7,0.5-0.4,0.8l3.2,3.9c0.1,0.1,0.1,0.3,0,0.4l-3.2,4  c-0.3,0.3,0,0.8,0.4,0.8h13.2C32.5,25.3,32.6,24.9,32.7,24.6z M40.6,43.8l-3.2-0.2l-1.2-3c-0.2-0.6-1-0.6-1.2,0l-1.2,3l-3.2,0.2  c-0.6,0-0.8,0.8-0.4,1.2l2.5,2.1l-0.8,3.1c-0.1,0.6,0.5,1.1,1,0.7l2.7-1.7l2.7,1.7c0.5,0.3,1.2-0.1,1-0.7l-0.8-3.1L41,45  C41.5,44.6,41.2,43.9,40.6,43.8z M53.7,50.2L53,47.1l2.5-2.1c0.5-0.4,0.2-1.1-0.4-1.2l-3.2-0.2l-1.2-3c-0.2-0.6-1-0.6-1.2,0l-1.2,3  L45,43.8c-0.6,0-0.8,0.8-0.4,1.2l2.5,2.1l-0.8,3.1c-0.1,0.6,0.5,1.1,1,0.7l2.7-1.7l2.7,1.7C53.2,51.3,53.9,50.8,53.7,50.2z   M69.5,43.8l-3.2-0.2l-1.2-3c-0.2-0.6-1-0.6-1.2,0l-1.2,3l-3.2,0.2c-0.6,0-0.8,0.8-0.4,1.2l2.5,2.1l-0.8,3.1c-0.1,0.6,0.5,1.1,1,0.7  l2.7-1.7l2.7,1.7c0.5,0.3,1.2-0.1,1-0.7l-0.8-3.1l2.5-2.1C70.3,44.6,70.1,43.9,69.5,43.8z M47.8,55.8l-3.2-0.2l-1.2-3  c-0.2-0.6-1-0.6-1.2,0l-1.2,3l-3.2,0.2c-0.6,0-0.8,0.8-0.4,1.2l2.5,2.1l-0.8,3.1c-0.1,0.6,0.5,1.1,1,0.7l2.7-1.7l2.7,1.7  c0.5,0.3,1.2-0.1,1-0.7l-0.8-3.1l2.5-2.1C48.7,56.6,48.4,55.9,47.8,55.8z M60.9,62.2l-0.8-3.1l2.5-2.1c0.5-0.4,0.2-1.1-0.4-1.2  L59,55.6l-1.2-3c-0.2-0.6-1-0.6-1.2,0l-1.2,3l-3.2,0.2c-0.6,0-0.8,0.8-0.4,1.2l2.5,2.1l-0.8,3.1c-0.1,0.6,0.5,1.1,1,0.7l2.7-1.7  l2.7,1.7C60.5,63.2,61.1,62.8,60.9,62.2z M42.5,7.9c0.9,0.2,1.8-0.3,2.2-1l0.4-0.7c0.6-1.1,2-1.4,3-0.7L48.8,6  c0.7,0.5,1.7,0.5,2.4,0l0.7-0.5c1-0.7,2.4-0.4,3,0.7l0.4,0.7c0.4,0.8,1.3,1.2,2.2,1.1l0.8-0.1c1.2-0.2,2.4,0.7,2.4,2l0,0.8  c0,0.9,0.6,1.7,1.5,1.9l0.8,0.2c1.2,0.3,1.8,1.7,1.3,2.8l-0.3,0.8c-0.3,0.8-0.1,1.8,0.5,2.4l0.6,0.5c0.9,0.8,0.9,2.3,0,3.1l-0.6,0.5  c-0.7,0.6-0.9,1.5-0.5,2.4l0.3,0.8c0.5,1.2-0.2,2.5-1.4,2.8L62.3,29c-0.9,0.2-1.5,1-1.5,1.9l0,0.8c-0.1,1.2-1.2,2.2-2.4,1.9  l-0.8-0.1c-0.9-0.2-1.8,0.3-2.2,1l-0.4,0.7c-0.6,1.1-2,1.4-3,0.7l-0.7-0.5c-0.7-0.5-1.7-0.5-2.4,0l-0.7,0.5c-1,0.7-2.4,0.4-3-0.7  l-0.4-0.7c-0.4-0.8-1.3-1.2-2.2-1.1l-0.8,0.1c-1.2,0.2-2.4-0.7-2.4-2l0-0.8c0-0.9-0.6-1.7-1.5-1.9l-0.8-0.2  c-1.2-0.3-1.8-1.7-1.3-2.8l0.3-0.8c0.3-0.8,0.1-1.8-0.5-2.4l-0.6-0.5c-0.9-0.8-0.9-2.3,0-3.1l0.6-0.5c0.7-0.6,0.9-1.5,0.5-2.4  l-0.3-0.8c-0.5-1.2,0.2-2.5,1.4-2.8l0.8-0.2c0.9-0.2,1.5-1,1.5-1.9l0-0.8c0.1-1.2,1.2-2.2,2.4-1.9L42.5,7.9z M41.5,20.7  c0,4.7,3.8,8.5,8.5,8.5c4.7,0,8.5-3.8,8.5-8.5c0-4.7-3.8-8.5-8.5-8.5C45.3,12.2,41.5,16,41.5,20.7z"></path></svg>