<svg fill="#292861" xmlns="http://www.w3.org/2000/svg" xmlns:xlink="http://www.w3.org/1999/xlink" version="1.1" x="0px" y="0px" viewBox="0 0 100 100" enable-background="new 0 0 100 100" xml:space="preserve"><g><circle cx="72.02969" cy="31.8042" r="5.99994"></circle><polygon points="38.18109,89.75336 45.29449,89.75336 49.79596,79.46161 49.8125,74.4375 42.0318,70.77277  "></polygon><path d="M63.32153,36.78485C55,32.58331,46.34796,45.71814,46.34796,45.71814s-6.07239-0.21997-12.2757-1.01923   c-2.46606-0.31775-4.74377,1.43994-5.06158,3.90601c-0.31781,2.46613,1.43988,4.7439,3.90601,5.06171   c2.42828,0.34967,4.85645,0.69995,7.2843,1.05267c1.84607,0.26825,3.66852,0.55994,5.54291,0.47711   c0.81335-0.03595,1.30096-0.3833,1.95947-0.81433c1.05988-0.6936,2.12512-1.37854,3.1853-2.07153   c1.74414-1.13867,3.58594-2.39453,5.24072-3.86035c0.62061-0.54834,1.56885-0.49121,2.11768,0.12842   c0.54932,0.62012,0.4917,1.56836-0.12842,2.11768c-1.7998,1.59375-3.75,2.9248-5.58936,4.12598   c-1.10883,0.72412-2.22034,1.44415-3.33038,2.16638c-0.8913,0.57983-1.7475,1.07538-2.83173,1.17395   c-0.48291,0.03857-0.96631,0.05566-1.44824,0.05566c-1.16827,0-2.33081-0.10419-3.48309-0.24921   c-0.27222,0.83429-0.58099,1.8855-0.93408,3.23706c-1.99084,7.62012,12.14374,11.40649,12.14374,11.40649l-0.01318,17.14075   h7.53516l3.86121-19.19574l-6.68237-8.68146c0,0,7.61676-11.78827,9.07263-14.90045   C67.87488,43.86353,67.59308,38.94153,63.32153,36.78485z"></path><path d="M56.00421,31.99579V11.90631h-33.625v28.63824l21.94177,2.42212C46.96252,37.48749,56.00421,31.99579,56.00421,31.99579z"></path></g></svg>