<svg fill="#292861" xmlns="http://www.w3.org/2000/svg" data-name="Layer 1" viewBox="0 0 64 64" x="0px" y="0px"><title>collaborative-combine-hand-together-team</title><path d="M50.707,3.293A.965.965,0,0,0,49.981,3a1,1,0,0,0-.713.319l-3.715,4A1,1,0,0,0,45.568,8.7l.282.29-1.475,1.475-2.33-.582a6.093,6.093,0,0,0-5.77,1.61l-5.5,5.779-5.726-5.726a5.243,5.243,0,0,0-5.391-1.273,1.022,1.022,0,0,0-.311.169l-.251.2-.642-.679,1.256-1.256a1,1,0,0,0,0-1.414l-4-4a1,1,0,0,0-1.414,0l-13,13a1,1,0,0,0,0,1.414l4,4a1,1,0,0,0,1.414,0l.452-.452,2.369,2.37-.582,2.33a6.067,6.067,0,0,0,1.564,5.722l7.72,8.406A4.887,4.887,0,0,0,20,41.141V48.32a4.6,4.6,0,0,0,2.553,4.131A2.6,2.6,0,0,1,24,54.792V55H23a1,1,0,0,0-1,1v5a1,1,0,0,0,1,1H42a1,1,0,0,0,1-1V56a1,1,0,0,0-1-1H41V53.975l1.166-1.154A6.088,6.088,0,0,0,45,47.693V35.882a4.585,4.585,0,0,0,4.128-1.435l5.286-5.74a4.59,4.59,0,0,0,1.115-4.726c-.16-.482.7-2.06,1.728-3.27a1,1,0,0,0,.687.289h.01a1,1,0,0,0,.7-.289l4.046-4a1,1,0,0,0,0-1.418ZM6.394,19.076a.975.975,0,0,0-.221.337L6,19.586,3.414,17,15,5.414,17.586,8l-.974.974a.992.992,0,0,0-.319.2ZM20,38.557v.39a1.822,1.822,0,0,1-.326-.248l-7.721-8.406a4.081,4.081,0,0,1-1.067-3.854l.719-2.878a1,1,0,0,0-.262-.95l-2.77-2.77,8.463-8.463,1.237,1.309a1,1,0,0,0,1.354.092l.821-.661a3.252,3.252,0,0,1,3.184.839l5.76,5.761-.936.983a3.519,3.519,0,0,0-.933-.136,3.943,3.943,0,0,0-.585.009A3.4,3.4,0,0,0,24,23.2V33.657A5.01,5.01,0,0,0,20,38.557ZM41,60H24V57H41Zm2-25.383V47.693a4.078,4.078,0,0,1-1.97,3.479.987.987,0,0,0-.188.146L39.3,52.846a.993.993,0,0,0-.3.711V55H26v-.208a4.592,4.592,0,0,0-2.553-4.13A2.6,2.6,0,0,1,22,48.32V38.557a3,3,0,0,1,2-2.816V42h2V23.2a1.6,1.6,0,0,1,1.323-1.631,1.856,1.856,0,0,1,1.182.463,1.423,1.423,0,0,1,.5,1.026V38h2V21.057a1.5,1.5,0,0,1,1.658-1.493A1.6,1.6,0,0,1,34,21.2V38h2V24.057a1.5,1.5,0,0,1,1.658-1.493A1.6,1.6,0,0,1,39,24.2V38h2V29.741a3,3,0,0,1,2,2.816Zm10.633-10a2.622,2.622,0,0,1-.661,2.708l-5.286,5.741A2.99,2.99,0,0,1,45,33.884V32.557a5.01,5.01,0,0,0-4-4.9V24.2a3.61,3.61,0,0,0-3.143-3.625,3.5,3.5,0,0,0-1.869.327,3.759,3.759,0,0,0-.1-.612c-.017-.064-.043-.124-.062-.187a3.866,3.866,0,0,0-.136-.388c-.031-.072-.071-.138-.107-.208-.056-.109-.11-.218-.176-.32-.045-.07-.1-.134-.146-.2-.069-.093-.137-.185-.214-.271-.057-.063-.118-.121-.179-.18-.081-.078-.162-.154-.249-.224-.067-.054-.137-.1-.208-.151-.091-.063-.183-.122-.279-.176-.076-.042-.154-.08-.233-.116-.1-.046-.2-.086-.3-.122-.084-.029-.168-.054-.254-.077-.049-.012-.095-.033-.145-.043l4.513-4.739a4.086,4.086,0,0,1,3.854-1.068l2.878.72a1,1,0,0,0,.95-.263l1.727-1.727,8.738,8.738C54.928,20.365,53.044,22.848,53.633,24.614Zm4.335-6.034-.243-.25,0,0-.03-.029L47.665,7.984,50.026,5.44,60.582,16Z"></path></svg>