<?xml version="1.0" standalone="no"?>
<!DOCTYPE svg PUBLIC "-//W3C//DTD SVG 20010904//EN"
 "http://www.w3.org/TR/2001/REC-SVG-20010904/DTD/svg10.dtd">
<svg version="1.0" xmlns="http://www.w3.org/2000/svg"
 width="309.000000pt" height="309.000000pt" viewBox="0 0 309.000000 309.000000"
 preserveAspectRatio="xMidYMid meet">
<metadata>
Created by potrace 1.11, written by Peter Selinger 2001-2013
</metadata>
<g transform="translate(0.000000,309.000000) scale(0.100000,-0.100000)"
fill="#000000" stroke="none">
<path d="M1502 3069 c-49 -24 -78 -58 -90 -103 -4 -17 -7 -654 -7 -1416 2
-1500 -1 -1425 54 -1474 51 -46 158 -58 228 -27 44 20 89 76 97 121 2 14 5
165 5 337 l1 312 92 80 c51 45 97 81 103 80 5 0 62 -66 125 -146 63 -79 122
-152 130 -161 8 -10 51 -62 94 -117 44 -55 104 -129 134 -165 29 -36 59 -72
65 -80 142 -179 225 -275 251 -291 42 -26 124 -25 176 1 62 32 93 81 98 155 6
85 -5 105 -126 250 -49 58 -491 602 -512 630 -14 18 -54 68 -89 110 l-64 77
39 37 c21 20 77 70 124 111 47 41 87 77 90 80 5 5 128 114 209 185 18 17 39
35 45 41 6 6 61 54 121 108 61 54 118 110 127 124 52 79 18 195 -72 251 -38
23 -110 28 -153 12 -14 -6 -72 -51 -129 -102 -56 -50 -136 -122 -177 -158 -41
-36 -97 -86 -125 -111 -78 -71 -213 -191 -249 -222 -10 -9 -51 -46 -91 -81
-39 -35 -107 -96 -151 -135 l-80 -71 -5 828 c-5 787 -6 828 -24 856 -57 90
-168 121 -264 74z"/>
<path d="M185 2170 c-40 -9 -86 -33 -107 -57 -49 -54 -48 -28 -48 -1015 0
-880 1 -925 19 -964 62 -137 286 -144 359 -11 16 30 17 98 20 955 1 607 -1
936 -8 961 -5 21 -19 50 -31 65 -41 52 -134 82 -204 66z"/>
</g>
</svg>
