<svg height="385" viewBox="0 0 591 385" width="591" xmlns="http://www.w3.org/2000/svg" xmlns:xlink="http://www.w3.org/1999/xlink"><defs><path id="a" d="m96.5 255c28.442665 0 51.5-23.057335 51.5-51.5s-23.057335-51.5-51.5-51.5c-28.4426646 0-51.5 23.057335-51.5 51.5s23.0573354 51.5 51.5 51.5z"/><mask id="b" fill="#fff" height="103" width="103" x="0" y="0"><use xlink:href="#a"/></mask><linearGradient id="c" x1="100.064279%" x2=".01665%" y1="49.931109%" y2="49.931109%"><stop offset="0" stop-color="#00ace0"/><stop offset="1" stop-color="#b36cdc"/></linearGradient><linearGradient id="d" x1="0%" x2="119.328507%" y1="0%" y2="117.647421%"><stop offset="0" stop-color="#eb4971"/><stop offset="1" stop-color="#b36cdb"/></linearGradient></defs><g fill="none" fill-rule="evenodd"><ellipse cx="293.5" cy="277.5" fill="#d8d8d8" fill-opacity=".5" rx="131.5" ry="55.5"/><ellipse cx="293" cy="271.5" fill="#d8d8d8" fill-opacity=".5" rx="118" ry="49.5"/><g fill-opacity=".2"><circle cx="91.5" cy="203.5" fill="#00b9be" r="56.5"/><circle cx="86.5" cy="203.5" fill="#00b9be" r="61.5"/><circle cx="435.5" cy="81.5" fill="#bb7bdf" fill-rule="nonzero" r="41.5"/><circle cx="439.5" cy="77.5" fill="#bb7bdf" fill-rule="nonzero" r="45.5"/><circle cx="496.5" cy="203.5" fill="#ed5b7f" r="56.5"/><circle cx="502" cy="203" fill="#ed5b7f" r="62"/><g fill="#19b5e4"><circle cx="142" cy="82" r="42"/><circle cx="137.5" cy="77.5" r="46.5"/></g></g><ellipse cx="293.5" cy="265.5" fill="#d8d8d8" rx="103.5" ry="43.5"/><circle cx="431.5" cy="85.5" fill="#bb7bdf" r="38.5"/><circle cx="147.5" cy="85.5" fill="#19b5e4" r="38.5"/><use fill="#00b9be" mask="url(#b)" stroke="#fff" stroke-dasharray="4 3" stroke-width="6" xlink:href="#a"/><circle cx="489.5" cy="203.5" fill="#ed5b7f" r="51.5"/><g fill-rule="nonzero" transform="translate(223 112)"><path d="m69.5 175c-37.841637 0-67.64501779-12.50876-69.37633452-29.187106l-.12366548-.735809v-114.2957255-.4905396c.49466192-17.2915207 30.2980427-30.2908199 69.5-30.2908199 39.572954 0 69.5 13.244569 69.5 30.6587246 0 .4905396 0 .8584443-.123665 1.226349v113.9278204.122635c-1.731317 16.555711-31.534698 29.064471-69.376335 29.064471z" fill="#fff"/><path d="m8.27631579 47.7272727v96.5559443c0 10.646853 25.23157891 22.63986 61.34736841 22.63986 35.0026318 0 59.7394738-11.136364 61.2236838-21.538462v-97.6573423c-12.244736 9.423077-34.6315785 15.4195804-61.2236838 15.4195804-26.7157895 0-49.1026316-6.1188811-61.34736841-15.4195804z" fill="url(#c)"/><g fill="url(#d)"><path d="m69.6236842 174.877622c-37.8473684 0-67.65526315-12.482517-69.38684209-29.125874l-.12368421-.734265v-114.0559445-.4895105c.49473684-17.2552448 30.3026316-30.22727275 69.5105263-30.22727275 39.5789478 0 69.5105268 13.21678325 69.5105268 30.59440555 0 .4895105 0 .8566434-.123685 1.2237763v113.6888109.122378c-1.731579 16.520979-31.539473 29.003496-69.3868418 29.003496zm0-168.39160801c-34.1368421 0-63.07894736 11.13636361-63.07894736 24.23076921 0 13.2167832 28.94210526 24.2307692 63.07894736 24.2307692 32.8999998 0 61.0999998-10.2797202 62.9552628-23.006993h.123685l-.123685-1.8356643c-.618421-11.2587413-24.98421-23.61888111-62.9552628-23.61888111z" opacity=".8"/><path d="m69.6236842 6.48601399c-34.1368421 0-63.07894736 11.13636361-63.07894736 24.23076921 0 13.2167832 28.94210526 24.2307692 63.07894736 24.2307692 32.8999998 0 61.0999998-10.2797202 62.9552628-23.006993h.123685l-.123685-1.8356643c-.618421-11.2587413-24.98421-23.61888111-62.9552628-23.61888111z"/></g></g><g fill="#fff"><path d="m313.439542 227.2575c0 1.7925-1.034959 3.4075-3.0385 3.76-3.478542.6175-10.779792.995-16.901042.995s-13.4225-.3775-16.9035-.995c-2.001083-.3525-3.036042-1.9675-3.036042-3.76v-11.715c-.002458-1.795 1.361917-3.47 3.036042-3.7625 1.034958-.1825 3.424458-.355 5.300167-.35.708.0025 1.278333.565 1.280791 1.4225 0 .0025-.002458 8.19-.002458 8.19 3.596542-.0125 6.718625-.2175 10.325-.2175 3.603917 0 6.728458.205 10.322542.2175v-8.19c.002458-.8575.572791-1.42 1.278333-1.4225 1.875708-.005 4.267667.1675 5.300167.35 1.676583.2925 3.0385 1.9675 3.0385 3.7625zm-19.939542-35.2575c-16.291375 0-29.5 13.4325-29.5 30s13.208625 30 29.5 30 29.5-13.4325 29.5-30-13.208625-30-29.5-30z"/><path d="m126 89.8059299v-11.3207547h2.464459v11.3207547zm5.008932 0v-8.6684636h2.432452v1.2291105c.560105-.7277628 1.280239-1.3908356 2.512468-1.3908356 1.840342 0 2.912542 1.2291106 2.912542 3.2183289v5.6118598h-2.432453v-4.8355795c0-1.1644205-.544101-1.7628032-1.472274-1.7628032-.928172 0-1.520283.5983827-1.520283 1.7628032v4.8355795zm13.49051.1617251c-2.000372 0-3.904727-1.5849057-3.904727-4.4797844v-.032345c0-2.8948787 1.872349-4.4797844 3.904727-4.4797844 1.296241 0 2.09639.5983828 2.672497 1.2938006v-4.2695418h2.432453v11.8059299h-2.432453v-1.245283c-.59211.8086253-1.408262 1.4070081-2.672497 1.4070081zm.624116-2.0862534c1.136211 0 2.080387-.9541779 2.080387-2.393531v-.032345c0-1.4393531-.944176-2.393531-2.080387-2.393531-1.136212 0-2.09639.9380054-2.09639 2.393531v.032345c0 1.4393531.960178 2.393531 2.09639 2.393531zm10.721995 2.1185984c-2.57648 0-4.480834-1.8274933-4.480834-4.4797844v-.032345c0-2.4743935 1.744325-4.5121294 4.240789-4.5121294 2.864533 0 4.176777 2.2479785 4.176777 4.7061995 0 .1940701-.016003.4204852-.032006.6469003h-5.96911c.240044 1.1159029 1.008187 1.6981132 2.09639 1.6981132.816151 0 1.408262-.2587601 2.080387-.8894879l1.392259 1.245283c-.800149 1.0026954-1.952364 1.6172507-3.504652 1.6172507zm-2.09639-5.2075472h3.664681c-.144026-1.0997304-.784145-1.8436657-1.808336-1.8436657-1.008188 0-1.66431.7277628-1.856345 1.8436657zm9.361741-3.6549865 1.600298 2.5390836 1.616301-2.5390836h2.544473l-2.896539 4.2371968 3.024563 4.4312668h-2.608485l-1.728322-2.7008086-1.728321 2.7008086h-2.544474l3.00856-4.3989218-2.896539-4.2695418z"/><path d="m419.948498 88.984-1.552988 1.744-1.220205-1.104c-.934962.608-2.060085.96-3.296137.96-3.422912 0-5.879168-2.576-5.879168-5.76v-.032c0-3.184 2.48795-5.792 5.910862-5.792s5.879168 2.576 5.879168 5.76v.032c0 1.184-.364477 2.288-.982503 3.216zm-6.037636-.672c.538791 0 1.030043-.096 1.457907-.304l-1.806537-1.552 1.552988-1.76 1.822383 1.664c.190162-.448.30109-.976.30109-1.536v-.032c0-1.92-1.39452-3.52-3.359525-3.52s-3.327831 1.568-3.327831 3.488v.032c0 1.92 1.39452 3.52 3.359525 3.52zm10.617365 2.24c-1.822383 0-2.88412-1.216-2.88412-3.184v-5.552h2.408716v4.784c0 1.152.538791 1.744 1.457907 1.744.919115 0 1.505447-.592 1.505447-1.744v-4.784h2.408716v8.576h-2.408716v-1.216c-.554639.72-1.267745 1.376-2.48795 1.376zm11.076923.032c-2.551337 0-4.437108-1.808-4.437108-4.432v-.032c0-2.448 1.727303-4.464 4.199406-4.464 2.83658 0 4.136018 2.224 4.136018 4.656 0 .192-.015846.416-.031693.64h-5.910862c.237702 1.104.998349 1.68 2.075933 1.68.808187 0 1.394519-.256 2.060086-.88l1.378673 1.232c-.792341.992-1.933312 1.6-3.470453 1.6zm-2.075932-5.152h3.62892c-.142621-1.088-.776494-1.824-1.79069-1.824-.998349 0-1.648069.72-1.83823 1.824zm7.764938 4.96v-8.576h2.408716v1.728c.491251-1.184 1.283592-1.952 2.709805-1.888v2.544h-.126774c-1.600528 0-2.583031.976-2.583031 3.024v3.168zm10.34797-2.736 1.854077-5.84h2.503797l-3.264444 8.784c-.649719 1.744-1.346979 2.4-2.789039 2.4-.871575 0-1.521294-.224-2.13932-.592l.808188-1.76c.316936.192.713106.336 1.030043.336.412017 0 .633872-.128.839881-.56l-3.327831-8.608h2.551337z"/><path d="m467.710054 208.967655c-1.681029 0-3.377918-.598383-4.710054-1.811321l1.443148-1.762803c.999102.84097 2.045781 1.374663 3.314482 1.374663.999102 0 1.601736-.404313 1.601736-1.067385v-.032345c0-.630728-.380611-.954178-2.236087-1.439353-2.236086-.582211-3.679234-1.212938-3.679234-3.460917v-.032345c0-2.053908 1.617595-3.412399 3.885398-3.412399 1.617595 0 2.997307.51752 4.12328 1.439353l-1.268701 1.876011c-.983244-.695418-1.950629-1.115903-2.886296-1.115903s-1.427289.436658-1.427289.986523v.032345c0 .743935.475763.986523 2.394674 1.487871 2.251945.598382 3.520646 1.42318 3.520646 3.396226v.032345c0 2.247978-1.681029 3.509434-4.075703 3.509434zm9.975164.032345c-2.553261 0-4.440454-1.827493-4.440454-4.479784v-.032345c0-2.474394 1.728605-4.51213 4.202573-4.51213 2.838719 0 4.139138 2.247979 4.139138 4.7062 0 .19407-.015859.420485-.031717.6469h-5.915321c.237882 1.115903.999103 1.698113 2.077499 1.698113.808797 0 1.395571-.25876 2.06164-.889488l1.379712 1.245283c-.792938 1.002696-1.934769 1.617251-3.47307 1.617251zm-2.077498-5.207547h3.631658c-.142729-1.099731-.77708-1.843666-1.792041-1.843666-.999102 0-1.649312.727763-1.839617 1.843666zm10.181328 5.175202c-1.601735 0-2.918013-.938005-2.918013-2.652291v-.032345c0-1.892183 1.411431-2.765499 3.425494-2.765499.856373 0 1.474865.145553 2.077499.355795v-.145552c0-1.018868-.618492-1.584906-1.823759-1.584906-.919808 0-1.570018.177898-2.347097.469003l-.602633-1.876011c.935667-.420485 1.855475-.695418 3.298623-.695418 1.316278 0 2.267804.355795 2.870437.970351.634351.6469.919809 1.601078.919809 2.765498v5.02965h-2.331239v-.938005c-.586775.663072-1.395572 1.09973-2.569121 1.09973zm.729504-1.698113c1.125972 0 1.887193-.630728 1.887193-1.520216v-.436658c-.412328-.19407-.951526-.32345-1.5383-.32345-1.03082 0-1.665171.420486-1.665171 1.196766v.032345c0 .663073.539198 1.051213 1.316278 1.051213zm6.248354 1.536388v-8.668464h2.410533v1.746631c.491621-1.196765 1.28456-1.973046 2.711849-1.908356v2.571429h-.12687c-1.601736 0-2.584979.986523-2.584979 3.056604v3.202156zm10.403351.19407c-2.553261 0-4.424596-2.005391-4.424596-4.479784v-.032345c0-2.474394 1.855476-4.51213 4.456314-4.51213 1.601735 0 2.600838.549865 3.393776 1.455526l-1.474865 1.617251c-.539198-.582211-1.078396-.954178-1.93477-.954178-1.205266 0-2.06164 1.083558-2.06164 2.361186v.032345c0 1.326145.840515 2.393531 2.156793 2.393531.808797 0 1.363854-.355796 1.950628-.921833l1.41143 1.455525c-.824656.921833-1.776182 1.584906-3.47307 1.584906zm5.043088-.19407v-11.80593h2.410533v4.366577c.555057-.727763 1.268701-1.390836 2.489826-1.390836 1.823759 0 2.886296 1.229111 2.886296 3.218329v5.61186h-2.410533v-4.83558c0-1.16442-.539198-1.762803-1.459006-1.762803-.919809 0-1.506583.598383-1.506583 1.762803v4.83558z"/></g><g opacity=".6" transform="translate(230 24)"><g fill-rule="nonzero"><path d="m54.0681818 71.0050676v-68.34459463c0-1.30067567-1.0636363-2.36486486-2.3636363-2.36486486h-35.3954546l-15.95454544 16.55405409v54.0962837c0 1.3006757 1.06363636 2.3648649 2.36363636 2.3648649h49.04545458c1.2409091 0 2.3045454-1.0050676 2.3045454-2.3057432z" fill="#fc9c0c"/><g fill="#fff"><path d="m8.33181818 32.8125c-.65 0-1.18181818-.5912162-1.18181818-1.3006757 0-.7094594.53181818-1.3006757 1.18181818-1.3006757h37.64090912c.65 0 1.1818182.5912163 1.1818182 1.3006757 0 .7094595-.5318182 1.3006757-1.1818182 1.3006757z"/><path d="m8.33181818 41.6216216c-.65 0-1.18181818-.5912162-1.18181818-1.3006757 0-.7094594.53181818-1.3006756 1.18181818-1.3006756h37.64090912c.65 0 1.1818182.5912162 1.1818182 1.3006756 0 .7094595-.5318182 1.3006757-1.1818182 1.3006757z"/><path d="m8.33181818 50.4307432c-.65 0-1.18181818-.5912162-1.18181818-1.3006756 0-.7094595.53181818-1.3006757 1.18181818-1.3006757h37.64090912c.65 0 1.1818182.5912162 1.1818182 1.3006757 0 .7094594-.5318182 1.3006756-1.1818182 1.3006756z"/></g></g><path d="m11.0523636 23.1148649c-1.54581815 0-2.56690905-.6810811-3.24763633-1.4898649l1.37563637-1.5324324c.56727272.6243243 1.12036366.9932432 1.81527276.9932432.8225454 0 1.3330909-.4966216 1.3330909-1.6459459v-6.3993244h2.2407272v6.4986487c0 1.1777027-.3403636 2.0574324-.936 2.6533784-.6098181.6101351-1.5032727.9222973-2.5810909.9222973zm9.2749091 0c-1.5032727 0-3.0207272-.525-4.212-1.5891892l1.2905455-1.5466216c.8934545.7378378 1.8294545 1.206081 2.964 1.206081.8934545 0 1.4323636-.3547297 1.4323636-.9364865v-.0283783c0-.5533784-.3403636-.8371622-1.9996363-1.2628379-1.9996364-.5108108-3.2901819-1.0641892-3.2901819-3.0364865v-.0283783c0-1.8020271 1.4465455-2.993919 3.4745455-2.993919 1.4465454 0 2.6803636.4540541 3.6872727 1.2628379l-1.1345454 1.6459459c-.8792728-.6101351-1.7443637-.979054-2.5810909-.979054-.8367273 0-1.2763637.3831081-1.2763637.8655405v.0283784c0 .6527027.4254546.8655405 2.1414546 1.3054054 2.0138181.525 3.1483636 1.2486487 3.1483636 2.9797297v.0283784c0 1.9722973-1.5032727 3.0790541-3.6447273 3.0790541zm10.3669091.0283783c-3.0632727 0-5.2614545-2.2844594-5.2614545-5.1081081v-.0283783c0-2.8236487 2.2265454-5.1364865 5.2898182-5.1364865 3.0632727 0 5.2614545 2.2844594 5.2614545 5.1081081v.0283784c0 2.8236486-2.2265455 5.1364864-5.2898182 5.1364864zm.0283637-2.0148648c1.7585454 0 2.9781818-1.3905406 2.9781818-3.0932433v-.0283783c0-1.7027027-1.248-3.1216217-3.0065455-3.1216217-1.7585454 0-2.9781818 1.3905406-2.9781818 3.0932433v.0283784c0 1.7027027 1.248 3.1216216 3.0065455 3.1216216zm7.2043636 1.8445946v-9.9324325h2.0138182l4.6516363 6.1155406v-6.1155406h2.1556364v9.9324325h-1.8578182l-4.8076363-6.3141892v6.3141892z" fill="#fff"/></g><g opacity=".6" transform="translate(304 21)"><g fill-rule="nonzero"><path d="m54.0681818 2.66047297c0-1.30067567-1.0636363-2.36486486-2.3636363-2.36486486h-35.3954546l-15.95454544 16.55405409v54.0962837c0 1.3006757 1.06363636 2.3648649 2.36363636 2.3648649h49.04545458c1.2409091 0 2.3045454-1.0050676 2.3045454-2.3057432z" fill="#fc9c0c"/><g fill="#fff"><path d="m8.33181818 32.8125c-.65 0-1.18181818-.5912162-1.18181818-1.3006757 0-.7094594.53181818-1.3006757 1.18181818-1.3006757h37.64090912c.65 0 1.1818182.5912163 1.1818182 1.3006757 0 .7094595-.5318182 1.3006757-1.1818182 1.3006757z"/><path d="m8.33181818 41.6216216c-.65 0-1.18181818-.5912162-1.18181818-1.3006757 0-.7094594.53181818-1.3006756 1.18181818-1.3006756h37.64090912c.65 0 1.1818182.5912162 1.1818182 1.3006756 0 .7094595-.5318182 1.3006757-1.1818182 1.3006757z"/><path d="m8.33181818 50.4307432c-.65 0-1.18181818-.5912162-1.18181818-1.3006756 0-.7094595.53181818-1.3006757 1.18181818-1.3006757h37.64090912c.65 0 1.1818182.5912162 1.1818182 1.3006757 0 .7094594-.5318182 1.3006756-1.1818182 1.3006756z"/></g></g><path d="m11.0523636 23.1148649c-1.54581815 0-2.56690905-.6810811-3.24763633-1.4898649l1.37563637-1.5324324c.56727272.6243243 1.12036366.9932432 1.81527276.9932432.8225454 0 1.3330909-.4966216 1.3330909-1.6459459v-6.3993244h2.2407272v6.4986487c0 1.1777027-.3403636 2.0574324-.936 2.6533784-.6098181.6101351-1.5032727.9222973-2.5810909.9222973zm9.2749091 0c-1.5032727 0-3.0207272-.525-4.212-1.5891892l1.2905455-1.5466216c.8934545.7378378 1.8294545 1.206081 2.964 1.206081.8934545 0 1.4323636-.3547297 1.4323636-.9364865v-.0283783c0-.5533784-.3403636-.8371622-1.9996363-1.2628379-1.9996364-.5108108-3.2901819-1.0641892-3.2901819-3.0364865v-.0283783c0-1.8020271 1.4465455-2.993919 3.4745455-2.993919 1.4465454 0 2.6803636.4540541 3.6872727 1.2628379l-1.1345454 1.6459459c-.8792728-.6101351-1.7443637-.979054-2.5810909-.979054-.8367273 0-1.2763637.3831081-1.2763637.8655405v.0283784c0 .6527027.4254546.8655405 2.1414546 1.3054054 2.0138181.525 3.1483636 1.2486487 3.1483636 2.9797297v.0283784c0 1.9722973-1.5032727 3.0790541-3.6447273 3.0790541zm10.3669091.0283783c-3.0632727 0-5.2614545-2.2844594-5.2614545-5.1081081v-.0283783c0-2.8236487 2.2265454-5.1364865 5.2898182-5.1364865 3.0632727 0 5.2614545 2.2844594 5.2614545 5.1081081v.0283784c0 2.8236486-2.2265455 5.1364864-5.2898182 5.1364864zm.0283637-2.0148648c1.7585454 0 2.9781818-1.3905406 2.9781818-3.0932433v-.0283783c0-1.7027027-1.248-3.1216217-3.0065455-3.1216217-1.7585454 0-2.9781818 1.3905406-2.9781818 3.0932433v.0283784c0 1.7027027 1.248 3.1216216 3.0065455 3.1216216zm7.2043636 1.8445946v-9.9324325h2.0138182l4.6516363 6.1155406v-6.1155406h2.1556364v9.9324325h-1.8578182l-4.8076363-6.3141892v6.3141892z" fill="#fff"/></g><g transform="translate(258 51)"><g fill-rule="nonzero"><path d="m69.5162338 91.2922297v-87.87162159c0-1.6722973-1.3675325-3.04054054-3.0389611-3.04054054h-45.5084415l-20.51298704 21.28378383v69.5523648c0 1.6722973 1.36753246 3.0405406 3.03896103 3.0405406h63.05844161c1.5954545 0 2.962987-1.2922298 2.962987-2.9645271z" fill="#fc9c0c"/><g fill="#fff"><path d="m10.7123377 42.1875c-.83571432 0-1.51948056-.7601351-1.51948056-1.6722973s.68376624-1.6722973 1.51948056-1.6722973h48.3954545c.8357143 0 1.5194805.7601351 1.5194805 1.6722973s-.6837662 1.6722973-1.5194805 1.6722973z"/><path d="m10.7123377 53.5135135c-.83571432 0-1.51948056-.7601351-1.51948056-1.6722973 0-.9121621.68376624-1.6722973 1.51948056-1.6722973h48.3954545c.8357143 0 1.5194805.7601352 1.5194805 1.6722973 0 .9121622-.6837662 1.6722973-1.5194805 1.6722973z"/><path d="m10.7123377 64.839527c-.83571432 0-1.51948056-.7601351-1.51948056-1.6722973 0-.9121621.68376624-1.6722973 1.51948056-1.6722973h48.3954545c.8357143 0 1.5194805.7601352 1.5194805 1.6722973 0 .9121622-.6837662 1.6722973-1.5194805 1.6722973z"/></g></g><path d="m14.2101818 29.2364865c-1.9874805 0-3.3003117-.8756757-4.1755324-1.9155406l1.7686753-1.9702702c.7293506.8027027 1.4404675 1.277027 2.3339221 1.277027 1.0575584 0 1.713974-.6385135 1.713974-2.1162162v-8.2277027h2.880935v8.3554054c0 1.5141892-.4376103 2.6452703-1.2034285 3.4114865-.784052.7844594-1.9327792 1.1858108-3.3185455 1.1858108zm11.9248831 0c-1.9327792 0-3.8837922-.675-5.4154285-2.0432433l1.6592727-1.9885135c1.1487273.9486487 2.3521558 1.5506757 3.8108571 1.5506757 1.1487273 0 1.8416104-.4560811 1.8416104-1.204054v-.0364865c0-.7114865-.4376104-1.0763514-2.570961-1.6236487-2.5709611-.6567567-4.2302338-1.3682432-4.2302338-3.904054v-.0364865c0-2.3168919 1.8598442-3.8493243 4.4672727-3.8493243 1.8598442 0 3.4461819.5837837 4.7407793 1.6236486l-1.4587013 2.1162162c-1.1304935-.7844594-2.2427533-1.2587838-3.3185455-1.2587838s-1.6410389.4925676-1.6410389 1.1128379v.0364865c0 .8391891.5470129 1.1128378 2.7532987 1.6783783 2.5891948.675 4.0478961 1.6054054 4.0478961 3.8310811v.0364865c0 2.5358108-1.9327793 3.9587838-4.686078 3.9587838zm13.3288832.0364865c-3.9384936 0-6.7647273-2.9371622-6.7647273-6.5675676v-.0364865c0-3.6304054 2.8627013-6.604054 6.8011948-6.604054s6.7647273 2.9371621 6.7647273 6.5675675v.0364865c0 3.6304054-2.8627013 6.6040541-6.8011948 6.6040541zm.0364675-2.5905406c2.260987 0 3.8290909-1.7878378 3.8290909-3.977027v-.0364865c0-2.1891892-1.6045714-4.0135135-3.8655584-4.0135135-2.2609871 0-3.829091 1.7878378-3.829091 3.977027v.0364865c0 2.1891892 1.6045715 4.0135135 3.8655585 4.0135135zm9.2627532 2.3716217v-12.7702703h2.5891948l5.9806754 7.8628378v-7.8628378h2.7715324v12.7702703h-2.3886233l-6.1812468-8.1182433v8.1182433z" fill="#fff"/></g><path d="m393.5 119.5-24 18" stroke="#00b9be" stroke-dasharray="4" stroke-linecap="round" stroke-width="2.5"/><path d="m185.5 118.5 28 17" stroke="#00b9be" stroke-dasharray="4" stroke-linecap="round" stroke-width="2.5"/><path d="m426.5 203.5h-53" stroke="#00b9be" stroke-dasharray="4" stroke-linecap="round" stroke-width="2.5"/><path d="m211.5 203.5h-53" stroke="#00b9be" stroke-dasharray="4" stroke-linecap="round" stroke-width="2.5"/><path d="m61 208.457399v-10.986547h8.4158004v2.150224h-5.977131v2.2287h5.2598753v2.150224h-5.2598753v2.307175h6.0568261v2.150224zm12.8627859.06278-3.3631324-8.475336h2.5661816l1.9126819 5.634529 1.9286209-5.634529h2.5183645l-3.3631323 8.475336zm10.5356895.125561c-2.5661816 0-4.4629245-1.773543-4.4629245-4.347534v-.03139c0-2.401345 1.7373528-4.378924 4.2238393-4.378924 2.8530838 0 4.1600831 2.181615 4.1600831 4.567265 0 .188341-.015939.408072-.031878.627803h-5.945253c.2390853 1.082959 1.004158 1.647982 2.0880111 1.647982.8128898 0 1.4026334-.251121 2.0720721-.863229l1.3866944 1.20852c-.7969508.973094-1.94456 1.569507-3.4906445 1.569507zm-2.0880111-5.053812h3.6500347c-.1434512-1.067264-.7810118-1.789237-1.8011088-1.789237-1.004158 0-1.6576577.706278-1.8489259 1.789237zm7.8101178 4.865471v-8.412556h2.4227304v1.192825c.5578656-.706278 1.2751213-1.349776 2.5024255-1.349776 1.8329869 0 2.9009009 1.192825 2.9009009 3.123319v5.446188h-2.4227304v-4.692825c0-1.130045-.5419265-1.710762-1.4663894-1.710762-.924463 0-1.5142066.580717-1.5142066 1.710762v4.692825zm12.8149689.141256c-1.482329 0-2.486487-.580718-2.486487-2.526906v-3.986547h-1.0200966v-2.040359h1.0200966v-2.150224h2.422731v2.150224h2.008316v2.040359h-2.008316v3.59417c0 .549328.239085.816144.781012.816144.446292 0 .844767-.109866 1.195426-.298207v1.914799c-.510049.298206-1.099792.486547-1.912682.486547zm3.777547-9.479821v-2.118834h2.550242v2.118834zm.063756 9.338565v-8.412556h2.42273v8.412556zm4.702009 0v-8.412556h2.422731v1.192825c.557865-.706278 1.275121-1.349776 2.502425-1.349776 1.832987 0 2.900901 1.192825 2.900901 3.123319v5.446188h-2.42273v-4.692825c0-1.130045-.541927-1.710762-1.46639-1.710762s-1.514206.580717-1.514206 1.710762v4.692825zm13.755371 2.542601c-1.386694 0-2.693693-.313901-3.777547-.878924l.828829-1.789237c.876646.486547 1.753292.769058 2.884962.769058 1.657658 0 2.43867-.784754 2.43867-2.29148v-.408072c-.717256.847534-1.498268 1.365471-2.789328 1.365471-1.992377 0-3.793486-1.428251-3.793486-3.923767v-.03139c0-2.511211 1.832987-3.923767 3.793486-3.923767 1.322938 0 2.10395.549328 2.75745 1.255606v-1.098655h2.42273v6.513453c0 1.506726-.366597 2.605381-1.083853 3.311659-.796951.784754-2.024255 1.130045-3.681913 1.130045zm.286903-5.210762c1.179487 0 2.088011-.800449 2.088011-1.946189v-.03139c0-1.14574-.908524-1.946188-2.088011-1.946188-1.179488 0-2.072073.800448-2.072073 1.946188v.03139c0 1.161435.892585 1.946189 2.072073 1.946189z" fill="#fff"/><path d="m314.289216 322.200258c-2.172651 0-3.984583 1.456734-4.526257 3.430184v-1.744061c0-2.562292-2.105984-4.639794-4.707213-4.639794-2.172651 0-3.985773 1.459099-4.529828 3.433731v-2.019563c0-2.563475-2.108365-4.640976-4.707213-4.640976-2.16908 0-3.903629 1.528861-4.450066 3.498763v-19.628077c0-2.562291-1.759549-4.890465-4.783404-4.890465-3.019092 0-4.938168 2.328174-4.938168 4.890465v30.375041c-3.609577-3.951629-7.926307-7.839407-11.13945-7.840589-1.120255 0-2.113127.345265-2.810756 1.178867-1.886933 2.24304.367863 4.936579 3.070283 8.462539 2.963139 3.862947 5.040551 9.332796 7.20725 13.934752 2.851232 6.046867 5.388175 9.17317 5.388175 13.461786v1.537139h31.183794c0-5.927443 4.453637-8.908309 4.453637-17.574223v-16.585725c0-2.562292-2.111936-4.639794-4.710784-4.639794z" fill="#fff" stroke="#9b9b9b" stroke-linejoin="round" stroke-width="3"/></g></svg>