<svg enable-background="new 0 0 578.9 219.8" viewBox="0 0 578.9 219.8" xmlns="http://www.w3.org/2000/svg" xmlns:xlink="http://www.w3.org/1999/xlink"><linearGradient id="a"><stop offset="0" stop-color="#eb4971"/><stop offset="1" stop-color="#b36cdc"/></linearGradient><linearGradient id="b" gradientTransform="matrix(43.1 0 0 -54.8 3454.2498 20732.9902)" gradientUnits="userSpaceOnUse" x1="-80.1538" x2="-79.1538" xlink:href="#a" y1="378.3285" y2="378.3285"/><linearGradient id="c" gradientTransform="matrix(38 0 0 -37.4 3046.1001 14069.9111)" gradientUnits="userSpaceOnUse" x1="-80.104" x2="-79.104" xlink:href="#a" y1="376.0192" y2="376.0192"/><linearGradient id="d" gradientTransform="matrix(39.1 0 0 -15.2 3134.1501 5536.8301)" gradientUnits="userSpaceOnUse" x1="-80.1164" x2="-79.1164" xlink:href="#a" y1="365.3972" y2="365.3972"/><linearGradient id="e" gradientTransform="matrix(43.1 0 0 -54.8 5954.3496 20732.9902)" gradientUnits="userSpaceOnUse" x1="-137.1532" x2="-138.1532" xlink:href="#a" y1="378.3285" y2="378.3285"/><linearGradient id="f" gradientTransform="matrix(38 0 0 -37.4 5250.5 14069.9111)" gradientUnits="userSpaceOnUse" x1="-137.1053" x2="-138.1053" xlink:href="#a" y1="376.0192" y2="376.0192"/><linearGradient id="g" gradientTransform="matrix(39.1 0 0 -15.2 5402.25 5536.8301)" gradientUnits="userSpaceOnUse" x1="-137.1147" x2="-138.1147" xlink:href="#a" y1="365.3972" y2="365.3972"/><linearGradient id="h" gradientTransform="matrix(43.1 0 0 -54.8 8454.5498 20732.9902)" gradientUnits="userSpaceOnUse" x1="-195.152" x2="-196.152" xlink:href="#a" y1="378.3285" y2="378.3285"/><linearGradient id="i" gradientTransform="matrix(38 0 0 -37.4 7454.8999 14069.9111)" gradientUnits="userSpaceOnUse" x1="-195.1039" x2="-196.1039" xlink:href="#a" y1="376.0192" y2="376.0192"/><linearGradient id="j" gradientTransform="matrix(39.1 0 0 -15.2 7670.4507 5536.8301)" gradientUnits="userSpaceOnUse" x1="-195.1133" x2="-196.1133" xlink:href="#a" y1="365.3972" y2="365.3972"/><linearGradient id="k"><stop offset="0" stop-color="#00ace0"/><stop offset="1" stop-color="#b36cdc"/></linearGradient><linearGradient id="l" gradientTransform="matrix(43.1 0 0 -54.8 10996.9492 20732.9902)" gradientUnits="userSpaceOnUse" x1="-254.153" x2="-255.153" xlink:href="#k" y1="378.3285" y2="378.3285"/><linearGradient id="m" gradientTransform="matrix(38 0 0 -37.4 9696.4004 14069.9111)" gradientUnits="userSpaceOnUse" x1="-254.1053" x2="-255.1053" xlink:href="#k" y1="376.0192" y2="376.0192"/><linearGradient id="n" gradientTransform="matrix(39.1 0 0 -15.2 9976.8506 5536.8301)" gradientUnits="userSpaceOnUse" x1="-254.1145" x2="-255.1145" xlink:href="#k" y1="365.3972" y2="365.3972"/><linearGradient id="o" gradientTransform="matrix(43.1 0 0 -54.8 13497.25 20732.9902)" gradientUnits="userSpaceOnUse" x1="-312.1541" x2="-313.1541" xlink:href="#k" y1="378.3285" y2="378.3285"/><linearGradient id="p" gradientTransform="matrix(38 0 0 -37.4 11900.7998 14069.9111)" gradientUnits="userSpaceOnUse" x1="-312.1037" x2="-313.1037" xlink:href="#k" y1="376.0192" y2="376.0192"/><linearGradient id="q" gradientTransform="matrix(39.1 0 0 -15.2 12245.1504 5536.8301)" gradientUnits="userSpaceOnUse" x1="-312.1164" x2="-313.1164" xlink:href="#k" y1="365.3972" y2="365.3972"/><linearGradient id="r"><stop offset="0" stop-color="#fc9c0c"/><stop offset="1" stop-color="#eb4971"/></linearGradient><linearGradient id="s" gradientTransform="matrix(43.1 0 0 -54.8 16039.4492 20732.9902)" gradientUnits="userSpaceOnUse" x1="-371.1539" x2="-372.1539" xlink:href="#r" y1="378.3285" y2="378.3285"/><linearGradient id="t" gradientTransform="matrix(38 0 0 -37.4 14142.0996 14069.9111)" gradientUnits="userSpaceOnUse" x1="-371.1034" x2="-372.1034" xlink:href="#r" y1="376.0192" y2="376.0192"/><linearGradient id="u" gradientTransform="matrix(39.1 0 0 -15.2 14551.3506 5536.8301)" gradientUnits="userSpaceOnUse" x1="-371.1164" x2="-372.1164" xlink:href="#r" y1="365.3972" y2="365.3972"/><linearGradient id="v" gradientTransform="matrix(43.1 0 0 -54.8 18539.5488 20732.9902)" gradientUnits="userSpaceOnUse" x1="-429.152" x2="-430.152" xlink:href="#r" y1="378.3285" y2="378.3285"/><linearGradient id="w" gradientTransform="matrix(38 0 0 -37.4 16346.5 14069.9111)" gradientUnits="userSpaceOnUse" x1="-429.1038" x2="-430.1038" xlink:href="#r" y1="376.0192" y2="376.0192"/><linearGradient id="x" gradientTransform="matrix(39.1 0 0 -15.2 16819.4492 5536.8301)" gradientUnits="userSpaceOnUse" x1="-429.1133" x2="-430.1133" xlink:href="#r" y1="365.3972" y2="365.3972"/><linearGradient id="y" gradientTransform="matrix(43.1 0 0 -54.8 21081.9492 20732.9902)" gradientUnits="userSpaceOnUse" x1="-488.152" x2="-489.152" xlink:href="#r" y1="378.3285" y2="378.3285"/><linearGradient id="z" gradientTransform="matrix(38 0 0 -37.4 18588 14069.9111)" gradientUnits="userSpaceOnUse" x1="-488.1053" x2="-489.1053" xlink:href="#r" y1="376.0192" y2="376.0192"/><linearGradient id="A" gradientTransform="matrix(39.1 0 0 -15.2 19125.8496 5536.8301)" gradientUnits="userSpaceOnUse" x1="-488.1144" x2="-489.1144" xlink:href="#r" y1="365.3972" y2="365.3972"/><path d="m523.7 218.5h-467.6c-4.9 0-8.9-4-8.9-8.9v-199.4c0-4.9 4-8.9 8.9-8.9h467.6c4.9 0 8.9 4 8.9 8.9v199.4c0 4.9-4 8.9-8.9 8.9z" fill="none" stroke="#fff" stroke-width="2.5839"/><path d="m110.1 177.2h-48c-1.4 0-2.5-1.1-2.5-2.5v-153.6c0-1.4 1.1-2.5 2.5-2.5h48c1.4 0 2.5 1.1 2.5 2.5v153.6c0 1.4-1.2 2.5-2.5 2.5z" fill="#fff" stroke="#130c0e" stroke-width="1.0596"/><path d="m168.5 177.2h-48c-1.4 0-2.5-1.1-2.5-2.5v-153.6c0-1.4 1.1-2.5 2.5-2.5h48c1.4 0 2.5 1.1 2.5 2.5v153.6c0 1.4-1.1 2.5-2.5 2.5z" fill="#fff" stroke="#130c0e" stroke-width="1.0596"/><g transform="translate(67 58)"><path d="m7.8-19.2v-7.4h2.8c2.3 0 4 1.6 4 3.7s-1.6 3.7-4 3.7zm2.8-6.3h-1.5v5.1h1.5c1.6 0 2.6-1.1 2.6-2.5-.1-1.5-1.1-2.6-2.6-2.6zm7 6.4c-1.1 0-2-.6-2-1.7 0-1.2 1-1.8 2.3-1.8.6 0 1.1.1 1.5.2v-.1c0-.8-.5-1.2-1.4-1.2-.6 0-1.1.1-1.6.4l-.4-1c.6-.3 1.2-.5 2.1-.5.8 0 1.5.2 1.9.6s.6 1 .6 1.7v3.3h-1.3v-.7c-.3.4-.9.8-1.7.8zm.3-.9c.9 0 1.5-.5 1.5-1.2v-.4c-.3-.1-.8-.2-1.3-.2-.8 0-1.3.4-1.3.9 0 .6.5.9 1.1.9zm6.1.9c-.9 0-1.6-.4-1.6-1.6v-3h-.7v-1.1h.7v-1.5h1.3v1.5h1.5v1.1h-1.5v2.8c0 .5.3.7.7.7.3 0 .5-.1.8-.2v1.1c-.3.1-.7.2-1.2.2zm4.1 0c-1.1 0-2-.6-2-1.7 0-1.2 1-1.8 2.3-1.8.6 0 1.1.1 1.5.2v-.1c0-.8-.5-1.2-1.4-1.2-.6 0-1.1.1-1.6.4l-.4-1c.6-.3 1.2-.5 2.1-.5.8 0 1.5.2 1.9.6s.6 1 .6 1.7v3.3h-1.1v-.7c-.4.4-1 .8-1.9.8zm.4-.9c.9 0 1.5-.5 1.5-1.2v-.4c-.3-.1-.8-.2-1.3-.2-.8 0-1.3.4-1.3.9 0 .6.5.9 1.1.9z"/><path d="m2.9-8.5c-1.1 0-2.2-.4-3.1-1.2l.8-.9c.7.6 1.4 1 2.4 1 .8 0 1.3-.4 1.3-.9s-.3-.8-1.7-1.1c-1.6-.5-2.5-1-2.5-2.4 0-1.3 1.1-2.2 2.5-2.2 1.1 0 1.9.3 2.7.9l-.7 1c-.6-.4-1.3-.7-2-.7-.8 0-1.2.4-1.2.9 0 .6.3.8 1.8 1.2 1.6.4 2.4.9 2.4 2.2 0 1.4-1.1 2.2-2.7 2.2zm6.6 0c-1.6 0-2.9-1.2-2.9-2.9 0-1.6 1.1-2.9 2.7-2.9 1.8 0 2.7 1.4 2.7 3v.4h-4.1c.2.9.8 1.4 1.6 1.4.6 0 1.1-.2 1.5-.7l.8.7c-.5.6-1.2 1-2.3 1zm-1.6-3.3h2.9c-.1-.8-.6-1.5-1.4-1.5s-1.4.6-1.5 1.5zm5.5 3.2v-5.6h1.3v1.3c.4-.8 1-1.4 2-1.4v1.4h-.1c-1.1 0-1.9.7-1.9 2.2v2.1zm6.1 0-2.3-5.7h1.4l1.5 4.1 1.5-4.1h1.4l-2.3 5.7zm4.6-6.5v-1.2h1.4v1.2zm.1 6.5v-5.6h1.3v5.6zm5.5.1c-1.7 0-2.9-1.3-2.9-2.9s1.2-2.9 2.9-2.9c1.1 0 1.7.4 2.2 1l-.8.9c-.4-.4-.8-.7-1.4-.7-.9 0-1.6.8-1.6 1.8s.7 1.8 1.7 1.8c.6 0 1-.3 1.5-.7l.7.7c-.5.6-1.2 1-2.3 1zm5.9 0c-1.6 0-2.9-1.2-2.9-2.9 0-1.6 1.1-2.9 2.7-2.9 1.8 0 2.7 1.4 2.7 3v.4h-4.1c.1.9.8 1.4 1.6 1.4.6 0 1.1-.2 1.5-.7l.8.7c-.5.6-1.2 1-2.3 1zm-1.6-3.3h2.9c-.1-.8-.6-1.5-1.4-1.5s-1.4.6-1.5 1.5z"/></g><path d="m227 177.2h-48c-1.4 0-2.5-1.1-2.5-2.5v-153.6c0-1.4 1.1-2.5 2.5-2.5h48c1.4 0 2.5 1.1 2.5 2.5v153.6c0 1.4-1.2 2.5-2.5 2.5z" fill="#fff" stroke="#130c0e" stroke-width="1.0596"/><g transform="translate(184 58)"><path d="m7.8-19.2v-7.4h2.8c2.3 0 4 1.6 4 3.7s-1.6 3.7-4 3.7zm2.8-6.3h-1.5v5.1h1.5c1.6 0 2.6-1.1 2.6-2.5-.1-1.5-1.1-2.6-2.6-2.6zm7 6.4c-1.1 0-2-.6-2-1.7 0-1.2 1-1.8 2.3-1.8.6 0 1.1.1 1.5.2v-.1c0-.8-.5-1.2-1.4-1.2-.6 0-1.1.1-1.6.4l-.4-1c.6-.3 1.2-.5 2.1-.5.8 0 1.5.2 1.9.6s.6 1 .6 1.7v3.3h-1.3v-.7c-.3.4-.9.8-1.7.8zm.3-.9c.9 0 1.5-.5 1.5-1.2v-.4c-.3-.1-.8-.2-1.3-.2-.8 0-1.3.4-1.3.9 0 .6.5.9 1.1.9zm6.1.9c-.9 0-1.6-.4-1.6-1.6v-3h-.7v-1.1h.7v-1.5h1.3v1.5h1.5v1.1h-1.5v2.8c0 .5.3.7.7.7.3 0 .5-.1.8-.2v1.1c-.3.1-.7.2-1.2.2zm4.1 0c-1.1 0-2-.6-2-1.7 0-1.2 1-1.8 2.3-1.8.6 0 1.1.1 1.5.2v-.1c0-.8-.5-1.2-1.4-1.2-.6 0-1.1.1-1.6.4l-.4-1c.6-.3 1.2-.5 2.1-.5.8 0 1.5.2 1.9.6s.6 1 .6 1.7v3.3h-1.1v-.7c-.4.4-1 .8-1.9.8zm.4-.9c.9 0 1.5-.5 1.5-1.2v-.4c-.3-.1-.8-.2-1.3-.2-.8 0-1.3.4-1.3.9 0 .6.5.9 1.1.9z"/><path d="m2.9-8.5c-1.1 0-2.2-.4-3.1-1.2l.8-.9c.7.6 1.4 1 2.4 1 .8 0 1.3-.4 1.3-.9s-.3-.8-1.7-1.1c-1.6-.5-2.5-1-2.5-2.4 0-1.3 1.1-2.2 2.5-2.2 1.1 0 1.9.3 2.7.9l-.7 1c-.6-.4-1.3-.7-2-.7-.8 0-1.2.4-1.2.9 0 .6.3.8 1.8 1.2 1.6.4 2.4.9 2.4 2.2 0 1.4-1.1 2.2-2.7 2.2zm6.6 0c-1.6 0-2.9-1.2-2.9-2.9 0-1.6 1.1-2.9 2.7-2.9 1.8 0 2.7 1.4 2.7 3v.4h-4.1c.2.9.8 1.4 1.6 1.4.6 0 1.1-.2 1.5-.7l.8.7c-.5.6-1.2 1-2.3 1zm-1.6-3.3h2.9c-.1-.8-.6-1.5-1.4-1.5s-1.4.6-1.5 1.5zm5.5 3.2v-5.6h1.3v1.3c.4-.8 1-1.4 2-1.4v1.4h-.1c-1.1 0-1.9.7-1.9 2.2v2.1zm6.1 0-2.3-5.7h1.4l1.5 4.1 1.5-4.1h1.4l-2.3 5.7zm4.6-6.5v-1.2h1.4v1.2zm.1 6.5v-5.6h1.3v5.6zm5.5.1c-1.7 0-2.9-1.3-2.9-2.9s1.2-2.9 2.9-2.9c1.1 0 1.7.4 2.2 1l-.8.9c-.4-.4-.8-.7-1.4-.7-.9 0-1.6.8-1.6 1.8s.7 1.8 1.7 1.8c.6 0 1-.3 1.5-.7l.7.7c-.5.6-1.2 1-2.3 1zm5.9 0c-1.6 0-2.9-1.2-2.9-2.9 0-1.6 1.1-2.9 2.7-2.9 1.8 0 2.7 1.4 2.7 3v.4h-4.1c.1.9.8 1.4 1.6 1.4.6 0 1.1-.2 1.5-.7l.8.7c-.5.6-1.2 1-2.3 1zm-1.6-3.3h2.9c-.1-.8-.6-1.5-1.4-1.5s-1.4.6-1.5 1.5z"/></g><path d="m285.4 177.2h-48c-1.4 0-2.5-1.1-2.5-2.5v-153.6c0-1.4 1.1-2.5 2.5-2.5h48c1.4 0 2.5 1.1 2.5 2.5v153.6c0 1.4-1.1 2.5-2.5 2.5z" fill="#fff" stroke="#130c0e" stroke-width="1.0596"/><path d="m343.9 177.2h-48c-1.4 0-2.5-1.1-2.5-2.5v-153.6c0-1.4 1.1-2.5 2.5-2.5h48c1.4 0 2.5 1.1 2.5 2.5v153.6c0 1.4-1.1 2.5-2.5 2.5z" fill="#fff" stroke="#130c0e" stroke-width="1.0596"/><g transform="translate(300.7037 58.3504)"><path d="m6.1-19.1c-2.3 0-3.9-1.7-3.9-3.8s1.6-3.9 3.8-3.9c1.3 0 2.1.4 2.9 1l-.8 1c-.6-.5-1.1-.8-2.1-.8-1.4 0-2.4 1.2-2.4 2.6 0 1.5 1 2.7 2.5 2.7.7 0 1.3-.2 1.8-.6v-1.4h-1.9v-1.1h3.2v3.1c-.7.7-1.8 1.2-3.1 1.2zm4.7-.1v-7.8h1.3v7.8zm5.7.1c-1.7 0-3-1.3-3-2.9s1.3-2.9 3-2.9 3 1.3 3 2.9-1.3 2.9-3 2.9zm0-1.1c1 0 1.7-.8 1.7-1.8s-.7-1.8-1.7-1.8-1.7.8-1.7 1.8.7 1.8 1.7 1.8zm7.5 1.1c-.9 0-1.5-.5-1.9-1v.9h-1.3v-7.8h1.3v3.1c.4-.6 1-1.1 1.9-1.1 1.3 0 2.6 1 2.6 2.9 0 2-1.3 3-2.6 3zm-.3-1.1c.9 0 1.6-.7 1.6-1.8s-.7-1.8-1.6-1.8-1.6.7-1.6 1.8.7 1.8 1.6 1.8zm5.9 1.1c-1.1 0-2-.6-2-1.7 0-1.2 1-1.8 2.3-1.8.6 0 1.1.1 1.5.2v-.1c0-.8-.5-1.2-1.4-1.2-.6 0-1.1.1-1.6.4l-.4-1c.6-.3 1.2-.5 2.1-.5.8 0 1.5.2 1.9.6s.6 1 .6 1.7v3.3h-1.3v-.7c-.3.4-.9.8-1.7.8zm.3-.9c.9 0 1.5-.5 1.5-1.2v-.4c-.3-.1-.8-.2-1.3-.2-.8 0-1.3.4-1.3.9 0 .6.5.9 1.1.9zm4.3.8v-7.8h1.3v7.8z"/><path d="m5.3-8.6v-7.4h1.3v7.4zm3.1 0v-5.6h1.3v.9c.4-.5.9-1 1.8-1 1.3 0 2 .9 2 2.1v3.6h-1.3v-3.2c0-.9-.4-1.4-1.2-1.4-.7 0-1.3.5-1.3 1.4v3.2zm8.9.1c-1.3 0-2.6-1.1-2.6-2.9 0-1.9 1.3-2.9 2.6-2.9.9 0 1.5.5 1.9 1v-3h1.3v7.8h-1.3v-.9c-.4.4-1 .9-1.9.9zm.3-1.1c.9 0 1.6-.7 1.6-1.8s-.8-1.8-1.6-1.8c-.9 0-1.6.7-1.6 1.8s.8 1.8 1.6 1.8zm7.1 1.1c-1.6 0-2.9-1.2-2.9-2.9 0-1.6 1.1-2.9 2.7-2.9 1.8 0 2.7 1.4 2.7 3v.4h-4.1c.1.9.8 1.4 1.6 1.4.6 0 1.1-.2 1.5-.7l.8.7c-.5.6-1.3 1-2.3 1zm-1.6-3.3h2.9c-.1-.8-.6-1.5-1.4-1.5s-1.4.6-1.5 1.5zm6.1-2.4 1.3 1.9 1.3-1.9h1.4l-2 2.7 2.1 2.9h-1.4l-1.4-2-1.4 2h-1.4l2.1-2.9-2-2.8h1.4z"/><path d="m2.7 2.2c-1.2 0-2.2-.4-3.1-1.2l.8-.9c.7.6 1.4 1 2.4 1 .7-.1 1.2-.4 1.2-1 0-.5-.3-.8-1.7-1.1-1.5-.4-2.4-.9-2.4-2.3 0-1.3 1.1-2.2 2.5-2.2 1.1 0 1.9.3 2.7.9l-.7 1c-.6-.4-1.3-.7-2-.7-.8 0-1.2.4-1.2.9 0 .6.3.8 1.8 1.2s2.3.9 2.3 2.2c0 1.4-1 2.2-2.6 2.2zm6.6 0c-1.6 0-2.9-1.2-2.9-2.9 0-1.6 1.1-2.9 2.7-2.9 1.8 0 2.7 1.4 2.7 3v.4h-4.1c.1.9.8 1.4 1.6 1.4.6 0 1.1-.2 1.5-.7l.8.7c-.5.6-1.3 1-2.3 1zm-1.6-3.3h2.9c-.1-.8-.6-1.5-1.4-1.5s-1.4.6-1.5 1.5zm5.5 3.2v-5.6h1.3v1.3c.4-.8 1-1.4 2-1.4v1.4h-.1c-1.1 0-1.9.7-1.9 2.2v2.1zm6.1 0-2.3-5.6h1.4l1.5 4.1 1.5-4.1h1.4l-2.3 5.7h-1.2zm4.6-6.5v-1.2h1.4v1.2zm.1 6.5v-5.6h1.3v5.6zm5.5.1c-1.7 0-2.9-1.3-2.9-2.9s1.2-2.9 2.9-2.9c1.1 0 1.7.4 2.2 1l-.7.8c-.4-.4-.8-.7-1.4-.7-.9 0-1.6.8-1.6 1.8s.7 1.8 1.7 1.8c.6 0 1-.3 1.5-.7l.8.8c-.7.6-1.4 1-2.5 1zm5.9 0c-1.6 0-2.9-1.2-2.9-2.9 0-1.6 1.1-2.9 2.7-2.9 1.8 0 2.7 1.4 2.7 3v.4h-4.1c.1.9.8 1.4 1.6 1.4.6 0 1.1-.2 1.5-.7l.8.7c-.5.6-1.2 1-2.3 1zm-1.6-3.3h2.9c-.1-.8-.6-1.5-1.4-1.5s-1.4.6-1.5 1.5z"/></g><path d="m402.3 177.2h-48c-1.4 0-2.5-1.1-2.5-2.5v-153.6c0-1.4 1.1-2.5 2.5-2.5h48c1.4 0 2.5 1.1 2.5 2.5v153.6c0 1.4-1.1 2.5-2.5 2.5z" fill="#fff" stroke="#130c0e" stroke-width="1.0596"/><path d="m460.6 177.2h-48c-1.4 0-2.5-1.1-2.5-2.5v-153.6c0-1.4 1.1-2.5 2.5-2.5h48c1.4 0 2.5 1.1 2.5 2.5v153.6c0 1.4-1.2 2.5-2.5 2.5z" fill="#fff" stroke="#130c0e" stroke-width="1.0596"/><g transform="translate(417.0361 58.3504)"><path d="m10.9-19.2v-7.4h5.5v1.2h-4.2v2h3.8v1.2h-3.8v3zm8.7.1c-1.3 0-2-.9-2-2.2v-3.6h1.3v3.2c0 .9.4 1.4 1.2 1.4.7 0 1.3-.5 1.3-1.4v-3.2h1.3v5.6h-1.3v-.9c-.4.7-.9 1.1-1.8 1.1zm4.7-.1v-7.8h1.3v7.8zm3.1 0v-7.8h1.3v7.8z"/><path d="m10.5-8.6v-6.2h-2.4v-1.2h6.1v1.2h-2.4v6.2zm6.3.1c-1.6 0-2.9-1.2-2.9-2.9 0-1.6 1.1-2.9 2.7-2.9 1.8 0 2.7 1.4 2.7 3v.4h-4.1c.1.9.8 1.4 1.6 1.4.6 0 1.1-.2 1.5-.7l.8.7c-.6.6-1.3 1-2.3 1zm-1.6-3.3h2.8c-.1-.8-.6-1.5-1.4-1.5s-1.3.6-1.4 1.5zm6.1-2.4 1.3 1.9 1.3-1.9h1.4l-2 2.7 2.1 2.9h-1.4l-1.4-2-1.4 2h-1.4l2.1-2.9-2-2.8h1.4zm7.1 5.7c-.9 0-1.6-.4-1.6-1.6v-3h-.8v-1.1h.7v-1.5h1.3v1.5h1.5v1.1h-1.5v2.8c0 .5.3.7.7.7.3 0 .5-.1.8-.2v1.1c-.3.1-.7.2-1.1.2z"/><path d="m3.2 2.2c-1.2 0-2.2-.4-3.1-1.2l.8-.9c.7.6 1.4 1 2.4 1 .7-.1 1.2-.4 1.2-1 0-.5-.3-.8-1.7-1.1-1.5-.4-2.4-.9-2.4-2.3 0-1.3 1.1-2.2 2.5-2.2 1.1 0 1.9.3 2.7.9l-.7 1c-.7-.4-1.3-.7-2-.7-.8 0-1.2.4-1.2.9 0 .6.3.8 1.8 1.2s2.3.9 2.3 2.2c0 1.4-1.1 2.2-2.6 2.2zm6.6 0c-1.6 0-2.9-1.2-2.9-2.9 0-1.6 1.1-2.9 2.7-2.9 1.8 0 2.7 1.4 2.7 3v.4h-4.1c.1.9.8 1.4 1.6 1.4.6 0 1.1-.2 1.5-.7l.8.7c-.5.6-1.3 1-2.3 1zm-1.6-3.3h2.9c-.1-.8-.6-1.5-1.5-1.5-.7 0-1.3.6-1.4 1.5zm5.4 3.2v-5.6h1.3v1.3c.4-.8 1-1.4 2-1.4v1.4h-.1c-1.1 0-1.9.7-1.9 2.2v2.1zm6.2 0-2.3-5.7h1.4l1.5 4.1 1.5-4.1h1.4l-2.3 5.7zm4.6-6.5v-1.2h1.4v1.2zm0 6.5v-5.6h1.3v5.6zm5.6.1c-1.7 0-2.9-1.3-2.9-2.9s1.2-2.9 2.9-2.9c1.1 0 1.7.4 2.2 1l-.8.9c-.4-.4-.8-.7-1.4-.7-.9 0-1.6.8-1.6 1.8s.7 1.8 1.7 1.8c.6 0 1-.3 1.5-.7l.8.8c-.6.5-1.3.9-2.4.9zm5.9 0c-1.6 0-2.9-1.2-2.9-2.9 0-1.6 1.1-2.9 2.7-2.9 1.8 0 2.7 1.4 2.7 3v.4h-4.1c.1.9.8 1.4 1.6 1.4.6 0 1.1-.2 1.5-.7l.8.7c-.5.6-1.3 1-2.3 1zm-1.6-3.3h2.9c-.1-.8-.6-1.5-1.4-1.5s-1.4.6-1.5 1.5z"/></g><path d="m519 177.2h-48c-1.4 0-2.5-1.1-2.5-2.5v-153.6c0-1.4 1.1-2.5 2.5-2.5h48c1.4 0 2.5 1.1 2.5 2.5v153.6c0 1.4-1.1 2.5-2.5 2.5z" fill="#fff" stroke="#130c0e" stroke-width="1.0596"/><path d="m485.9 39.1v-7.4h5.5v1.2h-4.2v2h3.8v1.2h-3.8v3zm8.8.2c-1.3 0-2-.9-2-2.2v-3.6h1.3v3.2c0 .9.4 1.4 1.2 1.4.7 0 1.3-.5 1.3-1.4v-3.2h1.3v5.6h-1.3v-.9c-.4.6-1 1.1-1.8 1.1zm4.7-.2v-7.8h1.3v7.8zm3 0v-7.8h1.3v7.8z"/><path d="m485.5 49.7v-6.2h-2.4v-1.2h6.1v1.2h-2.4v6.2zm6.3.2c-1.6 0-2.9-1.2-2.9-2.9 0-1.6 1.1-2.9 2.7-2.9 1.8 0 2.7 1.4 2.7 3v.4h-4.1c.1.9.8 1.4 1.6 1.4.6 0 1.1-.2 1.5-.7l.8.7c-.5.6-1.3 1-2.3 1zm-1.6-3.4h2.9c-.1-.8-.6-1.5-1.4-1.5-.8.1-1.4.7-1.5 1.5zm6.1-2.4 1.3 1.9 1.3-1.9h1.4l-2 2.7 2.1 2.9h-1.4l-1.4-2-1.4 2h-1.4l2.1-2.9-2-2.8h1.4zm7.1 5.7c-.9 0-1.6-.4-1.6-1.6v-3h-.7v-1.1h.7v-1.5h1.3v1.5h1.5v1.1h-1.5v2.8c0 .5.3.7.7.7.3 0 .5-.1.8-.2v1.1c-.4.1-.7.2-1.2.2z"/><path d="m478.2 60.5c-1.1 0-2.2-.4-3.1-1.2l.8-.9c.7.6 1.4 1 2.4 1 .8 0 1.3-.4 1.3-.9s-.3-.8-1.7-1.1c-1.6-.4-2.5-.9-2.5-2.2s1.1-2.2 2.5-2.2c1.1 0 1.9.3 2.7.9l-.7 1c-.7-.5-1.3-.8-2-.8-.8 0-1.2.4-1.2.9 0 .6.3.8 1.8 1.2 1.6.4 2.4.9 2.4 2.2s-1.1 2.1-2.7 2.1zm6.6.1c-1.6 0-2.9-1.2-2.9-2.9 0-1.6 1.1-2.9 2.7-2.9 1.8 0 2.7 1.4 2.7 3v.4h-4.1c.1.9.8 1.4 1.6 1.4.6 0 1.1-.2 1.5-.7l.8.7c-.5.6-1.2 1-2.3 1zm-1.6-3.4h2.9c-.1-.8-.6-1.5-1.4-1.5-.8.1-1.4.7-1.5 1.5zm5.5 3.2v-5.6h1.3v1.3c.4-.8 1-1.4 2-1.4v1.4h-.1c-1.1 0-1.9.7-1.9 2.2v2.1zm6.2.1-2.3-5.7h1.4l1.5 4.1 1.5-4.1h1.4l-2.3 5.7zm4.5-6.5v-1.2h1.4v1.2zm.1 6.4v-5.6h1.3v5.6zm5.5.2c-1.7 0-2.9-1.3-2.9-2.9s1.2-2.9 2.9-2.9c1.1 0 1.7.4 2.2 1l-.8.9c-.4-.4-.8-.7-1.4-.7-.9 0-1.6.8-1.6 1.8s.7 1.8 1.7 1.8c.6 0 1-.3 1.5-.7l.8.8c-.6.4-1.3.9-2.4.9zm5.9 0c-1.6 0-2.9-1.2-2.9-2.9 0-1.6 1.1-2.9 2.7-2.9 1.8 0 2.7 1.4 2.7 3v.4h-4.1c.1.9.8 1.4 1.6 1.4.6 0 1.1-.2 1.5-.7l.8.7c-.5.6-1.2 1-2.3 1zm-1.6-3.4h2.9c-.1-.8-.6-1.5-1.4-1.5-.8.1-1.4.7-1.5 1.5z"/><g transform="translate(0 135)"><path d="m6.4-19.4h566.2" fill="none" stroke="#b36cdc" stroke-width="3"/><g fill="#b36cdc"><path d="m7.3-26.7v14.6l-7.3-7.3z"/><path d="m571.6-26.7v14.6l7.3-7.3z"/></g></g><path d="m179.8 206.1c-3.7 0-6.5-2.9-6.5-6.5s2.7-6.5 6.6-6.5c2.4 0 3.8.8 5 1.9l-1.8 2c-1-.9-2-1.4-3.2-1.4-2.1 0-3.7 1.8-3.7 3.9 0 2.2 1.5 4 3.7 4 1.4 0 2.3-.6 3.3-1.5l1.8 1.8c-1.4 1.4-2.8 2.3-5.2 2.3zm11.6 0c-3 0-5.2-2.2-5.2-5s2.2-5 5.2-5 5.2 2.2 5.2 5c.1 2.7-2.2 5-5.2 5zm.1-2.4c1.6 0 2.5-1.2 2.5-2.6s-1-2.7-2.5-2.7c-1.6 0-2.5 1.2-2.5 2.6-.1 1.5.9 2.7 2.5 2.7zm10.3 2.4c-2.1 0-3.3-1.4-3.3-3.6v-6.2h2.7v5.4c0 1.3.6 2 1.7 2s1.7-.7 1.7-2v-5.4h2.7v9.6h-2.7v-1.4c-.6.8-1.4 1.6-2.8 1.6zm12.6 0c-2.9 0-5-2.2-5-5s2.1-5 5.1-5c1.8 0 3 .6 3.9 1.6l-1.7 1.8c-.6-.6-1.2-1.1-2.2-1.1-1.4 0-2.3 1.2-2.3 2.6 0 1.5 1 2.7 2.4 2.7.9 0 1.5-.4 2.2-1l1.6 1.6c-1 1.1-2.1 1.8-4 1.8zm5.7-.2v-13.1h2.7v4.9c.6-.8 1.4-1.5 2.8-1.5 2.1 0 3.3 1.4 3.3 3.6v6.2h-2.7v-5.4c0-1.3-.6-2-1.7-2-1 0-1.7.7-1.7 2v5.4h-2.7zm17 .2c-1.5 0-2.4-.7-3-1.4v1.3h-2.7v-13.1h2.7v4.9c.7-.9 1.6-1.6 3-1.6 2.2 0 4.4 1.8 4.4 5 0 3.1-2.1 4.9-4.4 4.9zm-.7-2.4c1.3 0 2.4-1 2.4-2.7 0-1.6-1.1-2.7-2.4-2.7s-2.3 1.1-2.3 2.7c-.1 1.7 1 2.7 2.3 2.7zm9.8 2.4c-1.8 0-3.3-1-3.3-3 0-2.1 1.6-3.1 3.9-3.1 1 0 1.7.2 2.4.4v-.2c0-1.1-.7-1.8-2.1-1.8-1 0-1.8.2-2.7.5l-.7-2.1c1.1-.5 2.1-.8 3.7-.8 1.5 0 2.6.4 3.3 1.1s1 1.8 1 3.1v5.6h-2.6v-1c-.6.8-1.5 1.3-2.9 1.3zm.9-1.9c1.3 0 2.1-.7 2.1-1.7v-.5c-.5-.2-1.1-.4-1.7-.4-1.2 0-1.9.5-1.9 1.3s.6 1.3 1.5 1.3zm10.4 1.9c-1.4 0-2.9-.5-4.1-1.5l1.2-1.8c1 .8 2.1 1.2 3 1.2.8 0 1.2-.3 1.2-.7 0-.6-.9-.8-2-1.1-1.3-.4-2.9-1-2.9-2.9 0-2 1.6-3.1 3.5-3.1 1.2 0 2.6.4 3.6 1.1l-1 1.9c-1-.6-1.9-.9-2.6-.9s-1 .3-1 .7c0 .5.9.8 2 1.2 1.4.4 2.9 1.1 2.9 2.9-.1 2-1.7 3-3.8 3zm10.3 0c-2.9 0-5-2-5-5 0-2.8 2-5 4.8-5 3.2 0 4.7 2.5 4.7 5.2v.7h-6.7c.3 1.2 1.1 1.9 2.4 1.9.9 0 1.6-.3 2.3-1l1.6 1.4c-1.1 1.1-2.4 1.8-4.1 1.8zm-2.4-5.8h4.1c-.2-1.2-.9-2.1-2-2.1s-1.9.9-2.1 2.1zm19 5.8c-1.9 0-3.8-.7-5.3-2l1.6-2c1.1.9 2.3 1.5 3.8 1.5 1.1 0 1.8-.4 1.8-1.2 0-.7-.4-1.1-2.5-1.6-2.5-.6-4.2-1.4-4.2-3.9 0-2.3 1.8-3.8 4.4-3.8 1.8 0 3.4.6 4.7 1.6l-1.4 2.1c-1.1-.8-2.2-1.2-3.3-1.2s-1.6.5-1.6 1.1c0 .8.5 1.1 2.7 1.7 2.6.7 4 1.6 4 3.8-.1 2.4-2 3.9-4.7 3.9zm11.3 0c-2.9 0-5-2-5-5 0-2.8 2-5 4.8-5 3.2 0 4.7 2.5 4.7 5.2v.7h-6.7c.3 1.2 1.1 1.9 2.4 1.9.9 0 1.6-.3 2.3-1l1.6 1.4c-1 1.1-2.3 1.8-4.1 1.8zm-2.3-5.8h4.1c-.2-1.2-.9-2.1-2-2.1-1.2 0-1.9.9-2.1 2.1zm8.8 5.6v-9.6h2.7v1.9c.6-1.3 1.5-2.2 3.1-2.1v2.9h-.1c-1.8 0-2.9 1.1-2.9 3.4v3.6h-2.8zm10.4 0-3.8-9.7h2.9l2.2 6.5 2.2-6.5h2.8l-3.8 9.7zm11.9.2c-2.9 0-5-2-5-5 0-2.8 2-5 4.8-5 3.2 0 4.7 2.5 4.7 5.2v.7h-6.7c.3 1.2 1.1 1.9 2.4 1.9.9 0 1.6-.3 2.3-1l1.6 1.4c-1 1.1-2.3 1.8-4.1 1.8zm-2.3-5.8h4.1c-.2-1.2-.9-2.1-2-2.1-1.2 0-1.9.9-2.1 2.1zm8.8 5.6v-9.6h2.7v1.9c.6-1.3 1.5-2.2 3.1-2.1v2.9h-.1c-1.8 0-2.9 1.1-2.9 3.4v3.6h-2.8zm19.1.2c-3.7 0-6.5-2.9-6.5-6.5s2.7-6.5 6.6-6.5c2.4 0 3.8.8 5 1.9l-1.8 2c-1-.9-2-1.4-3.2-1.4-2.1 0-3.7 1.8-3.7 3.9 0 2.2 1.5 4 3.7 4 1.4 0 2.3-.6 3.3-1.5l1.8 1.8c-1.3 1.4-2.8 2.3-5.2 2.3zm7.2-.2v-13.1h2.7v13.1zm8.5.2c-2.1 0-3.3-1.4-3.3-3.6v-6.2h2.7v5.4c0 1.3.6 2 1.7 2s1.7-.7 1.7-2v-5.4h2.7v9.6h-2.7v-1.4c-.6.8-1.4 1.6-2.8 1.6zm11.4 0c-1.3 0-2.9-.5-4.1-1.5l1.2-1.8c1 .8 2.1 1.2 3 1.2.8 0 1.2-.3 1.2-.7 0-.6-.9-.8-2-1.1-1.4-.4-2.9-1-2.9-2.9 0-2 1.6-3.1 3.5-3.1 1.2 0 2.6.4 3.6 1.1l-1 1.9c-1-.6-1.9-.9-2.6-.9s-1 .3-1 .7c0 .5.9.8 2 1.2 1.4.4 2.9 1.1 2.9 2.9-.1 2-1.7 3-3.8 3zm8.8-.1c-1.7 0-2.8-.7-2.8-2.9v-4.6h-1.2v-2.3h1.2v-2.5h2.7v2.5h2.3v2.3h-2.3v4.1c0 .6.3.9.9.9.5 0 1-.1 1.4-.3v2.2c-.7.4-1.3.6-2.2.6zm8.5.1c-2.9 0-5-2-5-5 0-2.8 2-5 4.8-5 3.2 0 4.7 2.5 4.7 5.2v.7h-6.7c.3 1.2 1.1 1.9 2.4 1.9.9 0 1.6-.3 2.3-1l1.6 1.4c-1.1 1.1-2.4 1.8-4.1 1.8zm-2.4-5.8h4.1c-.2-1.2-.9-2.1-2-2.1s-1.9.9-2.1 2.1zm8.8 5.6v-9.6h2.7v1.9c.6-1.3 1.5-2.2 3.1-2.1v2.9h-.1c-1.8 0-2.9 1.1-2.9 3.4v3.6h-2.8z" fill="#fff"/><path d="m59.5 160h53v8.6h-53z" fill="none"/><path d="m68.5 167.7v-7.4h1.2l4 5.1v-5.1h1.3v7.4h-1.1l-4.1-5.3v5.3zm10.9.2c-1.7 0-3-1.3-3-2.9s1.3-2.9 3-2.9 3 1.3 3 2.9c0 1.5-1.3 2.9-3 2.9zm0-1.2c1 0 1.7-.8 1.7-1.8s-.7-1.8-1.7-1.8-1.7.8-1.7 1.8.7 1.8 1.7 1.8zm6.6 1.2c-1.3 0-2.6-1.1-2.6-2.9 0-1.9 1.3-2.9 2.6-2.9.9 0 1.5.5 1.9 1v-3h1.3v7.8h-1.3v-.9c-.4.4-1 .9-1.9.9zm.3-1.2c.9 0 1.6-.7 1.6-1.8s-.8-1.8-1.6-1.8c-.9 0-1.6.7-1.6 1.8s.8 1.8 1.6 1.8zm7.1 1.2c-1.6 0-2.9-1.2-2.9-2.9 0-1.6 1.1-2.9 2.7-2.9 1.8 0 2.7 1.4 2.7 3v.4h-4.1c.1.9.8 1.4 1.6 1.4.6 0 1.1-.2 1.5-.7l.8.7c-.5.6-1.2 1-2.3 1zm-1.6-3.4h2.9c-.1-.8-.6-1.5-1.4-1.5-.8.1-1.4.7-1.5 1.5zm9.8 3.2v-6.2l-1.3.4-.3-1.1 2-.6h.9v7.5z"/><path d="m118 160h53v8.6h-53z" fill="none"/><path d="m125.6 167.7v-7.4h1.2l4 5.1v-5.1h1.3v7.4h-1.1l-4.1-5.3v5.3zm10.9.2c-1.7 0-3-1.3-3-2.9s1.3-2.9 3-2.9 3 1.3 3 2.9c0 1.5-1.2 2.9-3 2.9zm0-1.2c1 0 1.7-.8 1.7-1.8s-.7-1.8-1.7-1.8-1.7.8-1.7 1.8.7 1.8 1.7 1.8zm6.7 1.2c-1.3 0-2.6-1.1-2.6-2.9 0-1.9 1.3-2.9 2.6-2.9.9 0 1.5.5 1.9 1v-3h1.3v7.8h-1.3v-.9c-.4.4-1 .9-1.9.9zm.3-1.2c.9 0 1.6-.7 1.6-1.8s-.8-1.8-1.6-1.8c-.9 0-1.6.7-1.6 1.8-.1 1.1.7 1.8 1.6 1.8zm7 1.2c-1.6 0-2.9-1.2-2.9-2.9 0-1.6 1.1-2.9 2.7-2.9 1.8 0 2.7 1.4 2.7 3v.4h-4c.1.9.8 1.4 1.6 1.4.6 0 1.1-.2 1.5-.7l.8.7c-.6.6-1.3 1-2.4 1zm-1.6-3.4h2.9c-.1-.8-.6-1.5-1.4-1.5-.8.1-1.3.7-1.5 1.5zm8.4 3.2v-1l2.6-2.2c1-.9 1.4-1.3 1.4-2s-.5-1.2-1.2-1.2-1.1.4-1.7 1.1l-.9-.7c.7-1 1.4-1.6 2.7-1.6 1.5 0 2.5.9 2.5 2.2 0 1.2-.6 1.8-1.9 2.9l-1.5 1.3h3.5v1.1h-5.5z"/><path d="m176.4 160h53v8.6h-53z" fill="none"/><path d="m184 167.7v-7.4h1.2l4 5.1v-5.1h1.3v7.4h-1.1l-4.1-5.3v5.3zm10.9.2c-1.7 0-3-1.3-3-2.9s1.3-2.9 3-2.9 3 1.3 3 2.9c0 1.5-1.3 2.9-3 2.9zm0-1.2c1 0 1.7-.8 1.7-1.8s-.7-1.8-1.7-1.8-1.7.8-1.7 1.8.7 1.8 1.7 1.8zm6.6 1.2c-1.3 0-2.6-1.1-2.6-2.9 0-1.9 1.3-2.9 2.6-2.9.9 0 1.5.5 1.9 1v-3h1.3v7.8h-1.3v-.9c-.4.4-1 .9-1.9.9zm.3-1.2c.9 0 1.6-.7 1.6-1.8s-.8-1.8-1.6-1.8c-.9 0-1.6.7-1.6 1.8s.8 1.8 1.6 1.8zm7.1 1.2c-1.6 0-2.9-1.2-2.9-2.9 0-1.6 1.1-2.9 2.7-2.9 1.8 0 2.7 1.4 2.7 3v.4h-4.1c.1.9.8 1.4 1.6 1.4.6 0 1.1-.2 1.5-.7l.8.7c-.5.6-1.2 1-2.3 1zm-1.6-3.4h2.9c-.1-.8-.6-1.5-1.4-1.5-.8.1-1.4.7-1.5 1.5zm11.2 3.4c-1.3 0-2.2-.5-2.9-1.3l.9-.9c.5.6 1.1 1 2 1 .7 0 1.3-.4 1.3-1.1s-.7-1.1-1.7-1.1h-.6l-.2-.8 2-2.1h-3.3v-1.1h4.9v1l-2.1 2.1c1.1.1 2.2.7 2.2 2.1.1 1.2-1 2.2-2.5 2.2z"/><path d="m234.9 160h53v8.6h-53z" fill="none"/><path d="m242.1 167.7v-7.4h1.2l4 5.1v-5.1h1.3v7.4h-1.1l-4.1-5.3v5.3zm10.9.2c-1.7 0-3-1.3-3-2.9s1.3-2.9 3-2.9 3 1.3 3 2.9c0 1.5-1.2 2.9-3 2.9zm0-1.2c1 0 1.7-.8 1.7-1.8s-.7-1.8-1.7-1.8-1.7.8-1.7 1.8.7 1.8 1.7 1.8zm6.7 1.2c-1.3 0-2.6-1.1-2.6-2.9 0-1.9 1.3-2.9 2.6-2.9.9 0 1.5.5 1.9 1v-3h1.3v7.8h-1.3v-.9c-.4.4-1 .9-1.9.9zm.3-1.2c.9 0 1.6-.7 1.6-1.8s-.8-1.8-1.6-1.8c-.9 0-1.6.7-1.6 1.8s.7 1.8 1.6 1.8zm7.1 1.2c-1.6 0-2.9-1.2-2.9-2.9 0-1.6 1.1-2.9 2.7-2.9 1.8 0 2.7 1.4 2.7 3v.4h-4.1c.1.9.8 1.4 1.6 1.4.6 0 1.1-.2 1.5-.7l.8.7c-.6.6-1.3 1-2.3 1zm-1.6-3.4h2.9c-.1-.8-.6-1.5-1.4-1.5-.9.1-1.4.7-1.5 1.5zm12.2 3.2v-1.7h-3.8l-.2-.9 4.1-4.9h1.1v4.8h1.1v1.1h-1.1v1.7h-1.2zm-2.5-2.7h2.4v-2.9z"/><path d="m293.3 160h53v8.6h-53z" fill="none"/><path d="m300.9 167.7v-7.4h1.2l4 5.1v-5.1h1.3v7.4h-1.1l-4.1-5.3v5.3zm10.9.2c-1.7 0-3-1.3-3-2.9s1.3-2.9 3-2.9 3 1.3 3 2.9c0 1.5-1.3 2.9-3 2.9zm0-1.2c1 0 1.7-.8 1.7-1.8s-.7-1.8-1.7-1.8-1.7.8-1.7 1.8.7 1.8 1.7 1.8zm6.6 1.2c-1.3 0-2.6-1.1-2.6-2.9 0-1.9 1.3-2.9 2.6-2.9.9 0 1.5.5 1.9 1v-3h1.3v7.8h-1.3v-.9c-.4.4-.9.9-1.9.9zm.4-1.2c.9 0 1.6-.7 1.6-1.8s-.8-1.8-1.6-1.8c-.9 0-1.6.7-1.6 1.8-.1 1.1.7 1.8 1.6 1.8zm7 1.2c-1.6 0-2.9-1.2-2.9-2.9 0-1.6 1.1-2.9 2.7-2.9 1.8 0 2.7 1.4 2.7 3v.4h-4.1c.1.9.8 1.4 1.6 1.4.6 0 1.1-.2 1.5-.7l.8.7c-.5.6-1.2 1-2.3 1zm-1.6-3.4h2.9c-.1-.8-.6-1.5-1.4-1.5-.8.1-1.3.7-1.5 1.5zm11.1 3.4c-1.1 0-2-.5-2.7-1.1l.8-.9c.6.6 1.2.9 1.9.9.9 0 1.5-.5 1.5-1.3s-.6-1.2-1.5-1.2c-.5 0-1 .1-1.4.3l-.8-.5.2-3.6h4.5v1.2h-3.3l-.1 1.7c.4-.1.7-.2 1.2-.2 1.4 0 2.6.8 2.6 2.3-.1 1.4-1.2 2.4-2.9 2.4z"/><path d="m351.8 160h53v8.6h-53z" fill="none"/><path d="m359.1 167.7v-7.4h1.2l4 5.1v-5.1h1.3v7.4h-1.1l-4.1-5.3v5.3zm11 .2c-1.7 0-3-1.3-3-2.9s1.3-2.9 3-2.9 3 1.3 3 2.9c0 1.5-1.3 2.9-3 2.9zm0-1.2c1 0 1.7-.8 1.7-1.8s-.7-1.8-1.7-1.8-1.7.8-1.7 1.8.7 1.8 1.7 1.8zm6.6 1.2c-1.3 0-2.6-1.1-2.6-2.9 0-1.9 1.3-2.9 2.6-2.9.9 0 1.5.5 1.9 1v-3h1.3v7.8h-1.3v-.9c-.4.4-1 .9-1.9.9zm.3-1.2c.9 0 1.6-.7 1.6-1.8s-.8-1.8-1.6-1.8c-.9 0-1.6.7-1.6 1.8s.7 1.8 1.6 1.8zm7.1 1.2c-1.6 0-2.9-1.2-2.9-2.9 0-1.6 1.1-2.9 2.7-2.9 1.8 0 2.7 1.4 2.7 3v.4h-4.1c.1.9.8 1.4 1.6 1.4.6 0 1.1-.2 1.5-.7l.8.7c-.5.6-1.3 1-2.3 1zm-1.6-3.4h2.9c-.1-.8-.6-1.5-1.4-1.5-.8.1-1.4.7-1.5 1.5zm11.4 3.4c-.9 0-1.6-.3-2.1-.8-.6-.6-.9-1.3-.9-2.8 0-2.3 1.1-4.1 3.2-4.1 1 0 1.6.3 2.3.8l-.7 1c-.5-.4-1-.7-1.6-.7-1.3 0-1.8 1.4-1.8 2.4.4-.5 1-.8 1.8-.8 1.4 0 2.6.9 2.6 2.3 0 1.6-1.2 2.7-2.8 2.7zm0-1.2c.9 0 1.5-.6 1.5-1.3s-.6-1.3-1.5-1.3-1.5.6-1.5 1.3c-.1.8.6 1.3 1.5 1.3z"/><path d="m410 160h53v8.6h-53z" fill="none"/><path d="m417.7 167.7v-7.4h1.2l4 5.1v-5.1h1.3v7.4h-1.1l-4.1-5.3v5.3zm10.9.2c-1.7 0-3-1.3-3-2.9s1.3-2.9 3-2.9 3 1.3 3 2.9c0 1.5-1.3 2.9-3 2.9zm0-1.2c1 0 1.7-.8 1.7-1.8s-.7-1.8-1.7-1.8-1.7.8-1.7 1.8.7 1.8 1.7 1.8zm6.6 1.2c-1.3 0-2.6-1.1-2.6-2.9 0-1.9 1.3-2.9 2.6-2.9.9 0 1.5.5 1.9 1v-3h1.3v7.8h-1.3v-.9c-.4.4-1 .9-1.9.9zm.3-1.2c.9 0 1.6-.7 1.6-1.8s-.8-1.8-1.6-1.8c-.9 0-1.6.7-1.6 1.8s.8 1.8 1.6 1.8zm7.1 1.2c-1.6 0-2.9-1.2-2.9-2.9 0-1.6 1.1-2.9 2.7-2.9 1.8 0 2.7 1.4 2.7 3v.4h-4.1c.1.9.8 1.4 1.6 1.4.6 0 1.1-.2 1.5-.7l.8.7c-.5.6-1.2 1-2.3 1zm-1.6-3.4h2.9c-.1-.8-.6-1.5-1.4-1.5-.8.1-1.4.7-1.5 1.5zm9 3.2 3.3-6.3h-3.7v-1.1h5.2v1l-3.4 6.5h-1.4z"/><path d="m468.5 160h53v8.6h-53z" fill="none"/><path d="m475.9 167.7v-7.4h1.2l4 5.1v-5.1h1.3v7.4h-1.1l-4.1-5.3v5.3zm11 .2c-1.7 0-3-1.3-3-2.9s1.3-2.9 3-2.9 3 1.3 3 2.9c0 1.5-1.3 2.9-3 2.9zm0-1.2c1 0 1.7-.8 1.7-1.8s-.7-1.8-1.7-1.8-1.7.8-1.7 1.8.7 1.8 1.7 1.8zm6.6 1.2c-1.3 0-2.6-1.1-2.6-2.9 0-1.9 1.3-2.9 2.6-2.9.9 0 1.5.5 1.9 1v-3h1.3v7.8h-1.3v-.9c-.4.4-1 .9-1.9.9zm.3-1.2c.9 0 1.6-.7 1.6-1.8s-.8-1.8-1.6-1.8c-.9 0-1.6.7-1.6 1.8s.7 1.8 1.6 1.8zm7.1 1.2c-1.6 0-2.9-1.2-2.9-2.9 0-1.6 1.1-2.9 2.7-2.9 1.8 0 2.7 1.4 2.7 3v.4h-4.1c.1.9.8 1.4 1.6 1.4.6 0 1.1-.2 1.5-.7l.8.7c-.5.6-1.3 1-2.3 1zm-1.6-3.4h2.9c-.1-.8-.6-1.5-1.4-1.5-.8.1-1.4.7-1.5 1.5zm11.2 3.3c-1.6 0-2.8-.9-2.8-2.1 0-.9.5-1.5 1.3-1.8-.6-.3-1.1-.8-1.1-1.7 0-1.1 1.1-2 2.6-2s2.6.9 2.6 2c0 .8-.5 1.3-1.1 1.7.8.4 1.3.9 1.3 1.8 0 1.3-1.2 2.1-2.8 2.1zm0-4.4c.8 0 1.3-.5 1.3-1.1s-.5-1-1.3-1-1.3.5-1.3 1c-.1.7.5 1.1 1.3 1.1zm0 3.4c1 0 1.6-.5 1.6-1.1 0-.7-.7-1.1-1.6-1.1s-1.6.4-1.6 1.1c0 .5.6 1.1 1.6 1.1z"/><g transform="translate(65 109)"><path d="m21.2 28c-11.7 0-21-3.9-21.5-9.1v-.2-35.8-.2c.1-5.4 9.4-9.5 21.5-9.5 12.3 0 21.6 4.1 21.6 9.6v.4 35.6c-.6 5.3-9.9 9.2-21.6 9.2zm0-52.8c-10.6 0-19.6 3.5-19.6 7.6s9 7.6 19.6 7.6c10.2 0 19-3.2 19.5-7.2v-.6c-.2-3.5-7.7-7.4-19.5-7.4z" fill="url(#b)" opacity=".8"/><path d="m2.1-11.9v30.3c0 3.3 7.8 7.1 19 7.1 10.9 0 18.5-3.5 19-6.8v-30.6c-3.8 2.9-10.7 4.8-19 4.8-8.2.1-15.2-1.8-19-4.8z" fill="url(#c)"/><path d="m21.2-24.8c-10.6 0-19.6 3.5-19.6 7.6s9 7.6 19.6 7.6c10.2 0 19-3.2 19.5-7.2v-.6c-.2-3.5-7.7-7.4-19.5-7.4z" fill="url(#d)"/></g><g transform="translate(123 109)"><path d="m21.5 28c-11.7 0-21-3.9-21.5-9.1v-.2-35.8-.2c.1-5.4 9.4-9.5 21.5-9.5 12.3 0 21.6 4.1 21.6 9.6v.4 35.6c-.6 5.3-9.9 9.2-21.6 9.2zm0-52.8c-10.6 0-19.6 3.5-19.6 7.6s9 7.6 19.6 7.6c10.2 0 19-3.2 19.5-7.2v-.6c-.2-3.5-7.7-7.4-19.5-7.4z" fill="url(#e)" opacity=".8"/><path d="m2.5-11.9v30.3c0 3.3 7.8 7.1 19 7.1 10.9 0 18.5-3.5 19-6.8v-30.6c-3.8 2.9-10.7 4.8-19 4.8-8.3.1-15.3-1.8-19-4.8z" fill="url(#f)"/><path d="m21.5-24.8c-10.6 0-19.6 3.5-19.6 7.6s9 7.6 19.6 7.6c10.2 0 19-3.2 19.5-7.2v-.6c-.2-3.5-7.7-7.4-19.5-7.4z" fill="url(#g)"/></g><g transform="translate(181 109)"><path d="m21.9 28c-11.7 0-21-3.9-21.5-9.1v-.2-35.8-.2c.1-5.4 9.4-9.5 21.5-9.5 12.3 0 21.6 4.1 21.6 9.6v.4 35.6c-.6 5.3-9.8 9.2-21.6 9.2zm0-52.8c-10.6 0-19.6 3.5-19.6 7.6s9 7.6 19.6 7.6c10.2 0 19-3.2 19.5-7.2v-.6c-.1-3.5-7.7-7.4-19.5-7.4z" fill="url(#h)" opacity=".8"/><path d="m2.9-11.9v30.3c0 3.3 7.8 7.1 19 7.1 10.9 0 18.5-3.5 19-6.8v-30.6c-3.8 2.9-10.7 4.8-19 4.8-8.3.1-15.2-1.8-19-4.8z" fill="url(#i)"/><path d="m21.9-24.8c-10.6 0-19.6 3.5-19.6 7.6s9 7.6 19.6 7.6c10.2 0 19-3.2 19.5-7.2v-.6c-.1-3.5-7.7-7.4-19.5-7.4z" fill="url(#j)"/></g><g transform="translate(240 109)"><path d="m21.4 28c-11.7 0-21-3.9-21.5-9.1v-.2-35.8-.2c.1-5.4 9.4-9.5 21.5-9.5 12.3 0 21.6 4.1 21.6 9.6v.4 35.6c-.6 5.3-9.9 9.2-21.6 9.2zm0-52.8c-10.6 0-19.6 3.5-19.6 7.6s9 7.6 19.6 7.6c10.2 0 19-3.2 19.5-7.2v-.6c-.2-3.5-7.7-7.4-19.5-7.4z" fill="url(#l)" opacity=".8"/><path d="m2.4-11.9v30.3c0 3.3 7.8 7.1 19 7.1 10.9 0 18.5-3.5 19-6.8v-30.6c-3.8 2.9-10.7 4.8-19 4.8-8.3.1-15.3-1.8-19-4.8z" fill="url(#m)"/><path d="m21.4-24.8c-10.6 0-19.6 3.5-19.6 7.6s9 7.6 19.6 7.6c10.2 0 19-3.2 19.5-7.2v-.6c-.2-3.5-7.7-7.4-19.5-7.4z" fill="url(#n)"/></g><g transform="translate(298 109)"><path d="m21.9 28c-11.7 0-21-3.9-21.5-9.1v-.2-35.8-.2c.1-5.4 9.4-9.5 21.5-9.5 12.3 0 21.6 4.1 21.6 9.6v.4 35.6c-.7 5.3-9.9 9.2-21.6 9.2zm0-52.8c-10.6 0-19.6 3.5-19.6 7.6s9 7.6 19.6 7.6c10.2 0 19-3.2 19.5-7.2v-.6c-.2-3.5-7.8-7.4-19.5-7.4z" fill="url(#o)" opacity=".8"/><path d="m2.8-11.9v30.3c0 3.3 7.8 7.1 19 7.1 10.9 0 18.5-3.5 19-6.8v-30.6c-3.8 2.9-10.7 4.8-19 4.8-8.2.1-15.2-1.8-19-4.8z" fill="url(#p)"/><path d="m21.9-24.8c-10.6 0-19.6 3.5-19.6 7.6s9 7.6 19.6 7.6c10.2 0 19-3.2 19.5-7.2v-.6c-.2-3.5-7.8-7.4-19.5-7.4z" fill="url(#q)"/></g><g transform="translate(357 109)"><path d="m21.2 28c-11.7 0-21-3.9-21.5-9.1v-.2-35.8-.2c.1-5.4 9.4-9.5 21.5-9.5 12.3 0 21.6 4.1 21.6 9.6v.4 35.6c-.7 5.3-9.9 9.2-21.6 9.2zm0-52.8c-10.6 0-19.6 3.5-19.6 7.6s9 7.6 19.6 7.6c10.2 0 19-3.2 19.5-7.2v-.6c-.2-3.5-7.8-7.4-19.5-7.4z" fill="url(#s)" opacity=".8"/><path d="m2.1-11.9v30.3c0 3.3 7.8 7.1 19 7.1 10.9 0 18.5-3.5 19-6.8v-30.6c-3.8 2.9-10.7 4.8-19 4.8-8.2.1-15.2-1.8-19-4.8z" fill="url(#t)"/><path d="m21.2-24.8c-10.6 0-19.6 3.5-19.6 7.6s9 7.6 19.6 7.6c10.2 0 19-3.2 19.5-7.2v-.6c-.2-3.5-7.8-7.4-19.5-7.4z" fill="url(#u)"/></g><g transform="translate(415 109)"><path d="m21.5 28c-11.7 0-21-3.9-21.5-9.1v-.2-35.8-.2c.1-5.4 9.4-9.5 21.5-9.5 12.3 0 21.6 4.1 21.6 9.6v.4 35.6c-.6 5.3-9.8 9.2-21.6 9.2zm0-52.8c-10.6 0-19.6 3.5-19.6 7.6s9 7.6 19.6 7.6c10.2 0 19-3.2 19.5-7.2v-.6c-.1-3.5-7.7-7.4-19.5-7.4z" fill="url(#v)" opacity=".8"/><path d="m2.5-11.9v30.3c0 3.3 7.8 7.1 19 7.1 10.9 0 18.5-3.5 19-6.8v-30.6c-3.8 2.9-10.7 4.8-19 4.8-8.3.1-15.2-1.8-19-4.8z" fill="url(#w)"/><path d="m21.5-24.8c-10.6 0-19.6 3.5-19.6 7.6s9 7.6 19.6 7.6c10.2 0 19-3.2 19.5-7.2v-.6c-.1-3.5-7.7-7.4-19.5-7.4z" fill="url(#x)"/></g><g transform="translate(474 109)"><path d="m21 28c-11.7 0-21-3.9-21.5-9.1v-.2-35.8-.2c.1-5.4 9.4-9.5 21.5-9.5 12.3 0 21.6 4.1 21.6 9.6v.4 35.6c-.6 5.3-9.9 9.2-21.6 9.2zm0-52.8c-10.6 0-19.6 3.5-19.6 7.6s9 7.6 19.6 7.6c10.2 0 19-3.2 19.5-7.2v-.6c-.2-3.5-7.7-7.4-19.5-7.4z" fill="url(#y)" opacity=".8"/><path d="m2-11.9v30.3c0 3.3 7.8 7.1 19 7.1 10.9 0 18.5-3.5 19-6.8v-30.6c-3.8 2.9-10.7 4.8-19 4.8-8.3.1-15.3-1.8-19-4.8z" fill="url(#z)"/><path d="m21-24.8c-10.6 0-19.6 3.5-19.6 7.6s9 7.6 19.6 7.6c10.2 0 19-3.2 19.5-7.2v-.6c-.2-3.5-7.7-7.4-19.5-7.4z" fill="url(#A)"/></g><g fill="#fff"><path d="m80.1 121.5.4-1.3c-1.4-.4-1.6-.8-1.6-1.6 0-.3 0-.7 0-1 0-1-.5-1.5-1.4-1.8.9-.3 1.4-.8 1.4-1.8 0-.3 0-.7 0-1 0-.8.2-1.2 1.6-1.6l-.4-1.3c-2.4.4-3.1 1.3-3.1 2.6v.9c0 1-.4 1.4-1.5 1.4h-.3v1.5h.3c1 0 1.5.3 1.5 1.4v.9c0 1.5.7 2.3 3.1 2.7zm1.8-1.8h2.2v-2.1h-2.2zm3.9 0h2.2v-2.1h-2.2zm3.8 0h2.2v-2.1h-2.2zm3.9 1.8c2.4-.4 3.1-1.3 3.1-2.6 0-.2 0-.7 0-.9 0-1 .4-1.4 1.5-1.4h.3v-1.5h-.3c-1 0-1.5-.3-1.5-1.4 0-.2 0-.7 0-.9 0-1.4-.7-2.2-3.1-2.6l-.4 1.3c1.4.4 1.6.8 1.6 1.6v1c0 1 .5 1.5 1.4 1.8-.9.3-1.4.8-1.4 1.8v1c0 .8-.2 1.2-1.6 1.6z"/><path d="m137.8 121.5.4-1.3c-1.4-.4-1.6-.8-1.6-1.6 0-.3 0-.7 0-1 0-1-.5-1.5-1.4-1.8.9-.3 1.4-.8 1.4-1.8 0-.3 0-.7 0-1 0-.8.2-1.2 1.6-1.6l-.4-1.3c-2.4.4-3.1 1.3-3.1 2.6v.9c0 1-.4 1.4-1.5 1.4h-.3v1.5h.3c1 0 1.5.3 1.5 1.4v.9c-.1 1.5.6 2.3 3.1 2.7zm1.8-1.8h2.2v-2.1h-2.2zm3.8 0h2.2v-2.1h-2.2zm3.8 0h2.2v-2.1h-2.2zm4 1.8c2.4-.4 3.1-1.3 3.1-2.6 0-.2 0-.7 0-.9 0-1 .4-1.4 1.5-1.4h.3v-1.5h-.3c-1 0-1.5-.3-1.5-1.4 0-.2 0-.7 0-.9 0-1.4-.7-2.2-3.1-2.6l-.4 1.3c1.4.4 1.6.8 1.6 1.6v1c0 1 .5 1.5 1.4 1.8-.9.3-1.4.8-1.4 1.8v1c0 .8-.2 1.2-1.6 1.6z"/><path d="m196.2 121.5.4-1.3c-1.4-.4-1.6-.8-1.6-1.6 0-.3 0-.7 0-1 0-1-.5-1.5-1.4-1.8.9-.3 1.4-.8 1.4-1.8 0-.3 0-.7 0-1 0-.8.2-1.2 1.6-1.6l-.4-1.3c-2.4.4-3.1 1.3-3.1 2.6v.9c0 1-.4 1.4-1.5 1.4h-.3v1.5h.3c1 0 1.5.3 1.5 1.4v.9c0 1.5.7 2.3 3.1 2.7zm1.9-1.8h2.2v-2.1h-2.2zm3.8 0h2.2v-2.1h-2.2zm3.8 0h2.2v-2.1h-2.2zm4 1.8c2.4-.4 3.1-1.3 3.1-2.6 0-.2 0-.7 0-.9 0-1 .4-1.4 1.5-1.4h.3v-1.5h-.3c-1 0-1.5-.3-1.5-1.4 0-.2 0-.7 0-.9 0-1.4-.7-2.2-3.1-2.6l-.4 1.3c1.4.4 1.6.8 1.6 1.6v1c0 1 .5 1.5 1.4 1.8-.9.3-1.4.8-1.4 1.8v1c0 .8-.2 1.2-1.6 1.6z"/><path d="m254.7 121.5.4-1.3c-1.4-.4-1.6-.8-1.6-1.6 0-.3 0-.7 0-1 0-1-.5-1.5-1.4-1.8.9-.3 1.4-.8 1.4-1.8 0-.3 0-.7 0-1 0-.8.2-1.2 1.6-1.6l-.4-1.3c-2.4.4-3.1 1.3-3.1 2.6v.9c0 1-.4 1.4-1.5 1.4h-.3v1.5h.3c1 0 1.5.3 1.5 1.4v.9c0 1.5.7 2.3 3.1 2.7zm1.8-1.8h2.2v-2.1h-2.2zm3.8 0h2.2v-2.1h-2.2zm3.8 0h2.2v-2.1h-2.2zm4 1.8c2.4-.4 3.1-1.3 3.1-2.6 0-.2 0-.7 0-.9 0-1 .4-1.4 1.5-1.4h.3v-1.5h-.3c-1 0-1.5-.3-1.5-1.4 0-.2 0-.7 0-.9 0-1.4-.7-2.2-3.1-2.6l-.4 1.3c1.4.4 1.6.8 1.6 1.6v1c0 1 .5 1.5 1.4 1.8-.9.3-1.4.8-1.4 1.8v1c0 .8-.2 1.2-1.6 1.6z"/><path d="m313.1 121.5.4-1.3c-1.4-.4-1.6-.8-1.6-1.6 0-.3 0-.7 0-1 0-1-.5-1.5-1.4-1.8.9-.3 1.4-.8 1.4-1.8 0-.3 0-.7 0-1 0-.8.2-1.2 1.6-1.6l-.4-1.3c-2.4.4-3.1 1.3-3.1 2.6v.9c0 1-.4 1.4-1.5 1.4h-.3v1.5h.3c1 0 1.5.3 1.5 1.4v.9c0 1.5.7 2.3 3.1 2.7zm1.9-1.8h2.2v-2.1h-2.2zm3.8 0h2.2v-2.1h-2.2zm3.8 0h2.2v-2.1h-2.2zm4 1.8c2.4-.4 3.1-1.3 3.1-2.6 0-.2 0-.7 0-.9 0-1 .4-1.4 1.5-1.4h.3v-1.5h-.3c-1 0-1.5-.3-1.5-1.4 0-.2 0-.7 0-.9 0-1.4-.7-2.2-3.1-2.6l-.4 1.3c1.4.4 1.6.8 1.6 1.6v1c0 1 .5 1.5 1.4 1.8-.9.3-1.4.8-1.4 1.8v1c0 .8-.2 1.2-1.6 1.6z"/><path d="m371.6 121.5.4-1.3c-1.4-.4-1.6-.8-1.6-1.6 0-.3 0-.7 0-1 0-1-.5-1.5-1.4-1.8.9-.3 1.4-.8 1.4-1.8 0-.3 0-.7 0-1 0-.8.2-1.2 1.6-1.6l-.4-1.3c-2.4.4-3.1 1.3-3.1 2.6v.9c0 1-.4 1.4-1.5 1.4h-.3v1.5h.3c1 0 1.5.3 1.5 1.4v.9c0 1.5.7 2.3 3.1 2.7zm1.8-1.8h2.2v-2.1h-2.2zm3.8 0h2.2v-2.1h-2.2zm3.8 0h2.2v-2.1h-2.2zm4 1.8c2.4-.4 3.1-1.3 3.1-2.6 0-.2 0-.7 0-.9 0-1 .4-1.4 1.5-1.4h.3v-1.5h-.3c-1 0-1.5-.3-1.5-1.4 0-.2 0-.7 0-.9 0-1.4-.7-2.2-3.1-2.6l-.4 1.3c1.4.4 1.6.8 1.6 1.6v1c0 1 .5 1.5 1.4 1.8-.9.3-1.4.8-1.4 1.8v1c0 .8-.2 1.2-1.6 1.6z"/><path d="m429.9 121.5.4-1.3c-1.4-.4-1.6-.8-1.6-1.6 0-.3 0-.7 0-1 0-1-.5-1.5-1.4-1.8.9-.3 1.4-.8 1.4-1.8 0-.3 0-.7 0-1 0-.8.2-1.2 1.6-1.6l-.4-1.3c-2.4.4-3.1 1.3-3.1 2.6v.9c0 1-.4 1.4-1.5 1.4h-.3v1.5h.3c1 0 1.5.3 1.5 1.4v.9c0 1.5.7 2.3 3.1 2.7zm1.9-1.8h2.2v-2.1h-2.2zm3.8 0h2.2v-2.1h-2.2zm3.8 0h2.2v-2.1h-2.2zm4 1.8c2.4-.4 3.1-1.3 3.1-2.6 0-.2 0-.7 0-.9 0-1 .4-1.4 1.5-1.4h.3v-1.5h-.3c-1 0-1.5-.3-1.5-1.4 0-.2 0-.7 0-.9 0-1.4-.7-2.2-3.1-2.6l-.4 1.3c1.4.4 1.6.8 1.6 1.6v1c0 1 .5 1.5 1.4 1.8-.9.3-1.4.8-1.4 1.8v1c0 .8-.2 1.2-1.6 1.6z"/><path d="m488.3 121.5.4-1.3c-1.4-.4-1.6-.8-1.6-1.6 0-.3 0-.7 0-1 0-1-.5-1.5-1.4-1.8.9-.3 1.4-.8 1.4-1.8 0-.3 0-.7 0-1 0-.8.2-1.2 1.6-1.6l-.4-1.3c-2.4.4-3.1 1.3-3.1 2.6v.9c0 1-.4 1.4-1.5 1.4h-.3v1.5h.3c1 0 1.5.3 1.5 1.4v.9c0 1.5.7 2.3 3.1 2.7zm1.8-1.8h2.2v-2.1h-2.2zm3.8 0h2.2v-2.1h-2.2zm3.8 0h2.2v-2.1h-2.2zm4 1.8c2.4-.4 3.1-1.3 3.1-2.6 0-.2 0-.7 0-.9 0-1 .4-1.4 1.5-1.4h.3v-1.5h-.3c-1 0-1.5-.3-1.5-1.4 0-.2 0-.7 0-.9 0-1.4-.7-2.2-3.1-2.6l-.4 1.3c1.4.4 1.6.8 1.6 1.6v1c0 1 .5 1.5 1.4 1.8-.9.3-1.4.8-1.4 1.8v1c0 .8-.2 1.2-1.6 1.6z"/></g><g transform="translate(124 58)"><path d="m7.8-19.2v-7.4h2.8c2.3 0 4 1.6 4 3.7s-1.6 3.7-4 3.7zm2.8-6.3h-1.5v5.1h1.5c1.6 0 2.6-1.1 2.6-2.5-.1-1.5-1.1-2.6-2.6-2.6zm7 6.4c-1.1 0-2-.6-2-1.7 0-1.2 1-1.8 2.3-1.8.6 0 1.1.1 1.5.2v-.1c0-.8-.5-1.2-1.4-1.2-.6 0-1.1.1-1.6.4l-.4-1c.6-.3 1.2-.5 2.1-.5.8 0 1.5.2 1.9.6s.6 1 .6 1.7v3.3h-1.3v-.7c-.3.4-.9.8-1.7.8zm.3-.9c.9 0 1.5-.5 1.5-1.2v-.4c-.3-.1-.8-.2-1.3-.2-.8 0-1.3.4-1.3.9 0 .6.5.9 1.1.9zm6.1.9c-.9 0-1.6-.4-1.6-1.6v-3h-.7v-1.1h.7v-1.5h1.3v1.5h1.5v1.1h-1.5v2.8c0 .5.3.7.7.7.3 0 .5-.1.8-.2v1.1c-.3.1-.7.2-1.2.2zm4.1 0c-1.1 0-2-.6-2-1.7 0-1.2 1-1.8 2.3-1.8.6 0 1.1.1 1.5.2v-.1c0-.8-.5-1.2-1.4-1.2-.6 0-1.1.1-1.6.4l-.4-1c.6-.3 1.2-.5 2.1-.5.8 0 1.5.2 1.9.6s.6 1 .6 1.7v3.3h-1.1v-.7c-.4.4-1 .8-1.9.8zm.4-.9c.9 0 1.5-.5 1.5-1.2v-.4c-.3-.1-.8-.2-1.3-.2-.8 0-1.3.4-1.3.9 0 .6.5.9 1.1.9z"/><path d="m2.9-8.5c-1.1 0-2.2-.4-3.1-1.2l.8-.9c.7.6 1.4 1 2.4 1 .8 0 1.3-.4 1.3-.9s-.3-.8-1.7-1.1c-1.6-.5-2.5-1-2.5-2.4 0-1.3 1.1-2.2 2.5-2.2 1.1 0 1.9.3 2.7.9l-.7 1c-.6-.4-1.3-.7-2-.7-.8 0-1.2.4-1.2.9 0 .6.3.8 1.8 1.2 1.6.4 2.4.9 2.4 2.2 0 1.4-1.1 2.2-2.7 2.2zm6.6 0c-1.6 0-2.9-1.2-2.9-2.9 0-1.6 1.1-2.9 2.7-2.9 1.8 0 2.7 1.4 2.7 3v.4h-4.1c.2.9.8 1.4 1.6 1.4.6 0 1.1-.2 1.5-.7l.8.7c-.5.6-1.2 1-2.3 1zm-1.6-3.3h2.9c-.1-.8-.6-1.5-1.4-1.5s-1.4.6-1.5 1.5zm5.5 3.2v-5.6h1.3v1.3c.4-.8 1-1.4 2-1.4v1.4h-.1c-1.1 0-1.9.7-1.9 2.2v2.1zm6.1 0-2.3-5.7h1.4l1.5 4.1 1.5-4.1h1.4l-2.3 5.7zm4.6-6.5v-1.2h1.4v1.2zm.1 6.5v-5.6h1.3v5.6zm5.5.1c-1.7 0-2.9-1.3-2.9-2.9s1.2-2.9 2.9-2.9c1.1 0 1.7.4 2.2 1l-.8.9c-.4-.4-.8-.7-1.4-.7-.9 0-1.6.8-1.6 1.8s.7 1.8 1.7 1.8c.6 0 1-.3 1.5-.7l.7.7c-.5.6-1.2 1-2.3 1zm5.9 0c-1.6 0-2.9-1.2-2.9-2.9 0-1.6 1.1-2.9 2.7-2.9 1.8 0 2.7 1.4 2.7 3v.4h-4.1c.1.9.8 1.4 1.6 1.4.6 0 1.1-.2 1.5-.7l.8.7c-.5.6-1.2 1-2.3 1zm-1.6-3.3h2.9c-.1-.8-.6-1.5-1.4-1.5s-1.4.6-1.5 1.5z"/></g><g transform="translate(241.7037 58.3504)"><path d="m6.1-19.1c-2.3 0-3.9-1.7-3.9-3.8s1.6-3.9 3.8-3.9c1.3 0 2.1.4 2.9 1l-.8 1c-.6-.5-1.1-.8-2.1-.8-1.4 0-2.4 1.2-2.4 2.6 0 1.5 1 2.7 2.5 2.7.7 0 1.3-.2 1.8-.6v-1.4h-1.9v-1.1h3.2v3.1c-.7.7-1.8 1.2-3.1 1.2zm4.7-.1v-7.8h1.3v7.8zm5.7.1c-1.7 0-3-1.3-3-2.9s1.3-2.9 3-2.9 3 1.3 3 2.9-1.3 2.9-3 2.9zm0-1.1c1 0 1.7-.8 1.7-1.8s-.7-1.8-1.7-1.8-1.7.8-1.7 1.8.7 1.8 1.7 1.8zm7.5 1.1c-.9 0-1.5-.5-1.9-1v.9h-1.3v-7.8h1.3v3.1c.4-.6 1-1.1 1.9-1.1 1.3 0 2.6 1 2.6 2.9 0 2-1.3 3-2.6 3zm-.3-1.1c.9 0 1.6-.7 1.6-1.8s-.7-1.8-1.6-1.8-1.6.7-1.6 1.8.7 1.8 1.6 1.8zm5.9 1.1c-1.1 0-2-.6-2-1.7 0-1.2 1-1.8 2.3-1.8.6 0 1.1.1 1.5.2v-.1c0-.8-.5-1.2-1.4-1.2-.6 0-1.1.1-1.6.4l-.4-1c.6-.3 1.2-.5 2.1-.5.8 0 1.5.2 1.9.6s.6 1 .6 1.7v3.3h-1.3v-.7c-.3.4-.9.8-1.7.8zm.3-.9c.9 0 1.5-.5 1.5-1.2v-.4c-.3-.1-.8-.2-1.3-.2-.8 0-1.3.4-1.3.9 0 .6.5.9 1.1.9zm4.3.8v-7.8h1.3v7.8z"/><path d="m5.3-8.6v-7.4h1.3v7.4zm3.1 0v-5.6h1.3v.9c.4-.5.9-1 1.8-1 1.3 0 2 .9 2 2.1v3.6h-1.3v-3.2c0-.9-.4-1.4-1.2-1.4-.7 0-1.3.5-1.3 1.4v3.2zm8.9.1c-1.3 0-2.6-1.1-2.6-2.9 0-1.9 1.3-2.9 2.6-2.9.9 0 1.5.5 1.9 1v-3h1.3v7.8h-1.3v-.9c-.4.4-1 .9-1.9.9zm.3-1.1c.9 0 1.6-.7 1.6-1.8s-.8-1.8-1.6-1.8c-.9 0-1.6.7-1.6 1.8s.8 1.8 1.6 1.8zm7.1 1.1c-1.6 0-2.9-1.2-2.9-2.9 0-1.6 1.1-2.9 2.7-2.9 1.8 0 2.7 1.4 2.7 3v.4h-4.1c.1.9.8 1.4 1.6 1.4.6 0 1.1-.2 1.5-.7l.8.7c-.5.6-1.3 1-2.3 1zm-1.6-3.3h2.9c-.1-.8-.6-1.5-1.4-1.5s-1.4.6-1.5 1.5zm6.1-2.4 1.3 1.9 1.3-1.9h1.4l-2 2.7 2.1 2.9h-1.4l-1.4-2-1.4 2h-1.4l2.1-2.9-2-2.8h1.4z"/><path d="m2.7 2.2c-1.2 0-2.2-.4-3.1-1.2l.8-.9c.7.6 1.4 1 2.4 1 .7-.1 1.2-.4 1.2-1 0-.5-.3-.8-1.7-1.1-1.5-.4-2.4-.9-2.4-2.3 0-1.3 1.1-2.2 2.5-2.2 1.1 0 1.9.3 2.7.9l-.7 1c-.6-.4-1.3-.7-2-.7-.8 0-1.2.4-1.2.9 0 .6.3.8 1.8 1.2s2.3.9 2.3 2.2c0 1.4-1 2.2-2.6 2.2zm6.6 0c-1.6 0-2.9-1.2-2.9-2.9 0-1.6 1.1-2.9 2.7-2.9 1.8 0 2.7 1.4 2.7 3v.4h-4.1c.1.9.8 1.4 1.6 1.4.6 0 1.1-.2 1.5-.7l.8.7c-.5.6-1.3 1-2.3 1zm-1.6-3.3h2.9c-.1-.8-.6-1.5-1.4-1.5s-1.4.6-1.5 1.5zm5.5 3.2v-5.6h1.3v1.3c.4-.8 1-1.4 2-1.4v1.4h-.1c-1.1 0-1.9.7-1.9 2.2v2.1zm6.1 0-2.3-5.6h1.4l1.5 4.1 1.5-4.1h1.4l-2.3 5.7h-1.2zm4.6-6.5v-1.2h1.4v1.2zm.1 6.5v-5.6h1.3v5.6zm5.5.1c-1.7 0-2.9-1.3-2.9-2.9s1.2-2.9 2.9-2.9c1.1 0 1.7.4 2.2 1l-.7.8c-.4-.4-.8-.7-1.4-.7-.9 0-1.6.8-1.6 1.8s.7 1.8 1.7 1.8c.6 0 1-.3 1.5-.7l.8.8c-.7.6-1.4 1-2.5 1zm5.9 0c-1.6 0-2.9-1.2-2.9-2.9 0-1.6 1.1-2.9 2.7-2.9 1.8 0 2.7 1.4 2.7 3v.4h-4.1c.1.9.8 1.4 1.6 1.4.6 0 1.1-.2 1.5-.7l.8.7c-.5.6-1.2 1-2.3 1zm-1.6-3.3h2.9c-.1-.8-.6-1.5-1.4-1.5s-1.4.6-1.5 1.5z"/></g><g transform="translate(358.0361 58.3504)"><path d="m10.9-19.2v-7.4h5.5v1.2h-4.2v2h3.8v1.2h-3.8v3zm8.7.1c-1.3 0-2-.9-2-2.2v-3.6h1.3v3.2c0 .9.4 1.4 1.2 1.4.7 0 1.3-.5 1.3-1.4v-3.2h1.3v5.6h-1.3v-.9c-.4.7-.9 1.1-1.8 1.1zm4.7-.1v-7.8h1.3v7.8zm3.1 0v-7.8h1.3v7.8z"/><path d="m10.5-8.6v-6.2h-2.4v-1.2h6.1v1.2h-2.4v6.2zm6.3.1c-1.6 0-2.9-1.2-2.9-2.9 0-1.6 1.1-2.9 2.7-2.9 1.8 0 2.7 1.4 2.7 3v.4h-4.1c.1.9.8 1.4 1.6 1.4.6 0 1.1-.2 1.5-.7l.8.7c-.6.6-1.3 1-2.3 1zm-1.6-3.3h2.8c-.1-.8-.6-1.5-1.4-1.5s-1.3.6-1.4 1.5zm6.1-2.4 1.3 1.9 1.3-1.9h1.4l-2 2.7 2.1 2.9h-1.4l-1.4-2-1.4 2h-1.4l2.1-2.9-2-2.8h1.4zm7.1 5.7c-.9 0-1.6-.4-1.6-1.6v-3h-.8v-1.1h.7v-1.5h1.3v1.5h1.5v1.1h-1.5v2.8c0 .5.3.7.7.7.3 0 .5-.1.8-.2v1.1c-.3.1-.7.2-1.1.2z"/><path d="m3.2 2.2c-1.2 0-2.2-.4-3.1-1.2l.8-.9c.7.6 1.4 1 2.4 1 .7-.1 1.2-.4 1.2-1 0-.5-.3-.8-1.7-1.1-1.5-.4-2.4-.9-2.4-2.3 0-1.3 1.1-2.2 2.5-2.2 1.1 0 1.9.3 2.7.9l-.7 1c-.7-.4-1.3-.7-2-.7-.8 0-1.2.4-1.2.9 0 .6.3.8 1.8 1.2s2.3.9 2.3 2.2c0 1.4-1.1 2.2-2.6 2.2zm6.6 0c-1.6 0-2.9-1.2-2.9-2.9 0-1.6 1.1-2.9 2.7-2.9 1.8 0 2.7 1.4 2.7 3v.4h-4.1c.1.9.8 1.4 1.6 1.4.6 0 1.1-.2 1.5-.7l.8.7c-.5.6-1.3 1-2.3 1zm-1.6-3.3h2.9c-.1-.8-.6-1.5-1.5-1.5-.7 0-1.3.6-1.4 1.5zm5.4 3.2v-5.6h1.3v1.3c.4-.8 1-1.4 2-1.4v1.4h-.1c-1.1 0-1.9.7-1.9 2.2v2.1zm6.2 0-2.3-5.7h1.4l1.5 4.1 1.5-4.1h1.4l-2.3 5.7zm4.6-6.5v-1.2h1.4v1.2zm0 6.5v-5.6h1.3v5.6zm5.6.1c-1.7 0-2.9-1.3-2.9-2.9s1.2-2.9 2.9-2.9c1.1 0 1.7.4 2.2 1l-.8.9c-.4-.4-.8-.7-1.4-.7-.9 0-1.6.8-1.6 1.8s.7 1.8 1.7 1.8c.6 0 1-.3 1.5-.7l.8.8c-.6.5-1.3.9-2.4.9zm5.9 0c-1.6 0-2.9-1.2-2.9-2.9 0-1.6 1.1-2.9 2.7-2.9 1.8 0 2.7 1.4 2.7 3v.4h-4.1c.1.9.8 1.4 1.6 1.4.6 0 1.1-.2 1.5-.7l.8.7c-.5.6-1.3 1-2.3 1zm-1.6-3.3h2.9c-.1-.8-.6-1.5-1.4-1.5s-1.4.6-1.5 1.5z"/></g><g fill="#fff"><g transform="translate(13 65)"><path d="m8.2 15h-8.4v-3.1c0-2.6 1.8-4.5 4.2-4.5s4.2 1.8 4.2 4.5zm-7.1-3.2v1.7h5.7v-1.7c0-1.8-1.2-2.9-2.8-2.9-1.7 0-2.9 1.2-2.9 2.9zm7.2-10.1c0 2.4-1.9 4.3-4.3 4.3s-4.4-1.8-4.4-4.4c0-1.6.5-2.5 1.3-3.3l1.1 1c-.6.7-1 1.4-1 2.3 0 1.6 1.3 2.8 3 2.8 1.6 0 3-1.2 3-2.8 0-1-.4-1.7-1.1-2.4l1-.9c.8.9 1.4 1.8 1.4 3.4zm-.1-5h-8.4v-3.3c0-2 1.1-3.2 2.8-3.2 1.9 0 2.9 1.5 2.9 3.4v1.7h2.7zm-4.1-1.5v-1.7c0-1.1-.6-1.8-1.5-1.8-1 0-1.5.7-1.5 1.8v1.7z"/><path d="m21.2 30.6c0 1.3-.4 2.5-1.3 3.5l-1.1-.9c.7-.8 1.1-1.6 1.1-2.7 0-.9-.4-1.5-1.1-1.5-.6 0-.9.3-1.3 1.9-.4 1.8-1 2.8-2.5 2.8-1.4 0-2.4-1.2-2.4-2.9 0-1.2.4-2.2 1.1-3l1.1.8c-.6.8-.9 1.5-.9 2.3 0 .9.4 1.4 1 1.4s.9-.4 1.3-2c.4-1.8 1.1-2.7 2.5-2.7 1.6 0 2.5 1.3 2.5 3zm0-6.6c0 1.1-.5 1.8-1.9 1.8h-3.3v.8h-1.2v-.8h-1.8v-1.5h1.7v-1.7h1.3v1.7h3.1c.6 0 .8-.3.8-.8 0-.3-.1-.6-.2-.9h1.2c.2.5.3.9.3 1.4zm-.1-2.8h-6.3v-1.5h1.4c-.9-.4-1.6-1.1-1.5-2.2h1.5v.1c0 1.3.8 2.2 2.5 2.2h2.4zm.2-7.6c0 1.8-1.3 3.3-3.3 3.3-1.8 0-3.3-1.3-3.3-3.1 0-2 1.6-3 3.4-3h.4v4.7c1-.2 1.6-.9 1.6-1.8 0-.7-.3-1.2-.8-1.7l.8-.9c.7.5 1.2 1.3 1.2 2.5zm-3.8 1.8v-3.3c-.9.1-1.7.6-1.7 1.6 0 .9.7 1.5 1.7 1.7zm3.8-8c0 1.2-.7 2.3-2 2.3-1.4 0-2-1.1-2-2.6 0-.7.1-1.2.3-1.7h-.2c-.9 0-1.4.6-1.4 1.6 0 .7.2 1.2.4 1.8l-1.1.4c-.3-.7-.5-1.4-.5-2.4 0-.9.3-1.7.7-2.1.5-.5 1.1-.7 2-.7h3.8v1.4h-.8c.3.4.8 1 .8 2zm-1.1-.4c0-1-.6-1.7-1.4-1.7h-.4c-.1.4-.3.9-.3 1.4 0 .9.4 1.5 1.1 1.5s1-.5 1-1.2zm.9-4.8h-6.3v-1.5h1c-.6-.4-1.1-1-1.1-1.9s.4-1.6 1.1-1.9c-.7-.5-1.1-1.2-1.1-2.1 0-1.4.9-2.2 2.4-2.2h4v1.4h-3.6c-1 0-1.5.5-1.5 1.3s.6 1.4 1.6 1.4h3.6v1.5h-3.6c-1 0-1.5.5-1.5 1.3s.6 1.4 1.6 1.4h3.6v1.3zm-7.3-11.4h-1.4v-1.6h1.4zm7.3-.1h-6.3v-1.5h6.3zm0-3.3h-6.3v-1.5h1c-.6-.4-1.1-1-1.1-2 0-1.4 1-2.3 2.4-2.3h4v1.5h-3.6c-1 0-1.5.5-1.5 1.4 0 .8.6 1.4 1.6 1.4h3.6v1.5zm2-10.3c0 1-.3 2-.8 2.8l-1.1-.5c.4-.7.7-1.4.7-2.3 0-1.3-.7-2-1.9-2h-.5c.7.5 1.2 1.2 1.2 2.2 0 1.5-1.1 2.9-3 2.9s-3-1.4-3-2.9c0-1.1.5-1.7 1.1-2.2h-.9v-1.5h5c1.1 0 1.9.3 2.4.8.5.7.8 1.6.8 2.7zm-3.7-.1c0-1-.7-1.9-1.7-1.9s-1.7.9-1.7 1.9.7 1.8 1.7 1.8 1.7-.8 1.7-1.8z"/></g><g transform="matrix(-1 0 0 -1 568 129)"><path d="m9.2 69.4h-8.4v-3.1c0-2.6 1.8-4.5 4.2-4.5s4.2 1.8 4.2 4.5zm-7.1-3.1v1.7h5.7v-1.7c0-1.8-1.2-2.9-2.8-2.9-1.7-.1-2.9 1.1-2.9 2.9zm7.2-10.2c0 2.5-1.9 4.3-4.3 4.3s-4.3-1.8-4.3-4.3c0-1.6.5-2.5 1.3-3.3l1 .9c-.6.7-1 1.4-1 2.4 0 1.6 1.3 2.8 3 2.8 1.6 0 3-1.2 3-2.8 0-1-.4-1.7-1.1-2.4l1-.9c.8.8 1.4 1.7 1.4 3.3zm-.1-5h-8.4v-3.3c0-2 1.1-3.2 2.8-3.2 1.9 0 2.9 1.5 2.9 3.4v1.7h2.7zm-4.1-1.4v-1.7c0-1.1-.6-1.8-1.5-1.8-1 0-1.5.7-1.5 1.8v1.7z"/><path d="m22.2 85.1c0 1.3-.4 2.5-1.3 3.5l-1.1-.9c.7-.8 1.1-1.6 1.1-2.7 0-.9-.4-1.5-1.1-1.5-.6 0-.9.3-1.3 1.9-.4 1.8-1 2.8-2.5 2.8-1.4 0-2.4-1.2-2.4-2.9 0-1.2.4-2.2 1.1-3l1.1.8c-.6.8-.9 1.5-.9 2.3 0 .9.4 1.4 1 1.4s.9-.4 1.3-2c.4-1.8 1.1-2.7 2.5-2.7 1.6 0 2.5 1.2 2.5 3zm0-6.7c0 1.1-.5 1.8-1.9 1.8h-3.3v.8h-1.2v-.8h-1.8v-1.5h1.7v-1.7h1.3v1.7h3.1c.6 0 .8-.3.8-.8 0-.3-.1-.6-.2-.9h1.2c.2.5.3.9.3 1.4zm-.1-2.8h-6.3v-1.5h1.4c-.9-.4-1.6-1.1-1.5-2.2h1.5v.1c0 1.3.8 2.2 2.5 2.2h2.4zm.2-7.6c0 1.8-1.3 3.3-3.3 3.3-1.8 0-3.3-1.3-3.3-3.1 0-2 1.6-3 3.4-3h.4v4.7c1-.2 1.6-.9 1.6-1.8 0-.7-.3-1.2-.8-1.7l.8-.9c.7.5 1.2 1.3 1.2 2.5zm-3.8 1.8v-3.3c-.9.1-1.7.6-1.7 1.6 0 .9.7 1.6 1.7 1.7zm3.8-8c0 1.2-.7 2.3-2 2.3-1.4 0-2-1.1-2-2.6 0-.7.1-1.2.3-1.7h-.2c-.9 0-1.4.6-1.4 1.6 0 .7.2 1.2.4 1.8l-1.1.4c-.3-.7-.5-1.4-.5-2.4 0-.9.3-1.7.7-2.1.5-.5 1.1-.7 2-.7h3.8v1.4h-.8c.3.4.8 1 .8 2zm-1.1-.4c0-1-.6-1.7-1.4-1.7h-.4c-.1.4-.3.9-.3 1.4 0 .9.4 1.5 1.1 1.5s1-.5 1-1.2zm.9-4.8h-6.3v-1.5h1c-.6-.4-1.1-1-1.1-1.9s.4-1.6 1.1-1.9c-.7-.5-1.1-1.2-1.1-2.1 0-1.4.9-2.2 2.4-2.2h4v1.5h-3.6c-1 0-1.5.5-1.5 1.3s.6 1.4 1.6 1.4h3.6v1.5h-3.6c-1 0-1.5.5-1.5 1.3s.6 1.4 1.6 1.4h3.6v1.2zm-7.3-11.4h-1.4v-1.6h1.4zm7.3-.1h-6.3v-1.5h6.3zm0-3.3h-6.3v-1.5h1c-.6-.4-1.1-1-1.1-2 0-1.4 1-2.3 2.4-2.3h4v1.5h-3.6c-1 0-1.5.5-1.5 1.4 0 .8.6 1.4 1.6 1.4h3.6v1.5zm2-10.3c0 1-.3 2-.8 2.8l-1.1-.5c.4-.7.7-1.4.7-2.3 0-1.3-.7-2-1.9-2h-.5c.7.5 1.2 1.2 1.2 2.2 0 1.5-1.1 2.9-3 2.9s-3-1.4-3-2.9c0-1.1.5-1.7 1.1-2.2h-.9v-1.5h5c1.1 0 1.9.3 2.4.8.5.7.8 1.6.8 2.7zm-3.7-.1c0-1-.7-1.9-1.7-1.9s-1.7.9-1.7 1.9.7 1.8 1.7 1.8 1.7-.8 1.7-1.8z"/></g></g></svg>