<svg height="299" viewBox="0 0 580 299" width="580" xmlns="http://www.w3.org/2000/svg" xmlns:xlink="http://www.w3.org/1999/xlink"><linearGradient id="a"><stop offset="0" stop-color="#eb4971"/><stop offset="1" stop-color="#9d70b0"/></linearGradient><linearGradient id="b" x1="49.962745%" x2="49.962745%" xlink:href="#a" y1=".092658%" y2="100.053165%"/><linearGradient id="c" x1=".010796%" x2="100.006478%" xlink:href="#a" y1="50.102857%" y2="50.102857%"/><linearGradient id="d"><stop offset="0" stop-color="#eb4971"/><stop offset="1" stop-color="#b36cdb"/></linearGradient><linearGradient id="e" x1="100.197262%" x2="100.197262%" xlink:href="#d" y1="49.906218%" y2="149.720586%"/><linearGradient id="f" x1="50.361841%" x2="50.361841%" xlink:href="#d" y1=".333209%" y2="100.472554%"/><linearGradient id="g"><stop offset="0" stop-color="#00ace0"/><stop offset="1" stop-color="#b36cdc"/></linearGradient><linearGradient id="h" x1="100.147482%" x2="-.006115%" xlink:href="#g" y1="49.723723%" y2="49.723723%"/><linearGradient id="i" x1="100.018038%" x2=".158861%" xlink:href="#g" y1="50.110973%" y2="50.110973%"/><linearGradient id="j" x1="100.195804%" x2=".032517%" xlink:href="#g" y1="49.803571%" y2="49.803571%"/><linearGradient id="k"><stop offset="0" stop-color="#fc9c0c"/><stop offset="1" stop-color="#eb4971"/></linearGradient><linearGradient id="l" x1="100.140888%" x2=".069159%" xlink:href="#k" y1="49.997862%" y2="49.997862%"/><linearGradient id="m" x1="99.997273%" x2="-.156364%" xlink:href="#k" y1="49.753488%" y2="49.753488%"/><linearGradient id="n" x1="99.648148%" x2="-.233128%" xlink:href="#k" y1="50.130906%" y2="50.130906%"/><linearGradient id="o" x1="0%" x2="119.328507%" xlink:href="#d" y1="0%" y2="117.647421%"/><g fill="none" fill-rule="evenodd" transform="translate(0 2)"><g fill-rule="nonzero"><path d="m42.4 164.6h61.2v39.5h-61.2z" fill="url(#b)"/><g transform="translate(30.879406 162.747748)"><path d="m81.7 53.6h-79.4c-1.6 0-1.5-.3-1.2-.7l10.4-10.2c.2-.3.7-.5 1.1-.5h58.8c.4 0 1 .2 1.1.5l10.4 10.2c.3.4.4.7-1.2.7z" fill="#fff"/><g fill="#000"><path d="m81.7 54.4h-79.4c-1 0-1.7-.1-2-.7-.3-.5 0-1 .1-1.2 0 0 .1-.1.1-.1l10.3-10.1c.4-.5 1.1-.7 1.7-.7h58.9c.6 0 1.3.2 1.7.7l10.3 10.1s.1.1.1.1c.1.2.4.7.1 1.2-.2.6-.9.7-1.9.7zm-79.5-1.5s.1 0 0 0h79.5.1l-9.8-9.6s-.1-.1-.1-.1-.3-.1-.5-.1h-58.8c-.2 0-.5.1-.5.2 0 0 0 0-.1.1z"/><path d="m57.3 52.8h-31.2c-.3 0-.6-.3-.6-.6s.3-.6.6-.6h31.2c.3 0 .6.3.6.6 0 .4-.3.6-.6.6z"/><path d="m72 42h-59.7c-.6 0-1-.2-1.3-.5-.5-.5-.5-1.4-.5-2.2v-.3-35.2c0-1.7 1.4-3 3-3h57c1.7 0 3 1.3 3 3v35.2.7c.1.7.1 1.3-.3 1.8-.3.4-.7.5-1.2.5zm-58.5-39.9c-.9 0-1.7.8-1.7 1.7v35.5c0 .5 0 1.2.2 1.3.1.1.2.1.4.1h59.6.3c0-.1 0-.5 0-.8s0-.5 0-.8v-35.2c0-.9-.8-1.7-1.7-1.7h-57.1z"/><path d="m16.4 44.6h-3.5c-.2 0-.4-.2-.4-.4s.2-.4.4-.4h3.5c.2 0 .4.2.4.4.1.2-.1.4-.4.4z" opacity=".8"/><path d="m22.6 44.6h-3.5c-.2 0-.4-.2-.4-.4s.2-.4.4-.4h3.5c.2 0 .4.2.4.4s-.2.4-.4.4z" opacity=".8"/><path d="m28.7 44.6h-3.5c-.2 0-.4-.2-.4-.4s.2-.4.4-.4h3.5c.2 0 .4.2.4.4s-.2.4-.4.4z" opacity=".8"/><path d="m34.8 44.6h-3.5c-.2 0-.4-.2-.4-.4s.2-.4.4-.4h3.5c.2 0 .4.2.4.4.1.2-.1.4-.4.4z" opacity=".8"/><path d="m41 44.6h-3.5c-.2 0-.4-.2-.4-.4s.2-.4.4-.4h3.5c.2 0 .4.2.4.4s-.2.4-.4.4z" opacity=".8"/><path d="m47.1 44.6h-3.5c-.2 0-.4-.2-.4-.4s.2-.4.4-.4h3.5c.2 0 .4.2.4.4s-.1.4-.4.4z" opacity=".8"/><path d="m53.2 44.6h-3.5c-.2 0-.4-.2-.4-.4s.2-.4.4-.4h3.5c.2 0 .4.2.4.4.1.2-.1.4-.4.4z" opacity=".8"/><path d="m59.4 44.6h-3.5c-.2 0-.4-.2-.4-.4s.2-.4.4-.4h3.5c.2 0 .4.2.4.4s-.2.4-.4.4z" opacity=".8"/><path d="m65.5 44.6h-3.5c-.2 0-.4-.2-.4-.4s.2-.4.4-.4h3.5c.2 0 .4.2.4.4.1.2-.1.4-.4.4z" opacity=".8"/><path d="m71.4 44.6h-3.5c-.2 0-.4-.2-.4-.4s.2-.4.4-.4h3.5c.2 0 .4.2.4.4s-.2.4-.4.4z" opacity=".8"/><path d="m14.5 46.7h-3.5c-.2 0-.4-.2-.4-.4s.2-.4.4-.4h3.6c.2 0 .4.2.4.4s-.2.4-.5.4z" opacity=".8"/><path d="m12.4 48.8h-3.9c-.2 0-.4-.2-.4-.4s.2-.4.4-.4h3.9c.2 0 .4.2.4.4s-.1.4-.4.4z" opacity=".8"/><path d="m18.3 48.8h-3.9c-.2 0-.4-.2-.4-.4s.2-.4.4-.4h3.9c.2 0 .4.2.4.4s-.2.4-.4.4z" opacity=".8"/><path d="m24.1 48.8h-3.9c-.2 0-.4-.2-.4-.4s.2-.4.4-.4h3.9c.2 0 .4.2.4.4s-.2.4-.4.4z" opacity=".8"/><path d="m29.9 48.8h-3.9c-.2 0-.4-.2-.4-.4s.2-.4.4-.4h3.9c.2 0 .4.2.4.4s-.2.4-.4.4z" opacity=".8"/><path d="m35.7 48.8h-3.9c-.2 0-.4-.2-.4-.4s.2-.4.4-.4h3.9c.2 0 .4.2.4.4s-.1.4-.4.4z" opacity=".8"/><path d="m41.6 48.8h-3.9c-.2 0-.4-.2-.4-.4s.2-.4.4-.4h3.9c.2 0 .4.2.4.4s-.2.4-.4.4z" opacity=".8"/><path d="m47.4 48.8h-3.9c-.2 0-.4-.2-.4-.4s.2-.4.4-.4h3.9c.2 0 .4.2.4.4s-.2.4-.4.4z" opacity=".8"/><path d="m53.2 48.8h-3.9c-.2 0-.4-.2-.4-.4s.2-.4.4-.4h3.9c.2 0 .4.2.4.4s-.2.4-.4.4z" opacity=".8"/><path d="m59 48.8h-3.9c-.2 0-.4-.2-.4-.4s.2-.4.4-.4h3.9c.2 0 .4.2.4.4s-.1.4-.4.4z" opacity=".8"/><path d="m64.8 48.8h-3.8c-.2 0-.4-.2-.4-.4s.2-.4.4-.4h3.9c.2 0 .4.2.4.4s-.2.4-.5.4z" opacity=".8"/><path d="m75.8 48.8h-8.5c-.2 0-.4-.2-.4-.4s.2-.4.4-.4h8.5c.2 0 .4.2.4.4s-.1.4-.4.4z" opacity=".8"/><path d="m20.1 46.7h-3.6c-.2 0-.4-.2-.4-.4s.2-.4.4-.4h3.6c.2 0 .4.2.4.4s-.1.4-.4.4z" opacity=".8"/><path d="m25.8 46.7h-3.6c-.2 0-.4-.2-.4-.4s.2-.4.4-.4h3.6c.2 0 .4.2.4.4s-.2.4-.4.4z" opacity=".8"/><path d="m31.4 46.7h-3.6c-.2 0-.4-.2-.4-.4s.2-.4.4-.4h3.6c.2 0 .4.2.4.4s-.2.4-.4.4z" opacity=".8"/><path d="m37 46.7h-3.6c-.2 0-.4-.2-.4-.4s.2-.4.4-.4h3.6c.2 0 .4.2.4.4s-.1.4-.4.4z" opacity=".8"/><path d="m42.7 46.7h-3.6c-.2 0-.4-.2-.4-.4s.2-.4.4-.4h3.6c.2 0 .4.2.4.4s-.2.4-.4.4z" opacity=".8"/><path d="m48.3 46.7h-3.6c-.2 0-.4-.2-.4-.4s.2-.4.4-.4h3.6c.2 0 .4.2.4.4s-.2.4-.4.4z" opacity=".8"/><path d="m53.9 46.7h-3.6c-.2 0-.4-.2-.4-.4s.2-.4.4-.4h3.6c.2 0 .4.2.4.4s-.1.4-.4.4z" opacity=".8"/><path d="m65.2 46.7h-3.6c-.2 0-.4-.2-.4-.4s.2-.4.4-.4h3.6c.2 0 .4.2.4.4s-.2.4-.4.4z" opacity=".8"/><path d="m59.5 46.7h-3.5c-.2 0-.4-.2-.4-.4s.2-.4.4-.4h3.6c.2 0 .4.2.4.4s-.2.4-.5.4z" opacity=".8"/><path d="m73.7 46.7h-6.1c-.2 0-.4-.2-.4-.4s.2-.4.4-.4h6.2c.2 0 .4.2.4.4s-.2.4-.5.4z" opacity=".8"/><path d="m12.9 50.9h-6.8c-.2 0-.4-.2-.4-.4s.2-.4.4-.4h6.8c.2 0 .4.2.4.4s-.2.4-.4.4z" opacity=".8"/><path d="m22.1 50.9h-6.8c-.2 0-.4-.2-.4-.4s.2-.4.4-.4h6.8c.2 0 .4.2.4.4s-.2.4-.4.4z" opacity=".8"/><path d="m68.1 50.9h-6.8c-.2 0-.4-.2-.4-.4s.2-.4.4-.4h6.8c.2 0 .4.2.4.4s-.2.4-.4.4z" opacity=".8"/><path d="m77.3 50.9h-6.8c-.2 0-.4-.2-.4-.4s.2-.4.4-.4h6.8c.2 0 .4.2.4.4s-.2.4-.4.4z" opacity=".8"/><path d="m82.4 54.7h-80.7c-.7 0-1.2-.5-1.2-1.2s.5-1.2 1.2-1.2h80.7c.7 0 1.2.5 1.2 1.2-.1.7-.6 1.2-1.2 1.2z"/></g></g><g fill="#fefefe" transform="translate(66 175)"><path d="m7.36666667 7.63636364c-3.77777778 0-6.8-1.27272728-6.8-3.09090909 0-1.63636364 3.02222222-3.0909091 6.8-3.0909091 3.77777773 0 6.80000003 1.27272728 6.80000003 3.0909091 0 1.81818181-3.0222223 3.09090909-6.80000003 3.09090909zm0-5.27272728c-3.58888889 0-6.04444445 1.27272728-6.04444445 2.36363637s2.45555556 2.36363636 6.04444445 2.36363636c3.58888893 0 6.04444443-1.27272727 6.04444443-2.36363636 0-1.27272728-2.4555555-2.36363637-6.04444443-2.36363637z"/><path d="m7.36666667 18.3636364c-3.77777778 0-6.8-1.2727273-6.8-3.0909091h.75555555c0 1.0909091 2.45555556 2.3636363 6.04444445 2.3636363 3.58888893 0 6.04444443-1.2727272 6.04444443-2.3636363h.7555556c0 1.8181818-3.0222223 3.0909091-6.80000003 3.0909091z"/><path d="m.566667 4.363636h1v11.090909h-1z"/><path d="m13.411111 4.363636h1v11.090909h-1z"/><path d="m4.53333333 12.7272727s0-.1818182 0-.3636363c0-.3636364-.18888889-.3636364-.56666666-.3636364h-.18888889v-.5454545h.18888889c.37777777 0 .56666666-.1818182.56666666-.3636364 0 0 0-.1818182 0-.3636364 0-.3636363.18888889-.7272727 1.13333334-.90909088l.18888889.36363638c-.56666667.1818182-.56666667.1818182-.56666667.5454545v.3636364c0 .3636364-.18888889.5454545-.37777778.5454545.37777778.1818182.37777778.1818182.37777778.5454546v.3636363c0 .1818182 0 .3636364.56666667.5454546l-.18888889.3636364c-.94444445 0-1.13333334-.1818182-1.13333334-.7272728"/><path d="m5.85555556 13.0909091h.75555555v-.7272727h-.75555555z"/><path d="m7.17777778 13.0909091h.75555555v-.7272727h-.75555555z"/><path d="m7.93333333 13.0909091h.75555556v-.7272727h-.75555556z"/><path d="m8.87777778 13.2727273c.56666666-.1818182.56666666-.1818182.56666666-.5454546 0 0 0-.1818182 0-.3636363 0-.3636364.18888889-.5454546.37777778-.5454546-.37777778-.1818182-.37777778-.1818182-.37777778-.5454545 0 0 0-.1818182 0-.3636364s0-.3636364-.56666666-.5454545l.18888889-.3636364c.75555555.1818182 1.13333333.3636364 1.13333333.9090909v.3636364c0 .3636363.1888889.3636363.5666667.3636363h.1888889v.5454546h-.1888889c-.3777778 0-.5666667.1818182-.5666667.3636363v.3636364c0 .3636364-.1888889.7272727-1.13333333.9090909z"/></g><path d="m27.8 194.1v2.1h20v-2.3h-19.5z" fill="#fff"/></g><g transform="translate(0 271)"><path d="m576.5 25.2h-573c-1.6 0-3-1.3-3-3v-18.5c0-1.6 1.3-3 3-3h572.9c1.6 0 3 1.3 3 3v18.5c0 1.7-1.3 3-2.9 3z" fill="url(#c)" fill-rule="nonzero"/><path d="m262.6 8.4h97.9v18.7h-97.9z"/><path d="m264.778 16.6869c-1.284 0-2.496-.444-3.504-1.344l.888-1.056c.804.696 1.62 1.092 2.652 1.092.912 0 1.488-.432 1.488-1.056v-.024c0-.6-.336-.924-1.896-1.284-1.788-.432-2.796-.96-2.796-2.508v-.024c0-1.44 1.2-2.436 2.868-2.436 1.224 0 2.196.372 3.048 1.056l-.792 1.116c-.756-.564-1.512-.864-2.28-.864-.864 0-1.368.444-1.368.996v.024c0 .648.384.936 2.004 1.32 1.776.432 2.688 1.068 2.688 2.46v.024c0 1.572-1.236 2.508-3 2.508zm4.74-.12v-8.4h6.228v1.32h-4.752v2.184h4.212v1.332h-4.212v2.244h4.812v1.32zm11.94.144c-2.46 0-4.272-1.908-4.272-4.32v-.024c0-2.388 1.788-4.344 4.32-4.344 1.56 0 2.496.54 3.3 1.308l-.948 1.092c-.684-.624-1.392-1.032-2.364-1.032-1.584 0-2.76 1.308-2.76 2.952v.024c0 1.644 1.164 2.976 2.772 2.976 1.032 0 1.692-.408 2.412-1.08l.948.96c-.876.912-1.836 1.488-3.408 1.488zm8.412-.012c-2.184 0-3.576-1.26-3.576-3.696v-4.836h1.476v4.776c0 1.56.804 2.388 2.124 2.388 1.308 0 2.112-.78 2.112-2.328v-4.836h1.476v4.764c0 2.508-1.416 3.768-3.612 3.768zm5.64-.132v-8.4h3.744c1.056 0 1.884.312 2.424.84.444.456.696 1.08.696 1.812v.024c0 1.38-.828 2.208-1.992 2.544l2.268 3.18h-1.752l-2.064-2.928h-1.848v2.928zm1.476-4.236h2.16c1.056 0 1.728-.552 1.728-1.404v-.024c0-.9-.648-1.392-1.74-1.392h-2.148zm7.284 4.236v-8.4h1.476v8.4zm5.772 0v-7.032h-2.676v-1.368h6.828v1.368h-2.676v7.032zm8.16 0v-3.312l-3.336-5.088h1.752l2.34 3.708 2.376-3.708h1.692l-3.336 5.052v3.348z" fill="#fff"/><g transform="translate(8 8)"><path d="m4.7 5h244.1" stroke="#fff" stroke-width=".9936"/><path d="m5.3.4v9.1l-4.6-4.5z" fill="#fff" fill-rule="nonzero"/></g><g transform="translate(323 8)"><path d="m242.2 5h-241.3" stroke="#fff" stroke-width=".9936"/><path d="m241.5 9.5v-9.1l4.6 4.6z" fill="#fff" fill-rule="nonzero"/></g></g><path d="m240.554524 247.87846c-1.811076 0-3.295832-.603692-4.666376-1.827392l.799484-.946328c1.191068 1.076856 2.333188 1.615284 3.91584 1.615284 1.533704 0 2.545296-.8158 2.545296-1.941604v-.032632c0-1.06054-.57106-1.664232-2.969512-2.170028-2.626876-.57106-3.83426-1.419492-3.83426-3.295832v-.032632c0-1.79476 1.582652-3.116356 3.75268-3.116356 1.664232 0 2.8553.473164 4.013736 1.403176l-.750536.995276c-1.06054-.864748-2.12108-1.240016-3.295832-1.240016-1.484756 0-2.431084.8158-2.431084 1.843708v.032632c0 1.076856.587376 1.680548 3.10004 2.218976 2.545296.554744 3.720048 1.484756 3.720048 3.230568v.032632c0 1.95792-1.6316 3.230568-3.899524 3.230568zm9.675388-1.566336 2.708456-7.032196h1.337912l-3.540572 8.712744c-.717904 1.745812-1.533704 2.382136-2.806352 2.382136-.701588 0-1.2237-.146844-1.79476-.424216l.424216-.995276c.4079.212108.783168.310004 1.321596.310004.750536 0 1.2237-.391584 1.729496-1.582652l-3.83426-8.40274h1.38686zm6.03692 1.403176v-8.435372h1.256332v1.46844c.554744-.913696 1.435808-1.647916 2.887932-1.647916 2.0395 0 3.230568 1.370544 3.230568 3.377412v5.237436h-1.256332v-4.927432c0-1.566336-.848432-2.545296-2.333188-2.545296-1.452124 0-2.52898 1.06054-2.52898 2.643192v4.829536zm13.852284.195792c-2.463716 0-4.32374-2.006868-4.32374-4.372688v-.032632c0-2.382136 1.860024-4.40532 4.32374-4.40532 1.598968 0 2.594244.668956 3.377412 1.501072l-.832116.881064c-.668956-.701588-1.419492-1.272648-2.561612-1.272648-1.71318 0-3.01846 1.452124-3.01846 3.2632v.032632c0 1.827392 1.337912 3.279516 3.10004 3.279516 1.076856 0 1.908972-.538428 2.577928-1.256332l.799484.750536c-.848432.946328-1.860024 1.6316-3.442676 1.6316zm15.924416 0c-3.58952 0-5.808496-2.61056-5.808496-5.87376v-.032632c0-3.132672 2.300556-5.906392 5.726916-5.906392 1.925288 0 3.116356.554744 4.258476 1.517388l-.832116.97896c-.881064-.766852-1.860024-1.30528-3.475308-1.30528-2.52898 0-4.340056 2.137396-4.340056 4.682692v.032632c0 2.724772 1.745812 4.747956 4.519532 4.747956 1.30528 0 2.512664-.505796 3.295832-1.14212v-2.838984h-3.475308v-1.158436h4.715324v4.552164c-1.06054.946328-2.659508 1.745812-4.584796 1.745812zm9.95276-.016316c-1.566336 0-3.148988-.89738-3.148988-2.626876v-.032632c0-1.778444 1.46844-2.724772 3.605836-2.724772 1.076856 0 1.843708.146844 2.594244.358952v-.293688c0-1.517388-.930012-2.300556-2.512664-2.300556-.995276 0-1.778444.261056-2.561612.620008l-.375268-1.027908c.930012-.424216 1.843708-.701588 3.067408-.701588 1.191068 0 2.104764.310004 2.724772.930012.57106.57106.864748 1.38686.864748 2.463716v5.155856h-1.207384v-1.272648c-.587376.766852-1.566336 1.452124-3.051092 1.452124zm.24474-.995276c1.55002 0 2.822668-.946328 2.822668-2.28424v-.8158c-.620008-.179476-1.452124-.358952-2.480032-.358952-1.582652 0-2.463716.685272-2.463716 1.745812v.032632c0 1.06054.97896 1.680548 2.12108 1.680548zm9.430648.962644c-1.354228 0-2.382136-.668956-2.382136-2.382136v-5.090592h-1.174752v-1.109488h1.174752v-2.545296h1.256332v2.545296h2.675824v1.109488h-2.675824v4.927432c0 1.027908.57106 1.403176 1.419492 1.403176.424216 0 .783168-.08158 1.2237-.293688v1.076856c-.440532.228424-.913696.358952-1.517388.358952zm7.211672.048948c-2.316872 0-4.209528-1.778444-4.209528-4.389004v-.032632c0-2.431084 1.71318-4.389004 4.046368-4.389004 2.496348 0 3.932156 1.990552 3.932156 4.454268 0 .16316 0 .261056-.016316.4079h-6.68956c.179476 1.827392 1.46844 2.8553 2.969512 2.8553 1.158436 0 1.974236-.473164 2.659508-1.191068l.783168.701588c-.848432.946328-1.87634 1.582652-3.475308 1.582652zm-2.93688-4.878484h5.433228c-.130528-1.533704-1.011592-2.871616-2.69214-2.871616-1.46844 0-2.577928 1.2237-2.741088 2.871616zm10.735928 4.747956-2.953196-8.500636h1.337912l2.218976 6.77114 2.267924-6.803772h1.044224l2.28424 6.803772 2.218976-6.77114h1.30528l-2.969512 8.500636h-1.093172l-2.267924-6.656928-2.28424 6.656928zm13.999128.114212c-1.566336 0-3.148988-.89738-3.148988-2.626876v-.032632c0-1.778444 1.46844-2.724772 3.605836-2.724772 1.076856 0 1.843708.146844 2.594244.358952v-.293688c0-1.517388-.930012-2.300556-2.512664-2.300556-.995276 0-1.778444.261056-2.561612.620008l-.375268-1.027908c.930012-.424216 1.843708-.701588 3.067408-.701588 1.191068 0 2.104764.310004 2.724772.930012.57106.57106.864748 1.38686.864748 2.463716v5.155856h-1.207384v-1.272648c-.587376.766852-1.566336 1.452124-3.051092 1.452124zm.24474-.995276c1.55002 0 2.822668-.946328 2.822668-2.28424v-.8158c-.620008-.179476-1.452124-.358952-2.480032-.358952-1.582652 0-2.463716.685272-2.463716 1.745812v.032632c0 1.06054.97896 1.680548 2.12108 1.680548zm9.969076-.587376 2.708456-7.032196h1.337912l-3.540572 8.712744c-.717904 1.745812-1.533704 2.382136-2.806352 2.382136-.701588 0-1.2237-.146844-1.79476-.424216l.424216-.995276c.4079.212108.783168.310004 1.321596.310004.750536 0 1.2237-.391584 1.729496-1.582652l-3.83426-8.40274h1.38686z" fill="#fff"/><path d="m23.767104 247.994092c-3.295832 0-5.726916-2.594244-5.726916-5.87376v-.032632c0-3.230568 2.414768-5.906392 5.775864-5.906392 2.072132 0 3.312148.73422 4.454268 1.811076l-.881064.946328c-.962644-.913696-2.0395-1.566336-3.58952-1.566336-2.52898 0-4.421636 2.055816-4.421636 4.682692v.032632c0 2.643192 1.908972 4.715324 4.421636 4.715324 1.566336 0 2.594244-.603692 3.687416-1.647916l.848432.832116c-1.191068 1.207384-2.496348 2.006868-4.56848 2.006868zm10.36066 0c-2.52898 0-4.372688-1.990552-4.372688-4.372688v-.032632c0-2.382136 1.860024-4.40532 4.40532-4.40532 2.52898 0 4.389004 1.990552 4.389004 4.372688v.032632c0 2.382136-1.87634 4.40532-4.421636 4.40532zm.032632-1.125804c1.827392 0 3.10004-1.46844 3.10004-3.246884v-.032632c0-1.811076-1.354228-3.295832-3.132672-3.295832-1.827392 0-3.083724 1.484756-3.083724 3.2632v.032632c0 1.811076 1.337912 3.279516 3.116356 3.279516zm9.756968 1.109488c-2.0395 0-3.230568-1.370544-3.230568-3.377412v-5.237436h1.256332v4.927432c0 1.566336.848432 2.545296 2.333188 2.545296 1.435808 0 2.52898-1.06054 2.52898-2.643192v-4.829536h1.240016v8.435372h-1.240016v-1.46844c-.57106.913696-1.435808 1.647916-2.887932 1.647916zm10.752244.016316c-2.463716 0-4.32374-2.006868-4.32374-4.372688v-.032632c0-2.382136 1.860024-4.40532 4.32374-4.40532 1.598968 0 2.594244.668956 3.377412 1.501072l-.832116.881064c-.668956-.701588-1.419492-1.272648-2.561612-1.272648-1.71318 0-3.01846 1.452124-3.01846 3.2632v.032632c0 1.827392 1.337912 3.279516 3.10004 3.279516 1.076856 0 1.908972-.538428 2.577928-1.256332l.799484.750536c-.848432.946328-1.860024 1.6316-3.442676 1.6316zm5.514808-.195792v-11.91068h1.256332v4.943748c.554744-.913696 1.435808-1.647916 2.887932-1.647916 2.0395 0 3.230568 1.370544 3.230568 3.377412v5.237436h-1.256332v-4.927432c0-1.566336-.848432-2.545296-2.333188-2.545296-1.452124 0-2.52898 1.06054-2.52898 2.643192v4.829536zm14.537556.179476c-1.566336 0-2.577928-.848432-3.230568-1.79476v1.615284h-1.256332v-11.91068h1.256332v5.172172c.685272-1.011592 1.680548-1.87634 3.230568-1.87634 2.023184 0 4.030052 1.598968 4.030052 4.372688v.032632c0 2.757404-1.990552 4.389004-4.030052 4.389004zm-.228424-1.125804c1.6316 0 2.969512-1.207384 2.969512-3.246884v-.032632c0-1.990552-1.370544-3.2632-2.969512-3.2632-1.566336 0-3.051092 1.321596-3.051092 3.246884v.032632c0 1.95792 1.484756 3.2632 3.051092 3.2632zm9.088012 1.125804c-1.566336 0-3.148988-.89738-3.148988-2.626876v-.032632c0-1.778444 1.46844-2.724772 3.605836-2.724772 1.076856 0 1.843708.146844 2.594244.358952v-.293688c0-1.517388-.930012-2.300556-2.512664-2.300556-.995276 0-1.778444.261056-2.561612.620008l-.375268-1.027908c.930012-.424216 1.843708-.701588 3.067408-.701588 1.191068 0 2.104764.310004 2.724772.930012.57106.57106.864748 1.38686.864748 2.463716v5.155856h-1.207384v-1.272648c-.587376.766852-1.566336 1.452124-3.051092 1.452124zm.24474-.995276c1.55002 0 2.822668-.946328 2.822668-2.28424v-.8158c-.620008-.179476-1.452124-.358952-2.480032-.358952-1.582652 0-2.463716.685272-2.463716 1.745812v.032632c0 1.06054.97896 1.680548 2.12108 1.680548zm9.479596.97896c-1.207384 0-2.545296-.473164-3.491624-1.240016l.636324-.89738c.913696.685272 1.925288 1.076856 2.920564 1.076856 1.011592 0 1.745812-.522112 1.745812-1.337912v-.032632c0-.848432-.995276-1.174752-2.104764-1.484756-1.321596-.375268-2.790036-.832116-2.790036-2.382136v-.032632c0-1.452124 1.207384-2.414768 2.871616-2.414768 1.027908 0 2.170028.358952 3.034776.930012l-.57106.946328c-.783168-.505796-1.680548-.8158-2.496348-.8158-.995276 0-1.6316.522112-1.6316 1.2237v.032632c0 .799484 1.044224 1.109488 2.170028 1.452124 1.30528.391584 2.708456.89738 2.708456 2.414768v.032632c0 1.598968-1.321596 2.52898-3.002144 2.52898zm9.022748.032632c-2.316872 0-4.209528-1.778444-4.209528-4.389004v-.032632c0-2.431084 1.71318-4.389004 4.046368-4.389004 2.496348 0 3.932156 1.990552 3.932156 4.454268 0 .16316 0 .261056-.016316.4079h-6.68956c.179476 1.827392 1.46844 2.8553 2.969512 2.8553 1.158436 0 1.974236-.473164 2.659508-1.191068l.783168.701588c-.848432.946328-1.87634 1.582652-3.475308 1.582652zm-2.93688-4.878484h5.433228c-.130528-1.533704-1.011592-2.871616-2.69214-2.871616-1.46844 0-2.577928 1.2237-2.741088 2.871616zm14.015444 4.682692v-11.4212h1.288964v10.230132h6.428504v1.191068zm9.854864-10.27908v-1.38686h1.435808v1.38686zm.08158 10.27908v-8.435372h1.256332v8.435372zm6.999564.146844c-1.354228 0-2.382136-.668956-2.382136-2.382136v-5.090592h-1.174752v-1.109488h1.174752v-2.545296h1.256332v2.545296h2.675824v1.109488h-2.675824v4.927432c0 1.027908.57106 1.403176 1.419492 1.403176.424216 0 .783168-.08158 1.2237-.293688v1.076856c-.440532.228424-.913696.358952-1.517388.358952zm7.211672.048948c-2.316872 0-4.209528-1.778444-4.209528-4.389004v-.032632c0-2.431084 1.71318-4.389004 4.046368-4.389004 2.496348 0 3.932156 1.990552 3.932156 4.454268 0 .16316 0 .261056-.016316.4079h-6.68956c.179476 1.827392 1.46844 2.8553 2.969512 2.8553 1.158436 0 1.974236-.473164 2.659508-1.191068l.783168.701588c-.848432.946328-1.87634 1.582652-3.475308 1.582652zm-2.93688-4.878484h5.433228c-.130528-1.533704-1.011592-2.871616-2.69214-2.871616-1.46844 0-2.577928 1.2237-2.741088 2.871616z" fill="#fff"/><path d="m432.502404 247.463792c-3.295832 0-5.726916-2.594244-5.726916-5.87376v-.032632c0-3.230568 2.414768-5.906392 5.775864-5.906392 2.072132 0 3.312148.73422 4.454268 1.811076l-.881064.946328c-.962644-.913696-2.0395-1.566336-3.58952-1.566336-2.52898 0-4.421636 2.055816-4.421636 4.682692v.032632c0 2.643192 1.908972 4.715324 4.421636 4.715324 1.566336 0 2.594244-.603692 3.687416-1.647916l.848432.832116c-1.191068 1.207384-2.496348 2.006868-4.56848 2.006868zm10.36066 0c-2.52898 0-4.372688-1.990552-4.372688-4.372688v-.032632c0-2.382136 1.860024-4.40532 4.40532-4.40532 2.52898 0 4.389004 1.990552 4.389004 4.372688v.032632c0 2.382136-1.87634 4.40532-4.421636 4.40532zm.032632-1.125804c1.827392 0 3.10004-1.46844 3.10004-3.246884v-.032632c0-1.811076-1.354228-3.295832-3.132672-3.295832-1.827392 0-3.083724 1.484756-3.083724 3.2632v.032632c0 1.811076 1.337912 3.279516 3.116356 3.279516zm9.756968 1.109488c-2.0395 0-3.230568-1.370544-3.230568-3.377412v-5.237436h1.256332v4.927432c0 1.566336.848432 2.545296 2.333188 2.545296 1.435808 0 2.52898-1.06054 2.52898-2.643192v-4.829536h1.240016v8.435372h-1.240016v-1.46844c-.57106.913696-1.435808 1.647916-2.887932 1.647916zm10.752244.016316c-2.463716 0-4.32374-2.006868-4.32374-4.372688v-.032632c0-2.382136 1.860024-4.40532 4.32374-4.40532 1.598968 0 2.594244.668956 3.377412 1.501072l-.832116.881064c-.668956-.701588-1.419492-1.272648-2.561612-1.272648-1.71318 0-3.01846 1.452124-3.01846 3.2632v.032632c0 1.827392 1.337912 3.279516 3.10004 3.279516 1.076856 0 1.908972-.538428 2.577928-1.256332l.799484.750536c-.848432.946328-1.860024 1.6316-3.442676 1.6316zm5.514808-.195792v-11.91068h1.256332v4.943748c.554744-.913696 1.435808-1.647916 2.887932-1.647916 2.0395 0 3.230568 1.370544 3.230568 3.377412v5.237436h-1.256332v-4.927432c0-1.566336-.848432-2.545296-2.333188-2.545296-1.452124 0-2.52898 1.06054-2.52898 2.643192v4.829536zm14.537556.179476c-1.566336 0-2.577928-.848432-3.230568-1.79476v1.615284h-1.256332v-11.91068h1.256332v5.172172c.685272-1.011592 1.680548-1.87634 3.230568-1.87634 2.023184 0 4.030052 1.598968 4.030052 4.372688v.032632c0 2.757404-1.990552 4.389004-4.030052 4.389004zm-.228424-1.125804c1.6316 0 2.969512-1.207384 2.969512-3.246884v-.032632c0-1.990552-1.370544-3.2632-2.969512-3.2632-1.566336 0-3.051092 1.321596-3.051092 3.246884v.032632c0 1.95792 1.484756 3.2632 3.051092 3.2632zm9.088012 1.125804c-1.566336 0-3.148988-.89738-3.148988-2.626876v-.032632c0-1.778444 1.46844-2.724772 3.605836-2.724772 1.076856 0 1.843708.146844 2.594244.358952v-.293688c0-1.517388-.930012-2.300556-2.512664-2.300556-.995276 0-1.778444.261056-2.561612.620008l-.375268-1.027908c.930012-.424216 1.843708-.701588 3.067408-.701588 1.191068 0 2.104764.310004 2.724772.930012.57106.57106.864748 1.38686.864748 2.463716v5.155856h-1.207384v-1.272648c-.587376.766852-1.566336 1.452124-3.051092 1.452124zm.24474-.995276c1.55002 0 2.822668-.946328 2.822668-2.28424v-.8158c-.620008-.179476-1.452124-.358952-2.480032-.358952-1.582652 0-2.463716.685272-2.463716 1.745812v.032632c0 1.06054.97896 1.680548 2.12108 1.680548zm9.479596.97896c-1.207384 0-2.545296-.473164-3.491624-1.240016l.636324-.89738c.913696.685272 1.925288 1.076856 2.920564 1.076856 1.011592 0 1.745812-.522112 1.745812-1.337912v-.032632c0-.848432-.995276-1.174752-2.104764-1.484756-1.321596-.375268-2.790036-.832116-2.790036-2.382136v-.032632c0-1.452124 1.207384-2.414768 2.871616-2.414768 1.027908 0 2.170028.358952 3.034776.930012l-.57106.946328c-.783168-.505796-1.680548-.8158-2.496348-.8158-.995276 0-1.6316.522112-1.6316 1.2237v.032632c0 .799484 1.044224 1.109488 2.170028 1.452124 1.30528.391584 2.708456.89738 2.708456 2.414768v.032632c0 1.598968-1.321596 2.52898-3.002144 2.52898zm9.022748.032632c-2.316872 0-4.209528-1.778444-4.209528-4.389004v-.032632c0-2.431084 1.71318-4.389004 4.046368-4.389004 2.496348 0 3.932156 1.990552 3.932156 4.454268 0 .16316 0 .261056-.016316.4079h-6.68956c.179476 1.827392 1.46844 2.8553 2.969512 2.8553 1.158436 0 1.974236-.473164 2.659508-1.191068l.783168.701588c-.848432.946328-1.87634 1.582652-3.475308 1.582652zm-2.93688-4.878484h5.433228c-.130528-1.533704-1.011592-2.871616-2.69214-2.871616-1.46844 0-2.577928 1.2237-2.741088 2.871616zm17.931284 4.845852c-1.811076 0-3.295832-.603692-4.666376-1.827392l.799484-.946328c1.191068 1.076856 2.333188 1.615284 3.91584 1.615284 1.533704 0 2.545296-.8158 2.545296-1.941604v-.032632c0-1.06054-.57106-1.664232-2.969512-2.170028-2.626876-.57106-3.83426-1.419492-3.83426-3.295832v-.032632c0-1.79476 1.582652-3.116356 3.75268-3.116356 1.664232 0 2.8553.473164 4.013736 1.403176l-.750536.995276c-1.06054-.864748-2.12108-1.240016-3.295832-1.240016-1.484756 0-2.431084.8158-2.431084 1.843708v.032632c0 1.076856.587376 1.680548 3.10004 2.218976 2.545296.554744 3.720048 1.484756 3.720048 3.230568v.032632c0 1.95792-1.6316 3.230568-3.899524 3.230568zm10.001708.032632c-2.316872 0-4.209528-1.778444-4.209528-4.389004v-.032632c0-2.431084 1.71318-4.389004 4.046368-4.389004 2.496348 0 3.932156 1.990552 3.932156 4.454268 0 .16316 0 .261056-.016316.4079h-6.68956c.179476 1.827392 1.46844 2.8553 2.969512 2.8553 1.158436 0 1.974236-.473164 2.659508-1.191068l.783168.701588c-.848432.946328-1.87634 1.582652-3.475308 1.582652zm-2.93688-4.878484h5.433228c-.130528-1.533704-1.011592-2.871616-2.69214-2.871616-1.46844 0-2.577928 1.2237-2.741088 2.871616zm8.908536 4.682692v-8.435372h1.256332v2.20266c.620008-1.403176 1.843708-2.414768 3.442676-2.349504v1.354228h-.097896c-1.843708 0-3.34478 1.321596-3.34478 3.866892v3.361096zm9.430648.065264-3.654784-8.500636h1.38686l2.838984 6.999564 2.8553-6.999564h1.354228l-3.6711 8.500636zm9.95276.130528c-2.316872 0-4.209528-1.778444-4.209528-4.389004v-.032632c0-2.431084 1.71318-4.389004 4.046368-4.389004 2.496348 0 3.932156 1.990552 3.932156 4.454268 0 .16316 0 .261056-.016316.4079h-6.68956c.179476 1.827392 1.46844 2.8553 2.969512 2.8553 1.158436 0 1.974236-.473164 2.659508-1.191068l.783168.701588c-.848432.946328-1.87634 1.582652-3.475308 1.582652zm-2.93688-4.878484h5.433228c-.130528-1.533704-1.011592-2.871616-2.69214-2.871616-1.46844 0-2.577928 1.2237-2.741088 2.871616zm8.908536 4.682692v-8.435372h1.256332v2.20266c.620008-1.403176 1.843708-2.414768 3.442676-2.349504v1.354228h-.097896c-1.843708 0-3.34478 1.321596-3.34478 3.866892v3.361096z" fill="#fff"/><g transform="translate(350 186)"><path d="m4.2 5.4h88.9" stroke="#fff"/><g fill="#fff" fill-rule="nonzero"><path d="m4.8.8v9.1l-4.6-4.5z"/><path d="m92.4.8v9.1l4.6-4.5z"/></g></g><g transform="translate(157 186)"><path d="m4.6 5.4h72.4" stroke="#fff"/><g fill="#fff" fill-rule="nonzero"><path d="m5.2.8v9.1l-4.6-4.5z"/><path d="m76.4.8v9.1l4.6-4.5z"/></g></g><g fill="#fff" fill-rule="nonzero" transform="translate(259 157)"><path d="m66.1 29.2c-1.2-6.3-4.3-12.1-8.8-16.6-4.5-4.4-10.3-7.4-16.4-8.5s-12.5-.3-18 2.2-10.2 6.7-13.3 11.8l-1.2 1.9-4-2.5 1.3-1.9c3.9-5.7 9.5-10 15.8-12.5 6.3-2.4 13.3-2.9 19.8-1.3 6.5 1.5 12.4 5.1 16.7 9.9 4.5 5.1 7.3 11.2 8.1 17.5z"/><path d="m16.9 19.6-16.4-8.1 4.1 12.2z"/><path d="m3.4 38.7c1.2 6.3 4.3 12.1 8.8 16.6 4.5 4.4 10.3 7.4 16.4 8.5s12.5.3 18-2.2 10.2-6.7 13.3-11.8l1.2-1.9 4 2.5-1.3 1.9c-3.9 5.7-9.5 10-15.8 12.5-6.3 2.4-13.3 2.9-19.8 1.3-6.5-1.5-12.4-5.1-16.7-9.9-4.5-5-7.3-11.2-8.1-17.5"/><path d="m52.8 48 16.5 8.1-4.2-12.2z"/></g><path d="m172.209164 184.2173v-9.04148h1.588717v9.04148zm3.810338 0v-6.819859h1.575801v1.046228c.439157-.632903 1.072061-1.188309 2.131206-1.188309 1.537051 0 2.428283 1.033312 2.428283 2.609113v4.352827h-1.562885v-3.87492c0-1.059145-.529572-1.666216-1.459553-1.666216-.904148 0-1.537051.632904-1.537051 1.692049v3.849087zm10.307287.116248c-1.14956 0-1.963293-.50374-1.963293-2.002042v-3.59076h-.865399v-1.343305h.865399v-1.872878h1.562885v1.872878h1.834128v1.343305h-1.834128v3.345348c0 .607071.309993.852482.839566.852482.348742 0 .658736-.077498.96873-.232495v1.278724c-.387492.219579-.813734.348743-1.407888.348743zm5.95446.038749c-1.976209 0-3.500344-1.433721-3.500344-3.539094v-.025833c0-1.950376 1.382055-3.55201 3.332431-3.55201 2.169955 0 3.267849 1.704965 3.267849 3.668258 0 .14208-.012916.284161-.025832.439158h-5.011564c.167914 1.11081.955814 1.730797 1.963293 1.730797.762068 0 1.304557-.284161 1.847045-.813733l.917065.813733c-.64582.774984-1.537052 1.278724-2.789943 1.278724zm-1.950376-4.042833h3.500344c-.103331-1.00748-.697485-1.79538-1.730797-1.79538-.955814 0-1.627467.736235-1.769547 1.79538zm6.613197 3.887836v-6.819859h1.575801v1.537051c.426241-1.020395 1.214141-1.717881 2.415366-1.666215v1.653299h-.090414c-1.369139 0-2.324952.891232-2.324952 2.699528v2.596196zm5.334473 0v-6.819859h1.575801v1.046228c.439157-.632903 1.072061-1.188309 2.131206-1.188309 1.537051 0 2.428283 1.033312 2.428283 2.609113v4.352827h-1.562884v-3.87492c0-1.059145-.529573-1.666216-1.459554-1.666216-.904148 0-1.537051.632904-1.537051 1.692049v3.849087zm11.146853.154997c-1.976209 0-3.500344-1.433721-3.500344-3.539094v-.025833c0-1.950376 1.382055-3.55201 3.332431-3.55201 2.169955 0 3.267849 1.704965 3.267849 3.668258 0 .14208-.012916.284161-.025833.439158h-5.011563c.167913 1.11081.955814 1.730797 1.963293 1.730797.762068 0 1.304556-.284161 1.847045-.813733l.917065.813733c-.64582.774984-1.537052 1.278724-2.789943 1.278724zm-1.950376-4.042833h3.500344c-.103331-1.00748-.697485-1.79538-1.730797-1.79538-.955814 0-1.627467.736235-1.769547 1.79538zm8.912316 4.004084c-1.14956 0-1.963293-.50374-1.963293-2.002042v-3.59076h-.865399v-1.343305h.865399v-1.872878h1.562884v1.872878h1.834129v1.343305h-1.834129v3.345348c0 .607071.309994.852482.839566.852482.348743 0 .658737-.077498.96873-.232495v1.278724c-.387492.219579-.813733.348743-1.407887.348743z" fill="#fff"/><path d="m375.085835 184.2173v-9.04148h1.588717v9.04148zm3.810338 0v-6.819859h1.575801v1.046228c.439158-.632903 1.072061-1.188309 2.131206-1.188309 1.537052 0 2.428283 1.033312 2.428283 2.609113v4.352827h-1.562884v-3.87492c0-1.059145-.529573-1.666216-1.459553-1.666216-.904148 0-1.537052.632904-1.537052 1.692049v3.849087zm10.307287.116248c-1.149559 0-1.963292-.50374-1.963292-2.002042v-3.59076h-.865399v-1.343305h.865399v-1.872878h1.562884v1.872878h1.834129v1.343305h-1.834129v3.345348c0 .607071.309994.852482.839566.852482.348743 0 .658736-.077498.96873-.232495v1.278724c-.387492.219579-.813733.348743-1.407888.348743zm3.009522-.116248v-6.819859h1.5758v1.537051c.426242-1.020395 1.214142-1.717881 2.415367-1.666215v1.653299h-.090415c-1.369138 0-2.324952.891232-2.324952 2.699528v2.596196zm6.987772.14208c-1.278724 0-2.428283-.736234-2.428283-2.105373v-.025833c0-1.472469 1.162476-2.195788 2.828691-2.195788.762068 0 1.304557.116248 1.834129.284161v-.167913c0-.96873-.594154-1.485386-1.692048-1.485386-.762068 0-1.330389.167913-1.950377.426241l-.426241-1.227058c.762068-.335826 1.498303-.555405 2.58328-.555405 1.020396 0 1.782463.271244 2.26037.762068.50374.490823.736235 1.214141.736235 2.105373v4.042833h-1.524135v-.852482c-.464991.555405-1.175393.994562-2.221621.994562zm.439158-1.136643c1.033312 0 1.821212-.594154 1.821212-1.459553v-.46499c-.400408-.154997-.929981-.271245-1.549968-.271245-1.007479 0-1.601634.426241-1.601634 1.136643v.025833c0 .658737.581238 1.033312 1.33039 1.033312zm5.16656.994563v-6.819859h1.5758v1.046228c.439158-.632903 1.072062-1.188309 2.131206-1.188309 1.537052 0 2.428284 1.033312 2.428284 2.609113v4.352827h-1.562885v-3.87492c0-1.059145-.529572-1.666216-1.459553-1.666216-.904148 0-1.537052.632904-1.537052 1.692049v3.849087zm11.146853.154997c-1.976209 0-3.500345-1.433721-3.500345-3.539094v-.025833c0-1.950376 1.382055-3.55201 3.332432-3.55201 2.169955 0 3.267849 1.704965 3.267849 3.668258 0 .14208-.012917.284161-.025833.439158h-5.011563c.167913 1.11081.955813 1.730797 1.963293 1.730797.762067 0 1.304556-.284161 1.847045-.813733l.917064.813733c-.64582.774984-1.537051 1.278724-2.789942 1.278724zm-1.950377-4.042833h3.500345c-.103331-1.00748-.697486-1.79538-1.730798-1.79538-.955813 0-1.627466.736235-1.769547 1.79538zm8.912316 4.004084c-1.149559 0-1.963292-.50374-1.963292-2.002042v-3.59076h-.865399v-1.343305h.865399v-1.872878h1.562884v1.872878h1.834129v1.343305h-1.834129v3.345348c0 .607071.309994.852482.839566.852482.348743 0 .658736-.077498.96873-.232495v1.278724c-.387492.219579-.813733.348743-1.407888.348743z" fill="#fff"/><g fill-rule="nonzero"><g transform="matrix(0 -1 1 0 26.1782 225)"><path d="m5.6 1.4v20.3h23v-20.3z" fill="url(#e)"/><g fill="#010202"><path d="m.4 20.3v-17.5c0-1 .8-1.9 1.9-1.9h27.7c1 0 1.9.8 1.9 1.9v17.5c0 1-.8 1.9-1.9 1.9h-27.7c-1 0-1.9-.8-1.9-1.9zm30.5-17.5c0-.5-.4-.9-.9-.9h-27.7c-.5 0-.9.4-.9.9v17.5c0 .5.4.9.9.9h27.7c.5 0 .9-.4.9-.9z"/><path d="m1.9 11.6c0-.1 0-.1 0 0 0-.4.2-.8.5-1s.6-.4 1-.3c.8 0 1.3.7 1.3 1.4 0 .4-.2.7-.5.9s-.6.4-1 .3c-.8 0-1.3-.6-1.3-1.3zm2.1 0c0-.4-.3-.8-.7-.8-.2 0-.4.1-.6.2s-.2.3-.3.5c0 .2.1.4.2.6s.3.2.5.3c.2 0 .4-.1.6-.2.2-.2.3-.4.3-.6z"/><path d="m5.2 21.6v-20.1c0-.2.1-.3.3-.3s.3.1.3.3v20.1c0 .2-.1.3-.3.3s-.3-.2-.3-.3z"/><path d="m28.2 21.6v-20.1c0-.2.1-.3.3-.3s.3.1.3.3v20.1c0 .2-.1.3-.3.3s-.3-.1-.3-.3z"/></g><g fill="#fefefe" transform="matrix(0 1 -1 0 23 8)"><path d="m3.9 4.2c-2 0-3.6-.7-3.6-1.7 0-.9 1.6-1.7 3.6-1.7s3.6.7 3.6 1.7-1.6 1.7-3.6 1.7zm0-2.9c-1.9 0-3.2.7-3.2 1.3s1.3 1.3 3.2 1.3 3.2-.7 3.2-1.3c0-.7-1.3-1.3-3.2-1.3z"/><path d="m3.9 10.1c-2 0-3.6-.7-3.6-1.7h.4c0 .6 1.3 1.3 3.2 1.3s3.2-.7 3.2-1.3h.4c0 1-1.6 1.7-3.6 1.7z"/><path d="m.3 2.4h1v6.1h-1z"/><path d="m7.1 2.4h1v6.1h-1z"/><path d="m2.4 7s0-.1 0-.2c0-.2-.1-.2-.3-.2h-.1v-.3h.1c.2 0 .3-.1.3-.2 0 0 0-.1 0-.2 0-.2.1-.4.6-.5l.1.2c-.3.1-.3.1-.3.3v.2c0 .2-.1.3-.2.3.2.1.2.1.2.3v.2c0 .1 0 .2.3.3l-.1.2c-.5 0-.6-.1-.6-.4"/><path d="m3.1 7.2h.4v-.4h-.4z"/><path d="m3.8 7.2h.4v-.4h-.4z"/><path d="m4.2 7.2h.4v-.4h-.4z"/><path d="m4.7 7.3c.3-.1.3-.1.3-.3 0 0 0-.1 0-.2 0-.2.1-.3.2-.3-.2-.1-.2-.1-.2-.3 0 0 0-.1 0-.2s0-.2-.3-.3l.1-.2c.4.1.6.2.6.5v.2c0 .2.1.2.3.2h.1v.3h-.1c-.2 0-.3.1-.3.2v.2c0 .2-.1.4-.6.5z"/></g></g><g transform="translate(116.6228 158)"><path d="m1.1.8c-.5 0-.9.4-.9.9v11.8c0 .5.4.9.9.9h11.8c.5 0 .9-.4.9-.9v-11.8c0-.5-.4-.9-.9-.9z" fill="url(#f)" transform="translate(1 23.196)"/><g fill="#010202"><path d="m8 64.5c-2.6 0-4.7-2.1-4.7-4.7v-21.8c0-.5.4-.9.9-.9h7.7c.5 0 .9.4.9.9v21.8c0 2.6-2.1 4.7-4.8 4.7zm-2.9-25.6v20.9c0 1.6 1.3 2.9 2.9 2.9s3-1.3 3-2.9v-20.9z"/><path d="m9.6 58.7c0 .9-.7 1.5-1.5 1.5-.9 0-1.5-.7-1.5-1.5 0-.9.7-1.5 1.5-1.5.8-.1 1.5.6 1.5 1.5"/><path d="m13.9 38.7h-11.7c-1.1 0-2-.9-2-2v-11.7c0-1.1.9-2 2-2h11.7c1.1 0 2 .9 2 2v11.7c0 1.1-.9 2-2 2zm-11.7-14.4c-.4 0-.7.3-.7.7v11.7c0 .4.3.7.7.7h11.7c.4 0 .7-.3.7-.7v-11.7c0-.4-.3-.7-.7-.7z"/></g><path d="m4.2 23.5h7.7v-21.1h-7.7z" fill="#fefefe"/><path d="m11.9 24.4h-7.7c-.5 0-.9-.4-.9-.9v-21c0-.5.4-.9.9-.9h7.7c.5 0 .9.4.9.9v21c0 .5-.4.9-.9.9zm-6.8-1.8h5.9v-19.2h-5.9z" fill="#010202"/><path d="m16.3 31.4h-.6c-.5 0-.9-.4-.9-.9s.4-.9.9-.9h.6c.5 0 .9.4.9.9s-.4.9-.9.9z" fill="#010202"/><path d="m11.8 4.5h-7.5c-1.1 0-1.9-.9-1.9-1.9 0-1.1.9-1.9 1.9-1.9h7.5c1.1 0 1.9.9 1.9 1.9s-.8 1.9-1.9 1.9" fill="#fefefe"/><path d="m11.8 4.9h-7.5c-1.3 0-2.4-1.1-2.4-2.4s1.1-2.4 2.4-2.4h7.5c1.3 0 2.4 1.1 2.4 2.4s-1.1 2.4-2.4 2.4zm-7.5-3.8c-.8 0-1.5.7-1.5 1.5s.7 1.5 1.5 1.5h7.5c.8 0 1.5-.7 1.5-1.5s-.7-1.5-1.5-1.5z" fill="#010202"/><path d="m10.8 2.1h-5.5c-.2 0-.4.2-.4.4s.2.4.4.4h5.5c.2 0 .4-.2.4-.4s-.2-.4-.4-.4" fill="#fefefe"/><path d="m10.8 3.4h-5.5c-.5 0-.8-.4-.8-.8 0-.5.4-.8.8-.8h5.5c.5 0 .8.4.8.8s-.3.8-.8.8z" fill="#010202"/><g fill="#fefefe"><path d="m7.9 29.5c-2 0-3.5-.7-3.5-1.6s1.5-1.6 3.5-1.6 3.5.7 3.5 1.6c-.1.9-1.5 1.6-3.5 1.6zm0-2.8c-1.8 0-3 .6-3 1.2s1.2 1.2 3 1.2 3-.6 3-1.2-1.2-1.2-3-1.2z"/><path d="m7.9 35.1c-2 0-3.5-.7-3.5-1.6h.4c0 .6 1.2 1.2 3 1.2s3-.6 3-1.2h.4c.2.9-1.3 1.6-3.3 1.6z"/><path d="m4.4 27.8h1v5.8h-1z"/><path d="m10.9 27.8h1v5.8h-1z"/><path d="m6.5 32.1s0-.1 0-.2c0-.2-.1-.2-.2-.2h-.1v-.3h.1c.2 0 .2-.1.2-.2 0 0 0-.1 0-.2 0-.2.1-.4.5-.4l.1.2c-.2.1-.3.1-.3.3v.2c0 .2-.1.3-.2.3.2 0 .2.1.2.3v.2c0 .1 0 .2.3.3l-.1.2c-.4-.1-.5-.2-.5-.5"/><path d="m7.2 32.3h.3v-.4h-.3z"/><path d="m7.7 32.3h.4v-.4h-.4z"/><path d="m8.2 32.3h.4v-.4h-.4z"/><path d="m8.7 32.4c.2-.1.3-.1.3-.3 0 0 0-.1 0-.2 0-.2.1-.3.2-.3-.2 0-.2-.1-.2-.3 0 0 0-.1 0-.2s0-.2-.3-.3l.1-.2c.4.1.5.2.5.4v.2c0 .2.1.2.2.2h.1v.3h-.1c-.2 0-.2.1-.2.2v.2c0 .2-.1.4-.5.4z"/></g></g><path d="m293.9 206.8c-6.4 0-11.5-2.1-11.8-5v-.1-19.6-.1c.1-3 5.1-5.2 11.8-5.2s11.8 2.3 11.8 5.3v.2 19.5c-.3 2.8-5.4 5-11.8 5z" fill="#fff"/><g transform="translate(278 170)"><path d="m2 11.6v22.2c0 2.5 5.7 5.2 13.9 5.2 8 0 13.6-2.6 13.9-5v-22.4c-2.8 2.1-7.8 3.5-13.9 3.5-6 0-11.1-1.4-13.9-3.5z" fill="url(#h)"/><path d="m15.9 40.7c-8.6 0-15.4-2.9-15.8-6.7v-.2-26.2-.1c.1-4 6.9-6.9 15.8-6.9 9 0 15.8 3 15.8 7v.3 26.1c-.4 3.9-7.2 6.7-15.8 6.7zm0-38.6c-7.8 0-14.3 2.6-14.3 5.6s6.6 5.6 14.3 5.6c7.5 0 13.9-2.4 14.3-5.3v-.4c-.1-2.7-5.7-5.5-14.3-5.5z" fill="url(#i)" opacity=".8"/><path d="m15.9 2.1c-7.8 0-14.3 2.6-14.3 5.6s6.6 5.6 14.3 5.6c7.5 0 13.9-2.4 14.3-5.3v-.4c-.1-2.7-5.7-5.5-14.3-5.5z" fill="url(#j)"/></g><path d="m289.5 199 .2-.9c-1-.3-1.1-.5-1.1-1.1 0-.2 0-.5 0-.7 0-.7-.3-1-1-1.2.6-.2 1-.6 1-1.2 0-.2 0-.5 0-.7 0-.6.1-.8 1.1-1.1l-.2-.9c-1.7.3-2.2.9-2.2 1.8v.6c0 .7-.3.9-1 .9h-.2v1.1h.2c.7 0 1 .2 1 .9v.6c.1 1 .5 1.6 2.2 1.9zm1.3-1.3h1.5v-1.5h-1.5zm2.6 0h1.5v-1.5h-1.5zm2.7 0h1.5v-1.5h-1.5zm2.7 1.3c1.7-.3 2.2-.9 2.2-1.8 0-.1 0-.5 0-.6 0-.7.3-.9 1-.9h.2v-1.1h-.2c-.7 0-1-.2-1-.9 0-.2 0-.5 0-.6 0-.9-.5-1.5-2.2-1.8l-.2.9c1 .3 1.1.5 1.1 1.1v.7c0 .7.3 1 1 1.2-.6.2-1 .6-1 1.2v.7c0 .6-.1.8-1.1 1.1z" fill="#fff"/><path d="m496.4 218.3c-13.2 0-23.6-4.4-24.2-10.3v-.3-40.3-.2c.2-6.1 10.6-10.7 24.3-10.7 13.8 0 24.3 4.6 24.3 10.8v.5 40.1c-.8 6-11.2 10.4-24.4 10.4z" fill="#fff"/><path d="m474.9 173.4v34.1c0 3.8 8.8 8 21.4 8 12.2 0 20.9-3.9 21.4-7.6v-34.4c-4.3 3.3-12.1 5.4-21.4 5.4s-17.1-2.2-21.4-5.5z" fill="url(#l)"/><path d="m496.4 158.9c-11.9 0-22 3.9-22 8.6 0 4.6 10.1 8.6 22 8.6 11.5 0 21.3-3.6 22-8.1v-.6c-.3-4.2-8.8-8.5-22-8.5z" fill="url(#m)"/><path d="m496.4 218.3c-13.2 0-23.6-4.4-24.2-10.3v-.3-40.3-.2c.2-6.1 10.6-10.7 24.3-10.7 13.8 0 24.3 4.6 24.3 10.8v.5 40.1c-.8 6-11.2 10.4-24.4 10.4zm0-59.4c-11.9 0-22 3.9-22 8.6 0 4.6 10.1 8.6 22 8.6 11.5 0 21.3-3.6 22-8.1v-.6c-.3-4.2-8.8-8.5-22-8.5z" fill="url(#n)" opacity=".8"/><path d="m489.1 201.4.4-1.5c-1.6-.4-1.8-.9-1.8-1.8 0-.3 0-.8 0-1.1 0-1.1-.6-1.7-1.6-2 1-.3 1.6-.9 1.6-2 0-.3 0-.8 0-1.1 0-.9.2-1.3 1.8-1.8l-.4-1.5c-2.7.5-3.5 1.4-3.5 3v1c0 1.2-.5 1.5-1.7 1.5h-.4v1.7h.4c1.2 0 1.7.4 1.7 1.5v1c0 1.7.8 2.6 3.5 3.1zm2.1-2.1h2.4v-2.4h-2.4zm4.3 0h2.4v-2.4h-2.4zm4.3 0h2.4v-2.4h-2.4zm4.4 2.1c2.7-.5 3.5-1.4 3.5-3 0-.2 0-.8 0-1 0-1.2.5-1.5 1.7-1.5h.4v-1.7h-.4c-1.2 0-1.7-.4-1.7-1.5 0-.3 0-.8 0-1 0-1.5-.8-2.5-3.5-3l-.4 1.5c1.6.4 1.8.9 1.8 1.8v1.1c0 1.1.6 1.7 1.6 2-1 .3-1.6.9-1.6 2v1.1c0 .9-.2 1.3-1.8 1.8z" fill="#fff"/><path d="m2.2 114.4v-103.9c0-5.8 4.8-10.5 10.6-10.5h554.9c5.8 0 10.5 4.7 10.5 10.5v103.9c0 5.8-4.7 10.5-10.5 10.5h-554.9c-5.8 0-10.6-4.7-10.6-10.5z" stroke="url(#o)" stroke-width="3"/><path d="m171.6 49.7c0 19.2-15.4 34.7-34.3 34.7-19 0-34.3-15.6-34.3-34.7s15.3-34.7 34.3-34.7 34.3 15.5 34.3 34.7z" fill="#eb4971"/><path d="m327.7 49.7c0 19.2-15.4 34.7-34.3 34.7-19 0-34.3-15.6-34.3-34.7s15.3-34.7 34.3-34.7c18.9 0 34.3 15.5 34.3 34.7z" fill="#00ace0"/><path d="m483.3 49.7c0 19.2-15.4 34.7-34.3 34.7-19 0-34.3-15.6-34.3-34.7s15.3-34.7 34.3-34.7c18.9 0 34.3 15.5 34.3 34.7z" fill="#fc9c0c"/></g><path d="m87.676236 109.749992c-3.50794 0-5.95534-2.659508-5.95534-5.87376v-.032632c0-3.214252 2.480032-5.906392 5.987972-5.906392s5.95534 2.659508 5.95534 5.87376v.032632c0 3.214252-2.480032 5.906392-5.987972 5.906392zm.032632-1.860024c2.267924 0 3.850576-1.79476 3.850576-4.013736v-.032632c0-2.218976-1.615284-4.046368-3.883208-4.046368s-3.850576 1.79476-3.850576 4.013736v.032632c0 2.218976 1.615284 4.046368 3.883208 4.046368zm8.141684 1.664232v-8.614848h1.990552v1.321596c.554744-.799484 1.354228-1.501072 2.69214-1.501072 1.941604 0 3.067408 1.30528 3.067408 3.295832v5.498492h-1.974236v-4.8948c0-1.337912-.668956-2.104764-1.843708-2.104764-1.14212 0-1.941604.799484-1.941604 2.137396v4.862168zm14.080708.195792c-2.496348 0-4.421636-1.811076-4.421636-4.470584v-.032632c0-2.463716 1.745812-4.4869 4.209528-4.4869 2.741088 0 4.127948 2.153712 4.127948 4.633744 0 .179476-.016316.358952-.032632.554744h-6.330608c.212108 1.403176 1.207384 2.186344 2.480032 2.186344.962644 0 1.647916-.358952 2.333188-1.027908l1.158436 1.027908c-.8158.97896-1.941604 1.615284-3.524256 1.615284zm-2.463716-5.106908h4.421636c-.130528-1.272648-.881064-2.267924-2.186344-2.267924-1.207384 0-2.055816.930012-2.235292 2.267924zm13.493332 4.911116v-11.4212h4.503216c2.675824 0 4.340056 1.517388 4.340056 3.817944v.032632c0 2.561612-2.055816 3.899524-4.56848 3.899524h-2.267924v3.6711zm2.006868-5.482176h2.333188c1.517388 0 2.463716-.848432 2.463716-2.0395v-.032632c0-1.337912-.962644-2.0395-2.463716-2.0395h-2.333188zm8.761692 5.482176v-11.91068h1.990552v11.91068zm7.048512.179476c-1.615284 0-3.067408-.930012-3.067408-2.659508v-.032632c0-1.860024 1.46844-2.77372 3.573204-2.77372.962644 0 1.647916.146844 2.316872.358952v-.212108c0-1.2237-.750536-1.87634-2.137396-1.87634-.962644 0-1.680548.212108-2.463716.538428l-.538428-1.55002c.962644-.424216 1.892656-.701588 3.2632-.701588 1.288964 0 2.251608.342636 2.8553.962644.636324.620008.930012 1.533704.930012 2.659508v5.106908h-1.925288v-1.076856c-.587376.701588-1.484756 1.256332-2.806352 1.256332zm.554744-1.435808c1.30528 0 2.300556-.750536 2.300556-1.843708v-.587376c-.505796-.195792-1.174752-.342636-1.95792-.342636-1.272648 0-2.023184.538428-2.023184 1.435808v.032632c0 .832116.73422 1.30528 1.680548 1.30528zm9.349068 1.403176c-1.452124 0-2.480032-.636324-2.480032-2.52898v-4.535848h-1.093172v-1.696864h1.093172v-2.36582h1.974236v2.36582h2.316872v1.696864h-2.316872v4.225844c0 .766852.391584 1.076856 1.06054 1.076856.440532 0 .832116-.097896 1.2237-.293688v1.615284c-.48948.277372-1.027908.440532-1.778444.440532zm4.258476-.146844v-6.917984h-1.093172v-1.647916h1.093172v-.636324c0-.946328.24474-1.664232.701588-2.12108s1.093172-.685272 1.925288-.685272c.701588 0 1.174752.097896 1.615284.228424v1.664232c-.391584-.130528-.73422-.212108-1.158436-.212108-.750536 0-1.14212.424216-1.14212 1.30528v.473164h2.28424v1.6316h-2.251608v6.917984zm9.62644.195792c-2.626876 0-4.56848-2.006868-4.56848-4.454268v-.032632c0-2.463716 1.95792-4.503216 4.601112-4.503216s4.584796 2.006868 4.584796 4.470584v.032632c0 2.4474-1.95792 4.4869-4.617428 4.4869zm.032632-1.729496c1.598968 0 2.61056-1.240016 2.61056-2.724772v-.032632c0-1.517388-1.093172-2.77372-2.643192-2.77372-1.582652 0-2.594244 1.240016-2.594244 2.741088v.032632c0 1.501072 1.093172 2.757404 2.626876 2.757404zm6.575348 1.533704v-8.614848h1.990552v1.941604c.538428-1.288964 1.533704-2.170028 3.051092-2.104764v2.088448h-.114212c-1.729496 0-2.93688 1.125804-2.93688 3.410044v3.279516zm6.738508 0v-8.614848h1.990552v1.30528c.554744-.766852 1.30528-1.484756 2.626876-1.484756 1.240016 0 2.12108.603692 2.577928 1.517388.685272-.913696 1.598968-1.517388 2.904248-1.517388 1.87634 0 3.01846 1.191068 3.01846 3.295832v5.498492h-1.974236v-4.8948c0-1.370544-.636324-2.104764-1.745812-2.104764-1.076856 0-1.843708.750536-1.843708 2.137396v4.862168h-1.974236v-4.911116c0-1.337912-.65264-2.088448-1.745812-2.088448s-1.843708.8158-1.843708 2.137396v4.862168z" fill="#fff"/><path d="m260.960472 109.749492c-3.34478 0-5.808496-2.594244-5.808496-5.87376v-.032632c0-3.246884 2.431084-5.906392 5.87376-5.906392 2.12108 0 3.393728.73422 4.4869 1.778444l-1.288964 1.484756c-.930012-.848432-1.892656-1.403176-3.214252-1.403176-2.153712 0-3.75268 1.778444-3.75268 4.013736v.032632c0 2.235292 1.582652 4.046368 3.768996 4.046368 1.403176 0 2.300556-.554744 3.279516-1.46844l1.288964 1.30528c-1.191068 1.240016-2.496348 2.023184-4.633744 2.023184zm10.458556 0c-2.626876 0-4.56848-2.006868-4.56848-4.454268v-.032632c0-2.463716 1.95792-4.503216 4.601112-4.503216s4.584796 2.006868 4.584796 4.470584v.032632c0 2.4474-1.95792 4.4869-4.617428 4.4869zm.032632-1.729496c1.598968 0 2.61056-1.240016 2.61056-2.724772v-.032632c0-1.517388-1.093172-2.77372-2.643192-2.77372-1.582652 0-2.594244 1.240016-2.594244 2.741088v.032632c0 1.501072 1.093172 2.757404 2.626876 2.757404zm6.575348 1.533704v-8.614848h1.990552v1.30528c.554744-.766852 1.30528-1.484756 2.626876-1.484756 1.240016 0 2.12108.603692 2.577928 1.517388.685272-.913696 1.598968-1.517388 2.904248-1.517388 1.87634 0 3.01846 1.191068 3.01846 3.295832v5.498492h-1.974236v-4.8948c0-1.370544-.636324-2.104764-1.745812-2.104764-1.076856 0-1.843708.750536-1.843708 2.137396v4.862168h-1.974236v-4.911116c0-1.337912-.65264-2.088448-1.745812-2.088448s-1.843708.8158-1.843708 2.137396v4.862168zm15.483884 2.61056v-11.225408h1.990552v1.435808c.636324-.89738 1.533704-1.615284 2.93688-1.615284 2.023184 0 3.99742 1.598968 3.99742 4.470584v.032632c0 2.8553-1.95792 4.470584-3.99742 4.470584-1.435808 0-2.333188-.717904-2.93688-1.517388v3.948472zm4.454268-4.144264c1.354228 0 2.463716-1.06054 2.463716-2.757404v-.032632c0-1.664232-1.14212-2.757404-2.463716-2.757404-1.337912 0-2.512664 1.109488-2.512664 2.757404v.032632c0 1.647916 1.174752 2.757404 2.512664 2.757404zm6.60798 1.533704v-11.91068h1.990552v11.91068zm8.516952.195792c-2.496348 0-4.421636-1.811076-4.421636-4.470584v-.032632c0-2.463716 1.745812-4.4869 4.209528-4.4869 2.741088 0 4.127948 2.153712 4.127948 4.633744 0 .179476-.016316.358952-.032632.554744h-6.330608c.212108 1.403176 1.207384 2.186344 2.480032 2.186344.962644 0 1.647916-.358952 2.333188-1.027908l1.158436 1.027908c-.8158.97896-1.941604 1.615284-3.524256 1.615284zm-2.463716-5.106908h4.421636c-.130528-1.272648-.881064-2.267924-2.186344-2.267924-1.207384 0-2.055816.930012-2.235292 2.267924zm11.25804 5.05796c-1.452124 0-2.480032-.636324-2.480032-2.52898v-4.535848h-1.093172v-1.696864h1.093172v-2.36582h1.974236v2.36582h2.316872v1.696864h-2.316872v4.225844c0 .766852.391584 1.076856 1.06054 1.076856.440532 0 .832116-.097896 1.2237-.293688v1.615284c-.48948.277372-1.027908.440532-1.778444.440532zm7.521676.048948c-2.496348 0-4.421636-1.811076-4.421636-4.470584v-.032632c0-2.463716 1.745812-4.4869 4.209528-4.4869 2.741088 0 4.127948 2.153712 4.127948 4.633744 0 .179476-.016316.358952-.032632.554744h-6.330608c.212108 1.403176 1.207384 2.186344 2.480032 2.186344.962644 0 1.647916-.358952 2.333188-1.027908l1.158436 1.027908c-.8158.97896-1.941604 1.615284-3.524256 1.615284zm-2.463716-5.106908h4.421636c-.130528-1.272648-.881064-2.267924-2.186344-2.267924-1.207384 0-2.055816.930012-2.235292 2.267924z" fill="#fff"/><path d="m429.200646 109.71636c-1.745812 0-3.393728-.603692-4.764272-1.827392l1.207384-1.435808c1.093172.946328 2.20266 1.484756 3.605836 1.484756 1.240016 0 2.023184-.587376 2.023184-1.435808v-.032632c0-.8158-.456848-1.256332-2.577928-1.745812-2.431084-.587376-3.801628-1.30528-3.801628-3.410044v-.032632c0-1.95792 1.6316-3.312148 3.899524-3.312148 1.664232 0 2.985828.505796 4.144264 1.435808l-1.076856 1.517388c-1.027908-.766852-2.055816-1.174752-3.10004-1.174752-1.174752 0-1.860024.603692-1.860024 1.354228v.032632c0 .881064.522112 1.272648 2.724772 1.79476 2.414768.587376 3.654784 1.452124 3.654784 3.34478v.032632c0 2.137396-1.680548 3.410044-4.079 3.410044zm10.164868.032632c-2.496348 0-4.421636-1.811076-4.421636-4.470584v-.032632c0-2.463716 1.745812-4.4869 4.209528-4.4869 2.741088 0 4.127948 2.153712 4.127948 4.633744 0 .179476-.016316.358952-.032632.554744h-6.330608c.212108 1.403176 1.207384 2.186344 2.480032 2.186344.962644 0 1.647916-.358952 2.333188-1.027908l1.158436 1.027908c-.8158.97896-1.941604 1.615284-3.524256 1.615284zm-2.463716-5.106908h4.421636c-.130528-1.272648-.881064-2.267924-2.186344-2.267924-1.207384 0-2.055816.930012-2.235292 2.267924zm12.351212 5.106908c-2.561612 0-4.454268-2.006868-4.454268-4.454268v-.032632c0-2.4474 1.892656-4.503216 4.4869-4.503216 1.615284 0 2.626876.603692 3.442676 1.484756l-1.240016 1.321596c-.603692-.620008-1.240016-1.076856-2.218976-1.076856-1.435808 0-2.496348 1.240016-2.496348 2.741088v.032632c0 1.533704 1.06054 2.757404 2.577928 2.757404.930012 0 1.598968-.424216 2.235292-1.06054l1.191068 1.174752c-.848432.946328-1.843708 1.615284-3.524256 1.615284zm8.288528-.016316c-1.941604 0-3.067408-1.30528-3.067408-3.312148v-5.482176h1.974236v4.8948c0 1.337912.668956 2.088448 1.843708 2.088448 1.14212 0 1.941604-.783168 1.941604-2.12108v-4.862168h1.990552v8.614848h-1.990552v-1.337912c-.554744.8158-1.354228 1.517388-2.69214 1.517388zm7.130092-.179476v-8.614848h1.990552v1.941604c.538428-1.288964 1.533704-2.170028 3.051092-2.104764v2.088448h-.114212c-1.729496 0-2.93688 1.125804-2.93688 3.410044v3.279516zm10.409608.195792c-2.496348 0-4.421636-1.811076-4.421636-4.470584v-.032632c0-2.463716 1.745812-4.4869 4.209528-4.4869 2.741088 0 4.127948 2.153712 4.127948 4.633744 0 .179476-.016316.358952-.032632.554744h-6.330608c.212108 1.403176 1.207384 2.186344 2.480032 2.186344.962644 0 1.647916-.358952 2.333188-1.027908l1.158436 1.027908c-.8158.97896-1.941604 1.615284-3.524256 1.615284zm-2.463716-5.106908h4.421636c-.130528-1.272648-.881064-2.267924-2.186344-2.267924-1.207384 0-2.055816.930012-2.235292 2.267924z" fill="#fff"/><path d="m135.78962 66.7885v-25.913356l-5.629454 1.563737-1.161633-4.46782 8.44418-2.680692h3.797647v31.498131z" fill="#fff"/><path d="m456.4 55h7.3v-2.1h-7.3zm0 4.7h7.3v-2.1h-7.3zm0-9.5h7.3v-2.1h-7.3zm-1-6.6h-13.1v-2.9c0-3.6 2.7-6.5 6.1-6.5h.9c3.4 0 6.1 2.9 6.1 6.5zm-5.1 11.8.2 4.8h-3.2l.2-4.8c-.6-.4-1-1.2-1-2 0-1.4 1.1-2.4 2.4-2.4s2.4 1.1 2.4 2.4c0 .8-.4 1.6-1 2zm5.5 1.7h7.4v-1.5h-7.4v-3.3h7.4v-1.5h-7.4v-3.3h7.4v-2.1c0-1-.8-1.8-1.8-1.8h-1.5v-2.9c0-6.1-4.8-11-10.6-11h-.9c-5.9 0-10.6 4.9-10.6 11v2.9h-1.5c-1 0-1.8.8-1.8 1.8v20.3c0 1 .8 1.8 1.8 1.8h25.1c1 0 1.8-.8 1.8-1.8v-5.4h-7.4z" fill="#fefefe" fill-rule="nonzero"/><path d="m277.6 48.1c1.6 1.9 6.4 8.8 8.9 16.4.8 2.5 4.5 3.1 5.6.6 9.9-22.7 17.7-25.9 20.6-28.7.3-.3.1-.9-.3-.9-2.9-.3-6.9.8-9.4 2.9-7.4 6.4-12.8 17.4-12.8 17.4s-3.4-8-6.1-8.9c-1.9-.6-4.6-.2-6 .1-.6.2-.8.8-.5 1.1z" fill="#fff" fill-rule="nonzero"/></g></svg>