<svg height="256" viewBox="0 0 580 256" width="580" xmlns="http://www.w3.org/2000/svg" xmlns:xlink="http://www.w3.org/1999/xlink"><linearGradient id="a"><stop offset="0" stop-color="#00ace0"/><stop offset="1" stop-color="#b36cdc"/></linearGradient><linearGradient id="b" x1="100.041171%" x2="-.006357%" xlink:href="#a" y1="49.995893%" y2="49.995893%"/><linearGradient id="c" x1="99.983363%" x2=".011388%" xlink:href="#a" y1="49.97584%" y2="49.97584%"/><linearGradient id="d" x1="100.018333%" x2=".008235%" xlink:href="#a" y1="50.036111%" y2="50.036111%"/><linearGradient id="e" x1="100.007669%" x2="-.03996%" xlink:href="#a" y1="49.995893%" y2="49.995893%"/><linearGradient id="f" x1="99.953737%" x2="-.018238%" xlink:href="#a" y1="49.97584%" y2="49.97584%"/><linearGradient id="g" x1="99.985784%" x2="-.024314%" xlink:href="#a" y1="50.036111%" y2="50.036111%"/><linearGradient id="h" x1="100.063774%" x2=".016145%" xlink:href="#a" y1="49.931109%" y2="49.931109%"/><linearGradient id="i" x1="100.003203%" x2=".031228%" xlink:href="#a" y1="49.966643%" y2="49.966643%"/><linearGradient id="j" x1="100.040294%" x2=".030196%" xlink:href="#a" y1="50.129293%" y2="50.129293%"/><linearGradient id="k"><stop offset="0" stop-color="#fc9c0c"/><stop offset="1" stop-color="#eb4971"/></linearGradient><linearGradient id="l" x1="100.069425%" x2=".021897%" xlink:href="#k" y1="49.931109%" y2="49.931109%"/><linearGradient id="m" x1="100.045784%" x2=".035686%" xlink:href="#k" y1="50.129293%" y2="50.129293%"/><linearGradient id="n" x1="100.008274%" x2=".036299%" xlink:href="#k" y1="49.966643%" y2="49.966643%"/><linearGradient id="o" x1="100.064279%" x2=".01665%" xlink:href="#a" y1="49.931109%" y2="49.931109%"/><linearGradient id="p" x1="100.003648%" x2=".031673%" xlink:href="#a" y1="49.966643%" y2="49.966643%"/><linearGradient id="q" x1="100.040784%" x2=".030686%" xlink:href="#a" y1="50.129293%" y2="50.129293%"/><g fill="none" fill-rule="evenodd" transform="translate(2 2)"><g stroke="#fff" stroke-linecap="round" stroke-linejoin="round" stroke-width="4"><path d="m169 246h-157" stroke-dasharray="11.5958 11.5958"/><path d="m6 246h-6v-6"/><path d="m0 228v-19.435993-196.564007" stroke-dasharray="12.318 12.318"/><path d="m0 6v-6h6"/><path d="m18 0h546" stroke-dasharray="12.0067 12.0067"/><path d="m570 0h6v6"/><path d="m576 18v190.440835 25.559165" stroke-dasharray="12.318 12.318"/><path d="m576 240v6h-6"/><path d="m559 246h-157" stroke-dasharray="11.5958 11.5958"/></g><path d="m191.95 253.24c-4.12 0-7.18-3.18-7.18-7.2v-.04c0-3.98 3-7.24 7.3-7.24 2.64 0 4.22.88 5.52 2.16l-1.96 2.26c-1.08-.98-2.18-1.58-3.58-1.58-2.36 0-4.06 1.96-4.06 4.36v.04c0 2.4 1.66 4.4 4.06 4.4 1.6 0 2.58-.64 3.68-1.64l1.96 1.98c-1.44 1.54-3.04 2.5-5.74 2.5zm8.2-.24v-14h3.08v11.2h6.98v2.8zm17.82.22c-3.76 0-6.06-2.1-6.06-6.22v-8h3.08v7.92c0 2.28 1.14 3.46 3.02 3.46s3.02-1.14 3.02-3.36v-8.02h3.08v7.9c0 4.24-2.38 6.32-6.14 6.32zm14.26-.02c-2.12 0-4.26-.74-5.94-2.24l1.82-2.18c1.26 1.04 2.58 1.7 4.18 1.7 1.26 0 2.02-.5 2.02-1.32v-.04c0-.78-.48-1.18-2.82-1.78-2.82-.72-4.64-1.5-4.64-4.28v-.04c0-2.54 2.04-4.22 4.9-4.22 2.04 0 3.78.64 5.2 1.78l-1.6 2.32c-1.24-.86-2.46-1.38-3.64-1.38s-1.8.54-1.8 1.22v.04c0 .92.6 1.22 3.02 1.84 2.84.74 4.44 1.76 4.44 4.2v.04c0 2.78-2.12 4.34-5.14 4.34zm10.78-.2v-11.16h-4.26v-2.84h11.6v2.84h-4.26v11.16zm9.7 0v-14h10.56v2.74h-7.5v2.84h6.6v2.74h-6.6v2.94h7.6v2.74zm13.4 0v-14h6.4c1.78 0 3.16.5 4.08 1.42.78.78 1.2 1.88 1.2 3.2v.04c0 2.26-1.22 3.68-3 4.34l3.42 5h-3.6l-3-4.48h-2.42v4.48zm3.08-7.2h3.12c1.5 0 2.36-.8 2.36-1.98v-.04c0-1.32-.92-2-2.42-2h-3.06zm17.38 7.2v-14h3.32l3.68 5.92 3.68-5.92h3.32v14h-3.06v-9.14l-3.94 5.98h-.08l-3.9-5.92v9.08zm16.16 0 6-14.1h2.84l6 14.1h-3.22l-1.28-3.14h-5.92l-1.28 3.14zm5.52-5.86h3.72l-1.86-4.54zm11.48 5.86v-14h2.84l6.56 8.62v-8.62h3.04v14h-2.62l-6.78-8.9v8.9zm14.6 0 6-14.1h2.84l6 14.1h-3.22l-1.28-3.14h-5.92l-1.28 3.14zm5.52-5.86h3.72l-1.86-4.54zm17.32 6.1c-4.36 0-7.36-3.06-7.36-7.2v-.04c0-3.98 3.1-7.24 7.34-7.24 2.52 0 4.04.68 5.5 1.92l-1.94 2.34c-1.08-.9-2.04-1.42-3.66-1.42-2.24 0-4.02 1.98-4.02 4.36v.04c0 2.56 1.76 4.44 4.24 4.44 1.12 0 2.12-.28 2.9-.84v-2h-3.1v-2.66h6.08v6.08c-1.44 1.22-3.42 2.22-5.98 2.22zm8.94-.24v-14h10.56v2.74h-7.5v2.84h6.6v2.74h-6.6v2.94h7.6v2.74zm13.4 0v-14h6.4c1.78 0 3.16.5 4.08 1.42.78.78 1.2 1.88 1.2 3.2v.04c0 2.26-1.22 3.68-3 4.34l3.42 5h-3.6l-3-4.48h-2.42v4.48zm3.08-7.2h3.12c1.5 0 2.36-.8 2.36-1.98v-.04c0-1.32-.92-2-2.42-2h-3.06z" fill="#fff"/><g transform="translate(44 50)"><g fill-rule="nonzero"><path d="m56.9 142.9c-30.6 0-54.7-10.2-56.1-23.8l-.1-.6v-93.3-.4c.4-14.1 24.5-24.7 56.2-24.7 32 0 56.2 10.8 56.2 25 0 .4 0 .7-.1 1v92.9.1c-1.4 13.5-25.5 23.8-56.1 23.8z" fill="#fff"/><path d="m7.3 38.9v78.9c0 8.7 20.4 18.5 49.6 18.5 28.3 0 48.3-9.1 49.5-17.6v-79.7c-9.9 7.7-28 12.6-49.5 12.6-21.6-.1-39.8-5-49.6-12.7z" fill="url(#b)"/><path d="m56.9 142.9c-30.6 0-54.7-10.2-56.1-23.8l-.1-.6v-93.3-.4c.4-14.1 24.5-24.7 56.2-24.7 32 0 56.2 10.8 56.2 25 0 .4 0 .7-.1 1v92.9.1c-1.4 13.5-25.5 23.8-56.1 23.8zm0-137.6c-27.6 0-51 9.1-51 19.8 0 10.8 23.4 19.8 51 19.8 26.6 0 49.4-8.4 50.9-18.8h.1l-.1-1.5c-.5-9.3-20.2-19.3-50.9-19.3z" fill="url(#c)" opacity=".8"/></g><path d="m41.7309 92.1161-.972 1.062-1.674-1.494c-1.062.828-2.412 1.332-3.96 1.332-3.834 0-6.408-3.006-6.408-6.48v-.036c0-3.474 2.61-6.516 6.444-6.516s6.408 3.006 6.408 6.48v.036c0 1.566-.558 3.06-1.494 4.212zm-6.57-.414c1.116 0 2.124-.342 2.916-.936l-2.358-2.016.954-1.062 2.358 2.142c.684-.9 1.062-2.034 1.062-3.294v-.036c0-2.862-2.088-5.202-4.968-5.202s-4.932 2.304-4.932 5.166v.036c0 2.862 2.088 5.202 4.968 5.202zm12.6 1.296c-2.25 0-3.564-1.512-3.564-3.726v-5.778h1.386v5.436c0 1.728.936 2.808 2.574 2.808 1.584 0 2.79-1.17 2.79-2.916v-5.328h1.368v9.306h-1.368v-1.62c-.63 1.008-1.584 1.818-3.186 1.818zm11.736.018c-2.556 0-4.644-1.962-4.644-4.842v-.036c0-2.682 1.89-4.842 4.464-4.842 2.754 0 4.338 2.196 4.338 4.914 0 .18 0 .288-.018.45h-7.38c.198 2.016 1.62 3.15 3.276 3.15 1.278 0 2.178-.522 2.934-1.314l.864.774c-.936 1.044-2.07 1.746-3.834 1.746zm-3.24-5.382h5.994c-.144-1.692-1.116-3.168-2.97-3.168-1.62 0-2.844 1.35-3.024 3.168zm9.828 5.166v-9.306h1.386v2.43c.684-1.548 2.034-2.664 3.798-2.592v1.494h-.108c-2.034 0-3.69 1.458-3.69 4.266v3.708zm11.268-1.548 2.988-7.758h1.476l-3.906 9.612c-.792 1.926-1.692 2.628-3.096 2.628-.774 0-1.35-.162-1.98-.468l.468-1.098c.45.234.864.342 1.458.342.828 0 1.35-.432 1.908-1.746l-4.23-9.27h1.53z" fill="#fff"/><g fill-rule="nonzero"><path d="m56.9 5.3c-27.6 0-51 9.1-51 19.8 0 10.8 23.4 19.8 51 19.8 26.6 0 49.4-8.4 50.9-18.8h.1l-.1-1.5c-.5-9.3-20.2-19.3-50.9-19.3z" fill="url(#d)"/><path d="m153.4 142.9c-30.6 0-54.7-10.2-56.1-23.8l-.1-.6v-93.3-.4c.4-14.1 24.5-24.7 56.2-24.7 32 0 56.2 10.8 56.2 25 0 .4 0 .7-.1 1v92.9.1c-1.4 13.5-25.6 23.8-56.1 23.8z" fill="#fff"/><g transform="translate(97)"><path d="m6.8 38.9v78.9c0 8.7 20.4 18.5 49.6 18.5 28.3 0 48.3-9.1 49.5-17.6v-79.7c-9.9 7.7-28 12.6-49.5 12.6-21.7-.1-39.8-5-49.6-12.7z" fill="url(#e)"/><path d="m56.4 142.9c-30.6 0-54.7-10.2-56.1-23.8l-.1-.6v-93.3-.4c.4-14.1 24.5-24.7 56.2-24.7 32 0 56.2 10.8 56.2 25 0 .4 0 .7-.1 1v92.9.1c-1.4 13.5-25.6 23.8-56.1 23.8zm0-137.6c-27.6 0-51 9.1-51 19.8 0 10.8 23.4 19.8 51 19.8 26.6 0 49.4-8.4 50.9-18.8h.1l-.1-1.5c-.6-9.3-20.2-19.3-50.9-19.3z" fill="url(#f)" opacity=".8"/><path d="m56.4 5.3c-27.6 0-51 9.1-51 19.8 0 10.8 23.4 19.8 51 19.8 26.6 0 49.4-8.4 50.9-18.8h.1l-.1-1.5c-.6-9.3-20.2-19.3-50.9-19.3z" fill="url(#g)"/></g></g><g fill="#fff" transform="translate(124.0183 72.1976)"><path d="m6.632 14.216c-3.96 0-6.408-2.88-6.408-6.48v-.036c0-3.456 2.538-6.516 6.318-6.516 2.124 0 3.438.612 4.698 1.674l-.918 1.08c-.972-.846-2.052-1.44-3.834-1.44-2.79 0-4.788 2.358-4.788 5.166v.036c0 3.006 1.926 5.238 4.986 5.238 1.44 0 2.772-.558 3.636-1.26v-3.132h-3.834v-1.278h5.202v5.022c-1.17 1.044-2.934 1.926-5.058 1.926zm8.154-.216v-13.14h1.386v13.14zm8.856.216c-2.79 0-4.824-2.196-4.824-4.824v-.036c0-2.628 2.052-4.86 4.86-4.86 2.79 0 4.842 2.196 4.842 4.824v.036c0 2.628-2.07 4.86-4.878 4.86zm.036-1.242c2.016 0 3.42-1.62 3.42-3.582v-.036c0-1.998-1.494-3.636-3.456-3.636-2.016 0-3.402 1.638-3.402 3.6v.036c0 1.998 1.476 3.618 3.438 3.618zm12.294 1.224c-1.728 0-2.844-.936-3.564-1.98v1.782h-1.386v-13.14h1.386v5.706c.756-1.116 1.854-2.07 3.564-2.07 2.232 0 4.446 1.764 4.446 4.824v.036c0 3.042-2.196 4.842-4.446 4.842zm-.252-1.242c1.8 0 3.276-1.332 3.276-3.582v-.036c0-2.196-1.512-3.6-3.276-3.6-1.728 0-3.366 1.458-3.366 3.582v.036c0 2.16 1.638 3.6 3.366 3.6zm10.026 1.242c-1.728 0-3.474-.99-3.474-2.898v-.036c0-1.962 1.62-3.006 3.978-3.006 1.188 0 2.034.162 2.862.396v-.324c0-1.674-1.026-2.538-2.772-2.538-1.098 0-1.962.288-2.826.684l-.414-1.134c1.026-.468 2.034-.774 3.384-.774 1.314 0 2.322.342 3.006 1.026.63.63.954 1.53.954 2.718v5.688h-1.332v-1.404c-.648.846-1.728 1.602-3.366 1.602zm.27-1.098c1.71 0 3.114-1.044 3.114-2.52v-.9c-.684-.198-1.602-.396-2.736-.396-1.746 0-2.718.756-2.718 1.926v.036c0 1.17 1.08 1.854 2.34 1.854zm7.506.9v-13.14h1.386v13.14z"/><path d="m5.24534 33.3v-12.6h1.422v12.6zm4.878 0v-9.306h1.386v1.62c.612-1.008 1.584-1.818 3.186-1.818 2.25 0 3.564 1.512 3.564 3.726v5.778h-1.386v-5.436c0-1.728-.936-2.808-2.574-2.808-1.602 0-2.79 1.17-2.79 2.916v5.328zm14.994.198c-2.232 0-4.446-1.764-4.446-4.824v-.036c0-3.042 2.214-4.842 4.446-4.842 1.728 0 2.844.936 3.564 1.98v-5.616h1.386v13.14h-1.386v-1.872c-.756 1.116-1.854 2.07-3.564 2.07zm.252-1.242c1.728 0 3.366-1.458 3.366-3.6v-.036c0-2.142-1.638-3.582-3.366-3.582-1.8 0-3.276 1.332-3.276 3.582v.036c0 2.196 1.512 3.6 3.276 3.6zm11.862 1.26c-2.556 0-4.644-1.962-4.644-4.842v-.036c0-2.682 1.89-4.842 4.464-4.842 2.754 0 4.338 2.196 4.338 4.914 0 .18 0 .288-.018.45h-7.38c.198 2.016 1.62 3.15 3.276 3.15 1.278 0 2.178-.522 2.934-1.314l.864.774c-.936 1.044-2.07 1.746-3.834 1.746zm-3.24-5.382h5.994c-.144-1.692-1.116-3.168-2.97-3.168-1.62 0-2.844 1.35-3.024 3.168zm10.17-4.14 2.736 3.636 2.772-3.636h1.548l-3.528 4.554 3.672 4.752h-1.602l-2.88-3.834-2.898 3.834h-1.548l3.636-4.734-3.492-4.572z"/></g><path d="m248 143.9c-30.6 0-54.7-10.2-56.1-23.8l-.1-.6v-93.2-.4c.4-14.1 24.5-24.7 56.2-24.7 32 0 56.2 10.8 56.2 25 0 .4 0 .7-.1 1v92.9.1c-1.4 13.5-25.5 23.7-56.1 23.7z" fill="#fff" fill-rule="nonzero"/><g transform="translate(191 1)"><g fill-rule="nonzero"><path d="m7.4 39v78.9c0 8.7 20.4 18.5 49.6 18.5 28.3 0 48.3-9.1 49.5-17.6v-79.8c-9.9 7.7-28 12.6-49.5 12.6-21.6 0-39.7-5-49.6-12.6z" fill="url(#h)"/><path d="m57 142.9c-30.6 0-54.7-10.2-56.1-23.8l-.1-.6v-93.2-.4c.4-14.1 24.5-24.7 56.2-24.7 32 0 56.2 10.8 56.2 25 0 .4 0 .7-.1 1v92.9.1c-1.4 13.5-25.5 23.7-56.1 23.7zm0-137.6c-27.6 0-51 9.1-51 19.8 0 10.8 23.4 19.8 51 19.8 26.6 0 49.4-8.4 50.9-18.8h.1l-.1-1.5c-.5-9.2-20.2-19.3-50.9-19.3z" fill="url(#i)" opacity=".8"/><path d="m57 5.3c-27.6 0-51 9.1-51 19.8 0 10.8 23.4 19.8 51 19.8 26.6 0 49.4-8.4 50.9-18.8h.1l-.1-1.5c-.5-9.2-20.2-19.3-50.9-19.3z" fill="url(#j)"/></g><path d="m35.6165 94.5716v-12.6h4.374c3.96 0 6.696 2.718 6.696 6.264v.036c0 3.546-2.736 6.3-6.696 6.3zm4.374-11.286h-2.952v9.972h2.952c3.186 0 5.22-2.16 5.22-4.95v-.036c0-2.79-2.034-4.986-5.22-4.986zm12.24 11.484c-1.728 0-3.474-.99-3.474-2.898v-.036c0-1.962 1.62-3.006 3.978-3.006 1.188 0 2.034.162 2.862.396v-.324c0-1.674-1.026-2.538-2.772-2.538-1.098 0-1.962.288-2.826.684l-.414-1.134c1.026-.468 2.034-.774 3.384-.774 1.314 0 2.322.342 3.006 1.026.63.63.954 1.53.954 2.718v5.688h-1.332v-1.404c-.648.846-1.728 1.602-3.366 1.602zm.27-1.098c1.71 0 3.114-1.044 3.114-2.52v-.9c-.684-.198-1.602-.396-2.736-.396-1.746 0-2.718.756-2.718 1.926v.036c0 1.17 1.08 1.854 2.34 1.854zm10.404 1.062c-1.494 0-2.628-.738-2.628-2.628v-5.616h-1.296v-1.224h1.296v-2.808h1.386v2.808h2.952v1.224h-2.952v5.436c0 1.134.63 1.548 1.566 1.548.468 0 .864-.09 1.35-.324v1.188c-.486.252-1.008.396-1.674.396zm6.93.036c-1.728 0-3.474-.99-3.474-2.898v-.036c0-1.962 1.62-3.006 3.978-3.006 1.188 0 2.034.162 2.862.396v-.324c0-1.674-1.026-2.538-2.772-2.538-1.098 0-1.962.288-2.826.684l-.414-1.134c1.026-.468 2.034-.774 3.384-.774 1.314 0 2.322.342 3.006 1.026.63.63.954 1.53.954 2.718v5.688h-1.332v-1.404c-.648.846-1.728 1.602-3.366 1.602zm.27-1.098c1.71 0 3.114-1.044 3.114-2.52v-.9c-.684-.198-1.602-.396-2.736-.396-1.746 0-2.718.756-2.718 1.926v.036c0 1.17 1.08 1.854 2.34 1.854z" fill="#fff"/></g><path d="m341.1 143.9c-30.6 0-54.7-10.2-56.1-23.8l-.1-.6v-93.2-.4c.4-14.1 24.5-24.7 56.2-24.7 32 0 56.2 10.8 56.2 25 0 .4 0 .7-.1 1v92.9.1c-1.4 13.5-25.5 23.7-56.1 23.7z" fill="#fff" fill-rule="nonzero"/><path d="m291.5 40v78.9c0 8.7 20.4 18.5 49.6 18.5 28.3 0 48.3-9.1 49.5-17.6v-79.8c-9.9 7.7-28 12.6-49.5 12.6-21.6 0-39.7-5-49.6-12.6z" fill="url(#l)" fill-rule="nonzero"/><g transform="translate(284 1)"><path d="m57.1 5.3c-27.6 0-51 9.1-51 19.8 0 10.8 23.4 19.8 51 19.8 26.6 0 49.4-8.4 50.9-18.8h.1l-.1-1.5c-.5-9.2-20.2-19.3-50.9-19.3z" fill="url(#m)" fill-rule="nonzero"/><path d="m57.1 142.9c-30.6 0-54.7-10.2-56.1-23.8l-.1-.6v-93.2-.4c.4-14.1 24.5-24.7 56.2-24.7 32 0 56.2 10.8 56.2 25 0 .4 0 .7-.1 1v92.9.1c-1.4 13.5-25.5 23.7-56.1 23.7zm0-137.6c-27.6 0-51 9.1-51 19.8 0 10.8 23.4 19.8 51 19.8 26.6 0 49.4-8.4 50.9-18.8h.1l-.1-1.5c-.5-9.2-20.2-19.3-50.9-19.3z" fill="url(#n)" fill-rule="nonzero" opacity=".8"/><g fill="#fff"><path d="m40.4731 83.1976v-12.6h9.378v2.016h-7.164v3.438h6.354v2.016h-6.354v5.13zm14.832.198c-2.142 0-3.384-1.44-3.384-3.654v-6.048h2.178v5.4c0 1.476.738 2.304 2.034 2.304 1.26 0 2.142-.864 2.142-2.34v-5.364h2.196v9.504h-2.196v-1.476c-.612.9-1.494 1.674-2.97 1.674zm7.992-.198v-13.14h2.196v13.14zm5.148 0v-13.14h2.196v13.14z"/><g transform="translate(36 89)"><path d="m4.79154 13.4976v-10.548h-4.014v-2.052h10.242v2.052h-4.014v10.548z"/><path d="m16.55762 13.7136c-2.754 0-4.878-1.998-4.878-4.932v-.036c0-2.718 1.926-4.95 4.644-4.95 3.024 0 4.554 2.376 4.554 5.112 0 .198-.018.396-.036.612h-6.984c.234 1.548 1.332 2.412 2.736 2.412 1.062 0 1.818-.396 2.574-1.134l1.278 1.134c-.9 1.08-2.142 1.782-3.888 1.782zm-2.718-5.634h4.878c-.144-1.404-.972-2.502-2.412-2.502-1.332 0-2.268 1.026-2.466 2.502z"/><path d="m24.40916 3.9936 2.178 3.186 2.214-3.186h2.322l-3.348 4.644 3.492 4.86h-2.376l-2.34-3.384-2.322 3.384h-2.322l3.474-4.842-3.348-4.662zm11.952 9.666c-1.602 0-2.736-.702-2.736-2.79v-5.004h-1.206v-1.872h1.206v-2.61h2.178v2.61h2.556v1.872h-2.556v4.662c0 .846.432 1.188 1.17 1.188.486 0 .918-.108 1.35-.324v1.782c-.54.306-1.134.486-1.962.486z"/></g></g></g><path d="m433.1 143.9c-30.6 0-54.7-10.2-56.1-23.8l-.1-.6v-93.2-.4c.4-14.1 24.5-24.7 56.2-24.7 32 0 56.2 10.8 56.2 25 0 .4 0 .7-.1 1v92.9.1c-1.4 13.5-25.5 23.7-56.1 23.7z" fill="#fff" fill-rule="nonzero"/><g transform="translate(376 1)"><g fill-rule="nonzero"><path d="m7.5 39v78.9c0 8.7 20.4 18.5 49.6 18.5 28.3 0 48.3-9.1 49.5-17.6v-79.8c-9.9 7.7-28 12.6-49.5 12.6-21.6 0-39.7-5-49.6-12.6z" fill="url(#o)"/><path d="m57.1 142.9c-30.6 0-54.7-10.2-56.1-23.8l-.1-.6v-93.2-.4c.4-14.1 24.5-24.7 56.2-24.7 32 0 56.2 10.8 56.2 25 0 .4 0 .7-.1 1v92.9.1c-1.4 13.5-25.5 23.7-56.1 23.7zm0-137.6c-27.6 0-51 9.1-51 19.8 0 10.8 23.4 19.8 51 19.8 26.6 0 49.4-8.4 50.9-18.8h.1l-.1-1.5c-.5-9.2-20.2-19.3-50.9-19.3z" fill="url(#p)" opacity=".8"/><path d="m57.1 5.3c-27.6 0-51 9.1-51 19.8 0 10.8 23.4 19.8 51 19.8 26.6 0 49.4-8.4 50.9-18.8h.1l-.1-1.5c-.5-9.2-20.2-19.3-50.9-19.3z" fill="url(#q)"/></g><path d="m17.3986 92.0374 5.742-12.69h1.332l5.742 12.69h-1.53l-1.476-3.33h-6.858l-1.494 3.33zm3.51-4.608h5.742l-2.862-6.426zm11.556 4.608v-9.306h1.386v1.62c.612-1.008 1.584-1.818 3.186-1.818 2.25 0 3.564 1.512 3.564 3.726v5.778h-1.386v-5.436c0-1.728-.936-2.808-2.574-2.808-1.602 0-2.79 1.17-2.79 2.916v5.328zm13.86.198c-1.728 0-3.474-.99-3.474-2.898v-.036c0-1.962 1.62-3.006 3.978-3.006 1.188 0 2.034.162 2.862.396v-.324c0-1.674-1.026-2.538-2.772-2.538-1.098 0-1.962.288-2.826.684l-.414-1.134c1.026-.468 2.034-.774 3.384-.774 1.314 0 2.322.342 3.006 1.026.63.63.954 1.53.954 2.718v5.688h-1.332v-1.404c-.648.846-1.728 1.602-3.366 1.602zm.27-1.098c1.71 0 3.114-1.044 3.114-2.52v-.9c-.684-.198-1.602-.396-2.736-.396-1.746 0-2.718.756-2.718 1.926v.036c0 1.17 1.08 1.854 2.34 1.854zm7.506.9v-13.14h1.386v13.14zm8.586-1.548 2.988-7.758h1.476l-3.906 9.612c-.792 1.926-1.692 2.628-3.096 2.628-.774 0-1.35-.162-1.98-.468l.468-1.098c.45.234.864.342 1.458.342.828 0 1.35-.432 1.908-1.746l-4.23-9.27h1.53zm9.774 1.71c-1.494 0-2.628-.738-2.628-2.628v-5.616h-1.296v-1.224h1.296v-2.808h1.386v2.808h2.952v1.224h-2.952v5.436c0 1.134.63 1.548 1.566 1.548.468 0 .864-.09 1.35-.324v1.188c-.486.252-1.008.396-1.674.396zm4.194-11.502v-1.53h1.584v1.53zm.09 11.34v-9.306h1.386v9.306zm8.802.216c-2.718 0-4.77-2.214-4.77-4.824v-.036c0-2.628 2.052-4.86 4.77-4.86 1.764 0 2.862.738 3.726 1.656l-.918.972c-.738-.774-1.566-1.404-2.826-1.404-1.89 0-3.33 1.602-3.33 3.6v.036c0 2.016 1.476 3.618 3.42 3.618 1.188 0 2.106-.594 2.844-1.386l.882.828c-.936 1.044-2.052 1.8-3.798 1.8zm9.162-.036c-1.332 0-2.808-.522-3.852-1.368l.702-.99c1.008.756 2.124 1.188 3.222 1.188 1.116 0 1.926-.576 1.926-1.476v-.036c0-.936-1.098-1.296-2.322-1.638-1.458-.414-3.078-.918-3.078-2.628v-.036c0-1.602 1.332-2.664 3.168-2.664 1.134 0 2.394.396 3.348 1.026l-.63 1.044c-.864-.558-1.854-.9-2.754-.9-1.098 0-1.8.576-1.8 1.35v.036c0 .882 1.152 1.224 2.394 1.602 1.44.432 2.988.99 2.988 2.664v.036c0 1.764-1.458 2.79-3.312 2.79z" fill="#fff"/></g></g></g></svg>